M48
; DRILL file {KiCad 9.0.7} date 2026-01-19T10:29:32-0600
; FORMAT={-:-/ absolute / metric / decimal}
; #@! TF.CreationDate,2026-01-19T10:29:32-06:00
; #@! TF.GenerationSoftware,Kicad,Pcbnew,9.0.7
; #@! TF.FileFunction,Plated,1,4,PTH
FMAT,2
METRIC
; #@! TA.AperFunction,Plated,PTH,ViaDrill
T1C0.300
; #@! TA.AperFunction,Plated,PTH,ComponentDrill
T2C0.700
; #@! TA.AperFunction,Plated,PTH,ComponentDrill
T3C0.800
; #@! TA.AperFunction,Plated,PTH,ComponentDrill
T4C0.900
; #@! TA.AperFunction,Plated,PTH,ComponentDrill
T5C1.020
; #@! TA.AperFunction,Plated,PTH,ComponentDrill
T6C1.100
; #@! TA.AperFunction,Plated,PTH,ComponentDrill
T7C1.190
; #@! TA.AperFunction,Plated,PTH,ComponentDrill
T8C1.700
; #@! TA.AperFunction,Plated,PTH,ComponentDrill
T9C3.050
; #@! TA.AperFunction,Plated,PTH,ComponentDrill
T10C3.500
%
G90
G05
T1
X106.6Y-93.0
X106.6Y-113.6
X107.0Y-73.8
X108.135Y-127.389
X108.397Y-60.055
X113.4Y-108.25
X113.4Y-125.75
X113.75Y-93.25
X114.292Y-80.229
X115.0Y-115.75
X115.0Y-126.75
X115.5Y-106.75
X115.733Y-58.745
X116.325Y-127.0
X116.335Y-136.665
X117.575Y-127.0
X117.75Y-136.0
X118.25Y-107.5
X118.75Y-127.0
X119.2Y-49.0
X120.0Y-86.5
X120.0Y-108.75
X121.0Y-110.25
X122.5Y-111.0
X122.6Y-54.6
X123.75Y-112.0
X124.2Y-69.4
X125.0Y-113.0
X126.75Y-113.75
X128.0Y-115.25
X129.0Y-62.2
X129.5Y-116.25
X131.0Y-46.6
X133.25Y-116.75
X135.75Y-117.75
X137.0Y-121.4
X138.2Y-124.4
X139.6Y-122.8
X139.782Y-115.532
X140.8Y-122.6
X141.0Y-43.0
X141.0Y-45.0
X141.0Y-48.5
X141.0Y-53.0
X141.25Y-64.25
X142.05Y-122.16
X142.457Y-72.631
X143.25Y-122.0
X144.325Y-123.4
X144.5Y-66.75
X144.75Y-133.75
X146.4Y-120.2
X146.591Y-123.0
X148.0Y-134.0
X148.75Y-104.5
X148.75Y-106.5
X148.75Y-108.25
X148.75Y-109.75
X148.75Y-111.25
X148.75Y-112.5
X148.75Y-113.75
X148.75Y-115.0
X148.75Y-116.5
X148.75Y-117.75
X148.75Y-119.0
X148.75Y-120.0
X150.0Y-134.0
X151.25Y-66.75
X152.2Y-72.2
X152.25Y-134.5
X153.5Y-88.75
X153.75Y-91.0
X153.75Y-135.0
X154.8Y-137.2
X156.25Y-121.0
X156.25Y-122.25
X156.4Y-135.2
X156.5Y-118.0
X157.25Y-87.25
X157.25Y-94.25
X157.25Y-123.0
X157.75Y-121.75
X158.0Y-66.75
X158.0Y-137.4
X158.75Y-88.75
X158.75Y-94.0
X158.75Y-123.25
X159.0Y-134.2
X160.0Y-120.575
X160.0Y-123.75
X161.0Y-121.5
X161.0Y-123.5
X161.0Y-137.4
X161.25Y-80.25
X162.0Y-121.25
X162.0Y-124.0
X162.2Y-134.8
X162.75Y-92.25
X163.0Y-119.0
X163.0Y-120.0
X163.25Y-136.75
X163.75Y-93.25
X163.75Y-104.0
X164.0Y-66.5
X164.0Y-80.25
X164.5Y-78.0
X165.0Y-94.5
X165.325Y-113.5
X165.75Y-61.25
X165.75Y-106.75
X165.75Y-109.0
X165.75Y-111.0
X166.0Y-42.75
X166.0Y-47.0
X166.0Y-54.0
X166.0Y-104.0
X166.25Y-133.75
X166.25Y-135.0
X166.5Y-78.0
X167.0Y-137.8
X167.5Y-96.25
X170.5Y-133.75
X170.5Y-135.0
X174.2Y-58.4
X176.779Y-44.99
X178.613Y-66.998
X182.4Y-50.0
X186.4Y-135.2
X188.569Y-52.981
X188.825Y-88.6
X194.4Y-58.8
X194.4Y-68.4
X195.2Y-80.8
X196.8Y-94.4
X196.822Y-107.477
T2
X141.5Y-58.5
X141.5Y-61.0
T3
X123.75Y-88.85
X123.75Y-91.39
X135.99Y-84.938
X135.99Y-86.938
X135.99Y-88.938
X137.99Y-84.938
X137.99Y-86.938
X137.99Y-88.938
T4
X148.27Y-46.475
X149.54Y-43.935
X150.81Y-46.475
X152.08Y-43.935
X153.35Y-46.475
X154.62Y-43.935
X155.89Y-46.475
X157.16Y-43.935
T5
X146.39Y-57.725
X148.93Y-56.205
X156.5Y-57.725
X159.04Y-56.205
T6
X123.02Y-82.5
X123.02Y-97.74
X125.56Y-82.5
X125.56Y-85.04
X125.56Y-97.74
X128.1Y-82.5
X128.1Y-97.74
X129.319Y-94.689
X130.64Y-82.5
X130.64Y-97.74
X131.859Y-94.689
X133.18Y-82.5
X133.18Y-97.74
X134.399Y-94.689
X135.72Y-82.5
X135.72Y-97.74
X136.939Y-94.689
X138.26Y-82.5
X138.26Y-97.74
X139.479Y-94.689
X140.8Y-82.5
X140.8Y-97.74
X143.34Y-82.5
X143.34Y-97.74
X145.88Y-82.5
X145.88Y-97.74
X148.42Y-82.5
X148.42Y-97.74
X150.96Y-82.5
X150.96Y-97.74
X153.5Y-82.5
X153.5Y-97.74
X156.04Y-82.5
X156.04Y-97.74
X158.58Y-82.5
X158.58Y-97.74
X161.12Y-82.5
X161.12Y-97.74
X163.66Y-82.5
X163.66Y-97.74
X166.2Y-82.5
X166.2Y-97.74
X168.74Y-82.5
X168.74Y-97.74
X171.28Y-82.5
X171.28Y-97.74
X173.82Y-82.5
X173.82Y-97.74
X176.36Y-82.5
X176.36Y-97.74
X178.9Y-82.5
X178.9Y-97.74
X181.44Y-82.5
X181.44Y-97.74
T7
X135.84Y-126.275
X136.93Y-128.815
X138.12Y-126.275
X138.12Y-131.355
X139.22Y-128.815
X140.36Y-126.275
X140.36Y-131.355
X141.51Y-128.815
X142.65Y-126.275
X142.65Y-131.355
X143.8Y-128.815
X144.94Y-126.275
X144.94Y-131.355
X146.09Y-128.815
X147.23Y-126.275
X147.23Y-131.355
X148.38Y-128.815
X149.52Y-126.275
X149.52Y-131.355
X150.67Y-128.815
X151.81Y-126.275
X151.81Y-131.355
X152.96Y-128.815
X154.1Y-126.275
X154.1Y-131.355
X155.25Y-128.815
X156.39Y-126.275
X156.39Y-131.355
X157.54Y-128.815
X158.68Y-126.275
X158.68Y-131.355
X159.83Y-128.815
X160.97Y-126.275
X160.97Y-131.355
X162.12Y-128.815
X163.26Y-126.275
X163.26Y-131.355
X164.41Y-128.815
X165.55Y-126.275
X165.55Y-131.355
X166.7Y-128.815
X167.84Y-126.275
X167.84Y-131.355
X168.99Y-128.815
T8
X144.84Y-49.775
X160.59Y-49.775
T9
X128.83Y-128.815
X175.87Y-128.815
T10
X107.25Y-45.87
X107.25Y-135.87
X197.25Y-45.87
X197.46Y-135.87
M30
