%TF.GenerationSoftware,KiCad,Pcbnew,9.0.7*%
%TF.CreationDate,2026-01-19T10:29:32-06:00*%
%TF.ProjectId,Teensy_Daughtercard,5465656e-7379-45f4-9461-756768746572,rev?*%
%TF.SameCoordinates,Original*%
%TF.FileFunction,Drillmap*%
%TF.FilePolarity,Positive*%
%FSLAX45Y45*%
G04 Gerber Fmt 4.5, Leading zero omitted, Abs format (unit mm)*
G04 Created by KiCad (PCBNEW 9.0.7) date 2026-01-19 10:29:32*
%MOMM*%
%LPD*%
G01*
G04 APERTURE LIST*
%ADD10C,0.050000*%
%ADD11C,0.200000*%
%ADD12C,0.320000*%
G04 APERTURE END LIST*
D10*
X10725000Y-14087000D02*
G75*
G02*
X10225000Y-13587000I0J500000D01*
G01*
X20225000Y-4587000D02*
X20225000Y-13587000D01*
X19725000Y-14087000D02*
X10725000Y-14087000D01*
X20225000Y-13587000D02*
G75*
G02*
X19725000Y-14087000I-500000J0D01*
G01*
X10725000Y-4087000D02*
X19725000Y-4087000D01*
X10225000Y-4587000D02*
G75*
G02*
X10725000Y-4087000I500000J0D01*
G01*
X10225000Y-13587000D02*
X10225000Y-4587000D01*
X19725000Y-4087000D02*
G75*
G02*
X20225000Y-4587000I0J-500000D01*
G01*
D11*
D12*
X14540000Y-5122500D02*
X14860000Y-5442500D01*
X14860000Y-5122500D02*
X14540000Y-5442500D01*
X15683000Y-5122500D02*
X16003000Y-5442500D01*
X16003000Y-5122500D02*
X15683000Y-5442500D01*
D11*
X10483277Y-14400984D02*
X10483277Y-14200984D01*
X10483277Y-14200984D02*
X10530896Y-14200984D01*
X10530896Y-14200984D02*
X10559467Y-14210508D01*
X10559467Y-14210508D02*
X10578515Y-14229555D01*
X10578515Y-14229555D02*
X10588039Y-14248603D01*
X10588039Y-14248603D02*
X10597563Y-14286698D01*
X10597563Y-14286698D02*
X10597563Y-14315269D01*
X10597563Y-14315269D02*
X10588039Y-14353365D01*
X10588039Y-14353365D02*
X10578515Y-14372412D01*
X10578515Y-14372412D02*
X10559467Y-14391460D01*
X10559467Y-14391460D02*
X10530896Y-14400984D01*
X10530896Y-14400984D02*
X10483277Y-14400984D01*
X10683277Y-14400984D02*
X10683277Y-14267650D01*
X10683277Y-14305746D02*
X10692801Y-14286698D01*
X10692801Y-14286698D02*
X10702324Y-14277174D01*
X10702324Y-14277174D02*
X10721372Y-14267650D01*
X10721372Y-14267650D02*
X10740420Y-14267650D01*
X10807086Y-14400984D02*
X10807086Y-14267650D01*
X10807086Y-14200984D02*
X10797563Y-14210508D01*
X10797563Y-14210508D02*
X10807086Y-14220031D01*
X10807086Y-14220031D02*
X10816610Y-14210508D01*
X10816610Y-14210508D02*
X10807086Y-14200984D01*
X10807086Y-14200984D02*
X10807086Y-14220031D01*
X10930896Y-14400984D02*
X10911848Y-14391460D01*
X10911848Y-14391460D02*
X10902324Y-14372412D01*
X10902324Y-14372412D02*
X10902324Y-14200984D01*
X11035658Y-14400984D02*
X11016610Y-14391460D01*
X11016610Y-14391460D02*
X11007086Y-14372412D01*
X11007086Y-14372412D02*
X11007086Y-14200984D01*
X11264229Y-14400984D02*
X11264229Y-14200984D01*
X11264229Y-14200984D02*
X11330896Y-14343841D01*
X11330896Y-14343841D02*
X11397562Y-14200984D01*
X11397562Y-14200984D02*
X11397562Y-14400984D01*
X11578515Y-14400984D02*
X11578515Y-14296222D01*
X11578515Y-14296222D02*
X11568991Y-14277174D01*
X11568991Y-14277174D02*
X11549943Y-14267650D01*
X11549943Y-14267650D02*
X11511848Y-14267650D01*
X11511848Y-14267650D02*
X11492801Y-14277174D01*
X11578515Y-14391460D02*
X11559467Y-14400984D01*
X11559467Y-14400984D02*
X11511848Y-14400984D01*
X11511848Y-14400984D02*
X11492801Y-14391460D01*
X11492801Y-14391460D02*
X11483277Y-14372412D01*
X11483277Y-14372412D02*
X11483277Y-14353365D01*
X11483277Y-14353365D02*
X11492801Y-14334317D01*
X11492801Y-14334317D02*
X11511848Y-14324793D01*
X11511848Y-14324793D02*
X11559467Y-14324793D01*
X11559467Y-14324793D02*
X11578515Y-14315269D01*
X11673753Y-14267650D02*
X11673753Y-14467650D01*
X11673753Y-14277174D02*
X11692801Y-14267650D01*
X11692801Y-14267650D02*
X11730896Y-14267650D01*
X11730896Y-14267650D02*
X11749943Y-14277174D01*
X11749943Y-14277174D02*
X11759467Y-14286698D01*
X11759467Y-14286698D02*
X11768991Y-14305746D01*
X11768991Y-14305746D02*
X11768991Y-14362888D01*
X11768991Y-14362888D02*
X11759467Y-14381936D01*
X11759467Y-14381936D02*
X11749943Y-14391460D01*
X11749943Y-14391460D02*
X11730896Y-14400984D01*
X11730896Y-14400984D02*
X11692801Y-14400984D01*
X11692801Y-14400984D02*
X11673753Y-14391460D01*
X11854705Y-14381936D02*
X11864229Y-14391460D01*
X11864229Y-14391460D02*
X11854705Y-14400984D01*
X11854705Y-14400984D02*
X11845182Y-14391460D01*
X11845182Y-14391460D02*
X11854705Y-14381936D01*
X11854705Y-14381936D02*
X11854705Y-14400984D01*
X11854705Y-14277174D02*
X11864229Y-14286698D01*
X11864229Y-14286698D02*
X11854705Y-14296222D01*
X11854705Y-14296222D02*
X11845182Y-14286698D01*
X11845182Y-14286698D02*
X11854705Y-14277174D01*
X11854705Y-14277174D02*
X11854705Y-14296222D01*
X10022500Y-14629500D02*
X10222500Y-14829500D01*
X10222500Y-14629500D02*
X10022500Y-14829500D01*
X10464229Y-14620984D02*
X10588039Y-14620984D01*
X10588039Y-14620984D02*
X10521372Y-14697174D01*
X10521372Y-14697174D02*
X10549944Y-14697174D01*
X10549944Y-14697174D02*
X10568991Y-14706698D01*
X10568991Y-14706698D02*
X10578515Y-14716222D01*
X10578515Y-14716222D02*
X10588039Y-14735269D01*
X10588039Y-14735269D02*
X10588039Y-14782888D01*
X10588039Y-14782888D02*
X10578515Y-14801936D01*
X10578515Y-14801936D02*
X10568991Y-14811460D01*
X10568991Y-14811460D02*
X10549944Y-14820984D01*
X10549944Y-14820984D02*
X10492801Y-14820984D01*
X10492801Y-14820984D02*
X10473753Y-14811460D01*
X10473753Y-14811460D02*
X10464229Y-14801936D01*
X10673753Y-14801936D02*
X10683277Y-14811460D01*
X10683277Y-14811460D02*
X10673753Y-14820984D01*
X10673753Y-14820984D02*
X10664229Y-14811460D01*
X10664229Y-14811460D02*
X10673753Y-14801936D01*
X10673753Y-14801936D02*
X10673753Y-14820984D01*
X10759467Y-14640031D02*
X10768991Y-14630508D01*
X10768991Y-14630508D02*
X10788039Y-14620984D01*
X10788039Y-14620984D02*
X10835658Y-14620984D01*
X10835658Y-14620984D02*
X10854705Y-14630508D01*
X10854705Y-14630508D02*
X10864229Y-14640031D01*
X10864229Y-14640031D02*
X10873753Y-14659079D01*
X10873753Y-14659079D02*
X10873753Y-14678127D01*
X10873753Y-14678127D02*
X10864229Y-14706698D01*
X10864229Y-14706698D02*
X10749944Y-14820984D01*
X10749944Y-14820984D02*
X10873753Y-14820984D01*
X10997563Y-14620984D02*
X11016610Y-14620984D01*
X11016610Y-14620984D02*
X11035658Y-14630508D01*
X11035658Y-14630508D02*
X11045182Y-14640031D01*
X11045182Y-14640031D02*
X11054705Y-14659079D01*
X11054705Y-14659079D02*
X11064229Y-14697174D01*
X11064229Y-14697174D02*
X11064229Y-14744793D01*
X11064229Y-14744793D02*
X11054705Y-14782888D01*
X11054705Y-14782888D02*
X11045182Y-14801936D01*
X11045182Y-14801936D02*
X11035658Y-14811460D01*
X11035658Y-14811460D02*
X11016610Y-14820984D01*
X11016610Y-14820984D02*
X10997563Y-14820984D01*
X10997563Y-14820984D02*
X10978515Y-14811460D01*
X10978515Y-14811460D02*
X10968991Y-14801936D01*
X10968991Y-14801936D02*
X10959467Y-14782888D01*
X10959467Y-14782888D02*
X10949944Y-14744793D01*
X10949944Y-14744793D02*
X10949944Y-14697174D01*
X10949944Y-14697174D02*
X10959467Y-14659079D01*
X10959467Y-14659079D02*
X10968991Y-14640031D01*
X10968991Y-14640031D02*
X10978515Y-14630508D01*
X10978515Y-14630508D02*
X10997563Y-14620984D01*
X11188039Y-14620984D02*
X11207086Y-14620984D01*
X11207086Y-14620984D02*
X11226134Y-14630508D01*
X11226134Y-14630508D02*
X11235658Y-14640031D01*
X11235658Y-14640031D02*
X11245182Y-14659079D01*
X11245182Y-14659079D02*
X11254705Y-14697174D01*
X11254705Y-14697174D02*
X11254705Y-14744793D01*
X11254705Y-14744793D02*
X11245182Y-14782888D01*
X11245182Y-14782888D02*
X11235658Y-14801936D01*
X11235658Y-14801936D02*
X11226134Y-14811460D01*
X11226134Y-14811460D02*
X11207086Y-14820984D01*
X11207086Y-14820984D02*
X11188039Y-14820984D01*
X11188039Y-14820984D02*
X11168991Y-14811460D01*
X11168991Y-14811460D02*
X11159467Y-14801936D01*
X11159467Y-14801936D02*
X11149944Y-14782888D01*
X11149944Y-14782888D02*
X11140420Y-14744793D01*
X11140420Y-14744793D02*
X11140420Y-14697174D01*
X11140420Y-14697174D02*
X11149944Y-14659079D01*
X11149944Y-14659079D02*
X11159467Y-14640031D01*
X11159467Y-14640031D02*
X11168991Y-14630508D01*
X11168991Y-14630508D02*
X11188039Y-14620984D01*
X11340420Y-14820984D02*
X11340420Y-14687650D01*
X11340420Y-14706698D02*
X11349943Y-14697174D01*
X11349943Y-14697174D02*
X11368991Y-14687650D01*
X11368991Y-14687650D02*
X11397563Y-14687650D01*
X11397563Y-14687650D02*
X11416610Y-14697174D01*
X11416610Y-14697174D02*
X11426134Y-14716222D01*
X11426134Y-14716222D02*
X11426134Y-14820984D01*
X11426134Y-14716222D02*
X11435658Y-14697174D01*
X11435658Y-14697174D02*
X11454705Y-14687650D01*
X11454705Y-14687650D02*
X11483277Y-14687650D01*
X11483277Y-14687650D02*
X11502324Y-14697174D01*
X11502324Y-14697174D02*
X11511848Y-14716222D01*
X11511848Y-14716222D02*
X11511848Y-14820984D01*
X11607086Y-14820984D02*
X11607086Y-14687650D01*
X11607086Y-14706698D02*
X11616610Y-14697174D01*
X11616610Y-14697174D02*
X11635658Y-14687650D01*
X11635658Y-14687650D02*
X11664229Y-14687650D01*
X11664229Y-14687650D02*
X11683277Y-14697174D01*
X11683277Y-14697174D02*
X11692801Y-14716222D01*
X11692801Y-14716222D02*
X11692801Y-14820984D01*
X11692801Y-14716222D02*
X11702324Y-14697174D01*
X11702324Y-14697174D02*
X11721372Y-14687650D01*
X11721372Y-14687650D02*
X11749943Y-14687650D01*
X11749943Y-14687650D02*
X11768991Y-14697174D01*
X11768991Y-14697174D02*
X11778515Y-14716222D01*
X11778515Y-14716222D02*
X11778515Y-14820984D01*
X12168991Y-14611460D02*
X11997563Y-14868603D01*
X12426134Y-14620984D02*
X12445182Y-14620984D01*
X12445182Y-14620984D02*
X12464229Y-14630508D01*
X12464229Y-14630508D02*
X12473753Y-14640031D01*
X12473753Y-14640031D02*
X12483277Y-14659079D01*
X12483277Y-14659079D02*
X12492801Y-14697174D01*
X12492801Y-14697174D02*
X12492801Y-14744793D01*
X12492801Y-14744793D02*
X12483277Y-14782888D01*
X12483277Y-14782888D02*
X12473753Y-14801936D01*
X12473753Y-14801936D02*
X12464229Y-14811460D01*
X12464229Y-14811460D02*
X12445182Y-14820984D01*
X12445182Y-14820984D02*
X12426134Y-14820984D01*
X12426134Y-14820984D02*
X12407086Y-14811460D01*
X12407086Y-14811460D02*
X12397563Y-14801936D01*
X12397563Y-14801936D02*
X12388039Y-14782888D01*
X12388039Y-14782888D02*
X12378515Y-14744793D01*
X12378515Y-14744793D02*
X12378515Y-14697174D01*
X12378515Y-14697174D02*
X12388039Y-14659079D01*
X12388039Y-14659079D02*
X12397563Y-14640031D01*
X12397563Y-14640031D02*
X12407086Y-14630508D01*
X12407086Y-14630508D02*
X12426134Y-14620984D01*
X12578515Y-14801936D02*
X12588039Y-14811460D01*
X12588039Y-14811460D02*
X12578515Y-14820984D01*
X12578515Y-14820984D02*
X12568991Y-14811460D01*
X12568991Y-14811460D02*
X12578515Y-14801936D01*
X12578515Y-14801936D02*
X12578515Y-14820984D01*
X12778515Y-14820984D02*
X12664229Y-14820984D01*
X12721372Y-14820984D02*
X12721372Y-14620984D01*
X12721372Y-14620984D02*
X12702325Y-14649555D01*
X12702325Y-14649555D02*
X12683277Y-14668603D01*
X12683277Y-14668603D02*
X12664229Y-14678127D01*
X12854706Y-14640031D02*
X12864229Y-14630508D01*
X12864229Y-14630508D02*
X12883277Y-14620984D01*
X12883277Y-14620984D02*
X12930896Y-14620984D01*
X12930896Y-14620984D02*
X12949944Y-14630508D01*
X12949944Y-14630508D02*
X12959467Y-14640031D01*
X12959467Y-14640031D02*
X12968991Y-14659079D01*
X12968991Y-14659079D02*
X12968991Y-14678127D01*
X12968991Y-14678127D02*
X12959467Y-14706698D01*
X12959467Y-14706698D02*
X12845182Y-14820984D01*
X12845182Y-14820984D02*
X12968991Y-14820984D01*
X13140420Y-14620984D02*
X13102325Y-14620984D01*
X13102325Y-14620984D02*
X13083277Y-14630508D01*
X13083277Y-14630508D02*
X13073753Y-14640031D01*
X13073753Y-14640031D02*
X13054706Y-14668603D01*
X13054706Y-14668603D02*
X13045182Y-14706698D01*
X13045182Y-14706698D02*
X13045182Y-14782888D01*
X13045182Y-14782888D02*
X13054706Y-14801936D01*
X13054706Y-14801936D02*
X13064229Y-14811460D01*
X13064229Y-14811460D02*
X13083277Y-14820984D01*
X13083277Y-14820984D02*
X13121372Y-14820984D01*
X13121372Y-14820984D02*
X13140420Y-14811460D01*
X13140420Y-14811460D02*
X13149944Y-14801936D01*
X13149944Y-14801936D02*
X13159467Y-14782888D01*
X13159467Y-14782888D02*
X13159467Y-14735269D01*
X13159467Y-14735269D02*
X13149944Y-14716222D01*
X13149944Y-14716222D02*
X13140420Y-14706698D01*
X13140420Y-14706698D02*
X13121372Y-14697174D01*
X13121372Y-14697174D02*
X13083277Y-14697174D01*
X13083277Y-14697174D02*
X13064229Y-14706698D01*
X13064229Y-14706698D02*
X13054706Y-14716222D01*
X13054706Y-14716222D02*
X13045182Y-14735269D01*
X13283277Y-14620984D02*
X13302325Y-14620984D01*
X13302325Y-14620984D02*
X13321372Y-14630508D01*
X13321372Y-14630508D02*
X13330896Y-14640031D01*
X13330896Y-14640031D02*
X13340420Y-14659079D01*
X13340420Y-14659079D02*
X13349944Y-14697174D01*
X13349944Y-14697174D02*
X13349944Y-14744793D01*
X13349944Y-14744793D02*
X13340420Y-14782888D01*
X13340420Y-14782888D02*
X13330896Y-14801936D01*
X13330896Y-14801936D02*
X13321372Y-14811460D01*
X13321372Y-14811460D02*
X13302325Y-14820984D01*
X13302325Y-14820984D02*
X13283277Y-14820984D01*
X13283277Y-14820984D02*
X13264229Y-14811460D01*
X13264229Y-14811460D02*
X13254706Y-14801936D01*
X13254706Y-14801936D02*
X13245182Y-14782888D01*
X13245182Y-14782888D02*
X13235658Y-14744793D01*
X13235658Y-14744793D02*
X13235658Y-14697174D01*
X13235658Y-14697174D02*
X13245182Y-14659079D01*
X13245182Y-14659079D02*
X13254706Y-14640031D01*
X13254706Y-14640031D02*
X13264229Y-14630508D01*
X13264229Y-14630508D02*
X13283277Y-14620984D01*
X13426134Y-14620984D02*
X13426134Y-14659079D01*
X13502325Y-14620984D02*
X13502325Y-14659079D01*
X13797563Y-14897174D02*
X13788039Y-14887650D01*
X13788039Y-14887650D02*
X13768991Y-14859079D01*
X13768991Y-14859079D02*
X13759468Y-14840031D01*
X13759468Y-14840031D02*
X13749944Y-14811460D01*
X13749944Y-14811460D02*
X13740420Y-14763841D01*
X13740420Y-14763841D02*
X13740420Y-14725746D01*
X13740420Y-14725746D02*
X13749944Y-14678127D01*
X13749944Y-14678127D02*
X13759468Y-14649555D01*
X13759468Y-14649555D02*
X13768991Y-14630508D01*
X13768991Y-14630508D02*
X13788039Y-14601936D01*
X13788039Y-14601936D02*
X13797563Y-14592412D01*
X13864229Y-14640031D02*
X13873753Y-14630508D01*
X13873753Y-14630508D02*
X13892801Y-14620984D01*
X13892801Y-14620984D02*
X13940420Y-14620984D01*
X13940420Y-14620984D02*
X13959468Y-14630508D01*
X13959468Y-14630508D02*
X13968991Y-14640031D01*
X13968991Y-14640031D02*
X13978515Y-14659079D01*
X13978515Y-14659079D02*
X13978515Y-14678127D01*
X13978515Y-14678127D02*
X13968991Y-14706698D01*
X13968991Y-14706698D02*
X13854706Y-14820984D01*
X13854706Y-14820984D02*
X13978515Y-14820984D01*
X14216610Y-14820984D02*
X14216610Y-14620984D01*
X14302325Y-14820984D02*
X14302325Y-14716222D01*
X14302325Y-14716222D02*
X14292801Y-14697174D01*
X14292801Y-14697174D02*
X14273753Y-14687650D01*
X14273753Y-14687650D02*
X14245182Y-14687650D01*
X14245182Y-14687650D02*
X14226134Y-14697174D01*
X14226134Y-14697174D02*
X14216610Y-14706698D01*
X14426134Y-14820984D02*
X14407087Y-14811460D01*
X14407087Y-14811460D02*
X14397563Y-14801936D01*
X14397563Y-14801936D02*
X14388039Y-14782888D01*
X14388039Y-14782888D02*
X14388039Y-14725746D01*
X14388039Y-14725746D02*
X14397563Y-14706698D01*
X14397563Y-14706698D02*
X14407087Y-14697174D01*
X14407087Y-14697174D02*
X14426134Y-14687650D01*
X14426134Y-14687650D02*
X14454706Y-14687650D01*
X14454706Y-14687650D02*
X14473753Y-14697174D01*
X14473753Y-14697174D02*
X14483277Y-14706698D01*
X14483277Y-14706698D02*
X14492801Y-14725746D01*
X14492801Y-14725746D02*
X14492801Y-14782888D01*
X14492801Y-14782888D02*
X14483277Y-14801936D01*
X14483277Y-14801936D02*
X14473753Y-14811460D01*
X14473753Y-14811460D02*
X14454706Y-14820984D01*
X14454706Y-14820984D02*
X14426134Y-14820984D01*
X14607087Y-14820984D02*
X14588039Y-14811460D01*
X14588039Y-14811460D02*
X14578515Y-14792412D01*
X14578515Y-14792412D02*
X14578515Y-14620984D01*
X14759468Y-14811460D02*
X14740420Y-14820984D01*
X14740420Y-14820984D02*
X14702325Y-14820984D01*
X14702325Y-14820984D02*
X14683277Y-14811460D01*
X14683277Y-14811460D02*
X14673753Y-14792412D01*
X14673753Y-14792412D02*
X14673753Y-14716222D01*
X14673753Y-14716222D02*
X14683277Y-14697174D01*
X14683277Y-14697174D02*
X14702325Y-14687650D01*
X14702325Y-14687650D02*
X14740420Y-14687650D01*
X14740420Y-14687650D02*
X14759468Y-14697174D01*
X14759468Y-14697174D02*
X14768991Y-14716222D01*
X14768991Y-14716222D02*
X14768991Y-14735269D01*
X14768991Y-14735269D02*
X14673753Y-14754317D01*
X14845182Y-14811460D02*
X14864230Y-14820984D01*
X14864230Y-14820984D02*
X14902325Y-14820984D01*
X14902325Y-14820984D02*
X14921372Y-14811460D01*
X14921372Y-14811460D02*
X14930896Y-14792412D01*
X14930896Y-14792412D02*
X14930896Y-14782888D01*
X14930896Y-14782888D02*
X14921372Y-14763841D01*
X14921372Y-14763841D02*
X14902325Y-14754317D01*
X14902325Y-14754317D02*
X14873753Y-14754317D01*
X14873753Y-14754317D02*
X14854706Y-14744793D01*
X14854706Y-14744793D02*
X14845182Y-14725746D01*
X14845182Y-14725746D02*
X14845182Y-14716222D01*
X14845182Y-14716222D02*
X14854706Y-14697174D01*
X14854706Y-14697174D02*
X14873753Y-14687650D01*
X14873753Y-14687650D02*
X14902325Y-14687650D01*
X14902325Y-14687650D02*
X14921372Y-14697174D01*
X14997563Y-14897174D02*
X15007087Y-14887650D01*
X15007087Y-14887650D02*
X15026134Y-14859079D01*
X15026134Y-14859079D02*
X15035658Y-14840031D01*
X15035658Y-14840031D02*
X15045182Y-14811460D01*
X15045182Y-14811460D02*
X15054706Y-14763841D01*
X15054706Y-14763841D02*
X15054706Y-14725746D01*
X15054706Y-14725746D02*
X15045182Y-14678127D01*
X15045182Y-14678127D02*
X15035658Y-14649555D01*
X15035658Y-14649555D02*
X15026134Y-14630508D01*
X15026134Y-14630508D02*
X15007087Y-14601936D01*
X15007087Y-14601936D02*
X14997563Y-14592412D01*
X15359468Y-14897174D02*
X15349944Y-14887650D01*
X15349944Y-14887650D02*
X15330896Y-14859079D01*
X15330896Y-14859079D02*
X15321372Y-14840031D01*
X15321372Y-14840031D02*
X15311849Y-14811460D01*
X15311849Y-14811460D02*
X15302325Y-14763841D01*
X15302325Y-14763841D02*
X15302325Y-14725746D01*
X15302325Y-14725746D02*
X15311849Y-14678127D01*
X15311849Y-14678127D02*
X15321372Y-14649555D01*
X15321372Y-14649555D02*
X15330896Y-14630508D01*
X15330896Y-14630508D02*
X15349944Y-14601936D01*
X15349944Y-14601936D02*
X15359468Y-14592412D01*
X15435658Y-14687650D02*
X15435658Y-14820984D01*
X15435658Y-14706698D02*
X15445182Y-14697174D01*
X15445182Y-14697174D02*
X15464230Y-14687650D01*
X15464230Y-14687650D02*
X15492801Y-14687650D01*
X15492801Y-14687650D02*
X15511849Y-14697174D01*
X15511849Y-14697174D02*
X15521372Y-14716222D01*
X15521372Y-14716222D02*
X15521372Y-14820984D01*
X15645182Y-14820984D02*
X15626134Y-14811460D01*
X15626134Y-14811460D02*
X15616611Y-14801936D01*
X15616611Y-14801936D02*
X15607087Y-14782888D01*
X15607087Y-14782888D02*
X15607087Y-14725746D01*
X15607087Y-14725746D02*
X15616611Y-14706698D01*
X15616611Y-14706698D02*
X15626134Y-14697174D01*
X15626134Y-14697174D02*
X15645182Y-14687650D01*
X15645182Y-14687650D02*
X15673753Y-14687650D01*
X15673753Y-14687650D02*
X15692801Y-14697174D01*
X15692801Y-14697174D02*
X15702325Y-14706698D01*
X15702325Y-14706698D02*
X15711849Y-14725746D01*
X15711849Y-14725746D02*
X15711849Y-14782888D01*
X15711849Y-14782888D02*
X15702325Y-14801936D01*
X15702325Y-14801936D02*
X15692801Y-14811460D01*
X15692801Y-14811460D02*
X15673753Y-14820984D01*
X15673753Y-14820984D02*
X15645182Y-14820984D01*
X15768992Y-14687650D02*
X15845182Y-14687650D01*
X15797563Y-14620984D02*
X15797563Y-14792412D01*
X15797563Y-14792412D02*
X15807087Y-14811460D01*
X15807087Y-14811460D02*
X15826134Y-14820984D01*
X15826134Y-14820984D02*
X15845182Y-14820984D01*
X16064230Y-14687650D02*
X16064230Y-14887650D01*
X16064230Y-14697174D02*
X16083277Y-14687650D01*
X16083277Y-14687650D02*
X16121373Y-14687650D01*
X16121373Y-14687650D02*
X16140420Y-14697174D01*
X16140420Y-14697174D02*
X16149944Y-14706698D01*
X16149944Y-14706698D02*
X16159468Y-14725746D01*
X16159468Y-14725746D02*
X16159468Y-14782888D01*
X16159468Y-14782888D02*
X16149944Y-14801936D01*
X16149944Y-14801936D02*
X16140420Y-14811460D01*
X16140420Y-14811460D02*
X16121373Y-14820984D01*
X16121373Y-14820984D02*
X16083277Y-14820984D01*
X16083277Y-14820984D02*
X16064230Y-14811460D01*
X16273753Y-14820984D02*
X16254706Y-14811460D01*
X16254706Y-14811460D02*
X16245182Y-14792412D01*
X16245182Y-14792412D02*
X16245182Y-14620984D01*
X16435658Y-14820984D02*
X16435658Y-14716222D01*
X16435658Y-14716222D02*
X16426134Y-14697174D01*
X16426134Y-14697174D02*
X16407087Y-14687650D01*
X16407087Y-14687650D02*
X16368992Y-14687650D01*
X16368992Y-14687650D02*
X16349944Y-14697174D01*
X16435658Y-14811460D02*
X16416611Y-14820984D01*
X16416611Y-14820984D02*
X16368992Y-14820984D01*
X16368992Y-14820984D02*
X16349944Y-14811460D01*
X16349944Y-14811460D02*
X16340420Y-14792412D01*
X16340420Y-14792412D02*
X16340420Y-14773365D01*
X16340420Y-14773365D02*
X16349944Y-14754317D01*
X16349944Y-14754317D02*
X16368992Y-14744793D01*
X16368992Y-14744793D02*
X16416611Y-14744793D01*
X16416611Y-14744793D02*
X16435658Y-14735269D01*
X16502325Y-14687650D02*
X16578515Y-14687650D01*
X16530896Y-14620984D02*
X16530896Y-14792412D01*
X16530896Y-14792412D02*
X16540420Y-14811460D01*
X16540420Y-14811460D02*
X16559468Y-14820984D01*
X16559468Y-14820984D02*
X16578515Y-14820984D01*
X16721373Y-14811460D02*
X16702325Y-14820984D01*
X16702325Y-14820984D02*
X16664230Y-14820984D01*
X16664230Y-14820984D02*
X16645182Y-14811460D01*
X16645182Y-14811460D02*
X16635658Y-14792412D01*
X16635658Y-14792412D02*
X16635658Y-14716222D01*
X16635658Y-14716222D02*
X16645182Y-14697174D01*
X16645182Y-14697174D02*
X16664230Y-14687650D01*
X16664230Y-14687650D02*
X16702325Y-14687650D01*
X16702325Y-14687650D02*
X16721373Y-14697174D01*
X16721373Y-14697174D02*
X16730896Y-14716222D01*
X16730896Y-14716222D02*
X16730896Y-14735269D01*
X16730896Y-14735269D02*
X16635658Y-14754317D01*
X16902325Y-14820984D02*
X16902325Y-14620984D01*
X16902325Y-14811460D02*
X16883277Y-14820984D01*
X16883277Y-14820984D02*
X16845182Y-14820984D01*
X16845182Y-14820984D02*
X16826135Y-14811460D01*
X16826135Y-14811460D02*
X16816611Y-14801936D01*
X16816611Y-14801936D02*
X16807087Y-14782888D01*
X16807087Y-14782888D02*
X16807087Y-14725746D01*
X16807087Y-14725746D02*
X16816611Y-14706698D01*
X16816611Y-14706698D02*
X16826135Y-14697174D01*
X16826135Y-14697174D02*
X16845182Y-14687650D01*
X16845182Y-14687650D02*
X16883277Y-14687650D01*
X16883277Y-14687650D02*
X16902325Y-14697174D01*
X16978516Y-14897174D02*
X16988039Y-14887650D01*
X16988039Y-14887650D02*
X17007087Y-14859079D01*
X17007087Y-14859079D02*
X17016611Y-14840031D01*
X17016611Y-14840031D02*
X17026135Y-14811460D01*
X17026135Y-14811460D02*
X17035658Y-14763841D01*
X17035658Y-14763841D02*
X17035658Y-14725746D01*
X17035658Y-14725746D02*
X17026135Y-14678127D01*
X17026135Y-14678127D02*
X17016611Y-14649555D01*
X17016611Y-14649555D02*
X17007087Y-14630508D01*
X17007087Y-14630508D02*
X16988039Y-14601936D01*
X16988039Y-14601936D02*
X16978516Y-14592412D01*
M02*
