G04 #@! TF.GenerationSoftware,KiCad,Pcbnew,9.0.7*
G04 #@! TF.CreationDate,2026-01-19T10:35:43-06:00*
G04 #@! TF.ProjectId,Teensy_Daughtercard,5465656e-7379-45f4-9461-756768746572,rev?*
G04 #@! TF.SameCoordinates,Original*
G04 #@! TF.FileFunction,Soldermask,Bot*
G04 #@! TF.FilePolarity,Negative*
%FSLAX46Y46*%
G04 Gerber Fmt 4.6, Leading zero omitted, Abs format (unit mm)*
G04 Created by KiCad (PCBNEW 9.0.7) date 2026-01-19 10:35:43*
%MOMM*%
%LPD*%
G01*
G04 APERTURE LIST*
%ADD10C,7.000000*%
%ADD11C,1.600000*%
%ADD12C,4.575000*%
%ADD13C,1.200000*%
%ADD14R,1.600000X1.600000*%
%ADD15R,1.300000X1.300000*%
%ADD16C,1.300000*%
%ADD17C,3.200000*%
%ADD18R,1.400000X1.400000*%
%ADD19C,1.400000*%
%ADD20C,1.530000*%
%ADD21C,2.550000*%
G04 APERTURE END LIST*
D10*
X197250000Y-45870000D03*
D11*
X167840000Y-126275000D03*
X165550000Y-126275000D03*
X163260000Y-126275000D03*
X160970000Y-126275000D03*
X158680000Y-126275000D03*
X156390000Y-126275000D03*
X154100000Y-126275000D03*
X151810000Y-126275000D03*
X149520000Y-126275000D03*
X147230000Y-126275000D03*
X144940000Y-126275000D03*
X142650000Y-126275000D03*
X140360000Y-126275000D03*
X138120000Y-126275000D03*
X135840000Y-126275000D03*
X168990000Y-128815000D03*
X166700000Y-128815000D03*
X164410000Y-128815000D03*
X162120000Y-128815000D03*
X159830000Y-128815000D03*
X157540000Y-128815000D03*
X155250000Y-128815000D03*
X152960000Y-128815000D03*
X150670000Y-128815000D03*
X148380000Y-128815000D03*
X146090000Y-128815000D03*
X143800000Y-128815000D03*
X141510000Y-128815000D03*
X139220000Y-128815000D03*
X136930000Y-128815000D03*
X167840000Y-131355000D03*
X165550000Y-131355000D03*
X163260000Y-131355000D03*
X160970000Y-131355000D03*
X158680000Y-131355000D03*
X156390000Y-131355000D03*
X154100000Y-131355000D03*
X151810000Y-131355000D03*
X149520000Y-131355000D03*
X147230000Y-131355000D03*
X144940000Y-131355000D03*
X142650000Y-131355000D03*
X140360000Y-131355000D03*
X138120000Y-131355000D03*
D12*
X175870000Y-128815000D03*
X128830000Y-128815000D03*
D13*
X141500000Y-61000000D03*
X141500000Y-58500000D03*
D10*
X197460000Y-135870000D03*
X107250000Y-45870000D03*
D14*
X123020000Y-97740000D03*
D11*
X125560000Y-97740000D03*
X128100000Y-97740000D03*
X130640000Y-97740000D03*
X133180000Y-97740000D03*
X135720000Y-97740000D03*
X138260000Y-97740000D03*
X140800000Y-97740000D03*
X143340000Y-97740000D03*
X145880000Y-97740000D03*
X148420000Y-97740000D03*
X150960000Y-97740000D03*
X153500000Y-97740000D03*
X156040000Y-97740000D03*
X158580000Y-97740000D03*
X161120000Y-97740000D03*
X163660000Y-97740000D03*
X166200000Y-97740000D03*
X168740000Y-97740000D03*
X171280000Y-97740000D03*
X173820000Y-97740000D03*
X176360000Y-97740000D03*
X178900000Y-97740000D03*
X181440000Y-97740000D03*
X181440000Y-82500000D03*
X178900000Y-82500000D03*
X176360000Y-82500000D03*
X173820000Y-82500000D03*
X171280000Y-82500000D03*
X168740000Y-82500000D03*
X166200000Y-82500000D03*
X163660000Y-82500000D03*
X161120000Y-82500000D03*
X158580000Y-82500000D03*
X156040000Y-82500000D03*
X153500000Y-82500000D03*
X150960000Y-82500000D03*
X148420000Y-82500000D03*
X145880000Y-82500000D03*
X143340000Y-82500000D03*
X140800000Y-82500000D03*
X138260000Y-82500000D03*
X135720000Y-82500000D03*
X133180000Y-82500000D03*
X130640000Y-82500000D03*
X128100000Y-82500000D03*
X125560000Y-82500000D03*
X123020000Y-82500000D03*
X125560000Y-85040000D03*
D14*
X129319200Y-94689200D03*
D11*
X131859200Y-94689200D03*
X134399200Y-94689200D03*
X136939200Y-94689200D03*
X139479200Y-94689200D03*
D15*
X135990000Y-84938400D03*
D16*
X135990000Y-86938400D03*
X135990000Y-88938400D03*
X137990000Y-88938400D03*
X137990000Y-86938400D03*
X137990000Y-84938400D03*
X123750000Y-88850000D03*
X123750000Y-91390000D03*
D17*
X147000000Y-52825000D03*
X158430000Y-52825000D03*
D18*
X148270000Y-46475000D03*
D19*
X149540000Y-43935000D03*
X150810000Y-46475000D03*
X152080000Y-43935000D03*
X153350000Y-46475000D03*
X154620000Y-43935000D03*
X155890000Y-46475000D03*
X157160000Y-43935000D03*
D20*
X146390000Y-57725000D03*
X148930000Y-56205000D03*
X156500000Y-57725000D03*
X159040000Y-56205000D03*
D21*
X144840000Y-49775000D03*
X160590000Y-49775000D03*
D10*
X107250000Y-135870000D03*
M02*
