M48
; DRILL file KiCad 10.0.1 date 2026-06-20T14:21:54
; FORMAT={-:-/ absolute / metric / decimal}
; #@! TF.CreationDate,2026-06-20T14:21:54-05:00
; #@! TF.GenerationSoftware,Kicad,Pcbnew,10.0.1
; #@! TF.FileFunction,Plated,1,4,PTH
FMAT,2
METRIC
; #@! TA.AperFunction,Plated,PTH,ViaDrill
T1C0.300
; #@! TA.AperFunction,Plated,PTH,ComponentDrill
T2C0.800
; #@! TA.AperFunction,Plated,PTH,ComponentDrill
T3C0.900
; #@! TA.AperFunction,Plated,PTH,ComponentDrill
T4C1.020
; #@! TA.AperFunction,Plated,PTH,ComponentDrill
T5C1.100
; #@! TA.AperFunction,Plated,PTH,ComponentDrill
T6C1.600
; #@! TA.AperFunction,Plated,PTH,ComponentDrill
T7C3.500
%
G90
G05
T1
X105.0Y-67.5
X105.0Y-71.5
X105.0Y-76.0
X105.0Y-80.0
X105.0Y-85.0
X105.0Y-89.0
X105.0Y-93.5
X105.0Y-97.5
X105.0Y-103.5
X105.0Y-107.5
X105.0Y-112.0
X105.0Y-116.0
X105.0Y-120.5
X105.0Y-124.5
X105.0Y-129.0
X105.0Y-133.0
X105.0Y-136.0
X105.0Y-140.0
X109.0Y-67.5
X109.0Y-71.5
X109.0Y-76.0
X109.0Y-80.0
X113.0Y-59.0
X113.0Y-63.0
X113.0Y-67.5
X113.0Y-71.5
X113.0Y-76.0
X113.0Y-80.0
X116.0Y-96.0
X116.0Y-100.5
X116.0Y-104.5
X116.0Y-110.5
X116.0Y-114.5
X116.0Y-119.0
X116.0Y-123.5
X117.0Y-59.0
X117.0Y-63.0
X117.4Y-75.0
X117.75Y-69.75
X119.25Y-90.75
X121.0Y-59.0
X121.0Y-63.0
X121.0Y-115.0
X121.0Y-119.0
X121.0Y-123.5
X122.75Y-69.75
X123.6Y-75.0
X124.5Y-115.0
X124.5Y-119.0
X124.5Y-123.5
X125.0Y-59.0
X125.0Y-63.0
X128.0Y-59.0
X128.0Y-63.0
X128.0Y-66.5
X128.0Y-70.5
X128.0Y-75.5
X128.0Y-79.5
X128.0Y-82.5
X132.0Y-59.0
X132.0Y-63.0
X132.0Y-66.5
X132.0Y-70.5
X132.0Y-75.5
X132.0Y-79.5
X132.0Y-82.5
X136.0Y-59.0
X136.0Y-63.0
X136.0Y-66.5
X136.0Y-70.5
X136.0Y-75.5
X136.0Y-79.5
X136.0Y-82.5
X139.5Y-63.0
X139.5Y-66.5
X139.6Y-69.2
X140.0Y-75.5
X140.0Y-79.5
X140.0Y-82.5
X144.5Y-79.5
X144.5Y-82.5
X149.525Y-82.275
X150.0Y-118.0
X151.875Y-81.125
X154.0Y-110.5
X154.375Y-80.125
X156.625Y-79.125
X165.0Y-68.0
X165.0Y-71.0
X165.0Y-74.0
X165.0Y-77.0
X166.0Y-118.0
X166.5Y-128.5
X169.0Y-68.0
X169.0Y-71.0
X169.0Y-74.0
X169.0Y-77.0
X171.509Y-115.243
X172.0Y-128.5
X173.0Y-68.0
X173.0Y-71.0
X173.0Y-74.0
X173.0Y-77.0
X174.5Y-125.4
X174.5Y-129.9
X177.0Y-68.0
X177.0Y-71.0
X177.0Y-74.0
X177.0Y-77.0
X180.0Y-68.0
X180.0Y-71.0
X180.0Y-74.0
X180.0Y-77.0
X184.0Y-68.0
X184.0Y-71.0
X184.0Y-74.0
X184.0Y-77.0
X185.3Y-123.0
X185.3Y-127.0
X188.0Y-68.0
X188.0Y-71.0
X188.0Y-74.0
X188.0Y-77.0
X189.8Y-123.0
X189.8Y-127.0
X191.0Y-68.0
X191.0Y-71.0
X191.0Y-74.0
X191.0Y-77.0
X195.0Y-68.0
X195.0Y-71.0
X195.0Y-74.0
X195.0Y-77.0
X199.0Y-68.0
X199.0Y-71.0
X199.0Y-74.0
X199.0Y-77.0
X199.0Y-79.5
X199.0Y-84.5
X199.0Y-88.5
X199.0Y-93.0
X199.0Y-97.0
X199.0Y-103.0
X199.0Y-107.0
X199.0Y-111.5
X199.0Y-115.5
X199.0Y-120.0
X199.0Y-124.0
X199.0Y-128.5
X199.0Y-132.5
X199.0Y-135.5
X199.0Y-139.5
T2
X121.5Y-132.96
X121.5Y-135.5
X123.839Y-96.981
X123.839Y-99.521
X124.04Y-132.96
X124.04Y-135.5
X126.58Y-132.96
X126.58Y-135.5
X129.12Y-132.96
X129.12Y-135.5
X131.66Y-132.96
X131.66Y-135.5
X134.2Y-132.96
X134.2Y-135.5
X136.079Y-93.069
X136.079Y-95.069
X136.079Y-97.069
X136.74Y-132.96
X136.74Y-135.5
X138.079Y-93.069
X138.079Y-95.069
X138.079Y-97.069
X139.28Y-132.96
X139.28Y-135.5
X141.82Y-132.96
X141.82Y-135.5
X144.36Y-132.96
X144.36Y-135.5
X146.9Y-132.96
X146.9Y-135.5
X149.44Y-132.96
X149.44Y-135.5
X151.98Y-132.96
X151.98Y-135.5
X154.52Y-132.96
X154.52Y-135.5
X157.06Y-132.96
X157.06Y-135.5
X159.6Y-132.96
X159.6Y-135.5
X162.14Y-132.96
X162.14Y-135.5
X164.68Y-132.96
X164.68Y-135.5
X167.22Y-132.96
X167.22Y-135.5
X169.76Y-132.96
X169.76Y-135.5
X172.3Y-132.96
X172.3Y-135.5
X174.84Y-132.96
X174.84Y-135.5
X177.38Y-132.96
X177.38Y-135.5
X179.92Y-132.96
X179.92Y-135.5
X182.46Y-132.96
X182.46Y-135.5
T3
X147.38Y-74.965
X148.65Y-72.425
X149.92Y-74.965
X151.19Y-72.425
X152.46Y-74.965
X153.73Y-72.425
X155.0Y-74.965
X156.27Y-72.425
T4
X145.185Y-62.015
X147.725Y-62.015
X155.925Y-62.015
X158.465Y-62.015
T5
X123.109Y-90.631
X123.109Y-105.871
X125.649Y-90.631
X125.649Y-93.171
X125.649Y-105.871
X128.189Y-90.631
X128.189Y-105.871
X129.408Y-102.82
X130.729Y-90.631
X130.729Y-105.871
X131.948Y-102.82
X133.269Y-90.631
X133.269Y-105.871
X134.488Y-102.82
X135.809Y-90.631
X135.809Y-105.871
X137.028Y-102.82
X138.349Y-90.631
X138.349Y-105.871
X139.568Y-102.82
X140.889Y-90.631
X140.889Y-105.871
X143.429Y-90.631
X143.429Y-105.871
X145.969Y-90.631
X145.969Y-105.871
X148.509Y-90.631
X148.509Y-105.871
X151.049Y-90.631
X151.049Y-105.871
X153.589Y-90.631
X153.589Y-105.871
X156.129Y-90.631
X156.129Y-105.871
X158.669Y-90.631
X158.669Y-105.871
X161.209Y-90.631
X161.209Y-105.871
X163.749Y-90.631
X163.749Y-105.871
X166.289Y-90.631
X166.289Y-105.871
X168.829Y-90.631
X168.829Y-105.871
X171.369Y-90.631
X171.369Y-105.871
X173.909Y-90.631
X173.909Y-105.871
X176.449Y-90.631
X176.449Y-105.871
X178.989Y-90.631
X178.989Y-105.871
X181.529Y-90.631
X181.529Y-105.871
T6
X144.075Y-69.125
X159.575Y-69.125
T7
X107.25Y-60.0
X197.25Y-60.0
M30
