%TF.GenerationSoftware,KiCad,Pcbnew,9.0.7*%
%TF.CreationDate,2026-01-19T10:29:32-06:00*%
%TF.ProjectId,Teensy_Daughtercard,5465656e-7379-45f4-9461-756768746572,rev?*%
%TF.SameCoordinates,Original*%
%TF.FileFunction,Drillmap*%
%TF.FilePolarity,Positive*%
%FSLAX45Y45*%
G04 Gerber Fmt 4.5, Leading zero omitted, Abs format (unit mm)*
G04 Created by KiCad (PCBNEW 9.0.7) date 2026-01-19 10:29:32*
%MOMM*%
%LPD*%
G01*
G04 APERTURE LIST*
%ADD10C,0.050000*%
%ADD11C,0.200000*%
%ADD12C,0.100000*%
%ADD13C,0.102000*%
%ADD14C,0.110000*%
%ADD15C,0.119000*%
%ADD16C,0.170000*%
%ADD17C,0.305000*%
%ADD18C,0.350000*%
G04 APERTURE END LIST*
D10*
X10725000Y-14087000D02*
G75*
G02*
X10225000Y-13587000I0J500000D01*
G01*
X20225000Y-4587000D02*
X20225000Y-13587000D01*
X19725000Y-14087000D02*
X10725000Y-14087000D01*
X20225000Y-13587000D02*
G75*
G02*
X19725000Y-14087000I-500000J0D01*
G01*
X10725000Y-4087000D02*
X19725000Y-4087000D01*
X10225000Y-4587000D02*
G75*
G02*
X10725000Y-4087000I500000J0D01*
G01*
X10225000Y-13587000D02*
X10225000Y-4587000D01*
X19725000Y-4087000D02*
G75*
G02*
X20225000Y-4587000I0J-500000D01*
G01*
D11*
D12*
X10645000Y-9285000D02*
X10675000Y-9315000D01*
X10675000Y-9285000D02*
X10645000Y-9315000D01*
X10645000Y-11345000D02*
X10675000Y-11375000D01*
X10675000Y-11345000D02*
X10645000Y-11375000D01*
X10685000Y-7365000D02*
X10715000Y-7395000D01*
X10715000Y-7365000D02*
X10685000Y-7395000D01*
X10798525Y-12723904D02*
X10828525Y-12753904D01*
X10828525Y-12723904D02*
X10798525Y-12753904D01*
X10824725Y-5990529D02*
X10854725Y-6020529D01*
X10854725Y-5990529D02*
X10824725Y-6020529D01*
X11325000Y-10810000D02*
X11355000Y-10840000D01*
X11355000Y-10810000D02*
X11325000Y-10840000D01*
X11325000Y-12560000D02*
X11355000Y-12590000D01*
X11355000Y-12560000D02*
X11325000Y-12590000D01*
X11360000Y-9310000D02*
X11390000Y-9340000D01*
X11390000Y-9310000D02*
X11360000Y-9340000D01*
X11414223Y-8007921D02*
X11444223Y-8037921D01*
X11444223Y-8007921D02*
X11414223Y-8037921D01*
X11485000Y-11560000D02*
X11515000Y-11590000D01*
X11515000Y-11560000D02*
X11485000Y-11590000D01*
X11485000Y-12660000D02*
X11515000Y-12690000D01*
X11515000Y-12660000D02*
X11485000Y-12690000D01*
X11535000Y-10660000D02*
X11565000Y-10690000D01*
X11565000Y-10660000D02*
X11535000Y-10690000D01*
X11558322Y-5859530D02*
X11588322Y-5889530D01*
X11588322Y-5859530D02*
X11558322Y-5889530D01*
X11617500Y-12685000D02*
X11647500Y-12715000D01*
X11647500Y-12685000D02*
X11617500Y-12715000D01*
X11618462Y-13651538D02*
X11648462Y-13681538D01*
X11648462Y-13651538D02*
X11618462Y-13681538D01*
X11742500Y-12685000D02*
X11772500Y-12715000D01*
X11772500Y-12685000D02*
X11742500Y-12715000D01*
X11760000Y-13585000D02*
X11790000Y-13615000D01*
X11790000Y-13585000D02*
X11760000Y-13615000D01*
X11810000Y-10735000D02*
X11840000Y-10765000D01*
X11840000Y-10735000D02*
X11810000Y-10765000D01*
X11860000Y-12685000D02*
X11890000Y-12715000D01*
X11890000Y-12685000D02*
X11860000Y-12715000D01*
X11905000Y-4885000D02*
X11935000Y-4915000D01*
X11935000Y-4885000D02*
X11905000Y-4915000D01*
X11985000Y-8635000D02*
X12015000Y-8665000D01*
X12015000Y-8635000D02*
X11985000Y-8665000D01*
X11985000Y-10860000D02*
X12015000Y-10890000D01*
X12015000Y-10860000D02*
X11985000Y-10890000D01*
X12085000Y-11010000D02*
X12115000Y-11040000D01*
X12115000Y-11010000D02*
X12085000Y-11040000D01*
X12235000Y-11085000D02*
X12265000Y-11115000D01*
X12265000Y-11085000D02*
X12235000Y-11115000D01*
X12245000Y-5445000D02*
X12275000Y-5475000D01*
X12275000Y-5445000D02*
X12245000Y-5475000D01*
X12360000Y-11185000D02*
X12390000Y-11215000D01*
X12390000Y-11185000D02*
X12360000Y-11215000D01*
X12405000Y-6925000D02*
X12435000Y-6955000D01*
X12435000Y-6925000D02*
X12405000Y-6955000D01*
X12485000Y-11285000D02*
X12515000Y-11315000D01*
X12515000Y-11285000D02*
X12485000Y-11315000D01*
X12660000Y-11360000D02*
X12690000Y-11390000D01*
X12690000Y-11360000D02*
X12660000Y-11390000D01*
X12785000Y-11510000D02*
X12815000Y-11540000D01*
X12815000Y-11510000D02*
X12785000Y-11540000D01*
X12885000Y-6205000D02*
X12915000Y-6235000D01*
X12915000Y-6205000D02*
X12885000Y-6235000D01*
X12935000Y-11610000D02*
X12965000Y-11640000D01*
X12965000Y-11610000D02*
X12935000Y-11640000D01*
X13085000Y-4645000D02*
X13115000Y-4675000D01*
X13115000Y-4645000D02*
X13085000Y-4675000D01*
X13310000Y-11660000D02*
X13340000Y-11690000D01*
X13340000Y-11660000D02*
X13310000Y-11690000D01*
X13560000Y-11760000D02*
X13590000Y-11790000D01*
X13590000Y-11760000D02*
X13560000Y-11790000D01*
X13685000Y-12125000D02*
X13715000Y-12155000D01*
X13715000Y-12125000D02*
X13685000Y-12155000D01*
X13805000Y-12425000D02*
X13835000Y-12455000D01*
X13835000Y-12425000D02*
X13805000Y-12455000D01*
X13945000Y-12265000D02*
X13975000Y-12295000D01*
X13975000Y-12265000D02*
X13945000Y-12295000D01*
X13963159Y-11538159D02*
X13993159Y-11568159D01*
X13993159Y-11538159D02*
X13963159Y-11568159D01*
X14065000Y-12245000D02*
X14095000Y-12275000D01*
X14095000Y-12245000D02*
X14065000Y-12275000D01*
X14085000Y-4285000D02*
X14115000Y-4315000D01*
X14115000Y-4285000D02*
X14085000Y-4315000D01*
X14085000Y-4485000D02*
X14115000Y-4515000D01*
X14115000Y-4485000D02*
X14085000Y-4515000D01*
X14085000Y-4835000D02*
X14115000Y-4865000D01*
X14115000Y-4835000D02*
X14085000Y-4865000D01*
X14085000Y-5285000D02*
X14115000Y-5315000D01*
X14115000Y-5285000D02*
X14085000Y-5315000D01*
X14110000Y-6410000D02*
X14140000Y-6440000D01*
X14140000Y-6410000D02*
X14110000Y-6440000D01*
X14190046Y-12201018D02*
X14220046Y-12231018D01*
X14220046Y-12201018D02*
X14190046Y-12231018D01*
X14230712Y-7248124D02*
X14260712Y-7278124D01*
X14260712Y-7248124D02*
X14230712Y-7278124D01*
X14310000Y-12185000D02*
X14340000Y-12215000D01*
X14340000Y-12185000D02*
X14310000Y-12215000D01*
X14417500Y-12325000D02*
X14447500Y-12355000D01*
X14447500Y-12325000D02*
X14417500Y-12355000D01*
X14435000Y-6660000D02*
X14465000Y-6690000D01*
X14465000Y-6660000D02*
X14435000Y-6690000D01*
X14460000Y-13360000D02*
X14490000Y-13390000D01*
X14490000Y-13360000D02*
X14460000Y-13390000D01*
X14625000Y-12005000D02*
X14655000Y-12035000D01*
X14655000Y-12005000D02*
X14625000Y-12035000D01*
X14644100Y-12285000D02*
X14674100Y-12315000D01*
X14674100Y-12285000D02*
X14644100Y-12315000D01*
X14785000Y-13385000D02*
X14815000Y-13415000D01*
X14815000Y-13385000D02*
X14785000Y-13415000D01*
X14860000Y-10435000D02*
X14890000Y-10465000D01*
X14890000Y-10435000D02*
X14860000Y-10465000D01*
X14860000Y-10635000D02*
X14890000Y-10665000D01*
X14890000Y-10635000D02*
X14860000Y-10665000D01*
X14860000Y-10810000D02*
X14890000Y-10840000D01*
X14890000Y-10810000D02*
X14860000Y-10840000D01*
X14860000Y-10960000D02*
X14890000Y-10990000D01*
X14890000Y-10960000D02*
X14860000Y-10990000D01*
X14860000Y-11110000D02*
X14890000Y-11140000D01*
X14890000Y-11110000D02*
X14860000Y-11140000D01*
X14860000Y-11235000D02*
X14890000Y-11265000D01*
X14890000Y-11235000D02*
X14860000Y-11265000D01*
X14860000Y-11360000D02*
X14890000Y-11390000D01*
X14890000Y-11360000D02*
X14860000Y-11390000D01*
X14860000Y-11485000D02*
X14890000Y-11515000D01*
X14890000Y-11485000D02*
X14860000Y-11515000D01*
X14860000Y-11635000D02*
X14890000Y-11665000D01*
X14890000Y-11635000D02*
X14860000Y-11665000D01*
X14860000Y-11760000D02*
X14890000Y-11790000D01*
X14890000Y-11760000D02*
X14860000Y-11790000D01*
X14860000Y-11885000D02*
X14890000Y-11915000D01*
X14890000Y-11885000D02*
X14860000Y-11915000D01*
X14860000Y-11985000D02*
X14890000Y-12015000D01*
X14890000Y-11985000D02*
X14860000Y-12015000D01*
X14985000Y-13385000D02*
X15015000Y-13415000D01*
X15015000Y-13385000D02*
X14985000Y-13415000D01*
X15110000Y-6660000D02*
X15140000Y-6690000D01*
X15140000Y-6660000D02*
X15110000Y-6690000D01*
X15205000Y-7205000D02*
X15235000Y-7235000D01*
X15235000Y-7205000D02*
X15205000Y-7235000D01*
X15210000Y-13435000D02*
X15240000Y-13465000D01*
X15240000Y-13435000D02*
X15210000Y-13465000D01*
X15335000Y-8860000D02*
X15365000Y-8890000D01*
X15365000Y-8860000D02*
X15335000Y-8890000D01*
X15360000Y-9085000D02*
X15390000Y-9115000D01*
X15390000Y-9085000D02*
X15360000Y-9115000D01*
X15360000Y-13485000D02*
X15390000Y-13515000D01*
X15390000Y-13485000D02*
X15360000Y-13515000D01*
X15465000Y-13705000D02*
X15495000Y-13735000D01*
X15495000Y-13705000D02*
X15465000Y-13735000D01*
X15610000Y-12085000D02*
X15640000Y-12115000D01*
X15640000Y-12085000D02*
X15610000Y-12115000D01*
X15610000Y-12210000D02*
X15640000Y-12240000D01*
X15640000Y-12210000D02*
X15610000Y-12240000D01*
X15625000Y-13505000D02*
X15655000Y-13535000D01*
X15655000Y-13505000D02*
X15625000Y-13535000D01*
X15635000Y-11785000D02*
X15665000Y-11815000D01*
X15665000Y-11785000D02*
X15635000Y-11815000D01*
X15710000Y-8710000D02*
X15740000Y-8740000D01*
X15740000Y-8710000D02*
X15710000Y-8740000D01*
X15710000Y-9410000D02*
X15740000Y-9440000D01*
X15740000Y-9410000D02*
X15710000Y-9440000D01*
X15710000Y-12285000D02*
X15740000Y-12315000D01*
X15740000Y-12285000D02*
X15710000Y-12315000D01*
X15760000Y-12160000D02*
X15790000Y-12190000D01*
X15790000Y-12160000D02*
X15760000Y-12190000D01*
X15785000Y-6660000D02*
X15815000Y-6690000D01*
X15815000Y-6660000D02*
X15785000Y-6690000D01*
X15785000Y-13725000D02*
X15815000Y-13755000D01*
X15815000Y-13725000D02*
X15785000Y-13755000D01*
X15860000Y-8860000D02*
X15890000Y-8890000D01*
X15890000Y-8860000D02*
X15860000Y-8890000D01*
X15860000Y-9385000D02*
X15890000Y-9415000D01*
X15890000Y-9385000D02*
X15860000Y-9415000D01*
X15860000Y-12310000D02*
X15890000Y-12340000D01*
X15890000Y-12310000D02*
X15860000Y-12340000D01*
X15885000Y-13405000D02*
X15915000Y-13435000D01*
X15915000Y-13405000D02*
X15885000Y-13435000D01*
X15985000Y-12042500D02*
X16015000Y-12072500D01*
X16015000Y-12042500D02*
X15985000Y-12072500D01*
X15985000Y-12360000D02*
X16015000Y-12390000D01*
X16015000Y-12360000D02*
X15985000Y-12390000D01*
X16085000Y-12135000D02*
X16115000Y-12165000D01*
X16115000Y-12135000D02*
X16085000Y-12165000D01*
X16085000Y-12335000D02*
X16115000Y-12365000D01*
X16115000Y-12335000D02*
X16085000Y-12365000D01*
X16085000Y-13725000D02*
X16115000Y-13755000D01*
X16115000Y-13725000D02*
X16085000Y-13755000D01*
X16110000Y-8010000D02*
X16140000Y-8040000D01*
X16140000Y-8010000D02*
X16110000Y-8040000D01*
X16185000Y-12110000D02*
X16215000Y-12140000D01*
X16215000Y-12110000D02*
X16185000Y-12140000D01*
X16185000Y-12385000D02*
X16215000Y-12415000D01*
X16215000Y-12385000D02*
X16185000Y-12415000D01*
X16205000Y-13465000D02*
X16235000Y-13495000D01*
X16235000Y-13465000D02*
X16205000Y-13495000D01*
X16260000Y-9210000D02*
X16290000Y-9240000D01*
X16290000Y-9210000D02*
X16260000Y-9240000D01*
X16285000Y-11885000D02*
X16315000Y-11915000D01*
X16315000Y-11885000D02*
X16285000Y-11915000D01*
X16285000Y-11985000D02*
X16315000Y-12015000D01*
X16315000Y-11985000D02*
X16285000Y-12015000D01*
X16310000Y-13660000D02*
X16340000Y-13690000D01*
X16340000Y-13660000D02*
X16310000Y-13690000D01*
X16360000Y-9310000D02*
X16390000Y-9340000D01*
X16390000Y-9310000D02*
X16360000Y-9340000D01*
X16360000Y-10385000D02*
X16390000Y-10415000D01*
X16390000Y-10385000D02*
X16360000Y-10415000D01*
X16385000Y-6635000D02*
X16415000Y-6665000D01*
X16415000Y-6635000D02*
X16385000Y-6665000D01*
X16385000Y-8010000D02*
X16415000Y-8040000D01*
X16415000Y-8010000D02*
X16385000Y-8040000D01*
X16435000Y-7785000D02*
X16465000Y-7815000D01*
X16465000Y-7785000D02*
X16435000Y-7815000D01*
X16485000Y-9435000D02*
X16515000Y-9465000D01*
X16515000Y-9435000D02*
X16485000Y-9465000D01*
X16517500Y-11335000D02*
X16547500Y-11365000D01*
X16547500Y-11335000D02*
X16517500Y-11365000D01*
X16560000Y-6110000D02*
X16590000Y-6140000D01*
X16590000Y-6110000D02*
X16560000Y-6140000D01*
X16560000Y-10660000D02*
X16590000Y-10690000D01*
X16590000Y-10660000D02*
X16560000Y-10690000D01*
X16560000Y-10885000D02*
X16590000Y-10915000D01*
X16590000Y-10885000D02*
X16560000Y-10915000D01*
X16560000Y-11085000D02*
X16590000Y-11115000D01*
X16590000Y-11085000D02*
X16560000Y-11115000D01*
X16585000Y-4260000D02*
X16615000Y-4290000D01*
X16615000Y-4260000D02*
X16585000Y-4290000D01*
X16585000Y-4685000D02*
X16615000Y-4715000D01*
X16615000Y-4685000D02*
X16585000Y-4715000D01*
X16585000Y-5385000D02*
X16615000Y-5415000D01*
X16615000Y-5385000D02*
X16585000Y-5415000D01*
X16585000Y-10385000D02*
X16615000Y-10415000D01*
X16615000Y-10385000D02*
X16585000Y-10415000D01*
X16610000Y-13360000D02*
X16640000Y-13390000D01*
X16640000Y-13360000D02*
X16610000Y-13390000D01*
X16610000Y-13485000D02*
X16640000Y-13515000D01*
X16640000Y-13485000D02*
X16610000Y-13515000D01*
X16635000Y-7785000D02*
X16665000Y-7815000D01*
X16665000Y-7785000D02*
X16635000Y-7815000D01*
X16685000Y-13765000D02*
X16715000Y-13795000D01*
X16715000Y-13765000D02*
X16685000Y-13795000D01*
X16735000Y-9610000D02*
X16765000Y-9640000D01*
X16765000Y-9610000D02*
X16735000Y-9640000D01*
X17035000Y-13360000D02*
X17065000Y-13390000D01*
X17065000Y-13360000D02*
X17035000Y-13390000D01*
X17035000Y-13485000D02*
X17065000Y-13515000D01*
X17065000Y-13485000D02*
X17035000Y-13515000D01*
X17405000Y-5825000D02*
X17435000Y-5855000D01*
X17435000Y-5825000D02*
X17405000Y-5855000D01*
X17662900Y-4484035D02*
X17692900Y-4514035D01*
X17692900Y-4484035D02*
X17662900Y-4514035D01*
X17846299Y-6684826D02*
X17876299Y-6714826D01*
X17876299Y-6684826D02*
X17846299Y-6714826D01*
X18225000Y-4985000D02*
X18255000Y-5015000D01*
X18255000Y-4985000D02*
X18225000Y-5015000D01*
X18625000Y-13505000D02*
X18655000Y-13535000D01*
X18655000Y-13505000D02*
X18625000Y-13535000D01*
X18841895Y-5283132D02*
X18871895Y-5313132D01*
X18871895Y-5283132D02*
X18841895Y-5313132D01*
X18867500Y-8845000D02*
X18897500Y-8875000D01*
X18897500Y-8845000D02*
X18867500Y-8875000D01*
X19425000Y-5865000D02*
X19455000Y-5895000D01*
X19455000Y-5865000D02*
X19425000Y-5895000D01*
X19425000Y-6825000D02*
X19455000Y-6855000D01*
X19455000Y-6825000D02*
X19425000Y-6855000D01*
X19505000Y-8065000D02*
X19535000Y-8095000D01*
X19535000Y-8065000D02*
X19505000Y-8095000D01*
X19665000Y-9425000D02*
X19695000Y-9455000D01*
X19695000Y-9425000D02*
X19665000Y-9455000D01*
X19667192Y-10732711D02*
X19697192Y-10762711D01*
X19697192Y-10732711D02*
X19667192Y-10762711D01*
X14185000Y-5850000D02*
G75*
G02*
X14115000Y-5850000I-35000J0D01*
G01*
X14115000Y-5850000D02*
G75*
G02*
X14185000Y-5850000I35000J0D01*
G01*
X14185000Y-6100000D02*
G75*
G02*
X14115000Y-6100000I-35000J0D01*
G01*
X14115000Y-6100000D02*
G75*
G02*
X14185000Y-6100000I35000J0D01*
G01*
X12375000Y-8845000D02*
X12375000Y-8925000D01*
X12335000Y-8885000D02*
X12415000Y-8885000D01*
X12375000Y-9099000D02*
X12375000Y-9179000D01*
X12335000Y-9139000D02*
X12415000Y-9139000D01*
X13599000Y-8453840D02*
X13599000Y-8533840D01*
X13559000Y-8493840D02*
X13639000Y-8493840D01*
X13599000Y-8653840D02*
X13599000Y-8733840D01*
X13559000Y-8693840D02*
X13639000Y-8693840D01*
X13599000Y-8853840D02*
X13599000Y-8933840D01*
X13559000Y-8893840D02*
X13639000Y-8893840D01*
X13799000Y-8453840D02*
X13799000Y-8533840D01*
X13759000Y-8493840D02*
X13839000Y-8493840D01*
X13799000Y-8653840D02*
X13799000Y-8733840D01*
X13759000Y-8693840D02*
X13839000Y-8693840D01*
X13799000Y-8853840D02*
X13799000Y-8933840D01*
X13759000Y-8893840D02*
X13839000Y-8893840D01*
X14858820Y-4679320D02*
X14858820Y-4615680D01*
X14795180Y-4615680D01*
X14795180Y-4679320D01*
X14858820Y-4679320D01*
X14985820Y-4425320D02*
X14985820Y-4361680D01*
X14922180Y-4361680D01*
X14922180Y-4425320D01*
X14985820Y-4425320D01*
X15112820Y-4679320D02*
X15112820Y-4615680D01*
X15049180Y-4615680D01*
X15049180Y-4679320D01*
X15112820Y-4679320D01*
X15239820Y-4425320D02*
X15239820Y-4361680D01*
X15176180Y-4361680D01*
X15176180Y-4425320D01*
X15239820Y-4425320D01*
X15366820Y-4679320D02*
X15366820Y-4615680D01*
X15303180Y-4615680D01*
X15303180Y-4679320D01*
X15366820Y-4679320D01*
X15493820Y-4425320D02*
X15493820Y-4361680D01*
X15430180Y-4361680D01*
X15430180Y-4425320D01*
X15493820Y-4425320D01*
X15620820Y-4679320D02*
X15620820Y-4615680D01*
X15557180Y-4615680D01*
X15557180Y-4679320D01*
X15620820Y-4679320D01*
X15747820Y-4425320D02*
X15747820Y-4361680D01*
X15684180Y-4361680D01*
X15684180Y-4425320D01*
X15747820Y-4425320D01*
D13*
X14639000Y-5823500D02*
X14690000Y-5772500D01*
X14639000Y-5721500D01*
X14588000Y-5772500D01*
X14639000Y-5823500D01*
X14893000Y-5671500D02*
X14944000Y-5620500D01*
X14893000Y-5569500D01*
X14842000Y-5620500D01*
X14893000Y-5671500D01*
X15650000Y-5823500D02*
X15701000Y-5772500D01*
X15650000Y-5721500D01*
X15599000Y-5772500D01*
X15650000Y-5823500D01*
X15904000Y-5671500D02*
X15955000Y-5620500D01*
X15904000Y-5569500D01*
X15853000Y-5620500D01*
X15904000Y-5671500D01*
D14*
X12247000Y-8195000D02*
X12357000Y-8305000D01*
X12357000Y-8195000D02*
X12247000Y-8305000D01*
X12357000Y-8250000D02*
G75*
G02*
X12247000Y-8250000I-55000J0D01*
G01*
X12247000Y-8250000D02*
G75*
G02*
X12357000Y-8250000I55000J0D01*
G01*
X12247000Y-9719000D02*
X12357000Y-9829000D01*
X12357000Y-9719000D02*
X12247000Y-9829000D01*
X12357000Y-9774000D02*
G75*
G02*
X12247000Y-9774000I-55000J0D01*
G01*
X12247000Y-9774000D02*
G75*
G02*
X12357000Y-9774000I55000J0D01*
G01*
X12501000Y-8195000D02*
X12611000Y-8305000D01*
X12611000Y-8195000D02*
X12501000Y-8305000D01*
X12611000Y-8250000D02*
G75*
G02*
X12501000Y-8250000I-55000J0D01*
G01*
X12501000Y-8250000D02*
G75*
G02*
X12611000Y-8250000I55000J0D01*
G01*
X12501000Y-8449000D02*
X12611000Y-8559000D01*
X12611000Y-8449000D02*
X12501000Y-8559000D01*
X12611000Y-8504000D02*
G75*
G02*
X12501000Y-8504000I-55000J0D01*
G01*
X12501000Y-8504000D02*
G75*
G02*
X12611000Y-8504000I55000J0D01*
G01*
X12501000Y-9719000D02*
X12611000Y-9829000D01*
X12611000Y-9719000D02*
X12501000Y-9829000D01*
X12611000Y-9774000D02*
G75*
G02*
X12501000Y-9774000I-55000J0D01*
G01*
X12501000Y-9774000D02*
G75*
G02*
X12611000Y-9774000I55000J0D01*
G01*
X12755000Y-8195000D02*
X12865000Y-8305000D01*
X12865000Y-8195000D02*
X12755000Y-8305000D01*
X12865000Y-8250000D02*
G75*
G02*
X12755000Y-8250000I-55000J0D01*
G01*
X12755000Y-8250000D02*
G75*
G02*
X12865000Y-8250000I55000J0D01*
G01*
X12755000Y-9719000D02*
X12865000Y-9829000D01*
X12865000Y-9719000D02*
X12755000Y-9829000D01*
X12865000Y-9774000D02*
G75*
G02*
X12755000Y-9774000I-55000J0D01*
G01*
X12755000Y-9774000D02*
G75*
G02*
X12865000Y-9774000I55000J0D01*
G01*
X12876920Y-9413920D02*
X12986920Y-9523920D01*
X12986920Y-9413920D02*
X12876920Y-9523920D01*
X12986920Y-9468920D02*
G75*
G02*
X12876920Y-9468920I-55000J0D01*
G01*
X12876920Y-9468920D02*
G75*
G02*
X12986920Y-9468920I55000J0D01*
G01*
X13009000Y-8195000D02*
X13119000Y-8305000D01*
X13119000Y-8195000D02*
X13009000Y-8305000D01*
X13119000Y-8250000D02*
G75*
G02*
X13009000Y-8250000I-55000J0D01*
G01*
X13009000Y-8250000D02*
G75*
G02*
X13119000Y-8250000I55000J0D01*
G01*
X13009000Y-9719000D02*
X13119000Y-9829000D01*
X13119000Y-9719000D02*
X13009000Y-9829000D01*
X13119000Y-9774000D02*
G75*
G02*
X13009000Y-9774000I-55000J0D01*
G01*
X13009000Y-9774000D02*
G75*
G02*
X13119000Y-9774000I55000J0D01*
G01*
X13130920Y-9413920D02*
X13240920Y-9523920D01*
X13240920Y-9413920D02*
X13130920Y-9523920D01*
X13240920Y-9468920D02*
G75*
G02*
X13130920Y-9468920I-55000J0D01*
G01*
X13130920Y-9468920D02*
G75*
G02*
X13240920Y-9468920I55000J0D01*
G01*
X13263000Y-8195000D02*
X13373000Y-8305000D01*
X13373000Y-8195000D02*
X13263000Y-8305000D01*
X13373000Y-8250000D02*
G75*
G02*
X13263000Y-8250000I-55000J0D01*
G01*
X13263000Y-8250000D02*
G75*
G02*
X13373000Y-8250000I55000J0D01*
G01*
X13263000Y-9719000D02*
X13373000Y-9829000D01*
X13373000Y-9719000D02*
X13263000Y-9829000D01*
X13373000Y-9774000D02*
G75*
G02*
X13263000Y-9774000I-55000J0D01*
G01*
X13263000Y-9774000D02*
G75*
G02*
X13373000Y-9774000I55000J0D01*
G01*
X13384920Y-9413920D02*
X13494920Y-9523920D01*
X13494920Y-9413920D02*
X13384920Y-9523920D01*
X13494920Y-9468920D02*
G75*
G02*
X13384920Y-9468920I-55000J0D01*
G01*
X13384920Y-9468920D02*
G75*
G02*
X13494920Y-9468920I55000J0D01*
G01*
X13517000Y-8195000D02*
X13627000Y-8305000D01*
X13627000Y-8195000D02*
X13517000Y-8305000D01*
X13627000Y-8250000D02*
G75*
G02*
X13517000Y-8250000I-55000J0D01*
G01*
X13517000Y-8250000D02*
G75*
G02*
X13627000Y-8250000I55000J0D01*
G01*
X13517000Y-9719000D02*
X13627000Y-9829000D01*
X13627000Y-9719000D02*
X13517000Y-9829000D01*
X13627000Y-9774000D02*
G75*
G02*
X13517000Y-9774000I-55000J0D01*
G01*
X13517000Y-9774000D02*
G75*
G02*
X13627000Y-9774000I55000J0D01*
G01*
X13638920Y-9413920D02*
X13748920Y-9523920D01*
X13748920Y-9413920D02*
X13638920Y-9523920D01*
X13748920Y-9468920D02*
G75*
G02*
X13638920Y-9468920I-55000J0D01*
G01*
X13638920Y-9468920D02*
G75*
G02*
X13748920Y-9468920I55000J0D01*
G01*
X13771000Y-8195000D02*
X13881000Y-8305000D01*
X13881000Y-8195000D02*
X13771000Y-8305000D01*
X13881000Y-8250000D02*
G75*
G02*
X13771000Y-8250000I-55000J0D01*
G01*
X13771000Y-8250000D02*
G75*
G02*
X13881000Y-8250000I55000J0D01*
G01*
X13771000Y-9719000D02*
X13881000Y-9829000D01*
X13881000Y-9719000D02*
X13771000Y-9829000D01*
X13881000Y-9774000D02*
G75*
G02*
X13771000Y-9774000I-55000J0D01*
G01*
X13771000Y-9774000D02*
G75*
G02*
X13881000Y-9774000I55000J0D01*
G01*
X13892920Y-9413920D02*
X14002920Y-9523920D01*
X14002920Y-9413920D02*
X13892920Y-9523920D01*
X14002920Y-9468920D02*
G75*
G02*
X13892920Y-9468920I-55000J0D01*
G01*
X13892920Y-9468920D02*
G75*
G02*
X14002920Y-9468920I55000J0D01*
G01*
X14025000Y-8195000D02*
X14135000Y-8305000D01*
X14135000Y-8195000D02*
X14025000Y-8305000D01*
X14135000Y-8250000D02*
G75*
G02*
X14025000Y-8250000I-55000J0D01*
G01*
X14025000Y-8250000D02*
G75*
G02*
X14135000Y-8250000I55000J0D01*
G01*
X14025000Y-9719000D02*
X14135000Y-9829000D01*
X14135000Y-9719000D02*
X14025000Y-9829000D01*
X14135000Y-9774000D02*
G75*
G02*
X14025000Y-9774000I-55000J0D01*
G01*
X14025000Y-9774000D02*
G75*
G02*
X14135000Y-9774000I55000J0D01*
G01*
X14279000Y-8195000D02*
X14389000Y-8305000D01*
X14389000Y-8195000D02*
X14279000Y-8305000D01*
X14389000Y-8250000D02*
G75*
G02*
X14279000Y-8250000I-55000J0D01*
G01*
X14279000Y-8250000D02*
G75*
G02*
X14389000Y-8250000I55000J0D01*
G01*
X14279000Y-9719000D02*
X14389000Y-9829000D01*
X14389000Y-9719000D02*
X14279000Y-9829000D01*
X14389000Y-9774000D02*
G75*
G02*
X14279000Y-9774000I-55000J0D01*
G01*
X14279000Y-9774000D02*
G75*
G02*
X14389000Y-9774000I55000J0D01*
G01*
X14533000Y-8195000D02*
X14643000Y-8305000D01*
X14643000Y-8195000D02*
X14533000Y-8305000D01*
X14643000Y-8250000D02*
G75*
G02*
X14533000Y-8250000I-55000J0D01*
G01*
X14533000Y-8250000D02*
G75*
G02*
X14643000Y-8250000I55000J0D01*
G01*
X14533000Y-9719000D02*
X14643000Y-9829000D01*
X14643000Y-9719000D02*
X14533000Y-9829000D01*
X14643000Y-9774000D02*
G75*
G02*
X14533000Y-9774000I-55000J0D01*
G01*
X14533000Y-9774000D02*
G75*
G02*
X14643000Y-9774000I55000J0D01*
G01*
X14787000Y-8195000D02*
X14897000Y-8305000D01*
X14897000Y-8195000D02*
X14787000Y-8305000D01*
X14897000Y-8250000D02*
G75*
G02*
X14787000Y-8250000I-55000J0D01*
G01*
X14787000Y-8250000D02*
G75*
G02*
X14897000Y-8250000I55000J0D01*
G01*
X14787000Y-9719000D02*
X14897000Y-9829000D01*
X14897000Y-9719000D02*
X14787000Y-9829000D01*
X14897000Y-9774000D02*
G75*
G02*
X14787000Y-9774000I-55000J0D01*
G01*
X14787000Y-9774000D02*
G75*
G02*
X14897000Y-9774000I55000J0D01*
G01*
X15041000Y-8195000D02*
X15151000Y-8305000D01*
X15151000Y-8195000D02*
X15041000Y-8305000D01*
X15151000Y-8250000D02*
G75*
G02*
X15041000Y-8250000I-55000J0D01*
G01*
X15041000Y-8250000D02*
G75*
G02*
X15151000Y-8250000I55000J0D01*
G01*
X15041000Y-9719000D02*
X15151000Y-9829000D01*
X15151000Y-9719000D02*
X15041000Y-9829000D01*
X15151000Y-9774000D02*
G75*
G02*
X15041000Y-9774000I-55000J0D01*
G01*
X15041000Y-9774000D02*
G75*
G02*
X15151000Y-9774000I55000J0D01*
G01*
X15295000Y-8195000D02*
X15405000Y-8305000D01*
X15405000Y-8195000D02*
X15295000Y-8305000D01*
X15405000Y-8250000D02*
G75*
G02*
X15295000Y-8250000I-55000J0D01*
G01*
X15295000Y-8250000D02*
G75*
G02*
X15405000Y-8250000I55000J0D01*
G01*
X15295000Y-9719000D02*
X15405000Y-9829000D01*
X15405000Y-9719000D02*
X15295000Y-9829000D01*
X15405000Y-9774000D02*
G75*
G02*
X15295000Y-9774000I-55000J0D01*
G01*
X15295000Y-9774000D02*
G75*
G02*
X15405000Y-9774000I55000J0D01*
G01*
X15549000Y-8195000D02*
X15659000Y-8305000D01*
X15659000Y-8195000D02*
X15549000Y-8305000D01*
X15659000Y-8250000D02*
G75*
G02*
X15549000Y-8250000I-55000J0D01*
G01*
X15549000Y-8250000D02*
G75*
G02*
X15659000Y-8250000I55000J0D01*
G01*
X15549000Y-9719000D02*
X15659000Y-9829000D01*
X15659000Y-9719000D02*
X15549000Y-9829000D01*
X15659000Y-9774000D02*
G75*
G02*
X15549000Y-9774000I-55000J0D01*
G01*
X15549000Y-9774000D02*
G75*
G02*
X15659000Y-9774000I55000J0D01*
G01*
X15803000Y-8195000D02*
X15913000Y-8305000D01*
X15913000Y-8195000D02*
X15803000Y-8305000D01*
X15913000Y-8250000D02*
G75*
G02*
X15803000Y-8250000I-55000J0D01*
G01*
X15803000Y-8250000D02*
G75*
G02*
X15913000Y-8250000I55000J0D01*
G01*
X15803000Y-9719000D02*
X15913000Y-9829000D01*
X15913000Y-9719000D02*
X15803000Y-9829000D01*
X15913000Y-9774000D02*
G75*
G02*
X15803000Y-9774000I-55000J0D01*
G01*
X15803000Y-9774000D02*
G75*
G02*
X15913000Y-9774000I55000J0D01*
G01*
X16057000Y-8195000D02*
X16167000Y-8305000D01*
X16167000Y-8195000D02*
X16057000Y-8305000D01*
X16167000Y-8250000D02*
G75*
G02*
X16057000Y-8250000I-55000J0D01*
G01*
X16057000Y-8250000D02*
G75*
G02*
X16167000Y-8250000I55000J0D01*
G01*
X16057000Y-9719000D02*
X16167000Y-9829000D01*
X16167000Y-9719000D02*
X16057000Y-9829000D01*
X16167000Y-9774000D02*
G75*
G02*
X16057000Y-9774000I-55000J0D01*
G01*
X16057000Y-9774000D02*
G75*
G02*
X16167000Y-9774000I55000J0D01*
G01*
X16311000Y-8195000D02*
X16421000Y-8305000D01*
X16421000Y-8195000D02*
X16311000Y-8305000D01*
X16421000Y-8250000D02*
G75*
G02*
X16311000Y-8250000I-55000J0D01*
G01*
X16311000Y-8250000D02*
G75*
G02*
X16421000Y-8250000I55000J0D01*
G01*
X16311000Y-9719000D02*
X16421000Y-9829000D01*
X16421000Y-9719000D02*
X16311000Y-9829000D01*
X16421000Y-9774000D02*
G75*
G02*
X16311000Y-9774000I-55000J0D01*
G01*
X16311000Y-9774000D02*
G75*
G02*
X16421000Y-9774000I55000J0D01*
G01*
X16565000Y-8195000D02*
X16675000Y-8305000D01*
X16675000Y-8195000D02*
X16565000Y-8305000D01*
X16675000Y-8250000D02*
G75*
G02*
X16565000Y-8250000I-55000J0D01*
G01*
X16565000Y-8250000D02*
G75*
G02*
X16675000Y-8250000I55000J0D01*
G01*
X16565000Y-9719000D02*
X16675000Y-9829000D01*
X16675000Y-9719000D02*
X16565000Y-9829000D01*
X16675000Y-9774000D02*
G75*
G02*
X16565000Y-9774000I-55000J0D01*
G01*
X16565000Y-9774000D02*
G75*
G02*
X16675000Y-9774000I55000J0D01*
G01*
X16819000Y-8195000D02*
X16929000Y-8305000D01*
X16929000Y-8195000D02*
X16819000Y-8305000D01*
X16929000Y-8250000D02*
G75*
G02*
X16819000Y-8250000I-55000J0D01*
G01*
X16819000Y-8250000D02*
G75*
G02*
X16929000Y-8250000I55000J0D01*
G01*
X16819000Y-9719000D02*
X16929000Y-9829000D01*
X16929000Y-9719000D02*
X16819000Y-9829000D01*
X16929000Y-9774000D02*
G75*
G02*
X16819000Y-9774000I-55000J0D01*
G01*
X16819000Y-9774000D02*
G75*
G02*
X16929000Y-9774000I55000J0D01*
G01*
X17073000Y-8195000D02*
X17183000Y-8305000D01*
X17183000Y-8195000D02*
X17073000Y-8305000D01*
X17183000Y-8250000D02*
G75*
G02*
X17073000Y-8250000I-55000J0D01*
G01*
X17073000Y-8250000D02*
G75*
G02*
X17183000Y-8250000I55000J0D01*
G01*
X17073000Y-9719000D02*
X17183000Y-9829000D01*
X17183000Y-9719000D02*
X17073000Y-9829000D01*
X17183000Y-9774000D02*
G75*
G02*
X17073000Y-9774000I-55000J0D01*
G01*
X17073000Y-9774000D02*
G75*
G02*
X17183000Y-9774000I55000J0D01*
G01*
X17327000Y-8195000D02*
X17437000Y-8305000D01*
X17437000Y-8195000D02*
X17327000Y-8305000D01*
X17437000Y-8250000D02*
G75*
G02*
X17327000Y-8250000I-55000J0D01*
G01*
X17327000Y-8250000D02*
G75*
G02*
X17437000Y-8250000I55000J0D01*
G01*
X17327000Y-9719000D02*
X17437000Y-9829000D01*
X17437000Y-9719000D02*
X17327000Y-9829000D01*
X17437000Y-9774000D02*
G75*
G02*
X17327000Y-9774000I-55000J0D01*
G01*
X17327000Y-9774000D02*
G75*
G02*
X17437000Y-9774000I55000J0D01*
G01*
X17581000Y-8195000D02*
X17691000Y-8305000D01*
X17691000Y-8195000D02*
X17581000Y-8305000D01*
X17691000Y-8250000D02*
G75*
G02*
X17581000Y-8250000I-55000J0D01*
G01*
X17581000Y-8250000D02*
G75*
G02*
X17691000Y-8250000I55000J0D01*
G01*
X17581000Y-9719000D02*
X17691000Y-9829000D01*
X17691000Y-9719000D02*
X17581000Y-9829000D01*
X17691000Y-9774000D02*
G75*
G02*
X17581000Y-9774000I-55000J0D01*
G01*
X17581000Y-9774000D02*
G75*
G02*
X17691000Y-9774000I55000J0D01*
G01*
X17835000Y-8195000D02*
X17945000Y-8305000D01*
X17945000Y-8195000D02*
X17835000Y-8305000D01*
X17945000Y-8250000D02*
G75*
G02*
X17835000Y-8250000I-55000J0D01*
G01*
X17835000Y-8250000D02*
G75*
G02*
X17945000Y-8250000I55000J0D01*
G01*
X17835000Y-9719000D02*
X17945000Y-9829000D01*
X17945000Y-9719000D02*
X17835000Y-9829000D01*
X17945000Y-9774000D02*
G75*
G02*
X17835000Y-9774000I-55000J0D01*
G01*
X17835000Y-9774000D02*
G75*
G02*
X17945000Y-9774000I55000J0D01*
G01*
X18089000Y-8195000D02*
X18199000Y-8305000D01*
X18199000Y-8195000D02*
X18089000Y-8305000D01*
X18199000Y-8250000D02*
G75*
G02*
X18089000Y-8250000I-55000J0D01*
G01*
X18089000Y-8250000D02*
G75*
G02*
X18199000Y-8250000I55000J0D01*
G01*
X18089000Y-9719000D02*
X18199000Y-9829000D01*
X18199000Y-9719000D02*
X18089000Y-9829000D01*
X18199000Y-9774000D02*
G75*
G02*
X18089000Y-9774000I-55000J0D01*
G01*
X18089000Y-9774000D02*
G75*
G02*
X18199000Y-9774000I55000J0D01*
G01*
D15*
X13524500Y-12568000D02*
X13643500Y-12687000D01*
X13643500Y-12568000D02*
X13524500Y-12687000D01*
X13584000Y-12568000D02*
X13584000Y-12687000D01*
X13524500Y-12627500D02*
X13643500Y-12627500D01*
X13633500Y-12822000D02*
X13752500Y-12941000D01*
X13752500Y-12822000D02*
X13633500Y-12941000D01*
X13693000Y-12822000D02*
X13693000Y-12941000D01*
X13633500Y-12881500D02*
X13752500Y-12881500D01*
X13752500Y-12568000D02*
X13871500Y-12687000D01*
X13871500Y-12568000D02*
X13752500Y-12687000D01*
X13812000Y-12568000D02*
X13812000Y-12687000D01*
X13752500Y-12627500D02*
X13871500Y-12627500D01*
X13752500Y-13076000D02*
X13871500Y-13195000D01*
X13871500Y-13076000D02*
X13752500Y-13195000D01*
X13812000Y-13076000D02*
X13812000Y-13195000D01*
X13752500Y-13135500D02*
X13871500Y-13135500D01*
X13862500Y-12822000D02*
X13981500Y-12941000D01*
X13981500Y-12822000D02*
X13862500Y-12941000D01*
X13922000Y-12822000D02*
X13922000Y-12941000D01*
X13862500Y-12881500D02*
X13981500Y-12881500D01*
X13976500Y-12568000D02*
X14095500Y-12687000D01*
X14095500Y-12568000D02*
X13976500Y-12687000D01*
X14036000Y-12568000D02*
X14036000Y-12687000D01*
X13976500Y-12627500D02*
X14095500Y-12627500D01*
X13976500Y-13076000D02*
X14095500Y-13195000D01*
X14095500Y-13076000D02*
X13976500Y-13195000D01*
X14036000Y-13076000D02*
X14036000Y-13195000D01*
X13976500Y-13135500D02*
X14095500Y-13135500D01*
X14091500Y-12822000D02*
X14210500Y-12941000D01*
X14210500Y-12822000D02*
X14091500Y-12941000D01*
X14151000Y-12822000D02*
X14151000Y-12941000D01*
X14091500Y-12881500D02*
X14210500Y-12881500D01*
X14205500Y-12568000D02*
X14324500Y-12687000D01*
X14324500Y-12568000D02*
X14205500Y-12687000D01*
X14265000Y-12568000D02*
X14265000Y-12687000D01*
X14205500Y-12627500D02*
X14324500Y-12627500D01*
X14205500Y-13076000D02*
X14324500Y-13195000D01*
X14324500Y-13076000D02*
X14205500Y-13195000D01*
X14265000Y-13076000D02*
X14265000Y-13195000D01*
X14205500Y-13135500D02*
X14324500Y-13135500D01*
X14320500Y-12822000D02*
X14439500Y-12941000D01*
X14439500Y-12822000D02*
X14320500Y-12941000D01*
X14380000Y-12822000D02*
X14380000Y-12941000D01*
X14320500Y-12881500D02*
X14439500Y-12881500D01*
X14434500Y-12568000D02*
X14553500Y-12687000D01*
X14553500Y-12568000D02*
X14434500Y-12687000D01*
X14494000Y-12568000D02*
X14494000Y-12687000D01*
X14434500Y-12627500D02*
X14553500Y-12627500D01*
X14434500Y-13076000D02*
X14553500Y-13195000D01*
X14553500Y-13076000D02*
X14434500Y-13195000D01*
X14494000Y-13076000D02*
X14494000Y-13195000D01*
X14434500Y-13135500D02*
X14553500Y-13135500D01*
X14549500Y-12822000D02*
X14668500Y-12941000D01*
X14668500Y-12822000D02*
X14549500Y-12941000D01*
X14609000Y-12822000D02*
X14609000Y-12941000D01*
X14549500Y-12881500D02*
X14668500Y-12881500D01*
X14663500Y-12568000D02*
X14782500Y-12687000D01*
X14782500Y-12568000D02*
X14663500Y-12687000D01*
X14723000Y-12568000D02*
X14723000Y-12687000D01*
X14663500Y-12627500D02*
X14782500Y-12627500D01*
X14663500Y-13076000D02*
X14782500Y-13195000D01*
X14782500Y-13076000D02*
X14663500Y-13195000D01*
X14723000Y-13076000D02*
X14723000Y-13195000D01*
X14663500Y-13135500D02*
X14782500Y-13135500D01*
X14778500Y-12822000D02*
X14897500Y-12941000D01*
X14897500Y-12822000D02*
X14778500Y-12941000D01*
X14838000Y-12822000D02*
X14838000Y-12941000D01*
X14778500Y-12881500D02*
X14897500Y-12881500D01*
X14892500Y-12568000D02*
X15011500Y-12687000D01*
X15011500Y-12568000D02*
X14892500Y-12687000D01*
X14952000Y-12568000D02*
X14952000Y-12687000D01*
X14892500Y-12627500D02*
X15011500Y-12627500D01*
X14892500Y-13076000D02*
X15011500Y-13195000D01*
X15011500Y-13076000D02*
X14892500Y-13195000D01*
X14952000Y-13076000D02*
X14952000Y-13195000D01*
X14892500Y-13135500D02*
X15011500Y-13135500D01*
X15007500Y-12822000D02*
X15126500Y-12941000D01*
X15126500Y-12822000D02*
X15007500Y-12941000D01*
X15067000Y-12822000D02*
X15067000Y-12941000D01*
X15007500Y-12881500D02*
X15126500Y-12881500D01*
X15121500Y-12568000D02*
X15240500Y-12687000D01*
X15240500Y-12568000D02*
X15121500Y-12687000D01*
X15181000Y-12568000D02*
X15181000Y-12687000D01*
X15121500Y-12627500D02*
X15240500Y-12627500D01*
X15121500Y-13076000D02*
X15240500Y-13195000D01*
X15240500Y-13076000D02*
X15121500Y-13195000D01*
X15181000Y-13076000D02*
X15181000Y-13195000D01*
X15121500Y-13135500D02*
X15240500Y-13135500D01*
X15236500Y-12822000D02*
X15355500Y-12941000D01*
X15355500Y-12822000D02*
X15236500Y-12941000D01*
X15296000Y-12822000D02*
X15296000Y-12941000D01*
X15236500Y-12881500D02*
X15355500Y-12881500D01*
X15350500Y-12568000D02*
X15469500Y-12687000D01*
X15469500Y-12568000D02*
X15350500Y-12687000D01*
X15410000Y-12568000D02*
X15410000Y-12687000D01*
X15350500Y-12627500D02*
X15469500Y-12627500D01*
X15350500Y-13076000D02*
X15469500Y-13195000D01*
X15469500Y-13076000D02*
X15350500Y-13195000D01*
X15410000Y-13076000D02*
X15410000Y-13195000D01*
X15350500Y-13135500D02*
X15469500Y-13135500D01*
X15465500Y-12822000D02*
X15584500Y-12941000D01*
X15584500Y-12822000D02*
X15465500Y-12941000D01*
X15525000Y-12822000D02*
X15525000Y-12941000D01*
X15465500Y-12881500D02*
X15584500Y-12881500D01*
X15579500Y-12568000D02*
X15698500Y-12687000D01*
X15698500Y-12568000D02*
X15579500Y-12687000D01*
X15639000Y-12568000D02*
X15639000Y-12687000D01*
X15579500Y-12627500D02*
X15698500Y-12627500D01*
X15579500Y-13076000D02*
X15698500Y-13195000D01*
X15698500Y-13076000D02*
X15579500Y-13195000D01*
X15639000Y-13076000D02*
X15639000Y-13195000D01*
X15579500Y-13135500D02*
X15698500Y-13135500D01*
X15694500Y-12822000D02*
X15813500Y-12941000D01*
X15813500Y-12822000D02*
X15694500Y-12941000D01*
X15754000Y-12822000D02*
X15754000Y-12941000D01*
X15694500Y-12881500D02*
X15813500Y-12881500D01*
X15808500Y-12568000D02*
X15927500Y-12687000D01*
X15927500Y-12568000D02*
X15808500Y-12687000D01*
X15868000Y-12568000D02*
X15868000Y-12687000D01*
X15808500Y-12627500D02*
X15927500Y-12627500D01*
X15808500Y-13076000D02*
X15927500Y-13195000D01*
X15927500Y-13076000D02*
X15808500Y-13195000D01*
X15868000Y-13076000D02*
X15868000Y-13195000D01*
X15808500Y-13135500D02*
X15927500Y-13135500D01*
X15923500Y-12822000D02*
X16042500Y-12941000D01*
X16042500Y-12822000D02*
X15923500Y-12941000D01*
X15983000Y-12822000D02*
X15983000Y-12941000D01*
X15923500Y-12881500D02*
X16042500Y-12881500D01*
X16037500Y-12568000D02*
X16156500Y-12687000D01*
X16156500Y-12568000D02*
X16037500Y-12687000D01*
X16097000Y-12568000D02*
X16097000Y-12687000D01*
X16037500Y-12627500D02*
X16156500Y-12627500D01*
X16037500Y-13076000D02*
X16156500Y-13195000D01*
X16156500Y-13076000D02*
X16037500Y-13195000D01*
X16097000Y-13076000D02*
X16097000Y-13195000D01*
X16037500Y-13135500D02*
X16156500Y-13135500D01*
X16152500Y-12822000D02*
X16271500Y-12941000D01*
X16271500Y-12822000D02*
X16152500Y-12941000D01*
X16212000Y-12822000D02*
X16212000Y-12941000D01*
X16152500Y-12881500D02*
X16271500Y-12881500D01*
X16266500Y-12568000D02*
X16385500Y-12687000D01*
X16385500Y-12568000D02*
X16266500Y-12687000D01*
X16326000Y-12568000D02*
X16326000Y-12687000D01*
X16266500Y-12627500D02*
X16385500Y-12627500D01*
X16266500Y-13076000D02*
X16385500Y-13195000D01*
X16385500Y-13076000D02*
X16266500Y-13195000D01*
X16326000Y-13076000D02*
X16326000Y-13195000D01*
X16266500Y-13135500D02*
X16385500Y-13135500D01*
X16381500Y-12822000D02*
X16500500Y-12941000D01*
X16500500Y-12822000D02*
X16381500Y-12941000D01*
X16441000Y-12822000D02*
X16441000Y-12941000D01*
X16381500Y-12881500D02*
X16500500Y-12881500D01*
X16495500Y-12568000D02*
X16614500Y-12687000D01*
X16614500Y-12568000D02*
X16495500Y-12687000D01*
X16555000Y-12568000D02*
X16555000Y-12687000D01*
X16495500Y-12627500D02*
X16614500Y-12627500D01*
X16495500Y-13076000D02*
X16614500Y-13195000D01*
X16614500Y-13076000D02*
X16495500Y-13195000D01*
X16555000Y-13076000D02*
X16555000Y-13195000D01*
X16495500Y-13135500D02*
X16614500Y-13135500D01*
X16610500Y-12822000D02*
X16729500Y-12941000D01*
X16729500Y-12822000D02*
X16610500Y-12941000D01*
X16670000Y-12822000D02*
X16670000Y-12941000D01*
X16610500Y-12881500D02*
X16729500Y-12881500D01*
X16724500Y-12568000D02*
X16843500Y-12687000D01*
X16843500Y-12568000D02*
X16724500Y-12687000D01*
X16784000Y-12568000D02*
X16784000Y-12687000D01*
X16724500Y-12627500D02*
X16843500Y-12627500D01*
X16724500Y-13076000D02*
X16843500Y-13195000D01*
X16843500Y-13076000D02*
X16724500Y-13195000D01*
X16784000Y-13076000D02*
X16784000Y-13195000D01*
X16724500Y-13135500D02*
X16843500Y-13135500D01*
X16839500Y-12822000D02*
X16958500Y-12941000D01*
X16958500Y-12822000D02*
X16839500Y-12941000D01*
X16899000Y-12822000D02*
X16899000Y-12941000D01*
X16839500Y-12881500D02*
X16958500Y-12881500D01*
D16*
X14399000Y-4892500D02*
X14569000Y-5062500D01*
X14569000Y-4892500D02*
X14399000Y-5062500D01*
X14544105Y-5037605D02*
X14544105Y-4917395D01*
X14423895Y-4917395D01*
X14423895Y-5037605D01*
X14544105Y-5037605D01*
X15974000Y-4892500D02*
X16144000Y-5062500D01*
X16144000Y-4892500D02*
X15974000Y-5062500D01*
X16119105Y-5037605D02*
X16119105Y-4917395D01*
X15998895Y-4917395D01*
X15998895Y-5037605D01*
X16119105Y-5037605D01*
D17*
X12730500Y-12729000D02*
X13035500Y-13034000D01*
X13035500Y-12729000D02*
X12730500Y-13034000D01*
X12883000Y-13034000D02*
X13035500Y-12881500D01*
X12883000Y-12729000D01*
X12730500Y-12881500D01*
X12883000Y-13034000D01*
X17434500Y-12729000D02*
X17739500Y-13034000D01*
X17739500Y-12729000D02*
X17434500Y-13034000D01*
X17587000Y-13034000D02*
X17739500Y-12881500D01*
X17587000Y-12729000D01*
X17434500Y-12881500D01*
X17587000Y-13034000D01*
D18*
X10725000Y-4412000D02*
X10725000Y-4762000D01*
X10550000Y-4587000D02*
X10900000Y-4587000D01*
X10900000Y-4587000D02*
G75*
G02*
X10550000Y-4587000I-175000J0D01*
G01*
X10550000Y-4587000D02*
G75*
G02*
X10900000Y-4587000I175000J0D01*
G01*
X10725000Y-13412000D02*
X10725000Y-13762000D01*
X10550000Y-13587000D02*
X10900000Y-13587000D01*
X10900000Y-13587000D02*
G75*
G02*
X10550000Y-13587000I-175000J0D01*
G01*
X10550000Y-13587000D02*
G75*
G02*
X10900000Y-13587000I175000J0D01*
G01*
X19725000Y-4412000D02*
X19725000Y-4762000D01*
X19550000Y-4587000D02*
X19900000Y-4587000D01*
X19900000Y-4587000D02*
G75*
G02*
X19550000Y-4587000I-175000J0D01*
G01*
X19550000Y-4587000D02*
G75*
G02*
X19900000Y-4587000I175000J0D01*
G01*
X19746000Y-13412000D02*
X19746000Y-13762000D01*
X19571000Y-13587000D02*
X19921000Y-13587000D01*
X19921000Y-13587000D02*
G75*
G02*
X19571000Y-13587000I-175000J0D01*
G01*
X19571000Y-13587000D02*
G75*
G02*
X19921000Y-13587000I175000J0D01*
G01*
D11*
X10483277Y-14400984D02*
X10483277Y-14200984D01*
X10483277Y-14200984D02*
X10530896Y-14200984D01*
X10530896Y-14200984D02*
X10559467Y-14210508D01*
X10559467Y-14210508D02*
X10578515Y-14229555D01*
X10578515Y-14229555D02*
X10588039Y-14248603D01*
X10588039Y-14248603D02*
X10597563Y-14286698D01*
X10597563Y-14286698D02*
X10597563Y-14315269D01*
X10597563Y-14315269D02*
X10588039Y-14353365D01*
X10588039Y-14353365D02*
X10578515Y-14372412D01*
X10578515Y-14372412D02*
X10559467Y-14391460D01*
X10559467Y-14391460D02*
X10530896Y-14400984D01*
X10530896Y-14400984D02*
X10483277Y-14400984D01*
X10683277Y-14400984D02*
X10683277Y-14267650D01*
X10683277Y-14305746D02*
X10692801Y-14286698D01*
X10692801Y-14286698D02*
X10702324Y-14277174D01*
X10702324Y-14277174D02*
X10721372Y-14267650D01*
X10721372Y-14267650D02*
X10740420Y-14267650D01*
X10807086Y-14400984D02*
X10807086Y-14267650D01*
X10807086Y-14200984D02*
X10797563Y-14210508D01*
X10797563Y-14210508D02*
X10807086Y-14220031D01*
X10807086Y-14220031D02*
X10816610Y-14210508D01*
X10816610Y-14210508D02*
X10807086Y-14200984D01*
X10807086Y-14200984D02*
X10807086Y-14220031D01*
X10930896Y-14400984D02*
X10911848Y-14391460D01*
X10911848Y-14391460D02*
X10902324Y-14372412D01*
X10902324Y-14372412D02*
X10902324Y-14200984D01*
X11035658Y-14400984D02*
X11016610Y-14391460D01*
X11016610Y-14391460D02*
X11007086Y-14372412D01*
X11007086Y-14372412D02*
X11007086Y-14200984D01*
X11264229Y-14400984D02*
X11264229Y-14200984D01*
X11264229Y-14200984D02*
X11330896Y-14343841D01*
X11330896Y-14343841D02*
X11397562Y-14200984D01*
X11397562Y-14200984D02*
X11397562Y-14400984D01*
X11578515Y-14400984D02*
X11578515Y-14296222D01*
X11578515Y-14296222D02*
X11568991Y-14277174D01*
X11568991Y-14277174D02*
X11549943Y-14267650D01*
X11549943Y-14267650D02*
X11511848Y-14267650D01*
X11511848Y-14267650D02*
X11492801Y-14277174D01*
X11578515Y-14391460D02*
X11559467Y-14400984D01*
X11559467Y-14400984D02*
X11511848Y-14400984D01*
X11511848Y-14400984D02*
X11492801Y-14391460D01*
X11492801Y-14391460D02*
X11483277Y-14372412D01*
X11483277Y-14372412D02*
X11483277Y-14353365D01*
X11483277Y-14353365D02*
X11492801Y-14334317D01*
X11492801Y-14334317D02*
X11511848Y-14324793D01*
X11511848Y-14324793D02*
X11559467Y-14324793D01*
X11559467Y-14324793D02*
X11578515Y-14315269D01*
X11673753Y-14267650D02*
X11673753Y-14467650D01*
X11673753Y-14277174D02*
X11692801Y-14267650D01*
X11692801Y-14267650D02*
X11730896Y-14267650D01*
X11730896Y-14267650D02*
X11749943Y-14277174D01*
X11749943Y-14277174D02*
X11759467Y-14286698D01*
X11759467Y-14286698D02*
X11768991Y-14305746D01*
X11768991Y-14305746D02*
X11768991Y-14362888D01*
X11768991Y-14362888D02*
X11759467Y-14381936D01*
X11759467Y-14381936D02*
X11749943Y-14391460D01*
X11749943Y-14391460D02*
X11730896Y-14400984D01*
X11730896Y-14400984D02*
X11692801Y-14400984D01*
X11692801Y-14400984D02*
X11673753Y-14391460D01*
X11854705Y-14381936D02*
X11864229Y-14391460D01*
X11864229Y-14391460D02*
X11854705Y-14400984D01*
X11854705Y-14400984D02*
X11845182Y-14391460D01*
X11845182Y-14391460D02*
X11854705Y-14381936D01*
X11854705Y-14381936D02*
X11854705Y-14400984D01*
X11854705Y-14277174D02*
X11864229Y-14286698D01*
X11864229Y-14286698D02*
X11854705Y-14296222D01*
X11854705Y-14296222D02*
X11845182Y-14286698D01*
X11845182Y-14286698D02*
X11854705Y-14277174D01*
X11854705Y-14277174D02*
X11854705Y-14296222D01*
D12*
X10192500Y-14714500D02*
X10222500Y-14744500D01*
X10222500Y-14714500D02*
X10192500Y-14744500D01*
D11*
X10521372Y-14620984D02*
X10540420Y-14620984D01*
X10540420Y-14620984D02*
X10559467Y-14630508D01*
X10559467Y-14630508D02*
X10568991Y-14640031D01*
X10568991Y-14640031D02*
X10578515Y-14659079D01*
X10578515Y-14659079D02*
X10588039Y-14697174D01*
X10588039Y-14697174D02*
X10588039Y-14744793D01*
X10588039Y-14744793D02*
X10578515Y-14782888D01*
X10578515Y-14782888D02*
X10568991Y-14801936D01*
X10568991Y-14801936D02*
X10559467Y-14811460D01*
X10559467Y-14811460D02*
X10540420Y-14820984D01*
X10540420Y-14820984D02*
X10521372Y-14820984D01*
X10521372Y-14820984D02*
X10502324Y-14811460D01*
X10502324Y-14811460D02*
X10492801Y-14801936D01*
X10492801Y-14801936D02*
X10483277Y-14782888D01*
X10483277Y-14782888D02*
X10473753Y-14744793D01*
X10473753Y-14744793D02*
X10473753Y-14697174D01*
X10473753Y-14697174D02*
X10483277Y-14659079D01*
X10483277Y-14659079D02*
X10492801Y-14640031D01*
X10492801Y-14640031D02*
X10502324Y-14630508D01*
X10502324Y-14630508D02*
X10521372Y-14620984D01*
X10673753Y-14801936D02*
X10683277Y-14811460D01*
X10683277Y-14811460D02*
X10673753Y-14820984D01*
X10673753Y-14820984D02*
X10664229Y-14811460D01*
X10664229Y-14811460D02*
X10673753Y-14801936D01*
X10673753Y-14801936D02*
X10673753Y-14820984D01*
X10749944Y-14620984D02*
X10873753Y-14620984D01*
X10873753Y-14620984D02*
X10807086Y-14697174D01*
X10807086Y-14697174D02*
X10835658Y-14697174D01*
X10835658Y-14697174D02*
X10854705Y-14706698D01*
X10854705Y-14706698D02*
X10864229Y-14716222D01*
X10864229Y-14716222D02*
X10873753Y-14735269D01*
X10873753Y-14735269D02*
X10873753Y-14782888D01*
X10873753Y-14782888D02*
X10864229Y-14801936D01*
X10864229Y-14801936D02*
X10854705Y-14811460D01*
X10854705Y-14811460D02*
X10835658Y-14820984D01*
X10835658Y-14820984D02*
X10778515Y-14820984D01*
X10778515Y-14820984D02*
X10759467Y-14811460D01*
X10759467Y-14811460D02*
X10749944Y-14801936D01*
X10997563Y-14620984D02*
X11016610Y-14620984D01*
X11016610Y-14620984D02*
X11035658Y-14630508D01*
X11035658Y-14630508D02*
X11045182Y-14640031D01*
X11045182Y-14640031D02*
X11054705Y-14659079D01*
X11054705Y-14659079D02*
X11064229Y-14697174D01*
X11064229Y-14697174D02*
X11064229Y-14744793D01*
X11064229Y-14744793D02*
X11054705Y-14782888D01*
X11054705Y-14782888D02*
X11045182Y-14801936D01*
X11045182Y-14801936D02*
X11035658Y-14811460D01*
X11035658Y-14811460D02*
X11016610Y-14820984D01*
X11016610Y-14820984D02*
X10997563Y-14820984D01*
X10997563Y-14820984D02*
X10978515Y-14811460D01*
X10978515Y-14811460D02*
X10968991Y-14801936D01*
X10968991Y-14801936D02*
X10959467Y-14782888D01*
X10959467Y-14782888D02*
X10949944Y-14744793D01*
X10949944Y-14744793D02*
X10949944Y-14697174D01*
X10949944Y-14697174D02*
X10959467Y-14659079D01*
X10959467Y-14659079D02*
X10968991Y-14640031D01*
X10968991Y-14640031D02*
X10978515Y-14630508D01*
X10978515Y-14630508D02*
X10997563Y-14620984D01*
X11188039Y-14620984D02*
X11207086Y-14620984D01*
X11207086Y-14620984D02*
X11226134Y-14630508D01*
X11226134Y-14630508D02*
X11235658Y-14640031D01*
X11235658Y-14640031D02*
X11245182Y-14659079D01*
X11245182Y-14659079D02*
X11254705Y-14697174D01*
X11254705Y-14697174D02*
X11254705Y-14744793D01*
X11254705Y-14744793D02*
X11245182Y-14782888D01*
X11245182Y-14782888D02*
X11235658Y-14801936D01*
X11235658Y-14801936D02*
X11226134Y-14811460D01*
X11226134Y-14811460D02*
X11207086Y-14820984D01*
X11207086Y-14820984D02*
X11188039Y-14820984D01*
X11188039Y-14820984D02*
X11168991Y-14811460D01*
X11168991Y-14811460D02*
X11159467Y-14801936D01*
X11159467Y-14801936D02*
X11149944Y-14782888D01*
X11149944Y-14782888D02*
X11140420Y-14744793D01*
X11140420Y-14744793D02*
X11140420Y-14697174D01*
X11140420Y-14697174D02*
X11149944Y-14659079D01*
X11149944Y-14659079D02*
X11159467Y-14640031D01*
X11159467Y-14640031D02*
X11168991Y-14630508D01*
X11168991Y-14630508D02*
X11188039Y-14620984D01*
X11340420Y-14820984D02*
X11340420Y-14687650D01*
X11340420Y-14706698D02*
X11349943Y-14697174D01*
X11349943Y-14697174D02*
X11368991Y-14687650D01*
X11368991Y-14687650D02*
X11397563Y-14687650D01*
X11397563Y-14687650D02*
X11416610Y-14697174D01*
X11416610Y-14697174D02*
X11426134Y-14716222D01*
X11426134Y-14716222D02*
X11426134Y-14820984D01*
X11426134Y-14716222D02*
X11435658Y-14697174D01*
X11435658Y-14697174D02*
X11454705Y-14687650D01*
X11454705Y-14687650D02*
X11483277Y-14687650D01*
X11483277Y-14687650D02*
X11502324Y-14697174D01*
X11502324Y-14697174D02*
X11511848Y-14716222D01*
X11511848Y-14716222D02*
X11511848Y-14820984D01*
X11607086Y-14820984D02*
X11607086Y-14687650D01*
X11607086Y-14706698D02*
X11616610Y-14697174D01*
X11616610Y-14697174D02*
X11635658Y-14687650D01*
X11635658Y-14687650D02*
X11664229Y-14687650D01*
X11664229Y-14687650D02*
X11683277Y-14697174D01*
X11683277Y-14697174D02*
X11692801Y-14716222D01*
X11692801Y-14716222D02*
X11692801Y-14820984D01*
X11692801Y-14716222D02*
X11702324Y-14697174D01*
X11702324Y-14697174D02*
X11721372Y-14687650D01*
X11721372Y-14687650D02*
X11749943Y-14687650D01*
X11749943Y-14687650D02*
X11768991Y-14697174D01*
X11768991Y-14697174D02*
X11778515Y-14716222D01*
X11778515Y-14716222D02*
X11778515Y-14820984D01*
X12168991Y-14611460D02*
X11997563Y-14868603D01*
X12426134Y-14620984D02*
X12445182Y-14620984D01*
X12445182Y-14620984D02*
X12464229Y-14630508D01*
X12464229Y-14630508D02*
X12473753Y-14640031D01*
X12473753Y-14640031D02*
X12483277Y-14659079D01*
X12483277Y-14659079D02*
X12492801Y-14697174D01*
X12492801Y-14697174D02*
X12492801Y-14744793D01*
X12492801Y-14744793D02*
X12483277Y-14782888D01*
X12483277Y-14782888D02*
X12473753Y-14801936D01*
X12473753Y-14801936D02*
X12464229Y-14811460D01*
X12464229Y-14811460D02*
X12445182Y-14820984D01*
X12445182Y-14820984D02*
X12426134Y-14820984D01*
X12426134Y-14820984D02*
X12407086Y-14811460D01*
X12407086Y-14811460D02*
X12397563Y-14801936D01*
X12397563Y-14801936D02*
X12388039Y-14782888D01*
X12388039Y-14782888D02*
X12378515Y-14744793D01*
X12378515Y-14744793D02*
X12378515Y-14697174D01*
X12378515Y-14697174D02*
X12388039Y-14659079D01*
X12388039Y-14659079D02*
X12397563Y-14640031D01*
X12397563Y-14640031D02*
X12407086Y-14630508D01*
X12407086Y-14630508D02*
X12426134Y-14620984D01*
X12578515Y-14801936D02*
X12588039Y-14811460D01*
X12588039Y-14811460D02*
X12578515Y-14820984D01*
X12578515Y-14820984D02*
X12568991Y-14811460D01*
X12568991Y-14811460D02*
X12578515Y-14801936D01*
X12578515Y-14801936D02*
X12578515Y-14820984D01*
X12711848Y-14620984D02*
X12730896Y-14620984D01*
X12730896Y-14620984D02*
X12749944Y-14630508D01*
X12749944Y-14630508D02*
X12759467Y-14640031D01*
X12759467Y-14640031D02*
X12768991Y-14659079D01*
X12768991Y-14659079D02*
X12778515Y-14697174D01*
X12778515Y-14697174D02*
X12778515Y-14744793D01*
X12778515Y-14744793D02*
X12768991Y-14782888D01*
X12768991Y-14782888D02*
X12759467Y-14801936D01*
X12759467Y-14801936D02*
X12749944Y-14811460D01*
X12749944Y-14811460D02*
X12730896Y-14820984D01*
X12730896Y-14820984D02*
X12711848Y-14820984D01*
X12711848Y-14820984D02*
X12692801Y-14811460D01*
X12692801Y-14811460D02*
X12683277Y-14801936D01*
X12683277Y-14801936D02*
X12673753Y-14782888D01*
X12673753Y-14782888D02*
X12664229Y-14744793D01*
X12664229Y-14744793D02*
X12664229Y-14697174D01*
X12664229Y-14697174D02*
X12673753Y-14659079D01*
X12673753Y-14659079D02*
X12683277Y-14640031D01*
X12683277Y-14640031D02*
X12692801Y-14630508D01*
X12692801Y-14630508D02*
X12711848Y-14620984D01*
X12968991Y-14820984D02*
X12854706Y-14820984D01*
X12911848Y-14820984D02*
X12911848Y-14620984D01*
X12911848Y-14620984D02*
X12892801Y-14649555D01*
X12892801Y-14649555D02*
X12873753Y-14668603D01*
X12873753Y-14668603D02*
X12854706Y-14678127D01*
X13159467Y-14820984D02*
X13045182Y-14820984D01*
X13102325Y-14820984D02*
X13102325Y-14620984D01*
X13102325Y-14620984D02*
X13083277Y-14649555D01*
X13083277Y-14649555D02*
X13064229Y-14668603D01*
X13064229Y-14668603D02*
X13045182Y-14678127D01*
X13273753Y-14706698D02*
X13254706Y-14697174D01*
X13254706Y-14697174D02*
X13245182Y-14687650D01*
X13245182Y-14687650D02*
X13235658Y-14668603D01*
X13235658Y-14668603D02*
X13235658Y-14659079D01*
X13235658Y-14659079D02*
X13245182Y-14640031D01*
X13245182Y-14640031D02*
X13254706Y-14630508D01*
X13254706Y-14630508D02*
X13273753Y-14620984D01*
X13273753Y-14620984D02*
X13311848Y-14620984D01*
X13311848Y-14620984D02*
X13330896Y-14630508D01*
X13330896Y-14630508D02*
X13340420Y-14640031D01*
X13340420Y-14640031D02*
X13349944Y-14659079D01*
X13349944Y-14659079D02*
X13349944Y-14668603D01*
X13349944Y-14668603D02*
X13340420Y-14687650D01*
X13340420Y-14687650D02*
X13330896Y-14697174D01*
X13330896Y-14697174D02*
X13311848Y-14706698D01*
X13311848Y-14706698D02*
X13273753Y-14706698D01*
X13273753Y-14706698D02*
X13254706Y-14716222D01*
X13254706Y-14716222D02*
X13245182Y-14725746D01*
X13245182Y-14725746D02*
X13235658Y-14744793D01*
X13235658Y-14744793D02*
X13235658Y-14782888D01*
X13235658Y-14782888D02*
X13245182Y-14801936D01*
X13245182Y-14801936D02*
X13254706Y-14811460D01*
X13254706Y-14811460D02*
X13273753Y-14820984D01*
X13273753Y-14820984D02*
X13311848Y-14820984D01*
X13311848Y-14820984D02*
X13330896Y-14811460D01*
X13330896Y-14811460D02*
X13340420Y-14801936D01*
X13340420Y-14801936D02*
X13349944Y-14782888D01*
X13349944Y-14782888D02*
X13349944Y-14744793D01*
X13349944Y-14744793D02*
X13340420Y-14725746D01*
X13340420Y-14725746D02*
X13330896Y-14716222D01*
X13330896Y-14716222D02*
X13311848Y-14706698D01*
X13426134Y-14620984D02*
X13426134Y-14659079D01*
X13502325Y-14620984D02*
X13502325Y-14659079D01*
X13797563Y-14897174D02*
X13788039Y-14887650D01*
X13788039Y-14887650D02*
X13768991Y-14859079D01*
X13768991Y-14859079D02*
X13759468Y-14840031D01*
X13759468Y-14840031D02*
X13749944Y-14811460D01*
X13749944Y-14811460D02*
X13740420Y-14763841D01*
X13740420Y-14763841D02*
X13740420Y-14725746D01*
X13740420Y-14725746D02*
X13749944Y-14678127D01*
X13749944Y-14678127D02*
X13759468Y-14649555D01*
X13759468Y-14649555D02*
X13768991Y-14630508D01*
X13768991Y-14630508D02*
X13788039Y-14601936D01*
X13788039Y-14601936D02*
X13797563Y-14592412D01*
X13978515Y-14820984D02*
X13864229Y-14820984D01*
X13921372Y-14820984D02*
X13921372Y-14620984D01*
X13921372Y-14620984D02*
X13902325Y-14649555D01*
X13902325Y-14649555D02*
X13883277Y-14668603D01*
X13883277Y-14668603D02*
X13864229Y-14678127D01*
X14045182Y-14620984D02*
X14168991Y-14620984D01*
X14168991Y-14620984D02*
X14102325Y-14697174D01*
X14102325Y-14697174D02*
X14130896Y-14697174D01*
X14130896Y-14697174D02*
X14149944Y-14706698D01*
X14149944Y-14706698D02*
X14159468Y-14716222D01*
X14159468Y-14716222D02*
X14168991Y-14735269D01*
X14168991Y-14735269D02*
X14168991Y-14782888D01*
X14168991Y-14782888D02*
X14159468Y-14801936D01*
X14159468Y-14801936D02*
X14149944Y-14811460D01*
X14149944Y-14811460D02*
X14130896Y-14820984D01*
X14130896Y-14820984D02*
X14073753Y-14820984D01*
X14073753Y-14820984D02*
X14054706Y-14811460D01*
X14054706Y-14811460D02*
X14045182Y-14801936D01*
X14349944Y-14620984D02*
X14254706Y-14620984D01*
X14254706Y-14620984D02*
X14245182Y-14716222D01*
X14245182Y-14716222D02*
X14254706Y-14706698D01*
X14254706Y-14706698D02*
X14273753Y-14697174D01*
X14273753Y-14697174D02*
X14321372Y-14697174D01*
X14321372Y-14697174D02*
X14340420Y-14706698D01*
X14340420Y-14706698D02*
X14349944Y-14716222D01*
X14349944Y-14716222D02*
X14359468Y-14735269D01*
X14359468Y-14735269D02*
X14359468Y-14782888D01*
X14359468Y-14782888D02*
X14349944Y-14801936D01*
X14349944Y-14801936D02*
X14340420Y-14811460D01*
X14340420Y-14811460D02*
X14321372Y-14820984D01*
X14321372Y-14820984D02*
X14273753Y-14820984D01*
X14273753Y-14820984D02*
X14254706Y-14811460D01*
X14254706Y-14811460D02*
X14245182Y-14801936D01*
X14597563Y-14820984D02*
X14597563Y-14620984D01*
X14683277Y-14820984D02*
X14683277Y-14716222D01*
X14683277Y-14716222D02*
X14673753Y-14697174D01*
X14673753Y-14697174D02*
X14654706Y-14687650D01*
X14654706Y-14687650D02*
X14626134Y-14687650D01*
X14626134Y-14687650D02*
X14607087Y-14697174D01*
X14607087Y-14697174D02*
X14597563Y-14706698D01*
X14807087Y-14820984D02*
X14788039Y-14811460D01*
X14788039Y-14811460D02*
X14778515Y-14801936D01*
X14778515Y-14801936D02*
X14768991Y-14782888D01*
X14768991Y-14782888D02*
X14768991Y-14725746D01*
X14768991Y-14725746D02*
X14778515Y-14706698D01*
X14778515Y-14706698D02*
X14788039Y-14697174D01*
X14788039Y-14697174D02*
X14807087Y-14687650D01*
X14807087Y-14687650D02*
X14835658Y-14687650D01*
X14835658Y-14687650D02*
X14854706Y-14697174D01*
X14854706Y-14697174D02*
X14864230Y-14706698D01*
X14864230Y-14706698D02*
X14873753Y-14725746D01*
X14873753Y-14725746D02*
X14873753Y-14782888D01*
X14873753Y-14782888D02*
X14864230Y-14801936D01*
X14864230Y-14801936D02*
X14854706Y-14811460D01*
X14854706Y-14811460D02*
X14835658Y-14820984D01*
X14835658Y-14820984D02*
X14807087Y-14820984D01*
X14988039Y-14820984D02*
X14968991Y-14811460D01*
X14968991Y-14811460D02*
X14959468Y-14792412D01*
X14959468Y-14792412D02*
X14959468Y-14620984D01*
X15140420Y-14811460D02*
X15121372Y-14820984D01*
X15121372Y-14820984D02*
X15083277Y-14820984D01*
X15083277Y-14820984D02*
X15064230Y-14811460D01*
X15064230Y-14811460D02*
X15054706Y-14792412D01*
X15054706Y-14792412D02*
X15054706Y-14716222D01*
X15054706Y-14716222D02*
X15064230Y-14697174D01*
X15064230Y-14697174D02*
X15083277Y-14687650D01*
X15083277Y-14687650D02*
X15121372Y-14687650D01*
X15121372Y-14687650D02*
X15140420Y-14697174D01*
X15140420Y-14697174D02*
X15149944Y-14716222D01*
X15149944Y-14716222D02*
X15149944Y-14735269D01*
X15149944Y-14735269D02*
X15054706Y-14754317D01*
X15226134Y-14811460D02*
X15245182Y-14820984D01*
X15245182Y-14820984D02*
X15283277Y-14820984D01*
X15283277Y-14820984D02*
X15302325Y-14811460D01*
X15302325Y-14811460D02*
X15311849Y-14792412D01*
X15311849Y-14792412D02*
X15311849Y-14782888D01*
X15311849Y-14782888D02*
X15302325Y-14763841D01*
X15302325Y-14763841D02*
X15283277Y-14754317D01*
X15283277Y-14754317D02*
X15254706Y-14754317D01*
X15254706Y-14754317D02*
X15235658Y-14744793D01*
X15235658Y-14744793D02*
X15226134Y-14725746D01*
X15226134Y-14725746D02*
X15226134Y-14716222D01*
X15226134Y-14716222D02*
X15235658Y-14697174D01*
X15235658Y-14697174D02*
X15254706Y-14687650D01*
X15254706Y-14687650D02*
X15283277Y-14687650D01*
X15283277Y-14687650D02*
X15302325Y-14697174D01*
X15378515Y-14897174D02*
X15388039Y-14887650D01*
X15388039Y-14887650D02*
X15407087Y-14859079D01*
X15407087Y-14859079D02*
X15416611Y-14840031D01*
X15416611Y-14840031D02*
X15426134Y-14811460D01*
X15426134Y-14811460D02*
X15435658Y-14763841D01*
X15435658Y-14763841D02*
X15435658Y-14725746D01*
X15435658Y-14725746D02*
X15426134Y-14678127D01*
X15426134Y-14678127D02*
X15416611Y-14649555D01*
X15416611Y-14649555D02*
X15407087Y-14630508D01*
X15407087Y-14630508D02*
X15388039Y-14601936D01*
X15388039Y-14601936D02*
X15378515Y-14592412D01*
D12*
X10222500Y-14993500D02*
G75*
G02*
X10152500Y-14993500I-35000J0D01*
G01*
X10152500Y-14993500D02*
G75*
G02*
X10222500Y-14993500I35000J0D01*
G01*
D11*
X10521372Y-14884984D02*
X10540420Y-14884984D01*
X10540420Y-14884984D02*
X10559467Y-14894508D01*
X10559467Y-14894508D02*
X10568991Y-14904031D01*
X10568991Y-14904031D02*
X10578515Y-14923079D01*
X10578515Y-14923079D02*
X10588039Y-14961174D01*
X10588039Y-14961174D02*
X10588039Y-15008793D01*
X10588039Y-15008793D02*
X10578515Y-15046888D01*
X10578515Y-15046888D02*
X10568991Y-15065936D01*
X10568991Y-15065936D02*
X10559467Y-15075460D01*
X10559467Y-15075460D02*
X10540420Y-15084984D01*
X10540420Y-15084984D02*
X10521372Y-15084984D01*
X10521372Y-15084984D02*
X10502324Y-15075460D01*
X10502324Y-15075460D02*
X10492801Y-15065936D01*
X10492801Y-15065936D02*
X10483277Y-15046888D01*
X10483277Y-15046888D02*
X10473753Y-15008793D01*
X10473753Y-15008793D02*
X10473753Y-14961174D01*
X10473753Y-14961174D02*
X10483277Y-14923079D01*
X10483277Y-14923079D02*
X10492801Y-14904031D01*
X10492801Y-14904031D02*
X10502324Y-14894508D01*
X10502324Y-14894508D02*
X10521372Y-14884984D01*
X10673753Y-15065936D02*
X10683277Y-15075460D01*
X10683277Y-15075460D02*
X10673753Y-15084984D01*
X10673753Y-15084984D02*
X10664229Y-15075460D01*
X10664229Y-15075460D02*
X10673753Y-15065936D01*
X10673753Y-15065936D02*
X10673753Y-15084984D01*
X10749944Y-14884984D02*
X10883277Y-14884984D01*
X10883277Y-14884984D02*
X10797563Y-15084984D01*
X10997563Y-14884984D02*
X11016610Y-14884984D01*
X11016610Y-14884984D02*
X11035658Y-14894508D01*
X11035658Y-14894508D02*
X11045182Y-14904031D01*
X11045182Y-14904031D02*
X11054705Y-14923079D01*
X11054705Y-14923079D02*
X11064229Y-14961174D01*
X11064229Y-14961174D02*
X11064229Y-15008793D01*
X11064229Y-15008793D02*
X11054705Y-15046888D01*
X11054705Y-15046888D02*
X11045182Y-15065936D01*
X11045182Y-15065936D02*
X11035658Y-15075460D01*
X11035658Y-15075460D02*
X11016610Y-15084984D01*
X11016610Y-15084984D02*
X10997563Y-15084984D01*
X10997563Y-15084984D02*
X10978515Y-15075460D01*
X10978515Y-15075460D02*
X10968991Y-15065936D01*
X10968991Y-15065936D02*
X10959467Y-15046888D01*
X10959467Y-15046888D02*
X10949944Y-15008793D01*
X10949944Y-15008793D02*
X10949944Y-14961174D01*
X10949944Y-14961174D02*
X10959467Y-14923079D01*
X10959467Y-14923079D02*
X10968991Y-14904031D01*
X10968991Y-14904031D02*
X10978515Y-14894508D01*
X10978515Y-14894508D02*
X10997563Y-14884984D01*
X11188039Y-14884984D02*
X11207086Y-14884984D01*
X11207086Y-14884984D02*
X11226134Y-14894508D01*
X11226134Y-14894508D02*
X11235658Y-14904031D01*
X11235658Y-14904031D02*
X11245182Y-14923079D01*
X11245182Y-14923079D02*
X11254705Y-14961174D01*
X11254705Y-14961174D02*
X11254705Y-15008793D01*
X11254705Y-15008793D02*
X11245182Y-15046888D01*
X11245182Y-15046888D02*
X11235658Y-15065936D01*
X11235658Y-15065936D02*
X11226134Y-15075460D01*
X11226134Y-15075460D02*
X11207086Y-15084984D01*
X11207086Y-15084984D02*
X11188039Y-15084984D01*
X11188039Y-15084984D02*
X11168991Y-15075460D01*
X11168991Y-15075460D02*
X11159467Y-15065936D01*
X11159467Y-15065936D02*
X11149944Y-15046888D01*
X11149944Y-15046888D02*
X11140420Y-15008793D01*
X11140420Y-15008793D02*
X11140420Y-14961174D01*
X11140420Y-14961174D02*
X11149944Y-14923079D01*
X11149944Y-14923079D02*
X11159467Y-14904031D01*
X11159467Y-14904031D02*
X11168991Y-14894508D01*
X11168991Y-14894508D02*
X11188039Y-14884984D01*
X11340420Y-15084984D02*
X11340420Y-14951650D01*
X11340420Y-14970698D02*
X11349943Y-14961174D01*
X11349943Y-14961174D02*
X11368991Y-14951650D01*
X11368991Y-14951650D02*
X11397563Y-14951650D01*
X11397563Y-14951650D02*
X11416610Y-14961174D01*
X11416610Y-14961174D02*
X11426134Y-14980222D01*
X11426134Y-14980222D02*
X11426134Y-15084984D01*
X11426134Y-14980222D02*
X11435658Y-14961174D01*
X11435658Y-14961174D02*
X11454705Y-14951650D01*
X11454705Y-14951650D02*
X11483277Y-14951650D01*
X11483277Y-14951650D02*
X11502324Y-14961174D01*
X11502324Y-14961174D02*
X11511848Y-14980222D01*
X11511848Y-14980222D02*
X11511848Y-15084984D01*
X11607086Y-15084984D02*
X11607086Y-14951650D01*
X11607086Y-14970698D02*
X11616610Y-14961174D01*
X11616610Y-14961174D02*
X11635658Y-14951650D01*
X11635658Y-14951650D02*
X11664229Y-14951650D01*
X11664229Y-14951650D02*
X11683277Y-14961174D01*
X11683277Y-14961174D02*
X11692801Y-14980222D01*
X11692801Y-14980222D02*
X11692801Y-15084984D01*
X11692801Y-14980222D02*
X11702324Y-14961174D01*
X11702324Y-14961174D02*
X11721372Y-14951650D01*
X11721372Y-14951650D02*
X11749943Y-14951650D01*
X11749943Y-14951650D02*
X11768991Y-14961174D01*
X11768991Y-14961174D02*
X11778515Y-14980222D01*
X11778515Y-14980222D02*
X11778515Y-15084984D01*
X12168991Y-14875460D02*
X11997563Y-15132603D01*
X12426134Y-14884984D02*
X12445182Y-14884984D01*
X12445182Y-14884984D02*
X12464229Y-14894508D01*
X12464229Y-14894508D02*
X12473753Y-14904031D01*
X12473753Y-14904031D02*
X12483277Y-14923079D01*
X12483277Y-14923079D02*
X12492801Y-14961174D01*
X12492801Y-14961174D02*
X12492801Y-15008793D01*
X12492801Y-15008793D02*
X12483277Y-15046888D01*
X12483277Y-15046888D02*
X12473753Y-15065936D01*
X12473753Y-15065936D02*
X12464229Y-15075460D01*
X12464229Y-15075460D02*
X12445182Y-15084984D01*
X12445182Y-15084984D02*
X12426134Y-15084984D01*
X12426134Y-15084984D02*
X12407086Y-15075460D01*
X12407086Y-15075460D02*
X12397563Y-15065936D01*
X12397563Y-15065936D02*
X12388039Y-15046888D01*
X12388039Y-15046888D02*
X12378515Y-15008793D01*
X12378515Y-15008793D02*
X12378515Y-14961174D01*
X12378515Y-14961174D02*
X12388039Y-14923079D01*
X12388039Y-14923079D02*
X12397563Y-14904031D01*
X12397563Y-14904031D02*
X12407086Y-14894508D01*
X12407086Y-14894508D02*
X12426134Y-14884984D01*
X12578515Y-15065936D02*
X12588039Y-15075460D01*
X12588039Y-15075460D02*
X12578515Y-15084984D01*
X12578515Y-15084984D02*
X12568991Y-15075460D01*
X12568991Y-15075460D02*
X12578515Y-15065936D01*
X12578515Y-15065936D02*
X12578515Y-15084984D01*
X12711848Y-14884984D02*
X12730896Y-14884984D01*
X12730896Y-14884984D02*
X12749944Y-14894508D01*
X12749944Y-14894508D02*
X12759467Y-14904031D01*
X12759467Y-14904031D02*
X12768991Y-14923079D01*
X12768991Y-14923079D02*
X12778515Y-14961174D01*
X12778515Y-14961174D02*
X12778515Y-15008793D01*
X12778515Y-15008793D02*
X12768991Y-15046888D01*
X12768991Y-15046888D02*
X12759467Y-15065936D01*
X12759467Y-15065936D02*
X12749944Y-15075460D01*
X12749944Y-15075460D02*
X12730896Y-15084984D01*
X12730896Y-15084984D02*
X12711848Y-15084984D01*
X12711848Y-15084984D02*
X12692801Y-15075460D01*
X12692801Y-15075460D02*
X12683277Y-15065936D01*
X12683277Y-15065936D02*
X12673753Y-15046888D01*
X12673753Y-15046888D02*
X12664229Y-15008793D01*
X12664229Y-15008793D02*
X12664229Y-14961174D01*
X12664229Y-14961174D02*
X12673753Y-14923079D01*
X12673753Y-14923079D02*
X12683277Y-14904031D01*
X12683277Y-14904031D02*
X12692801Y-14894508D01*
X12692801Y-14894508D02*
X12711848Y-14884984D01*
X12854706Y-14904031D02*
X12864229Y-14894508D01*
X12864229Y-14894508D02*
X12883277Y-14884984D01*
X12883277Y-14884984D02*
X12930896Y-14884984D01*
X12930896Y-14884984D02*
X12949944Y-14894508D01*
X12949944Y-14894508D02*
X12959467Y-14904031D01*
X12959467Y-14904031D02*
X12968991Y-14923079D01*
X12968991Y-14923079D02*
X12968991Y-14942127D01*
X12968991Y-14942127D02*
X12959467Y-14970698D01*
X12959467Y-14970698D02*
X12845182Y-15084984D01*
X12845182Y-15084984D02*
X12968991Y-15084984D01*
X13035658Y-14884984D02*
X13168991Y-14884984D01*
X13168991Y-14884984D02*
X13083277Y-15084984D01*
X13330896Y-14884984D02*
X13292801Y-14884984D01*
X13292801Y-14884984D02*
X13273753Y-14894508D01*
X13273753Y-14894508D02*
X13264229Y-14904031D01*
X13264229Y-14904031D02*
X13245182Y-14932603D01*
X13245182Y-14932603D02*
X13235658Y-14970698D01*
X13235658Y-14970698D02*
X13235658Y-15046888D01*
X13235658Y-15046888D02*
X13245182Y-15065936D01*
X13245182Y-15065936D02*
X13254706Y-15075460D01*
X13254706Y-15075460D02*
X13273753Y-15084984D01*
X13273753Y-15084984D02*
X13311848Y-15084984D01*
X13311848Y-15084984D02*
X13330896Y-15075460D01*
X13330896Y-15075460D02*
X13340420Y-15065936D01*
X13340420Y-15065936D02*
X13349944Y-15046888D01*
X13349944Y-15046888D02*
X13349944Y-14999269D01*
X13349944Y-14999269D02*
X13340420Y-14980222D01*
X13340420Y-14980222D02*
X13330896Y-14970698D01*
X13330896Y-14970698D02*
X13311848Y-14961174D01*
X13311848Y-14961174D02*
X13273753Y-14961174D01*
X13273753Y-14961174D02*
X13254706Y-14970698D01*
X13254706Y-14970698D02*
X13245182Y-14980222D01*
X13245182Y-14980222D02*
X13235658Y-14999269D01*
X13426134Y-14884984D02*
X13426134Y-14923079D01*
X13502325Y-14884984D02*
X13502325Y-14923079D01*
X13797563Y-15161174D02*
X13788039Y-15151650D01*
X13788039Y-15151650D02*
X13768991Y-15123079D01*
X13768991Y-15123079D02*
X13759468Y-15104031D01*
X13759468Y-15104031D02*
X13749944Y-15075460D01*
X13749944Y-15075460D02*
X13740420Y-15027841D01*
X13740420Y-15027841D02*
X13740420Y-14989746D01*
X13740420Y-14989746D02*
X13749944Y-14942127D01*
X13749944Y-14942127D02*
X13759468Y-14913555D01*
X13759468Y-14913555D02*
X13768991Y-14894508D01*
X13768991Y-14894508D02*
X13788039Y-14865936D01*
X13788039Y-14865936D02*
X13797563Y-14856412D01*
X13864229Y-14904031D02*
X13873753Y-14894508D01*
X13873753Y-14894508D02*
X13892801Y-14884984D01*
X13892801Y-14884984D02*
X13940420Y-14884984D01*
X13940420Y-14884984D02*
X13959468Y-14894508D01*
X13959468Y-14894508D02*
X13968991Y-14904031D01*
X13968991Y-14904031D02*
X13978515Y-14923079D01*
X13978515Y-14923079D02*
X13978515Y-14942127D01*
X13978515Y-14942127D02*
X13968991Y-14970698D01*
X13968991Y-14970698D02*
X13854706Y-15084984D01*
X13854706Y-15084984D02*
X13978515Y-15084984D01*
X14216610Y-15084984D02*
X14216610Y-14884984D01*
X14302325Y-15084984D02*
X14302325Y-14980222D01*
X14302325Y-14980222D02*
X14292801Y-14961174D01*
X14292801Y-14961174D02*
X14273753Y-14951650D01*
X14273753Y-14951650D02*
X14245182Y-14951650D01*
X14245182Y-14951650D02*
X14226134Y-14961174D01*
X14226134Y-14961174D02*
X14216610Y-14970698D01*
X14426134Y-15084984D02*
X14407087Y-15075460D01*
X14407087Y-15075460D02*
X14397563Y-15065936D01*
X14397563Y-15065936D02*
X14388039Y-15046888D01*
X14388039Y-15046888D02*
X14388039Y-14989746D01*
X14388039Y-14989746D02*
X14397563Y-14970698D01*
X14397563Y-14970698D02*
X14407087Y-14961174D01*
X14407087Y-14961174D02*
X14426134Y-14951650D01*
X14426134Y-14951650D02*
X14454706Y-14951650D01*
X14454706Y-14951650D02*
X14473753Y-14961174D01*
X14473753Y-14961174D02*
X14483277Y-14970698D01*
X14483277Y-14970698D02*
X14492801Y-14989746D01*
X14492801Y-14989746D02*
X14492801Y-15046888D01*
X14492801Y-15046888D02*
X14483277Y-15065936D01*
X14483277Y-15065936D02*
X14473753Y-15075460D01*
X14473753Y-15075460D02*
X14454706Y-15084984D01*
X14454706Y-15084984D02*
X14426134Y-15084984D01*
X14607087Y-15084984D02*
X14588039Y-15075460D01*
X14588039Y-15075460D02*
X14578515Y-15056412D01*
X14578515Y-15056412D02*
X14578515Y-14884984D01*
X14759468Y-15075460D02*
X14740420Y-15084984D01*
X14740420Y-15084984D02*
X14702325Y-15084984D01*
X14702325Y-15084984D02*
X14683277Y-15075460D01*
X14683277Y-15075460D02*
X14673753Y-15056412D01*
X14673753Y-15056412D02*
X14673753Y-14980222D01*
X14673753Y-14980222D02*
X14683277Y-14961174D01*
X14683277Y-14961174D02*
X14702325Y-14951650D01*
X14702325Y-14951650D02*
X14740420Y-14951650D01*
X14740420Y-14951650D02*
X14759468Y-14961174D01*
X14759468Y-14961174D02*
X14768991Y-14980222D01*
X14768991Y-14980222D02*
X14768991Y-14999269D01*
X14768991Y-14999269D02*
X14673753Y-15018317D01*
X14845182Y-15075460D02*
X14864230Y-15084984D01*
X14864230Y-15084984D02*
X14902325Y-15084984D01*
X14902325Y-15084984D02*
X14921372Y-15075460D01*
X14921372Y-15075460D02*
X14930896Y-15056412D01*
X14930896Y-15056412D02*
X14930896Y-15046888D01*
X14930896Y-15046888D02*
X14921372Y-15027841D01*
X14921372Y-15027841D02*
X14902325Y-15018317D01*
X14902325Y-15018317D02*
X14873753Y-15018317D01*
X14873753Y-15018317D02*
X14854706Y-15008793D01*
X14854706Y-15008793D02*
X14845182Y-14989746D01*
X14845182Y-14989746D02*
X14845182Y-14980222D01*
X14845182Y-14980222D02*
X14854706Y-14961174D01*
X14854706Y-14961174D02*
X14873753Y-14951650D01*
X14873753Y-14951650D02*
X14902325Y-14951650D01*
X14902325Y-14951650D02*
X14921372Y-14961174D01*
X14997563Y-15161174D02*
X15007087Y-15151650D01*
X15007087Y-15151650D02*
X15026134Y-15123079D01*
X15026134Y-15123079D02*
X15035658Y-15104031D01*
X15035658Y-15104031D02*
X15045182Y-15075460D01*
X15045182Y-15075460D02*
X15054706Y-15027841D01*
X15054706Y-15027841D02*
X15054706Y-14989746D01*
X15054706Y-14989746D02*
X15045182Y-14942127D01*
X15045182Y-14942127D02*
X15035658Y-14913555D01*
X15035658Y-14913555D02*
X15026134Y-14894508D01*
X15026134Y-14894508D02*
X15007087Y-14865936D01*
X15007087Y-14865936D02*
X14997563Y-14856412D01*
D12*
X10182500Y-15217500D02*
X10182500Y-15297500D01*
X10142500Y-15257500D02*
X10222500Y-15257500D01*
D11*
X10521372Y-15148984D02*
X10540420Y-15148984D01*
X10540420Y-15148984D02*
X10559467Y-15158508D01*
X10559467Y-15158508D02*
X10568991Y-15168031D01*
X10568991Y-15168031D02*
X10578515Y-15187079D01*
X10578515Y-15187079D02*
X10588039Y-15225174D01*
X10588039Y-15225174D02*
X10588039Y-15272793D01*
X10588039Y-15272793D02*
X10578515Y-15310888D01*
X10578515Y-15310888D02*
X10568991Y-15329936D01*
X10568991Y-15329936D02*
X10559467Y-15339460D01*
X10559467Y-15339460D02*
X10540420Y-15348984D01*
X10540420Y-15348984D02*
X10521372Y-15348984D01*
X10521372Y-15348984D02*
X10502324Y-15339460D01*
X10502324Y-15339460D02*
X10492801Y-15329936D01*
X10492801Y-15329936D02*
X10483277Y-15310888D01*
X10483277Y-15310888D02*
X10473753Y-15272793D01*
X10473753Y-15272793D02*
X10473753Y-15225174D01*
X10473753Y-15225174D02*
X10483277Y-15187079D01*
X10483277Y-15187079D02*
X10492801Y-15168031D01*
X10492801Y-15168031D02*
X10502324Y-15158508D01*
X10502324Y-15158508D02*
X10521372Y-15148984D01*
X10673753Y-15329936D02*
X10683277Y-15339460D01*
X10683277Y-15339460D02*
X10673753Y-15348984D01*
X10673753Y-15348984D02*
X10664229Y-15339460D01*
X10664229Y-15339460D02*
X10673753Y-15329936D01*
X10673753Y-15329936D02*
X10673753Y-15348984D01*
X10797563Y-15234698D02*
X10778515Y-15225174D01*
X10778515Y-15225174D02*
X10768991Y-15215650D01*
X10768991Y-15215650D02*
X10759467Y-15196603D01*
X10759467Y-15196603D02*
X10759467Y-15187079D01*
X10759467Y-15187079D02*
X10768991Y-15168031D01*
X10768991Y-15168031D02*
X10778515Y-15158508D01*
X10778515Y-15158508D02*
X10797563Y-15148984D01*
X10797563Y-15148984D02*
X10835658Y-15148984D01*
X10835658Y-15148984D02*
X10854705Y-15158508D01*
X10854705Y-15158508D02*
X10864229Y-15168031D01*
X10864229Y-15168031D02*
X10873753Y-15187079D01*
X10873753Y-15187079D02*
X10873753Y-15196603D01*
X10873753Y-15196603D02*
X10864229Y-15215650D01*
X10864229Y-15215650D02*
X10854705Y-15225174D01*
X10854705Y-15225174D02*
X10835658Y-15234698D01*
X10835658Y-15234698D02*
X10797563Y-15234698D01*
X10797563Y-15234698D02*
X10778515Y-15244222D01*
X10778515Y-15244222D02*
X10768991Y-15253746D01*
X10768991Y-15253746D02*
X10759467Y-15272793D01*
X10759467Y-15272793D02*
X10759467Y-15310888D01*
X10759467Y-15310888D02*
X10768991Y-15329936D01*
X10768991Y-15329936D02*
X10778515Y-15339460D01*
X10778515Y-15339460D02*
X10797563Y-15348984D01*
X10797563Y-15348984D02*
X10835658Y-15348984D01*
X10835658Y-15348984D02*
X10854705Y-15339460D01*
X10854705Y-15339460D02*
X10864229Y-15329936D01*
X10864229Y-15329936D02*
X10873753Y-15310888D01*
X10873753Y-15310888D02*
X10873753Y-15272793D01*
X10873753Y-15272793D02*
X10864229Y-15253746D01*
X10864229Y-15253746D02*
X10854705Y-15244222D01*
X10854705Y-15244222D02*
X10835658Y-15234698D01*
X10997563Y-15148984D02*
X11016610Y-15148984D01*
X11016610Y-15148984D02*
X11035658Y-15158508D01*
X11035658Y-15158508D02*
X11045182Y-15168031D01*
X11045182Y-15168031D02*
X11054705Y-15187079D01*
X11054705Y-15187079D02*
X11064229Y-15225174D01*
X11064229Y-15225174D02*
X11064229Y-15272793D01*
X11064229Y-15272793D02*
X11054705Y-15310888D01*
X11054705Y-15310888D02*
X11045182Y-15329936D01*
X11045182Y-15329936D02*
X11035658Y-15339460D01*
X11035658Y-15339460D02*
X11016610Y-15348984D01*
X11016610Y-15348984D02*
X10997563Y-15348984D01*
X10997563Y-15348984D02*
X10978515Y-15339460D01*
X10978515Y-15339460D02*
X10968991Y-15329936D01*
X10968991Y-15329936D02*
X10959467Y-15310888D01*
X10959467Y-15310888D02*
X10949944Y-15272793D01*
X10949944Y-15272793D02*
X10949944Y-15225174D01*
X10949944Y-15225174D02*
X10959467Y-15187079D01*
X10959467Y-15187079D02*
X10968991Y-15168031D01*
X10968991Y-15168031D02*
X10978515Y-15158508D01*
X10978515Y-15158508D02*
X10997563Y-15148984D01*
X11188039Y-15148984D02*
X11207086Y-15148984D01*
X11207086Y-15148984D02*
X11226134Y-15158508D01*
X11226134Y-15158508D02*
X11235658Y-15168031D01*
X11235658Y-15168031D02*
X11245182Y-15187079D01*
X11245182Y-15187079D02*
X11254705Y-15225174D01*
X11254705Y-15225174D02*
X11254705Y-15272793D01*
X11254705Y-15272793D02*
X11245182Y-15310888D01*
X11245182Y-15310888D02*
X11235658Y-15329936D01*
X11235658Y-15329936D02*
X11226134Y-15339460D01*
X11226134Y-15339460D02*
X11207086Y-15348984D01*
X11207086Y-15348984D02*
X11188039Y-15348984D01*
X11188039Y-15348984D02*
X11168991Y-15339460D01*
X11168991Y-15339460D02*
X11159467Y-15329936D01*
X11159467Y-15329936D02*
X11149944Y-15310888D01*
X11149944Y-15310888D02*
X11140420Y-15272793D01*
X11140420Y-15272793D02*
X11140420Y-15225174D01*
X11140420Y-15225174D02*
X11149944Y-15187079D01*
X11149944Y-15187079D02*
X11159467Y-15168031D01*
X11159467Y-15168031D02*
X11168991Y-15158508D01*
X11168991Y-15158508D02*
X11188039Y-15148984D01*
X11340420Y-15348984D02*
X11340420Y-15215650D01*
X11340420Y-15234698D02*
X11349943Y-15225174D01*
X11349943Y-15225174D02*
X11368991Y-15215650D01*
X11368991Y-15215650D02*
X11397563Y-15215650D01*
X11397563Y-15215650D02*
X11416610Y-15225174D01*
X11416610Y-15225174D02*
X11426134Y-15244222D01*
X11426134Y-15244222D02*
X11426134Y-15348984D01*
X11426134Y-15244222D02*
X11435658Y-15225174D01*
X11435658Y-15225174D02*
X11454705Y-15215650D01*
X11454705Y-15215650D02*
X11483277Y-15215650D01*
X11483277Y-15215650D02*
X11502324Y-15225174D01*
X11502324Y-15225174D02*
X11511848Y-15244222D01*
X11511848Y-15244222D02*
X11511848Y-15348984D01*
X11607086Y-15348984D02*
X11607086Y-15215650D01*
X11607086Y-15234698D02*
X11616610Y-15225174D01*
X11616610Y-15225174D02*
X11635658Y-15215650D01*
X11635658Y-15215650D02*
X11664229Y-15215650D01*
X11664229Y-15215650D02*
X11683277Y-15225174D01*
X11683277Y-15225174D02*
X11692801Y-15244222D01*
X11692801Y-15244222D02*
X11692801Y-15348984D01*
X11692801Y-15244222D02*
X11702324Y-15225174D01*
X11702324Y-15225174D02*
X11721372Y-15215650D01*
X11721372Y-15215650D02*
X11749943Y-15215650D01*
X11749943Y-15215650D02*
X11768991Y-15225174D01*
X11768991Y-15225174D02*
X11778515Y-15244222D01*
X11778515Y-15244222D02*
X11778515Y-15348984D01*
X12168991Y-15139460D02*
X11997563Y-15396603D01*
X12426134Y-15148984D02*
X12445182Y-15148984D01*
X12445182Y-15148984D02*
X12464229Y-15158508D01*
X12464229Y-15158508D02*
X12473753Y-15168031D01*
X12473753Y-15168031D02*
X12483277Y-15187079D01*
X12483277Y-15187079D02*
X12492801Y-15225174D01*
X12492801Y-15225174D02*
X12492801Y-15272793D01*
X12492801Y-15272793D02*
X12483277Y-15310888D01*
X12483277Y-15310888D02*
X12473753Y-15329936D01*
X12473753Y-15329936D02*
X12464229Y-15339460D01*
X12464229Y-15339460D02*
X12445182Y-15348984D01*
X12445182Y-15348984D02*
X12426134Y-15348984D01*
X12426134Y-15348984D02*
X12407086Y-15339460D01*
X12407086Y-15339460D02*
X12397563Y-15329936D01*
X12397563Y-15329936D02*
X12388039Y-15310888D01*
X12388039Y-15310888D02*
X12378515Y-15272793D01*
X12378515Y-15272793D02*
X12378515Y-15225174D01*
X12378515Y-15225174D02*
X12388039Y-15187079D01*
X12388039Y-15187079D02*
X12397563Y-15168031D01*
X12397563Y-15168031D02*
X12407086Y-15158508D01*
X12407086Y-15158508D02*
X12426134Y-15148984D01*
X12578515Y-15329936D02*
X12588039Y-15339460D01*
X12588039Y-15339460D02*
X12578515Y-15348984D01*
X12578515Y-15348984D02*
X12568991Y-15339460D01*
X12568991Y-15339460D02*
X12578515Y-15329936D01*
X12578515Y-15329936D02*
X12578515Y-15348984D01*
X12711848Y-15148984D02*
X12730896Y-15148984D01*
X12730896Y-15148984D02*
X12749944Y-15158508D01*
X12749944Y-15158508D02*
X12759467Y-15168031D01*
X12759467Y-15168031D02*
X12768991Y-15187079D01*
X12768991Y-15187079D02*
X12778515Y-15225174D01*
X12778515Y-15225174D02*
X12778515Y-15272793D01*
X12778515Y-15272793D02*
X12768991Y-15310888D01*
X12768991Y-15310888D02*
X12759467Y-15329936D01*
X12759467Y-15329936D02*
X12749944Y-15339460D01*
X12749944Y-15339460D02*
X12730896Y-15348984D01*
X12730896Y-15348984D02*
X12711848Y-15348984D01*
X12711848Y-15348984D02*
X12692801Y-15339460D01*
X12692801Y-15339460D02*
X12683277Y-15329936D01*
X12683277Y-15329936D02*
X12673753Y-15310888D01*
X12673753Y-15310888D02*
X12664229Y-15272793D01*
X12664229Y-15272793D02*
X12664229Y-15225174D01*
X12664229Y-15225174D02*
X12673753Y-15187079D01*
X12673753Y-15187079D02*
X12683277Y-15168031D01*
X12683277Y-15168031D02*
X12692801Y-15158508D01*
X12692801Y-15158508D02*
X12711848Y-15148984D01*
X12845182Y-15148984D02*
X12968991Y-15148984D01*
X12968991Y-15148984D02*
X12902325Y-15225174D01*
X12902325Y-15225174D02*
X12930896Y-15225174D01*
X12930896Y-15225174D02*
X12949944Y-15234698D01*
X12949944Y-15234698D02*
X12959467Y-15244222D01*
X12959467Y-15244222D02*
X12968991Y-15263269D01*
X12968991Y-15263269D02*
X12968991Y-15310888D01*
X12968991Y-15310888D02*
X12959467Y-15329936D01*
X12959467Y-15329936D02*
X12949944Y-15339460D01*
X12949944Y-15339460D02*
X12930896Y-15348984D01*
X12930896Y-15348984D02*
X12873753Y-15348984D01*
X12873753Y-15348984D02*
X12854706Y-15339460D01*
X12854706Y-15339460D02*
X12845182Y-15329936D01*
X13159467Y-15348984D02*
X13045182Y-15348984D01*
X13102325Y-15348984D02*
X13102325Y-15148984D01*
X13102325Y-15148984D02*
X13083277Y-15177555D01*
X13083277Y-15177555D02*
X13064229Y-15196603D01*
X13064229Y-15196603D02*
X13045182Y-15206127D01*
X13340420Y-15148984D02*
X13245182Y-15148984D01*
X13245182Y-15148984D02*
X13235658Y-15244222D01*
X13235658Y-15244222D02*
X13245182Y-15234698D01*
X13245182Y-15234698D02*
X13264229Y-15225174D01*
X13264229Y-15225174D02*
X13311848Y-15225174D01*
X13311848Y-15225174D02*
X13330896Y-15234698D01*
X13330896Y-15234698D02*
X13340420Y-15244222D01*
X13340420Y-15244222D02*
X13349944Y-15263269D01*
X13349944Y-15263269D02*
X13349944Y-15310888D01*
X13349944Y-15310888D02*
X13340420Y-15329936D01*
X13340420Y-15329936D02*
X13330896Y-15339460D01*
X13330896Y-15339460D02*
X13311848Y-15348984D01*
X13311848Y-15348984D02*
X13264229Y-15348984D01*
X13264229Y-15348984D02*
X13245182Y-15339460D01*
X13245182Y-15339460D02*
X13235658Y-15329936D01*
X13426134Y-15148984D02*
X13426134Y-15187079D01*
X13502325Y-15148984D02*
X13502325Y-15187079D01*
X13797563Y-15425174D02*
X13788039Y-15415650D01*
X13788039Y-15415650D02*
X13768991Y-15387079D01*
X13768991Y-15387079D02*
X13759468Y-15368031D01*
X13759468Y-15368031D02*
X13749944Y-15339460D01*
X13749944Y-15339460D02*
X13740420Y-15291841D01*
X13740420Y-15291841D02*
X13740420Y-15253746D01*
X13740420Y-15253746D02*
X13749944Y-15206127D01*
X13749944Y-15206127D02*
X13759468Y-15177555D01*
X13759468Y-15177555D02*
X13768991Y-15158508D01*
X13768991Y-15158508D02*
X13788039Y-15129936D01*
X13788039Y-15129936D02*
X13797563Y-15120412D01*
X13902325Y-15234698D02*
X13883277Y-15225174D01*
X13883277Y-15225174D02*
X13873753Y-15215650D01*
X13873753Y-15215650D02*
X13864229Y-15196603D01*
X13864229Y-15196603D02*
X13864229Y-15187079D01*
X13864229Y-15187079D02*
X13873753Y-15168031D01*
X13873753Y-15168031D02*
X13883277Y-15158508D01*
X13883277Y-15158508D02*
X13902325Y-15148984D01*
X13902325Y-15148984D02*
X13940420Y-15148984D01*
X13940420Y-15148984D02*
X13959468Y-15158508D01*
X13959468Y-15158508D02*
X13968991Y-15168031D01*
X13968991Y-15168031D02*
X13978515Y-15187079D01*
X13978515Y-15187079D02*
X13978515Y-15196603D01*
X13978515Y-15196603D02*
X13968991Y-15215650D01*
X13968991Y-15215650D02*
X13959468Y-15225174D01*
X13959468Y-15225174D02*
X13940420Y-15234698D01*
X13940420Y-15234698D02*
X13902325Y-15234698D01*
X13902325Y-15234698D02*
X13883277Y-15244222D01*
X13883277Y-15244222D02*
X13873753Y-15253746D01*
X13873753Y-15253746D02*
X13864229Y-15272793D01*
X13864229Y-15272793D02*
X13864229Y-15310888D01*
X13864229Y-15310888D02*
X13873753Y-15329936D01*
X13873753Y-15329936D02*
X13883277Y-15339460D01*
X13883277Y-15339460D02*
X13902325Y-15348984D01*
X13902325Y-15348984D02*
X13940420Y-15348984D01*
X13940420Y-15348984D02*
X13959468Y-15339460D01*
X13959468Y-15339460D02*
X13968991Y-15329936D01*
X13968991Y-15329936D02*
X13978515Y-15310888D01*
X13978515Y-15310888D02*
X13978515Y-15272793D01*
X13978515Y-15272793D02*
X13968991Y-15253746D01*
X13968991Y-15253746D02*
X13959468Y-15244222D01*
X13959468Y-15244222D02*
X13940420Y-15234698D01*
X14216610Y-15348984D02*
X14216610Y-15148984D01*
X14302325Y-15348984D02*
X14302325Y-15244222D01*
X14302325Y-15244222D02*
X14292801Y-15225174D01*
X14292801Y-15225174D02*
X14273753Y-15215650D01*
X14273753Y-15215650D02*
X14245182Y-15215650D01*
X14245182Y-15215650D02*
X14226134Y-15225174D01*
X14226134Y-15225174D02*
X14216610Y-15234698D01*
X14426134Y-15348984D02*
X14407087Y-15339460D01*
X14407087Y-15339460D02*
X14397563Y-15329936D01*
X14397563Y-15329936D02*
X14388039Y-15310888D01*
X14388039Y-15310888D02*
X14388039Y-15253746D01*
X14388039Y-15253746D02*
X14397563Y-15234698D01*
X14397563Y-15234698D02*
X14407087Y-15225174D01*
X14407087Y-15225174D02*
X14426134Y-15215650D01*
X14426134Y-15215650D02*
X14454706Y-15215650D01*
X14454706Y-15215650D02*
X14473753Y-15225174D01*
X14473753Y-15225174D02*
X14483277Y-15234698D01*
X14483277Y-15234698D02*
X14492801Y-15253746D01*
X14492801Y-15253746D02*
X14492801Y-15310888D01*
X14492801Y-15310888D02*
X14483277Y-15329936D01*
X14483277Y-15329936D02*
X14473753Y-15339460D01*
X14473753Y-15339460D02*
X14454706Y-15348984D01*
X14454706Y-15348984D02*
X14426134Y-15348984D01*
X14607087Y-15348984D02*
X14588039Y-15339460D01*
X14588039Y-15339460D02*
X14578515Y-15320412D01*
X14578515Y-15320412D02*
X14578515Y-15148984D01*
X14759468Y-15339460D02*
X14740420Y-15348984D01*
X14740420Y-15348984D02*
X14702325Y-15348984D01*
X14702325Y-15348984D02*
X14683277Y-15339460D01*
X14683277Y-15339460D02*
X14673753Y-15320412D01*
X14673753Y-15320412D02*
X14673753Y-15244222D01*
X14673753Y-15244222D02*
X14683277Y-15225174D01*
X14683277Y-15225174D02*
X14702325Y-15215650D01*
X14702325Y-15215650D02*
X14740420Y-15215650D01*
X14740420Y-15215650D02*
X14759468Y-15225174D01*
X14759468Y-15225174D02*
X14768991Y-15244222D01*
X14768991Y-15244222D02*
X14768991Y-15263269D01*
X14768991Y-15263269D02*
X14673753Y-15282317D01*
X14845182Y-15339460D02*
X14864230Y-15348984D01*
X14864230Y-15348984D02*
X14902325Y-15348984D01*
X14902325Y-15348984D02*
X14921372Y-15339460D01*
X14921372Y-15339460D02*
X14930896Y-15320412D01*
X14930896Y-15320412D02*
X14930896Y-15310888D01*
X14930896Y-15310888D02*
X14921372Y-15291841D01*
X14921372Y-15291841D02*
X14902325Y-15282317D01*
X14902325Y-15282317D02*
X14873753Y-15282317D01*
X14873753Y-15282317D02*
X14854706Y-15272793D01*
X14854706Y-15272793D02*
X14845182Y-15253746D01*
X14845182Y-15253746D02*
X14845182Y-15244222D01*
X14845182Y-15244222D02*
X14854706Y-15225174D01*
X14854706Y-15225174D02*
X14873753Y-15215650D01*
X14873753Y-15215650D02*
X14902325Y-15215650D01*
X14902325Y-15215650D02*
X14921372Y-15225174D01*
X14997563Y-15425174D02*
X15007087Y-15415650D01*
X15007087Y-15415650D02*
X15026134Y-15387079D01*
X15026134Y-15387079D02*
X15035658Y-15368031D01*
X15035658Y-15368031D02*
X15045182Y-15339460D01*
X15045182Y-15339460D02*
X15054706Y-15291841D01*
X15054706Y-15291841D02*
X15054706Y-15253746D01*
X15054706Y-15253746D02*
X15045182Y-15206127D01*
X15045182Y-15206127D02*
X15035658Y-15177555D01*
X15035658Y-15177555D02*
X15026134Y-15158508D01*
X15026134Y-15158508D02*
X15007087Y-15129936D01*
X15007087Y-15129936D02*
X14997563Y-15120412D01*
D12*
X10209320Y-15553320D02*
X10209320Y-15489680D01*
X10145680Y-15489680D01*
X10145680Y-15553320D01*
X10209320Y-15553320D01*
D11*
X10521372Y-15412984D02*
X10540420Y-15412984D01*
X10540420Y-15412984D02*
X10559467Y-15422508D01*
X10559467Y-15422508D02*
X10568991Y-15432031D01*
X10568991Y-15432031D02*
X10578515Y-15451079D01*
X10578515Y-15451079D02*
X10588039Y-15489174D01*
X10588039Y-15489174D02*
X10588039Y-15536793D01*
X10588039Y-15536793D02*
X10578515Y-15574888D01*
X10578515Y-15574888D02*
X10568991Y-15593936D01*
X10568991Y-15593936D02*
X10559467Y-15603460D01*
X10559467Y-15603460D02*
X10540420Y-15612984D01*
X10540420Y-15612984D02*
X10521372Y-15612984D01*
X10521372Y-15612984D02*
X10502324Y-15603460D01*
X10502324Y-15603460D02*
X10492801Y-15593936D01*
X10492801Y-15593936D02*
X10483277Y-15574888D01*
X10483277Y-15574888D02*
X10473753Y-15536793D01*
X10473753Y-15536793D02*
X10473753Y-15489174D01*
X10473753Y-15489174D02*
X10483277Y-15451079D01*
X10483277Y-15451079D02*
X10492801Y-15432031D01*
X10492801Y-15432031D02*
X10502324Y-15422508D01*
X10502324Y-15422508D02*
X10521372Y-15412984D01*
X10673753Y-15593936D02*
X10683277Y-15603460D01*
X10683277Y-15603460D02*
X10673753Y-15612984D01*
X10673753Y-15612984D02*
X10664229Y-15603460D01*
X10664229Y-15603460D02*
X10673753Y-15593936D01*
X10673753Y-15593936D02*
X10673753Y-15612984D01*
X10778515Y-15612984D02*
X10816610Y-15612984D01*
X10816610Y-15612984D02*
X10835658Y-15603460D01*
X10835658Y-15603460D02*
X10845182Y-15593936D01*
X10845182Y-15593936D02*
X10864229Y-15565365D01*
X10864229Y-15565365D02*
X10873753Y-15527269D01*
X10873753Y-15527269D02*
X10873753Y-15451079D01*
X10873753Y-15451079D02*
X10864229Y-15432031D01*
X10864229Y-15432031D02*
X10854705Y-15422508D01*
X10854705Y-15422508D02*
X10835658Y-15412984D01*
X10835658Y-15412984D02*
X10797563Y-15412984D01*
X10797563Y-15412984D02*
X10778515Y-15422508D01*
X10778515Y-15422508D02*
X10768991Y-15432031D01*
X10768991Y-15432031D02*
X10759467Y-15451079D01*
X10759467Y-15451079D02*
X10759467Y-15498698D01*
X10759467Y-15498698D02*
X10768991Y-15517746D01*
X10768991Y-15517746D02*
X10778515Y-15527269D01*
X10778515Y-15527269D02*
X10797563Y-15536793D01*
X10797563Y-15536793D02*
X10835658Y-15536793D01*
X10835658Y-15536793D02*
X10854705Y-15527269D01*
X10854705Y-15527269D02*
X10864229Y-15517746D01*
X10864229Y-15517746D02*
X10873753Y-15498698D01*
X10997563Y-15412984D02*
X11016610Y-15412984D01*
X11016610Y-15412984D02*
X11035658Y-15422508D01*
X11035658Y-15422508D02*
X11045182Y-15432031D01*
X11045182Y-15432031D02*
X11054705Y-15451079D01*
X11054705Y-15451079D02*
X11064229Y-15489174D01*
X11064229Y-15489174D02*
X11064229Y-15536793D01*
X11064229Y-15536793D02*
X11054705Y-15574888D01*
X11054705Y-15574888D02*
X11045182Y-15593936D01*
X11045182Y-15593936D02*
X11035658Y-15603460D01*
X11035658Y-15603460D02*
X11016610Y-15612984D01*
X11016610Y-15612984D02*
X10997563Y-15612984D01*
X10997563Y-15612984D02*
X10978515Y-15603460D01*
X10978515Y-15603460D02*
X10968991Y-15593936D01*
X10968991Y-15593936D02*
X10959467Y-15574888D01*
X10959467Y-15574888D02*
X10949944Y-15536793D01*
X10949944Y-15536793D02*
X10949944Y-15489174D01*
X10949944Y-15489174D02*
X10959467Y-15451079D01*
X10959467Y-15451079D02*
X10968991Y-15432031D01*
X10968991Y-15432031D02*
X10978515Y-15422508D01*
X10978515Y-15422508D02*
X10997563Y-15412984D01*
X11188039Y-15412984D02*
X11207086Y-15412984D01*
X11207086Y-15412984D02*
X11226134Y-15422508D01*
X11226134Y-15422508D02*
X11235658Y-15432031D01*
X11235658Y-15432031D02*
X11245182Y-15451079D01*
X11245182Y-15451079D02*
X11254705Y-15489174D01*
X11254705Y-15489174D02*
X11254705Y-15536793D01*
X11254705Y-15536793D02*
X11245182Y-15574888D01*
X11245182Y-15574888D02*
X11235658Y-15593936D01*
X11235658Y-15593936D02*
X11226134Y-15603460D01*
X11226134Y-15603460D02*
X11207086Y-15612984D01*
X11207086Y-15612984D02*
X11188039Y-15612984D01*
X11188039Y-15612984D02*
X11168991Y-15603460D01*
X11168991Y-15603460D02*
X11159467Y-15593936D01*
X11159467Y-15593936D02*
X11149944Y-15574888D01*
X11149944Y-15574888D02*
X11140420Y-15536793D01*
X11140420Y-15536793D02*
X11140420Y-15489174D01*
X11140420Y-15489174D02*
X11149944Y-15451079D01*
X11149944Y-15451079D02*
X11159467Y-15432031D01*
X11159467Y-15432031D02*
X11168991Y-15422508D01*
X11168991Y-15422508D02*
X11188039Y-15412984D01*
X11340420Y-15612984D02*
X11340420Y-15479650D01*
X11340420Y-15498698D02*
X11349943Y-15489174D01*
X11349943Y-15489174D02*
X11368991Y-15479650D01*
X11368991Y-15479650D02*
X11397563Y-15479650D01*
X11397563Y-15479650D02*
X11416610Y-15489174D01*
X11416610Y-15489174D02*
X11426134Y-15508222D01*
X11426134Y-15508222D02*
X11426134Y-15612984D01*
X11426134Y-15508222D02*
X11435658Y-15489174D01*
X11435658Y-15489174D02*
X11454705Y-15479650D01*
X11454705Y-15479650D02*
X11483277Y-15479650D01*
X11483277Y-15479650D02*
X11502324Y-15489174D01*
X11502324Y-15489174D02*
X11511848Y-15508222D01*
X11511848Y-15508222D02*
X11511848Y-15612984D01*
X11607086Y-15612984D02*
X11607086Y-15479650D01*
X11607086Y-15498698D02*
X11616610Y-15489174D01*
X11616610Y-15489174D02*
X11635658Y-15479650D01*
X11635658Y-15479650D02*
X11664229Y-15479650D01*
X11664229Y-15479650D02*
X11683277Y-15489174D01*
X11683277Y-15489174D02*
X11692801Y-15508222D01*
X11692801Y-15508222D02*
X11692801Y-15612984D01*
X11692801Y-15508222D02*
X11702324Y-15489174D01*
X11702324Y-15489174D02*
X11721372Y-15479650D01*
X11721372Y-15479650D02*
X11749943Y-15479650D01*
X11749943Y-15479650D02*
X11768991Y-15489174D01*
X11768991Y-15489174D02*
X11778515Y-15508222D01*
X11778515Y-15508222D02*
X11778515Y-15612984D01*
X12168991Y-15403460D02*
X11997563Y-15660603D01*
X12426134Y-15412984D02*
X12445182Y-15412984D01*
X12445182Y-15412984D02*
X12464229Y-15422508D01*
X12464229Y-15422508D02*
X12473753Y-15432031D01*
X12473753Y-15432031D02*
X12483277Y-15451079D01*
X12483277Y-15451079D02*
X12492801Y-15489174D01*
X12492801Y-15489174D02*
X12492801Y-15536793D01*
X12492801Y-15536793D02*
X12483277Y-15574888D01*
X12483277Y-15574888D02*
X12473753Y-15593936D01*
X12473753Y-15593936D02*
X12464229Y-15603460D01*
X12464229Y-15603460D02*
X12445182Y-15612984D01*
X12445182Y-15612984D02*
X12426134Y-15612984D01*
X12426134Y-15612984D02*
X12407086Y-15603460D01*
X12407086Y-15603460D02*
X12397563Y-15593936D01*
X12397563Y-15593936D02*
X12388039Y-15574888D01*
X12388039Y-15574888D02*
X12378515Y-15536793D01*
X12378515Y-15536793D02*
X12378515Y-15489174D01*
X12378515Y-15489174D02*
X12388039Y-15451079D01*
X12388039Y-15451079D02*
X12397563Y-15432031D01*
X12397563Y-15432031D02*
X12407086Y-15422508D01*
X12407086Y-15422508D02*
X12426134Y-15412984D01*
X12578515Y-15593936D02*
X12588039Y-15603460D01*
X12588039Y-15603460D02*
X12578515Y-15612984D01*
X12578515Y-15612984D02*
X12568991Y-15603460D01*
X12568991Y-15603460D02*
X12578515Y-15593936D01*
X12578515Y-15593936D02*
X12578515Y-15612984D01*
X12711848Y-15412984D02*
X12730896Y-15412984D01*
X12730896Y-15412984D02*
X12749944Y-15422508D01*
X12749944Y-15422508D02*
X12759467Y-15432031D01*
X12759467Y-15432031D02*
X12768991Y-15451079D01*
X12768991Y-15451079D02*
X12778515Y-15489174D01*
X12778515Y-15489174D02*
X12778515Y-15536793D01*
X12778515Y-15536793D02*
X12768991Y-15574888D01*
X12768991Y-15574888D02*
X12759467Y-15593936D01*
X12759467Y-15593936D02*
X12749944Y-15603460D01*
X12749944Y-15603460D02*
X12730896Y-15612984D01*
X12730896Y-15612984D02*
X12711848Y-15612984D01*
X12711848Y-15612984D02*
X12692801Y-15603460D01*
X12692801Y-15603460D02*
X12683277Y-15593936D01*
X12683277Y-15593936D02*
X12673753Y-15574888D01*
X12673753Y-15574888D02*
X12664229Y-15536793D01*
X12664229Y-15536793D02*
X12664229Y-15489174D01*
X12664229Y-15489174D02*
X12673753Y-15451079D01*
X12673753Y-15451079D02*
X12683277Y-15432031D01*
X12683277Y-15432031D02*
X12692801Y-15422508D01*
X12692801Y-15422508D02*
X12711848Y-15412984D01*
X12845182Y-15412984D02*
X12968991Y-15412984D01*
X12968991Y-15412984D02*
X12902325Y-15489174D01*
X12902325Y-15489174D02*
X12930896Y-15489174D01*
X12930896Y-15489174D02*
X12949944Y-15498698D01*
X12949944Y-15498698D02*
X12959467Y-15508222D01*
X12959467Y-15508222D02*
X12968991Y-15527269D01*
X12968991Y-15527269D02*
X12968991Y-15574888D01*
X12968991Y-15574888D02*
X12959467Y-15593936D01*
X12959467Y-15593936D02*
X12949944Y-15603460D01*
X12949944Y-15603460D02*
X12930896Y-15612984D01*
X12930896Y-15612984D02*
X12873753Y-15612984D01*
X12873753Y-15612984D02*
X12854706Y-15603460D01*
X12854706Y-15603460D02*
X12845182Y-15593936D01*
X13149944Y-15412984D02*
X13054706Y-15412984D01*
X13054706Y-15412984D02*
X13045182Y-15508222D01*
X13045182Y-15508222D02*
X13054706Y-15498698D01*
X13054706Y-15498698D02*
X13073753Y-15489174D01*
X13073753Y-15489174D02*
X13121372Y-15489174D01*
X13121372Y-15489174D02*
X13140420Y-15498698D01*
X13140420Y-15498698D02*
X13149944Y-15508222D01*
X13149944Y-15508222D02*
X13159467Y-15527269D01*
X13159467Y-15527269D02*
X13159467Y-15574888D01*
X13159467Y-15574888D02*
X13149944Y-15593936D01*
X13149944Y-15593936D02*
X13140420Y-15603460D01*
X13140420Y-15603460D02*
X13121372Y-15612984D01*
X13121372Y-15612984D02*
X13073753Y-15612984D01*
X13073753Y-15612984D02*
X13054706Y-15603460D01*
X13054706Y-15603460D02*
X13045182Y-15593936D01*
X13330896Y-15479650D02*
X13330896Y-15612984D01*
X13283277Y-15403460D02*
X13235658Y-15546317D01*
X13235658Y-15546317D02*
X13359467Y-15546317D01*
X13426134Y-15412984D02*
X13426134Y-15451079D01*
X13502325Y-15412984D02*
X13502325Y-15451079D01*
X13797563Y-15689174D02*
X13788039Y-15679650D01*
X13788039Y-15679650D02*
X13768991Y-15651079D01*
X13768991Y-15651079D02*
X13759468Y-15632031D01*
X13759468Y-15632031D02*
X13749944Y-15603460D01*
X13749944Y-15603460D02*
X13740420Y-15555841D01*
X13740420Y-15555841D02*
X13740420Y-15517746D01*
X13740420Y-15517746D02*
X13749944Y-15470127D01*
X13749944Y-15470127D02*
X13759468Y-15441555D01*
X13759468Y-15441555D02*
X13768991Y-15422508D01*
X13768991Y-15422508D02*
X13788039Y-15393936D01*
X13788039Y-15393936D02*
X13797563Y-15384412D01*
X13902325Y-15498698D02*
X13883277Y-15489174D01*
X13883277Y-15489174D02*
X13873753Y-15479650D01*
X13873753Y-15479650D02*
X13864229Y-15460603D01*
X13864229Y-15460603D02*
X13864229Y-15451079D01*
X13864229Y-15451079D02*
X13873753Y-15432031D01*
X13873753Y-15432031D02*
X13883277Y-15422508D01*
X13883277Y-15422508D02*
X13902325Y-15412984D01*
X13902325Y-15412984D02*
X13940420Y-15412984D01*
X13940420Y-15412984D02*
X13959468Y-15422508D01*
X13959468Y-15422508D02*
X13968991Y-15432031D01*
X13968991Y-15432031D02*
X13978515Y-15451079D01*
X13978515Y-15451079D02*
X13978515Y-15460603D01*
X13978515Y-15460603D02*
X13968991Y-15479650D01*
X13968991Y-15479650D02*
X13959468Y-15489174D01*
X13959468Y-15489174D02*
X13940420Y-15498698D01*
X13940420Y-15498698D02*
X13902325Y-15498698D01*
X13902325Y-15498698D02*
X13883277Y-15508222D01*
X13883277Y-15508222D02*
X13873753Y-15517746D01*
X13873753Y-15517746D02*
X13864229Y-15536793D01*
X13864229Y-15536793D02*
X13864229Y-15574888D01*
X13864229Y-15574888D02*
X13873753Y-15593936D01*
X13873753Y-15593936D02*
X13883277Y-15603460D01*
X13883277Y-15603460D02*
X13902325Y-15612984D01*
X13902325Y-15612984D02*
X13940420Y-15612984D01*
X13940420Y-15612984D02*
X13959468Y-15603460D01*
X13959468Y-15603460D02*
X13968991Y-15593936D01*
X13968991Y-15593936D02*
X13978515Y-15574888D01*
X13978515Y-15574888D02*
X13978515Y-15536793D01*
X13978515Y-15536793D02*
X13968991Y-15517746D01*
X13968991Y-15517746D02*
X13959468Y-15508222D01*
X13959468Y-15508222D02*
X13940420Y-15498698D01*
X14216610Y-15612984D02*
X14216610Y-15412984D01*
X14302325Y-15612984D02*
X14302325Y-15508222D01*
X14302325Y-15508222D02*
X14292801Y-15489174D01*
X14292801Y-15489174D02*
X14273753Y-15479650D01*
X14273753Y-15479650D02*
X14245182Y-15479650D01*
X14245182Y-15479650D02*
X14226134Y-15489174D01*
X14226134Y-15489174D02*
X14216610Y-15498698D01*
X14426134Y-15612984D02*
X14407087Y-15603460D01*
X14407087Y-15603460D02*
X14397563Y-15593936D01*
X14397563Y-15593936D02*
X14388039Y-15574888D01*
X14388039Y-15574888D02*
X14388039Y-15517746D01*
X14388039Y-15517746D02*
X14397563Y-15498698D01*
X14397563Y-15498698D02*
X14407087Y-15489174D01*
X14407087Y-15489174D02*
X14426134Y-15479650D01*
X14426134Y-15479650D02*
X14454706Y-15479650D01*
X14454706Y-15479650D02*
X14473753Y-15489174D01*
X14473753Y-15489174D02*
X14483277Y-15498698D01*
X14483277Y-15498698D02*
X14492801Y-15517746D01*
X14492801Y-15517746D02*
X14492801Y-15574888D01*
X14492801Y-15574888D02*
X14483277Y-15593936D01*
X14483277Y-15593936D02*
X14473753Y-15603460D01*
X14473753Y-15603460D02*
X14454706Y-15612984D01*
X14454706Y-15612984D02*
X14426134Y-15612984D01*
X14607087Y-15612984D02*
X14588039Y-15603460D01*
X14588039Y-15603460D02*
X14578515Y-15584412D01*
X14578515Y-15584412D02*
X14578515Y-15412984D01*
X14759468Y-15603460D02*
X14740420Y-15612984D01*
X14740420Y-15612984D02*
X14702325Y-15612984D01*
X14702325Y-15612984D02*
X14683277Y-15603460D01*
X14683277Y-15603460D02*
X14673753Y-15584412D01*
X14673753Y-15584412D02*
X14673753Y-15508222D01*
X14673753Y-15508222D02*
X14683277Y-15489174D01*
X14683277Y-15489174D02*
X14702325Y-15479650D01*
X14702325Y-15479650D02*
X14740420Y-15479650D01*
X14740420Y-15479650D02*
X14759468Y-15489174D01*
X14759468Y-15489174D02*
X14768991Y-15508222D01*
X14768991Y-15508222D02*
X14768991Y-15527269D01*
X14768991Y-15527269D02*
X14673753Y-15546317D01*
X14845182Y-15603460D02*
X14864230Y-15612984D01*
X14864230Y-15612984D02*
X14902325Y-15612984D01*
X14902325Y-15612984D02*
X14921372Y-15603460D01*
X14921372Y-15603460D02*
X14930896Y-15584412D01*
X14930896Y-15584412D02*
X14930896Y-15574888D01*
X14930896Y-15574888D02*
X14921372Y-15555841D01*
X14921372Y-15555841D02*
X14902325Y-15546317D01*
X14902325Y-15546317D02*
X14873753Y-15546317D01*
X14873753Y-15546317D02*
X14854706Y-15536793D01*
X14854706Y-15536793D02*
X14845182Y-15517746D01*
X14845182Y-15517746D02*
X14845182Y-15508222D01*
X14845182Y-15508222D02*
X14854706Y-15489174D01*
X14854706Y-15489174D02*
X14873753Y-15479650D01*
X14873753Y-15479650D02*
X14902325Y-15479650D01*
X14902325Y-15479650D02*
X14921372Y-15489174D01*
X14997563Y-15689174D02*
X15007087Y-15679650D01*
X15007087Y-15679650D02*
X15026134Y-15651079D01*
X15026134Y-15651079D02*
X15035658Y-15632031D01*
X15035658Y-15632031D02*
X15045182Y-15603460D01*
X15045182Y-15603460D02*
X15054706Y-15555841D01*
X15054706Y-15555841D02*
X15054706Y-15517746D01*
X15054706Y-15517746D02*
X15045182Y-15470127D01*
X15045182Y-15470127D02*
X15035658Y-15441555D01*
X15035658Y-15441555D02*
X15026134Y-15422508D01*
X15026134Y-15422508D02*
X15007087Y-15393936D01*
X15007087Y-15393936D02*
X14997563Y-15384412D01*
D13*
X10171500Y-15836500D02*
X10222500Y-15785500D01*
X10171500Y-15734500D01*
X10120500Y-15785500D01*
X10171500Y-15836500D01*
D11*
X10588039Y-15876984D02*
X10473753Y-15876984D01*
X10530896Y-15876984D02*
X10530896Y-15676984D01*
X10530896Y-15676984D02*
X10511848Y-15705555D01*
X10511848Y-15705555D02*
X10492801Y-15724603D01*
X10492801Y-15724603D02*
X10473753Y-15734127D01*
X10673753Y-15857936D02*
X10683277Y-15867460D01*
X10683277Y-15867460D02*
X10673753Y-15876984D01*
X10673753Y-15876984D02*
X10664229Y-15867460D01*
X10664229Y-15867460D02*
X10673753Y-15857936D01*
X10673753Y-15857936D02*
X10673753Y-15876984D01*
X10807086Y-15676984D02*
X10826134Y-15676984D01*
X10826134Y-15676984D02*
X10845182Y-15686508D01*
X10845182Y-15686508D02*
X10854705Y-15696031D01*
X10854705Y-15696031D02*
X10864229Y-15715079D01*
X10864229Y-15715079D02*
X10873753Y-15753174D01*
X10873753Y-15753174D02*
X10873753Y-15800793D01*
X10873753Y-15800793D02*
X10864229Y-15838888D01*
X10864229Y-15838888D02*
X10854705Y-15857936D01*
X10854705Y-15857936D02*
X10845182Y-15867460D01*
X10845182Y-15867460D02*
X10826134Y-15876984D01*
X10826134Y-15876984D02*
X10807086Y-15876984D01*
X10807086Y-15876984D02*
X10788039Y-15867460D01*
X10788039Y-15867460D02*
X10778515Y-15857936D01*
X10778515Y-15857936D02*
X10768991Y-15838888D01*
X10768991Y-15838888D02*
X10759467Y-15800793D01*
X10759467Y-15800793D02*
X10759467Y-15753174D01*
X10759467Y-15753174D02*
X10768991Y-15715079D01*
X10768991Y-15715079D02*
X10778515Y-15696031D01*
X10778515Y-15696031D02*
X10788039Y-15686508D01*
X10788039Y-15686508D02*
X10807086Y-15676984D01*
X10949944Y-15696031D02*
X10959467Y-15686508D01*
X10959467Y-15686508D02*
X10978515Y-15676984D01*
X10978515Y-15676984D02*
X11026134Y-15676984D01*
X11026134Y-15676984D02*
X11045182Y-15686508D01*
X11045182Y-15686508D02*
X11054705Y-15696031D01*
X11054705Y-15696031D02*
X11064229Y-15715079D01*
X11064229Y-15715079D02*
X11064229Y-15734127D01*
X11064229Y-15734127D02*
X11054705Y-15762698D01*
X11054705Y-15762698D02*
X10940420Y-15876984D01*
X10940420Y-15876984D02*
X11064229Y-15876984D01*
X11188039Y-15676984D02*
X11207086Y-15676984D01*
X11207086Y-15676984D02*
X11226134Y-15686508D01*
X11226134Y-15686508D02*
X11235658Y-15696031D01*
X11235658Y-15696031D02*
X11245182Y-15715079D01*
X11245182Y-15715079D02*
X11254705Y-15753174D01*
X11254705Y-15753174D02*
X11254705Y-15800793D01*
X11254705Y-15800793D02*
X11245182Y-15838888D01*
X11245182Y-15838888D02*
X11235658Y-15857936D01*
X11235658Y-15857936D02*
X11226134Y-15867460D01*
X11226134Y-15867460D02*
X11207086Y-15876984D01*
X11207086Y-15876984D02*
X11188039Y-15876984D01*
X11188039Y-15876984D02*
X11168991Y-15867460D01*
X11168991Y-15867460D02*
X11159467Y-15857936D01*
X11159467Y-15857936D02*
X11149944Y-15838888D01*
X11149944Y-15838888D02*
X11140420Y-15800793D01*
X11140420Y-15800793D02*
X11140420Y-15753174D01*
X11140420Y-15753174D02*
X11149944Y-15715079D01*
X11149944Y-15715079D02*
X11159467Y-15696031D01*
X11159467Y-15696031D02*
X11168991Y-15686508D01*
X11168991Y-15686508D02*
X11188039Y-15676984D01*
X11340420Y-15876984D02*
X11340420Y-15743650D01*
X11340420Y-15762698D02*
X11349943Y-15753174D01*
X11349943Y-15753174D02*
X11368991Y-15743650D01*
X11368991Y-15743650D02*
X11397563Y-15743650D01*
X11397563Y-15743650D02*
X11416610Y-15753174D01*
X11416610Y-15753174D02*
X11426134Y-15772222D01*
X11426134Y-15772222D02*
X11426134Y-15876984D01*
X11426134Y-15772222D02*
X11435658Y-15753174D01*
X11435658Y-15753174D02*
X11454705Y-15743650D01*
X11454705Y-15743650D02*
X11483277Y-15743650D01*
X11483277Y-15743650D02*
X11502324Y-15753174D01*
X11502324Y-15753174D02*
X11511848Y-15772222D01*
X11511848Y-15772222D02*
X11511848Y-15876984D01*
X11607086Y-15876984D02*
X11607086Y-15743650D01*
X11607086Y-15762698D02*
X11616610Y-15753174D01*
X11616610Y-15753174D02*
X11635658Y-15743650D01*
X11635658Y-15743650D02*
X11664229Y-15743650D01*
X11664229Y-15743650D02*
X11683277Y-15753174D01*
X11683277Y-15753174D02*
X11692801Y-15772222D01*
X11692801Y-15772222D02*
X11692801Y-15876984D01*
X11692801Y-15772222D02*
X11702324Y-15753174D01*
X11702324Y-15753174D02*
X11721372Y-15743650D01*
X11721372Y-15743650D02*
X11749943Y-15743650D01*
X11749943Y-15743650D02*
X11768991Y-15753174D01*
X11768991Y-15753174D02*
X11778515Y-15772222D01*
X11778515Y-15772222D02*
X11778515Y-15876984D01*
X12168991Y-15667460D02*
X11997563Y-15924603D01*
X12426134Y-15676984D02*
X12445182Y-15676984D01*
X12445182Y-15676984D02*
X12464229Y-15686508D01*
X12464229Y-15686508D02*
X12473753Y-15696031D01*
X12473753Y-15696031D02*
X12483277Y-15715079D01*
X12483277Y-15715079D02*
X12492801Y-15753174D01*
X12492801Y-15753174D02*
X12492801Y-15800793D01*
X12492801Y-15800793D02*
X12483277Y-15838888D01*
X12483277Y-15838888D02*
X12473753Y-15857936D01*
X12473753Y-15857936D02*
X12464229Y-15867460D01*
X12464229Y-15867460D02*
X12445182Y-15876984D01*
X12445182Y-15876984D02*
X12426134Y-15876984D01*
X12426134Y-15876984D02*
X12407086Y-15867460D01*
X12407086Y-15867460D02*
X12397563Y-15857936D01*
X12397563Y-15857936D02*
X12388039Y-15838888D01*
X12388039Y-15838888D02*
X12378515Y-15800793D01*
X12378515Y-15800793D02*
X12378515Y-15753174D01*
X12378515Y-15753174D02*
X12388039Y-15715079D01*
X12388039Y-15715079D02*
X12397563Y-15696031D01*
X12397563Y-15696031D02*
X12407086Y-15686508D01*
X12407086Y-15686508D02*
X12426134Y-15676984D01*
X12578515Y-15857936D02*
X12588039Y-15867460D01*
X12588039Y-15867460D02*
X12578515Y-15876984D01*
X12578515Y-15876984D02*
X12568991Y-15867460D01*
X12568991Y-15867460D02*
X12578515Y-15857936D01*
X12578515Y-15857936D02*
X12578515Y-15876984D01*
X12711848Y-15676984D02*
X12730896Y-15676984D01*
X12730896Y-15676984D02*
X12749944Y-15686508D01*
X12749944Y-15686508D02*
X12759467Y-15696031D01*
X12759467Y-15696031D02*
X12768991Y-15715079D01*
X12768991Y-15715079D02*
X12778515Y-15753174D01*
X12778515Y-15753174D02*
X12778515Y-15800793D01*
X12778515Y-15800793D02*
X12768991Y-15838888D01*
X12768991Y-15838888D02*
X12759467Y-15857936D01*
X12759467Y-15857936D02*
X12749944Y-15867460D01*
X12749944Y-15867460D02*
X12730896Y-15876984D01*
X12730896Y-15876984D02*
X12711848Y-15876984D01*
X12711848Y-15876984D02*
X12692801Y-15867460D01*
X12692801Y-15867460D02*
X12683277Y-15857936D01*
X12683277Y-15857936D02*
X12673753Y-15838888D01*
X12673753Y-15838888D02*
X12664229Y-15800793D01*
X12664229Y-15800793D02*
X12664229Y-15753174D01*
X12664229Y-15753174D02*
X12673753Y-15715079D01*
X12673753Y-15715079D02*
X12683277Y-15696031D01*
X12683277Y-15696031D02*
X12692801Y-15686508D01*
X12692801Y-15686508D02*
X12711848Y-15676984D01*
X12949944Y-15743650D02*
X12949944Y-15876984D01*
X12902325Y-15667460D02*
X12854706Y-15810317D01*
X12854706Y-15810317D02*
X12978515Y-15810317D01*
X13092801Y-15676984D02*
X13111848Y-15676984D01*
X13111848Y-15676984D02*
X13130896Y-15686508D01*
X13130896Y-15686508D02*
X13140420Y-15696031D01*
X13140420Y-15696031D02*
X13149944Y-15715079D01*
X13149944Y-15715079D02*
X13159467Y-15753174D01*
X13159467Y-15753174D02*
X13159467Y-15800793D01*
X13159467Y-15800793D02*
X13149944Y-15838888D01*
X13149944Y-15838888D02*
X13140420Y-15857936D01*
X13140420Y-15857936D02*
X13130896Y-15867460D01*
X13130896Y-15867460D02*
X13111848Y-15876984D01*
X13111848Y-15876984D02*
X13092801Y-15876984D01*
X13092801Y-15876984D02*
X13073753Y-15867460D01*
X13073753Y-15867460D02*
X13064229Y-15857936D01*
X13064229Y-15857936D02*
X13054706Y-15838888D01*
X13054706Y-15838888D02*
X13045182Y-15800793D01*
X13045182Y-15800793D02*
X13045182Y-15753174D01*
X13045182Y-15753174D02*
X13054706Y-15715079D01*
X13054706Y-15715079D02*
X13064229Y-15696031D01*
X13064229Y-15696031D02*
X13073753Y-15686508D01*
X13073753Y-15686508D02*
X13092801Y-15676984D01*
X13235658Y-15696031D02*
X13245182Y-15686508D01*
X13245182Y-15686508D02*
X13264229Y-15676984D01*
X13264229Y-15676984D02*
X13311848Y-15676984D01*
X13311848Y-15676984D02*
X13330896Y-15686508D01*
X13330896Y-15686508D02*
X13340420Y-15696031D01*
X13340420Y-15696031D02*
X13349944Y-15715079D01*
X13349944Y-15715079D02*
X13349944Y-15734127D01*
X13349944Y-15734127D02*
X13340420Y-15762698D01*
X13340420Y-15762698D02*
X13226134Y-15876984D01*
X13226134Y-15876984D02*
X13349944Y-15876984D01*
X13426134Y-15676984D02*
X13426134Y-15715079D01*
X13502325Y-15676984D02*
X13502325Y-15715079D01*
X13797563Y-15953174D02*
X13788039Y-15943650D01*
X13788039Y-15943650D02*
X13768991Y-15915079D01*
X13768991Y-15915079D02*
X13759468Y-15896031D01*
X13759468Y-15896031D02*
X13749944Y-15867460D01*
X13749944Y-15867460D02*
X13740420Y-15819841D01*
X13740420Y-15819841D02*
X13740420Y-15781746D01*
X13740420Y-15781746D02*
X13749944Y-15734127D01*
X13749944Y-15734127D02*
X13759468Y-15705555D01*
X13759468Y-15705555D02*
X13768991Y-15686508D01*
X13768991Y-15686508D02*
X13788039Y-15657936D01*
X13788039Y-15657936D02*
X13797563Y-15648412D01*
X13959468Y-15743650D02*
X13959468Y-15876984D01*
X13911848Y-15667460D02*
X13864229Y-15810317D01*
X13864229Y-15810317D02*
X13988039Y-15810317D01*
X14216610Y-15876984D02*
X14216610Y-15676984D01*
X14302325Y-15876984D02*
X14302325Y-15772222D01*
X14302325Y-15772222D02*
X14292801Y-15753174D01*
X14292801Y-15753174D02*
X14273753Y-15743650D01*
X14273753Y-15743650D02*
X14245182Y-15743650D01*
X14245182Y-15743650D02*
X14226134Y-15753174D01*
X14226134Y-15753174D02*
X14216610Y-15762698D01*
X14426134Y-15876984D02*
X14407087Y-15867460D01*
X14407087Y-15867460D02*
X14397563Y-15857936D01*
X14397563Y-15857936D02*
X14388039Y-15838888D01*
X14388039Y-15838888D02*
X14388039Y-15781746D01*
X14388039Y-15781746D02*
X14397563Y-15762698D01*
X14397563Y-15762698D02*
X14407087Y-15753174D01*
X14407087Y-15753174D02*
X14426134Y-15743650D01*
X14426134Y-15743650D02*
X14454706Y-15743650D01*
X14454706Y-15743650D02*
X14473753Y-15753174D01*
X14473753Y-15753174D02*
X14483277Y-15762698D01*
X14483277Y-15762698D02*
X14492801Y-15781746D01*
X14492801Y-15781746D02*
X14492801Y-15838888D01*
X14492801Y-15838888D02*
X14483277Y-15857936D01*
X14483277Y-15857936D02*
X14473753Y-15867460D01*
X14473753Y-15867460D02*
X14454706Y-15876984D01*
X14454706Y-15876984D02*
X14426134Y-15876984D01*
X14607087Y-15876984D02*
X14588039Y-15867460D01*
X14588039Y-15867460D02*
X14578515Y-15848412D01*
X14578515Y-15848412D02*
X14578515Y-15676984D01*
X14759468Y-15867460D02*
X14740420Y-15876984D01*
X14740420Y-15876984D02*
X14702325Y-15876984D01*
X14702325Y-15876984D02*
X14683277Y-15867460D01*
X14683277Y-15867460D02*
X14673753Y-15848412D01*
X14673753Y-15848412D02*
X14673753Y-15772222D01*
X14673753Y-15772222D02*
X14683277Y-15753174D01*
X14683277Y-15753174D02*
X14702325Y-15743650D01*
X14702325Y-15743650D02*
X14740420Y-15743650D01*
X14740420Y-15743650D02*
X14759468Y-15753174D01*
X14759468Y-15753174D02*
X14768991Y-15772222D01*
X14768991Y-15772222D02*
X14768991Y-15791269D01*
X14768991Y-15791269D02*
X14673753Y-15810317D01*
X14845182Y-15867460D02*
X14864230Y-15876984D01*
X14864230Y-15876984D02*
X14902325Y-15876984D01*
X14902325Y-15876984D02*
X14921372Y-15867460D01*
X14921372Y-15867460D02*
X14930896Y-15848412D01*
X14930896Y-15848412D02*
X14930896Y-15838888D01*
X14930896Y-15838888D02*
X14921372Y-15819841D01*
X14921372Y-15819841D02*
X14902325Y-15810317D01*
X14902325Y-15810317D02*
X14873753Y-15810317D01*
X14873753Y-15810317D02*
X14854706Y-15800793D01*
X14854706Y-15800793D02*
X14845182Y-15781746D01*
X14845182Y-15781746D02*
X14845182Y-15772222D01*
X14845182Y-15772222D02*
X14854706Y-15753174D01*
X14854706Y-15753174D02*
X14873753Y-15743650D01*
X14873753Y-15743650D02*
X14902325Y-15743650D01*
X14902325Y-15743650D02*
X14921372Y-15753174D01*
X14997563Y-15953174D02*
X15007087Y-15943650D01*
X15007087Y-15943650D02*
X15026134Y-15915079D01*
X15026134Y-15915079D02*
X15035658Y-15896031D01*
X15035658Y-15896031D02*
X15045182Y-15867460D01*
X15045182Y-15867460D02*
X15054706Y-15819841D01*
X15054706Y-15819841D02*
X15054706Y-15781746D01*
X15054706Y-15781746D02*
X15045182Y-15734127D01*
X15045182Y-15734127D02*
X15035658Y-15705555D01*
X15035658Y-15705555D02*
X15026134Y-15686508D01*
X15026134Y-15686508D02*
X15007087Y-15657936D01*
X15007087Y-15657936D02*
X14997563Y-15648412D01*
D14*
X10112500Y-15994500D02*
X10222500Y-16104500D01*
X10222500Y-15994500D02*
X10112500Y-16104500D01*
X10222500Y-16049500D02*
G75*
G02*
X10112500Y-16049500I-55000J0D01*
G01*
X10112500Y-16049500D02*
G75*
G02*
X10222500Y-16049500I55000J0D01*
G01*
D11*
X10588039Y-16140984D02*
X10473753Y-16140984D01*
X10530896Y-16140984D02*
X10530896Y-15940984D01*
X10530896Y-15940984D02*
X10511848Y-15969555D01*
X10511848Y-15969555D02*
X10492801Y-15988603D01*
X10492801Y-15988603D02*
X10473753Y-15998127D01*
X10673753Y-16121936D02*
X10683277Y-16131460D01*
X10683277Y-16131460D02*
X10673753Y-16140984D01*
X10673753Y-16140984D02*
X10664229Y-16131460D01*
X10664229Y-16131460D02*
X10673753Y-16121936D01*
X10673753Y-16121936D02*
X10673753Y-16140984D01*
X10873753Y-16140984D02*
X10759467Y-16140984D01*
X10816610Y-16140984D02*
X10816610Y-15940984D01*
X10816610Y-15940984D02*
X10797563Y-15969555D01*
X10797563Y-15969555D02*
X10778515Y-15988603D01*
X10778515Y-15988603D02*
X10759467Y-15998127D01*
X10997563Y-15940984D02*
X11016610Y-15940984D01*
X11016610Y-15940984D02*
X11035658Y-15950508D01*
X11035658Y-15950508D02*
X11045182Y-15960031D01*
X11045182Y-15960031D02*
X11054705Y-15979079D01*
X11054705Y-15979079D02*
X11064229Y-16017174D01*
X11064229Y-16017174D02*
X11064229Y-16064793D01*
X11064229Y-16064793D02*
X11054705Y-16102888D01*
X11054705Y-16102888D02*
X11045182Y-16121936D01*
X11045182Y-16121936D02*
X11035658Y-16131460D01*
X11035658Y-16131460D02*
X11016610Y-16140984D01*
X11016610Y-16140984D02*
X10997563Y-16140984D01*
X10997563Y-16140984D02*
X10978515Y-16131460D01*
X10978515Y-16131460D02*
X10968991Y-16121936D01*
X10968991Y-16121936D02*
X10959467Y-16102888D01*
X10959467Y-16102888D02*
X10949944Y-16064793D01*
X10949944Y-16064793D02*
X10949944Y-16017174D01*
X10949944Y-16017174D02*
X10959467Y-15979079D01*
X10959467Y-15979079D02*
X10968991Y-15960031D01*
X10968991Y-15960031D02*
X10978515Y-15950508D01*
X10978515Y-15950508D02*
X10997563Y-15940984D01*
X11188039Y-15940984D02*
X11207086Y-15940984D01*
X11207086Y-15940984D02*
X11226134Y-15950508D01*
X11226134Y-15950508D02*
X11235658Y-15960031D01*
X11235658Y-15960031D02*
X11245182Y-15979079D01*
X11245182Y-15979079D02*
X11254705Y-16017174D01*
X11254705Y-16017174D02*
X11254705Y-16064793D01*
X11254705Y-16064793D02*
X11245182Y-16102888D01*
X11245182Y-16102888D02*
X11235658Y-16121936D01*
X11235658Y-16121936D02*
X11226134Y-16131460D01*
X11226134Y-16131460D02*
X11207086Y-16140984D01*
X11207086Y-16140984D02*
X11188039Y-16140984D01*
X11188039Y-16140984D02*
X11168991Y-16131460D01*
X11168991Y-16131460D02*
X11159467Y-16121936D01*
X11159467Y-16121936D02*
X11149944Y-16102888D01*
X11149944Y-16102888D02*
X11140420Y-16064793D01*
X11140420Y-16064793D02*
X11140420Y-16017174D01*
X11140420Y-16017174D02*
X11149944Y-15979079D01*
X11149944Y-15979079D02*
X11159467Y-15960031D01*
X11159467Y-15960031D02*
X11168991Y-15950508D01*
X11168991Y-15950508D02*
X11188039Y-15940984D01*
X11340420Y-16140984D02*
X11340420Y-16007650D01*
X11340420Y-16026698D02*
X11349943Y-16017174D01*
X11349943Y-16017174D02*
X11368991Y-16007650D01*
X11368991Y-16007650D02*
X11397563Y-16007650D01*
X11397563Y-16007650D02*
X11416610Y-16017174D01*
X11416610Y-16017174D02*
X11426134Y-16036222D01*
X11426134Y-16036222D02*
X11426134Y-16140984D01*
X11426134Y-16036222D02*
X11435658Y-16017174D01*
X11435658Y-16017174D02*
X11454705Y-16007650D01*
X11454705Y-16007650D02*
X11483277Y-16007650D01*
X11483277Y-16007650D02*
X11502324Y-16017174D01*
X11502324Y-16017174D02*
X11511848Y-16036222D01*
X11511848Y-16036222D02*
X11511848Y-16140984D01*
X11607086Y-16140984D02*
X11607086Y-16007650D01*
X11607086Y-16026698D02*
X11616610Y-16017174D01*
X11616610Y-16017174D02*
X11635658Y-16007650D01*
X11635658Y-16007650D02*
X11664229Y-16007650D01*
X11664229Y-16007650D02*
X11683277Y-16017174D01*
X11683277Y-16017174D02*
X11692801Y-16036222D01*
X11692801Y-16036222D02*
X11692801Y-16140984D01*
X11692801Y-16036222D02*
X11702324Y-16017174D01*
X11702324Y-16017174D02*
X11721372Y-16007650D01*
X11721372Y-16007650D02*
X11749943Y-16007650D01*
X11749943Y-16007650D02*
X11768991Y-16017174D01*
X11768991Y-16017174D02*
X11778515Y-16036222D01*
X11778515Y-16036222D02*
X11778515Y-16140984D01*
X12168991Y-15931460D02*
X11997563Y-16188603D01*
X12426134Y-15940984D02*
X12445182Y-15940984D01*
X12445182Y-15940984D02*
X12464229Y-15950508D01*
X12464229Y-15950508D02*
X12473753Y-15960031D01*
X12473753Y-15960031D02*
X12483277Y-15979079D01*
X12483277Y-15979079D02*
X12492801Y-16017174D01*
X12492801Y-16017174D02*
X12492801Y-16064793D01*
X12492801Y-16064793D02*
X12483277Y-16102888D01*
X12483277Y-16102888D02*
X12473753Y-16121936D01*
X12473753Y-16121936D02*
X12464229Y-16131460D01*
X12464229Y-16131460D02*
X12445182Y-16140984D01*
X12445182Y-16140984D02*
X12426134Y-16140984D01*
X12426134Y-16140984D02*
X12407086Y-16131460D01*
X12407086Y-16131460D02*
X12397563Y-16121936D01*
X12397563Y-16121936D02*
X12388039Y-16102888D01*
X12388039Y-16102888D02*
X12378515Y-16064793D01*
X12378515Y-16064793D02*
X12378515Y-16017174D01*
X12378515Y-16017174D02*
X12388039Y-15979079D01*
X12388039Y-15979079D02*
X12397563Y-15960031D01*
X12397563Y-15960031D02*
X12407086Y-15950508D01*
X12407086Y-15950508D02*
X12426134Y-15940984D01*
X12578515Y-16121936D02*
X12588039Y-16131460D01*
X12588039Y-16131460D02*
X12578515Y-16140984D01*
X12578515Y-16140984D02*
X12568991Y-16131460D01*
X12568991Y-16131460D02*
X12578515Y-16121936D01*
X12578515Y-16121936D02*
X12578515Y-16140984D01*
X12711848Y-15940984D02*
X12730896Y-15940984D01*
X12730896Y-15940984D02*
X12749944Y-15950508D01*
X12749944Y-15950508D02*
X12759467Y-15960031D01*
X12759467Y-15960031D02*
X12768991Y-15979079D01*
X12768991Y-15979079D02*
X12778515Y-16017174D01*
X12778515Y-16017174D02*
X12778515Y-16064793D01*
X12778515Y-16064793D02*
X12768991Y-16102888D01*
X12768991Y-16102888D02*
X12759467Y-16121936D01*
X12759467Y-16121936D02*
X12749944Y-16131460D01*
X12749944Y-16131460D02*
X12730896Y-16140984D01*
X12730896Y-16140984D02*
X12711848Y-16140984D01*
X12711848Y-16140984D02*
X12692801Y-16131460D01*
X12692801Y-16131460D02*
X12683277Y-16121936D01*
X12683277Y-16121936D02*
X12673753Y-16102888D01*
X12673753Y-16102888D02*
X12664229Y-16064793D01*
X12664229Y-16064793D02*
X12664229Y-16017174D01*
X12664229Y-16017174D02*
X12673753Y-15979079D01*
X12673753Y-15979079D02*
X12683277Y-15960031D01*
X12683277Y-15960031D02*
X12692801Y-15950508D01*
X12692801Y-15950508D02*
X12711848Y-15940984D01*
X12949944Y-16007650D02*
X12949944Y-16140984D01*
X12902325Y-15931460D02*
X12854706Y-16074317D01*
X12854706Y-16074317D02*
X12978515Y-16074317D01*
X13035658Y-15940984D02*
X13159467Y-15940984D01*
X13159467Y-15940984D02*
X13092801Y-16017174D01*
X13092801Y-16017174D02*
X13121372Y-16017174D01*
X13121372Y-16017174D02*
X13140420Y-16026698D01*
X13140420Y-16026698D02*
X13149944Y-16036222D01*
X13149944Y-16036222D02*
X13159467Y-16055269D01*
X13159467Y-16055269D02*
X13159467Y-16102888D01*
X13159467Y-16102888D02*
X13149944Y-16121936D01*
X13149944Y-16121936D02*
X13140420Y-16131460D01*
X13140420Y-16131460D02*
X13121372Y-16140984D01*
X13121372Y-16140984D02*
X13064229Y-16140984D01*
X13064229Y-16140984D02*
X13045182Y-16131460D01*
X13045182Y-16131460D02*
X13035658Y-16121936D01*
X13226134Y-15940984D02*
X13349944Y-15940984D01*
X13349944Y-15940984D02*
X13283277Y-16017174D01*
X13283277Y-16017174D02*
X13311848Y-16017174D01*
X13311848Y-16017174D02*
X13330896Y-16026698D01*
X13330896Y-16026698D02*
X13340420Y-16036222D01*
X13340420Y-16036222D02*
X13349944Y-16055269D01*
X13349944Y-16055269D02*
X13349944Y-16102888D01*
X13349944Y-16102888D02*
X13340420Y-16121936D01*
X13340420Y-16121936D02*
X13330896Y-16131460D01*
X13330896Y-16131460D02*
X13311848Y-16140984D01*
X13311848Y-16140984D02*
X13254706Y-16140984D01*
X13254706Y-16140984D02*
X13235658Y-16131460D01*
X13235658Y-16131460D02*
X13226134Y-16121936D01*
X13426134Y-15940984D02*
X13426134Y-15979079D01*
X13502325Y-15940984D02*
X13502325Y-15979079D01*
X13797563Y-16217174D02*
X13788039Y-16207650D01*
X13788039Y-16207650D02*
X13768991Y-16179079D01*
X13768991Y-16179079D02*
X13759468Y-16160031D01*
X13759468Y-16160031D02*
X13749944Y-16131460D01*
X13749944Y-16131460D02*
X13740420Y-16083841D01*
X13740420Y-16083841D02*
X13740420Y-16045746D01*
X13740420Y-16045746D02*
X13749944Y-15998127D01*
X13749944Y-15998127D02*
X13759468Y-15969555D01*
X13759468Y-15969555D02*
X13768991Y-15950508D01*
X13768991Y-15950508D02*
X13788039Y-15921936D01*
X13788039Y-15921936D02*
X13797563Y-15912412D01*
X13968991Y-15940984D02*
X13873753Y-15940984D01*
X13873753Y-15940984D02*
X13864229Y-16036222D01*
X13864229Y-16036222D02*
X13873753Y-16026698D01*
X13873753Y-16026698D02*
X13892801Y-16017174D01*
X13892801Y-16017174D02*
X13940420Y-16017174D01*
X13940420Y-16017174D02*
X13959468Y-16026698D01*
X13959468Y-16026698D02*
X13968991Y-16036222D01*
X13968991Y-16036222D02*
X13978515Y-16055269D01*
X13978515Y-16055269D02*
X13978515Y-16102888D01*
X13978515Y-16102888D02*
X13968991Y-16121936D01*
X13968991Y-16121936D02*
X13959468Y-16131460D01*
X13959468Y-16131460D02*
X13940420Y-16140984D01*
X13940420Y-16140984D02*
X13892801Y-16140984D01*
X13892801Y-16140984D02*
X13873753Y-16131460D01*
X13873753Y-16131460D02*
X13864229Y-16121936D01*
X14149944Y-16007650D02*
X14149944Y-16140984D01*
X14102325Y-15931460D02*
X14054706Y-16074317D01*
X14054706Y-16074317D02*
X14178515Y-16074317D01*
X14407087Y-16140984D02*
X14407087Y-15940984D01*
X14492801Y-16140984D02*
X14492801Y-16036222D01*
X14492801Y-16036222D02*
X14483277Y-16017174D01*
X14483277Y-16017174D02*
X14464230Y-16007650D01*
X14464230Y-16007650D02*
X14435658Y-16007650D01*
X14435658Y-16007650D02*
X14416610Y-16017174D01*
X14416610Y-16017174D02*
X14407087Y-16026698D01*
X14616610Y-16140984D02*
X14597563Y-16131460D01*
X14597563Y-16131460D02*
X14588039Y-16121936D01*
X14588039Y-16121936D02*
X14578515Y-16102888D01*
X14578515Y-16102888D02*
X14578515Y-16045746D01*
X14578515Y-16045746D02*
X14588039Y-16026698D01*
X14588039Y-16026698D02*
X14597563Y-16017174D01*
X14597563Y-16017174D02*
X14616610Y-16007650D01*
X14616610Y-16007650D02*
X14645182Y-16007650D01*
X14645182Y-16007650D02*
X14664230Y-16017174D01*
X14664230Y-16017174D02*
X14673753Y-16026698D01*
X14673753Y-16026698D02*
X14683277Y-16045746D01*
X14683277Y-16045746D02*
X14683277Y-16102888D01*
X14683277Y-16102888D02*
X14673753Y-16121936D01*
X14673753Y-16121936D02*
X14664230Y-16131460D01*
X14664230Y-16131460D02*
X14645182Y-16140984D01*
X14645182Y-16140984D02*
X14616610Y-16140984D01*
X14797563Y-16140984D02*
X14778515Y-16131460D01*
X14778515Y-16131460D02*
X14768991Y-16112412D01*
X14768991Y-16112412D02*
X14768991Y-15940984D01*
X14949944Y-16131460D02*
X14930896Y-16140984D01*
X14930896Y-16140984D02*
X14892801Y-16140984D01*
X14892801Y-16140984D02*
X14873753Y-16131460D01*
X14873753Y-16131460D02*
X14864230Y-16112412D01*
X14864230Y-16112412D02*
X14864230Y-16036222D01*
X14864230Y-16036222D02*
X14873753Y-16017174D01*
X14873753Y-16017174D02*
X14892801Y-16007650D01*
X14892801Y-16007650D02*
X14930896Y-16007650D01*
X14930896Y-16007650D02*
X14949944Y-16017174D01*
X14949944Y-16017174D02*
X14959468Y-16036222D01*
X14959468Y-16036222D02*
X14959468Y-16055269D01*
X14959468Y-16055269D02*
X14864230Y-16074317D01*
X15035658Y-16131460D02*
X15054706Y-16140984D01*
X15054706Y-16140984D02*
X15092801Y-16140984D01*
X15092801Y-16140984D02*
X15111849Y-16131460D01*
X15111849Y-16131460D02*
X15121372Y-16112412D01*
X15121372Y-16112412D02*
X15121372Y-16102888D01*
X15121372Y-16102888D02*
X15111849Y-16083841D01*
X15111849Y-16083841D02*
X15092801Y-16074317D01*
X15092801Y-16074317D02*
X15064230Y-16074317D01*
X15064230Y-16074317D02*
X15045182Y-16064793D01*
X15045182Y-16064793D02*
X15035658Y-16045746D01*
X15035658Y-16045746D02*
X15035658Y-16036222D01*
X15035658Y-16036222D02*
X15045182Y-16017174D01*
X15045182Y-16017174D02*
X15064230Y-16007650D01*
X15064230Y-16007650D02*
X15092801Y-16007650D01*
X15092801Y-16007650D02*
X15111849Y-16017174D01*
X15188039Y-16217174D02*
X15197563Y-16207650D01*
X15197563Y-16207650D02*
X15216611Y-16179079D01*
X15216611Y-16179079D02*
X15226134Y-16160031D01*
X15226134Y-16160031D02*
X15235658Y-16131460D01*
X15235658Y-16131460D02*
X15245182Y-16083841D01*
X15245182Y-16083841D02*
X15245182Y-16045746D01*
X15245182Y-16045746D02*
X15235658Y-15998127D01*
X15235658Y-15998127D02*
X15226134Y-15969555D01*
X15226134Y-15969555D02*
X15216611Y-15950508D01*
X15216611Y-15950508D02*
X15197563Y-15921936D01*
X15197563Y-15921936D02*
X15188039Y-15912412D01*
D15*
X10103500Y-16254000D02*
X10222500Y-16373000D01*
X10222500Y-16254000D02*
X10103500Y-16373000D01*
X10163000Y-16254000D02*
X10163000Y-16373000D01*
X10103500Y-16313500D02*
X10222500Y-16313500D01*
D11*
X10588039Y-16404984D02*
X10473753Y-16404984D01*
X10530896Y-16404984D02*
X10530896Y-16204984D01*
X10530896Y-16204984D02*
X10511848Y-16233555D01*
X10511848Y-16233555D02*
X10492801Y-16252603D01*
X10492801Y-16252603D02*
X10473753Y-16262127D01*
X10673753Y-16385936D02*
X10683277Y-16395460D01*
X10683277Y-16395460D02*
X10673753Y-16404984D01*
X10673753Y-16404984D02*
X10664229Y-16395460D01*
X10664229Y-16395460D02*
X10673753Y-16385936D01*
X10673753Y-16385936D02*
X10673753Y-16404984D01*
X10873753Y-16404984D02*
X10759467Y-16404984D01*
X10816610Y-16404984D02*
X10816610Y-16204984D01*
X10816610Y-16204984D02*
X10797563Y-16233555D01*
X10797563Y-16233555D02*
X10778515Y-16252603D01*
X10778515Y-16252603D02*
X10759467Y-16262127D01*
X10968991Y-16404984D02*
X11007086Y-16404984D01*
X11007086Y-16404984D02*
X11026134Y-16395460D01*
X11026134Y-16395460D02*
X11035658Y-16385936D01*
X11035658Y-16385936D02*
X11054705Y-16357365D01*
X11054705Y-16357365D02*
X11064229Y-16319269D01*
X11064229Y-16319269D02*
X11064229Y-16243079D01*
X11064229Y-16243079D02*
X11054705Y-16224031D01*
X11054705Y-16224031D02*
X11045182Y-16214508D01*
X11045182Y-16214508D02*
X11026134Y-16204984D01*
X11026134Y-16204984D02*
X10988039Y-16204984D01*
X10988039Y-16204984D02*
X10968991Y-16214508D01*
X10968991Y-16214508D02*
X10959467Y-16224031D01*
X10959467Y-16224031D02*
X10949944Y-16243079D01*
X10949944Y-16243079D02*
X10949944Y-16290698D01*
X10949944Y-16290698D02*
X10959467Y-16309746D01*
X10959467Y-16309746D02*
X10968991Y-16319269D01*
X10968991Y-16319269D02*
X10988039Y-16328793D01*
X10988039Y-16328793D02*
X11026134Y-16328793D01*
X11026134Y-16328793D02*
X11045182Y-16319269D01*
X11045182Y-16319269D02*
X11054705Y-16309746D01*
X11054705Y-16309746D02*
X11064229Y-16290698D01*
X11188039Y-16204984D02*
X11207086Y-16204984D01*
X11207086Y-16204984D02*
X11226134Y-16214508D01*
X11226134Y-16214508D02*
X11235658Y-16224031D01*
X11235658Y-16224031D02*
X11245182Y-16243079D01*
X11245182Y-16243079D02*
X11254705Y-16281174D01*
X11254705Y-16281174D02*
X11254705Y-16328793D01*
X11254705Y-16328793D02*
X11245182Y-16366888D01*
X11245182Y-16366888D02*
X11235658Y-16385936D01*
X11235658Y-16385936D02*
X11226134Y-16395460D01*
X11226134Y-16395460D02*
X11207086Y-16404984D01*
X11207086Y-16404984D02*
X11188039Y-16404984D01*
X11188039Y-16404984D02*
X11168991Y-16395460D01*
X11168991Y-16395460D02*
X11159467Y-16385936D01*
X11159467Y-16385936D02*
X11149944Y-16366888D01*
X11149944Y-16366888D02*
X11140420Y-16328793D01*
X11140420Y-16328793D02*
X11140420Y-16281174D01*
X11140420Y-16281174D02*
X11149944Y-16243079D01*
X11149944Y-16243079D02*
X11159467Y-16224031D01*
X11159467Y-16224031D02*
X11168991Y-16214508D01*
X11168991Y-16214508D02*
X11188039Y-16204984D01*
X11340420Y-16404984D02*
X11340420Y-16271650D01*
X11340420Y-16290698D02*
X11349943Y-16281174D01*
X11349943Y-16281174D02*
X11368991Y-16271650D01*
X11368991Y-16271650D02*
X11397563Y-16271650D01*
X11397563Y-16271650D02*
X11416610Y-16281174D01*
X11416610Y-16281174D02*
X11426134Y-16300222D01*
X11426134Y-16300222D02*
X11426134Y-16404984D01*
X11426134Y-16300222D02*
X11435658Y-16281174D01*
X11435658Y-16281174D02*
X11454705Y-16271650D01*
X11454705Y-16271650D02*
X11483277Y-16271650D01*
X11483277Y-16271650D02*
X11502324Y-16281174D01*
X11502324Y-16281174D02*
X11511848Y-16300222D01*
X11511848Y-16300222D02*
X11511848Y-16404984D01*
X11607086Y-16404984D02*
X11607086Y-16271650D01*
X11607086Y-16290698D02*
X11616610Y-16281174D01*
X11616610Y-16281174D02*
X11635658Y-16271650D01*
X11635658Y-16271650D02*
X11664229Y-16271650D01*
X11664229Y-16271650D02*
X11683277Y-16281174D01*
X11683277Y-16281174D02*
X11692801Y-16300222D01*
X11692801Y-16300222D02*
X11692801Y-16404984D01*
X11692801Y-16300222D02*
X11702324Y-16281174D01*
X11702324Y-16281174D02*
X11721372Y-16271650D01*
X11721372Y-16271650D02*
X11749943Y-16271650D01*
X11749943Y-16271650D02*
X11768991Y-16281174D01*
X11768991Y-16281174D02*
X11778515Y-16300222D01*
X11778515Y-16300222D02*
X11778515Y-16404984D01*
X12168991Y-16195460D02*
X11997563Y-16452603D01*
X12426134Y-16204984D02*
X12445182Y-16204984D01*
X12445182Y-16204984D02*
X12464229Y-16214508D01*
X12464229Y-16214508D02*
X12473753Y-16224031D01*
X12473753Y-16224031D02*
X12483277Y-16243079D01*
X12483277Y-16243079D02*
X12492801Y-16281174D01*
X12492801Y-16281174D02*
X12492801Y-16328793D01*
X12492801Y-16328793D02*
X12483277Y-16366888D01*
X12483277Y-16366888D02*
X12473753Y-16385936D01*
X12473753Y-16385936D02*
X12464229Y-16395460D01*
X12464229Y-16395460D02*
X12445182Y-16404984D01*
X12445182Y-16404984D02*
X12426134Y-16404984D01*
X12426134Y-16404984D02*
X12407086Y-16395460D01*
X12407086Y-16395460D02*
X12397563Y-16385936D01*
X12397563Y-16385936D02*
X12388039Y-16366888D01*
X12388039Y-16366888D02*
X12378515Y-16328793D01*
X12378515Y-16328793D02*
X12378515Y-16281174D01*
X12378515Y-16281174D02*
X12388039Y-16243079D01*
X12388039Y-16243079D02*
X12397563Y-16224031D01*
X12397563Y-16224031D02*
X12407086Y-16214508D01*
X12407086Y-16214508D02*
X12426134Y-16204984D01*
X12578515Y-16385936D02*
X12588039Y-16395460D01*
X12588039Y-16395460D02*
X12578515Y-16404984D01*
X12578515Y-16404984D02*
X12568991Y-16395460D01*
X12568991Y-16395460D02*
X12578515Y-16385936D01*
X12578515Y-16385936D02*
X12578515Y-16404984D01*
X12711848Y-16204984D02*
X12730896Y-16204984D01*
X12730896Y-16204984D02*
X12749944Y-16214508D01*
X12749944Y-16214508D02*
X12759467Y-16224031D01*
X12759467Y-16224031D02*
X12768991Y-16243079D01*
X12768991Y-16243079D02*
X12778515Y-16281174D01*
X12778515Y-16281174D02*
X12778515Y-16328793D01*
X12778515Y-16328793D02*
X12768991Y-16366888D01*
X12768991Y-16366888D02*
X12759467Y-16385936D01*
X12759467Y-16385936D02*
X12749944Y-16395460D01*
X12749944Y-16395460D02*
X12730896Y-16404984D01*
X12730896Y-16404984D02*
X12711848Y-16404984D01*
X12711848Y-16404984D02*
X12692801Y-16395460D01*
X12692801Y-16395460D02*
X12683277Y-16385936D01*
X12683277Y-16385936D02*
X12673753Y-16366888D01*
X12673753Y-16366888D02*
X12664229Y-16328793D01*
X12664229Y-16328793D02*
X12664229Y-16281174D01*
X12664229Y-16281174D02*
X12673753Y-16243079D01*
X12673753Y-16243079D02*
X12683277Y-16224031D01*
X12683277Y-16224031D02*
X12692801Y-16214508D01*
X12692801Y-16214508D02*
X12711848Y-16204984D01*
X12949944Y-16271650D02*
X12949944Y-16404984D01*
X12902325Y-16195460D02*
X12854706Y-16338317D01*
X12854706Y-16338317D02*
X12978515Y-16338317D01*
X13140420Y-16204984D02*
X13102325Y-16204984D01*
X13102325Y-16204984D02*
X13083277Y-16214508D01*
X13083277Y-16214508D02*
X13073753Y-16224031D01*
X13073753Y-16224031D02*
X13054706Y-16252603D01*
X13054706Y-16252603D02*
X13045182Y-16290698D01*
X13045182Y-16290698D02*
X13045182Y-16366888D01*
X13045182Y-16366888D02*
X13054706Y-16385936D01*
X13054706Y-16385936D02*
X13064229Y-16395460D01*
X13064229Y-16395460D02*
X13083277Y-16404984D01*
X13083277Y-16404984D02*
X13121372Y-16404984D01*
X13121372Y-16404984D02*
X13140420Y-16395460D01*
X13140420Y-16395460D02*
X13149944Y-16385936D01*
X13149944Y-16385936D02*
X13159467Y-16366888D01*
X13159467Y-16366888D02*
X13159467Y-16319269D01*
X13159467Y-16319269D02*
X13149944Y-16300222D01*
X13149944Y-16300222D02*
X13140420Y-16290698D01*
X13140420Y-16290698D02*
X13121372Y-16281174D01*
X13121372Y-16281174D02*
X13083277Y-16281174D01*
X13083277Y-16281174D02*
X13064229Y-16290698D01*
X13064229Y-16290698D02*
X13054706Y-16300222D01*
X13054706Y-16300222D02*
X13045182Y-16319269D01*
X13254706Y-16404984D02*
X13292801Y-16404984D01*
X13292801Y-16404984D02*
X13311848Y-16395460D01*
X13311848Y-16395460D02*
X13321372Y-16385936D01*
X13321372Y-16385936D02*
X13340420Y-16357365D01*
X13340420Y-16357365D02*
X13349944Y-16319269D01*
X13349944Y-16319269D02*
X13349944Y-16243079D01*
X13349944Y-16243079D02*
X13340420Y-16224031D01*
X13340420Y-16224031D02*
X13330896Y-16214508D01*
X13330896Y-16214508D02*
X13311848Y-16204984D01*
X13311848Y-16204984D02*
X13273753Y-16204984D01*
X13273753Y-16204984D02*
X13254706Y-16214508D01*
X13254706Y-16214508D02*
X13245182Y-16224031D01*
X13245182Y-16224031D02*
X13235658Y-16243079D01*
X13235658Y-16243079D02*
X13235658Y-16290698D01*
X13235658Y-16290698D02*
X13245182Y-16309746D01*
X13245182Y-16309746D02*
X13254706Y-16319269D01*
X13254706Y-16319269D02*
X13273753Y-16328793D01*
X13273753Y-16328793D02*
X13311848Y-16328793D01*
X13311848Y-16328793D02*
X13330896Y-16319269D01*
X13330896Y-16319269D02*
X13340420Y-16309746D01*
X13340420Y-16309746D02*
X13349944Y-16290698D01*
X13426134Y-16204984D02*
X13426134Y-16243079D01*
X13502325Y-16204984D02*
X13502325Y-16243079D01*
X13797563Y-16481174D02*
X13788039Y-16471650D01*
X13788039Y-16471650D02*
X13768991Y-16443079D01*
X13768991Y-16443079D02*
X13759468Y-16424031D01*
X13759468Y-16424031D02*
X13749944Y-16395460D01*
X13749944Y-16395460D02*
X13740420Y-16347841D01*
X13740420Y-16347841D02*
X13740420Y-16309746D01*
X13740420Y-16309746D02*
X13749944Y-16262127D01*
X13749944Y-16262127D02*
X13759468Y-16233555D01*
X13759468Y-16233555D02*
X13768991Y-16214508D01*
X13768991Y-16214508D02*
X13788039Y-16185936D01*
X13788039Y-16185936D02*
X13797563Y-16176412D01*
X13959468Y-16271650D02*
X13959468Y-16404984D01*
X13911848Y-16195460D02*
X13864229Y-16338317D01*
X13864229Y-16338317D02*
X13988039Y-16338317D01*
X14149944Y-16271650D02*
X14149944Y-16404984D01*
X14102325Y-16195460D02*
X14054706Y-16338317D01*
X14054706Y-16338317D02*
X14178515Y-16338317D01*
X14407087Y-16404984D02*
X14407087Y-16204984D01*
X14492801Y-16404984D02*
X14492801Y-16300222D01*
X14492801Y-16300222D02*
X14483277Y-16281174D01*
X14483277Y-16281174D02*
X14464230Y-16271650D01*
X14464230Y-16271650D02*
X14435658Y-16271650D01*
X14435658Y-16271650D02*
X14416610Y-16281174D01*
X14416610Y-16281174D02*
X14407087Y-16290698D01*
X14616610Y-16404984D02*
X14597563Y-16395460D01*
X14597563Y-16395460D02*
X14588039Y-16385936D01*
X14588039Y-16385936D02*
X14578515Y-16366888D01*
X14578515Y-16366888D02*
X14578515Y-16309746D01*
X14578515Y-16309746D02*
X14588039Y-16290698D01*
X14588039Y-16290698D02*
X14597563Y-16281174D01*
X14597563Y-16281174D02*
X14616610Y-16271650D01*
X14616610Y-16271650D02*
X14645182Y-16271650D01*
X14645182Y-16271650D02*
X14664230Y-16281174D01*
X14664230Y-16281174D02*
X14673753Y-16290698D01*
X14673753Y-16290698D02*
X14683277Y-16309746D01*
X14683277Y-16309746D02*
X14683277Y-16366888D01*
X14683277Y-16366888D02*
X14673753Y-16385936D01*
X14673753Y-16385936D02*
X14664230Y-16395460D01*
X14664230Y-16395460D02*
X14645182Y-16404984D01*
X14645182Y-16404984D02*
X14616610Y-16404984D01*
X14797563Y-16404984D02*
X14778515Y-16395460D01*
X14778515Y-16395460D02*
X14768991Y-16376412D01*
X14768991Y-16376412D02*
X14768991Y-16204984D01*
X14949944Y-16395460D02*
X14930896Y-16404984D01*
X14930896Y-16404984D02*
X14892801Y-16404984D01*
X14892801Y-16404984D02*
X14873753Y-16395460D01*
X14873753Y-16395460D02*
X14864230Y-16376412D01*
X14864230Y-16376412D02*
X14864230Y-16300222D01*
X14864230Y-16300222D02*
X14873753Y-16281174D01*
X14873753Y-16281174D02*
X14892801Y-16271650D01*
X14892801Y-16271650D02*
X14930896Y-16271650D01*
X14930896Y-16271650D02*
X14949944Y-16281174D01*
X14949944Y-16281174D02*
X14959468Y-16300222D01*
X14959468Y-16300222D02*
X14959468Y-16319269D01*
X14959468Y-16319269D02*
X14864230Y-16338317D01*
X15035658Y-16395460D02*
X15054706Y-16404984D01*
X15054706Y-16404984D02*
X15092801Y-16404984D01*
X15092801Y-16404984D02*
X15111849Y-16395460D01*
X15111849Y-16395460D02*
X15121372Y-16376412D01*
X15121372Y-16376412D02*
X15121372Y-16366888D01*
X15121372Y-16366888D02*
X15111849Y-16347841D01*
X15111849Y-16347841D02*
X15092801Y-16338317D01*
X15092801Y-16338317D02*
X15064230Y-16338317D01*
X15064230Y-16338317D02*
X15045182Y-16328793D01*
X15045182Y-16328793D02*
X15035658Y-16309746D01*
X15035658Y-16309746D02*
X15035658Y-16300222D01*
X15035658Y-16300222D02*
X15045182Y-16281174D01*
X15045182Y-16281174D02*
X15064230Y-16271650D01*
X15064230Y-16271650D02*
X15092801Y-16271650D01*
X15092801Y-16271650D02*
X15111849Y-16281174D01*
X15188039Y-16481174D02*
X15197563Y-16471650D01*
X15197563Y-16471650D02*
X15216611Y-16443079D01*
X15216611Y-16443079D02*
X15226134Y-16424031D01*
X15226134Y-16424031D02*
X15235658Y-16395460D01*
X15235658Y-16395460D02*
X15245182Y-16347841D01*
X15245182Y-16347841D02*
X15245182Y-16309746D01*
X15245182Y-16309746D02*
X15235658Y-16262127D01*
X15235658Y-16262127D02*
X15226134Y-16233555D01*
X15226134Y-16233555D02*
X15216611Y-16214508D01*
X15216611Y-16214508D02*
X15197563Y-16185936D01*
X15197563Y-16185936D02*
X15188039Y-16176412D01*
D16*
X10052500Y-16492500D02*
X10222500Y-16662500D01*
X10222500Y-16492500D02*
X10052500Y-16662500D01*
X10197605Y-16637605D02*
X10197605Y-16517395D01*
X10077395Y-16517395D01*
X10077395Y-16637605D01*
X10197605Y-16637605D01*
D11*
X10588039Y-16668984D02*
X10473753Y-16668984D01*
X10530896Y-16668984D02*
X10530896Y-16468984D01*
X10530896Y-16468984D02*
X10511848Y-16497555D01*
X10511848Y-16497555D02*
X10492801Y-16516603D01*
X10492801Y-16516603D02*
X10473753Y-16526127D01*
X10673753Y-16649936D02*
X10683277Y-16659460D01*
X10683277Y-16659460D02*
X10673753Y-16668984D01*
X10673753Y-16668984D02*
X10664229Y-16659460D01*
X10664229Y-16659460D02*
X10673753Y-16649936D01*
X10673753Y-16649936D02*
X10673753Y-16668984D01*
X10749944Y-16468984D02*
X10883277Y-16468984D01*
X10883277Y-16468984D02*
X10797563Y-16668984D01*
X10997563Y-16468984D02*
X11016610Y-16468984D01*
X11016610Y-16468984D02*
X11035658Y-16478508D01*
X11035658Y-16478508D02*
X11045182Y-16488031D01*
X11045182Y-16488031D02*
X11054705Y-16507079D01*
X11054705Y-16507079D02*
X11064229Y-16545174D01*
X11064229Y-16545174D02*
X11064229Y-16592793D01*
X11064229Y-16592793D02*
X11054705Y-16630888D01*
X11054705Y-16630888D02*
X11045182Y-16649936D01*
X11045182Y-16649936D02*
X11035658Y-16659460D01*
X11035658Y-16659460D02*
X11016610Y-16668984D01*
X11016610Y-16668984D02*
X10997563Y-16668984D01*
X10997563Y-16668984D02*
X10978515Y-16659460D01*
X10978515Y-16659460D02*
X10968991Y-16649936D01*
X10968991Y-16649936D02*
X10959467Y-16630888D01*
X10959467Y-16630888D02*
X10949944Y-16592793D01*
X10949944Y-16592793D02*
X10949944Y-16545174D01*
X10949944Y-16545174D02*
X10959467Y-16507079D01*
X10959467Y-16507079D02*
X10968991Y-16488031D01*
X10968991Y-16488031D02*
X10978515Y-16478508D01*
X10978515Y-16478508D02*
X10997563Y-16468984D01*
X11188039Y-16468984D02*
X11207086Y-16468984D01*
X11207086Y-16468984D02*
X11226134Y-16478508D01*
X11226134Y-16478508D02*
X11235658Y-16488031D01*
X11235658Y-16488031D02*
X11245182Y-16507079D01*
X11245182Y-16507079D02*
X11254705Y-16545174D01*
X11254705Y-16545174D02*
X11254705Y-16592793D01*
X11254705Y-16592793D02*
X11245182Y-16630888D01*
X11245182Y-16630888D02*
X11235658Y-16649936D01*
X11235658Y-16649936D02*
X11226134Y-16659460D01*
X11226134Y-16659460D02*
X11207086Y-16668984D01*
X11207086Y-16668984D02*
X11188039Y-16668984D01*
X11188039Y-16668984D02*
X11168991Y-16659460D01*
X11168991Y-16659460D02*
X11159467Y-16649936D01*
X11159467Y-16649936D02*
X11149944Y-16630888D01*
X11149944Y-16630888D02*
X11140420Y-16592793D01*
X11140420Y-16592793D02*
X11140420Y-16545174D01*
X11140420Y-16545174D02*
X11149944Y-16507079D01*
X11149944Y-16507079D02*
X11159467Y-16488031D01*
X11159467Y-16488031D02*
X11168991Y-16478508D01*
X11168991Y-16478508D02*
X11188039Y-16468984D01*
X11340420Y-16668984D02*
X11340420Y-16535650D01*
X11340420Y-16554698D02*
X11349943Y-16545174D01*
X11349943Y-16545174D02*
X11368991Y-16535650D01*
X11368991Y-16535650D02*
X11397563Y-16535650D01*
X11397563Y-16535650D02*
X11416610Y-16545174D01*
X11416610Y-16545174D02*
X11426134Y-16564222D01*
X11426134Y-16564222D02*
X11426134Y-16668984D01*
X11426134Y-16564222D02*
X11435658Y-16545174D01*
X11435658Y-16545174D02*
X11454705Y-16535650D01*
X11454705Y-16535650D02*
X11483277Y-16535650D01*
X11483277Y-16535650D02*
X11502324Y-16545174D01*
X11502324Y-16545174D02*
X11511848Y-16564222D01*
X11511848Y-16564222D02*
X11511848Y-16668984D01*
X11607086Y-16668984D02*
X11607086Y-16535650D01*
X11607086Y-16554698D02*
X11616610Y-16545174D01*
X11616610Y-16545174D02*
X11635658Y-16535650D01*
X11635658Y-16535650D02*
X11664229Y-16535650D01*
X11664229Y-16535650D02*
X11683277Y-16545174D01*
X11683277Y-16545174D02*
X11692801Y-16564222D01*
X11692801Y-16564222D02*
X11692801Y-16668984D01*
X11692801Y-16564222D02*
X11702324Y-16545174D01*
X11702324Y-16545174D02*
X11721372Y-16535650D01*
X11721372Y-16535650D02*
X11749943Y-16535650D01*
X11749943Y-16535650D02*
X11768991Y-16545174D01*
X11768991Y-16545174D02*
X11778515Y-16564222D01*
X11778515Y-16564222D02*
X11778515Y-16668984D01*
X12168991Y-16459460D02*
X11997563Y-16716603D01*
X12426134Y-16468984D02*
X12445182Y-16468984D01*
X12445182Y-16468984D02*
X12464229Y-16478508D01*
X12464229Y-16478508D02*
X12473753Y-16488031D01*
X12473753Y-16488031D02*
X12483277Y-16507079D01*
X12483277Y-16507079D02*
X12492801Y-16545174D01*
X12492801Y-16545174D02*
X12492801Y-16592793D01*
X12492801Y-16592793D02*
X12483277Y-16630888D01*
X12483277Y-16630888D02*
X12473753Y-16649936D01*
X12473753Y-16649936D02*
X12464229Y-16659460D01*
X12464229Y-16659460D02*
X12445182Y-16668984D01*
X12445182Y-16668984D02*
X12426134Y-16668984D01*
X12426134Y-16668984D02*
X12407086Y-16659460D01*
X12407086Y-16659460D02*
X12397563Y-16649936D01*
X12397563Y-16649936D02*
X12388039Y-16630888D01*
X12388039Y-16630888D02*
X12378515Y-16592793D01*
X12378515Y-16592793D02*
X12378515Y-16545174D01*
X12378515Y-16545174D02*
X12388039Y-16507079D01*
X12388039Y-16507079D02*
X12397563Y-16488031D01*
X12397563Y-16488031D02*
X12407086Y-16478508D01*
X12407086Y-16478508D02*
X12426134Y-16468984D01*
X12578515Y-16649936D02*
X12588039Y-16659460D01*
X12588039Y-16659460D02*
X12578515Y-16668984D01*
X12578515Y-16668984D02*
X12568991Y-16659460D01*
X12568991Y-16659460D02*
X12578515Y-16649936D01*
X12578515Y-16649936D02*
X12578515Y-16668984D01*
X12711848Y-16468984D02*
X12730896Y-16468984D01*
X12730896Y-16468984D02*
X12749944Y-16478508D01*
X12749944Y-16478508D02*
X12759467Y-16488031D01*
X12759467Y-16488031D02*
X12768991Y-16507079D01*
X12768991Y-16507079D02*
X12778515Y-16545174D01*
X12778515Y-16545174D02*
X12778515Y-16592793D01*
X12778515Y-16592793D02*
X12768991Y-16630888D01*
X12768991Y-16630888D02*
X12759467Y-16649936D01*
X12759467Y-16649936D02*
X12749944Y-16659460D01*
X12749944Y-16659460D02*
X12730896Y-16668984D01*
X12730896Y-16668984D02*
X12711848Y-16668984D01*
X12711848Y-16668984D02*
X12692801Y-16659460D01*
X12692801Y-16659460D02*
X12683277Y-16649936D01*
X12683277Y-16649936D02*
X12673753Y-16630888D01*
X12673753Y-16630888D02*
X12664229Y-16592793D01*
X12664229Y-16592793D02*
X12664229Y-16545174D01*
X12664229Y-16545174D02*
X12673753Y-16507079D01*
X12673753Y-16507079D02*
X12683277Y-16488031D01*
X12683277Y-16488031D02*
X12692801Y-16478508D01*
X12692801Y-16478508D02*
X12711848Y-16468984D01*
X12949944Y-16468984D02*
X12911848Y-16468984D01*
X12911848Y-16468984D02*
X12892801Y-16478508D01*
X12892801Y-16478508D02*
X12883277Y-16488031D01*
X12883277Y-16488031D02*
X12864229Y-16516603D01*
X12864229Y-16516603D02*
X12854706Y-16554698D01*
X12854706Y-16554698D02*
X12854706Y-16630888D01*
X12854706Y-16630888D02*
X12864229Y-16649936D01*
X12864229Y-16649936D02*
X12873753Y-16659460D01*
X12873753Y-16659460D02*
X12892801Y-16668984D01*
X12892801Y-16668984D02*
X12930896Y-16668984D01*
X12930896Y-16668984D02*
X12949944Y-16659460D01*
X12949944Y-16659460D02*
X12959467Y-16649936D01*
X12959467Y-16649936D02*
X12968991Y-16630888D01*
X12968991Y-16630888D02*
X12968991Y-16583269D01*
X12968991Y-16583269D02*
X12959467Y-16564222D01*
X12959467Y-16564222D02*
X12949944Y-16554698D01*
X12949944Y-16554698D02*
X12930896Y-16545174D01*
X12930896Y-16545174D02*
X12892801Y-16545174D01*
X12892801Y-16545174D02*
X12873753Y-16554698D01*
X12873753Y-16554698D02*
X12864229Y-16564222D01*
X12864229Y-16564222D02*
X12854706Y-16583269D01*
X13140420Y-16468984D02*
X13102325Y-16468984D01*
X13102325Y-16468984D02*
X13083277Y-16478508D01*
X13083277Y-16478508D02*
X13073753Y-16488031D01*
X13073753Y-16488031D02*
X13054706Y-16516603D01*
X13054706Y-16516603D02*
X13045182Y-16554698D01*
X13045182Y-16554698D02*
X13045182Y-16630888D01*
X13045182Y-16630888D02*
X13054706Y-16649936D01*
X13054706Y-16649936D02*
X13064229Y-16659460D01*
X13064229Y-16659460D02*
X13083277Y-16668984D01*
X13083277Y-16668984D02*
X13121372Y-16668984D01*
X13121372Y-16668984D02*
X13140420Y-16659460D01*
X13140420Y-16659460D02*
X13149944Y-16649936D01*
X13149944Y-16649936D02*
X13159467Y-16630888D01*
X13159467Y-16630888D02*
X13159467Y-16583269D01*
X13159467Y-16583269D02*
X13149944Y-16564222D01*
X13149944Y-16564222D02*
X13140420Y-16554698D01*
X13140420Y-16554698D02*
X13121372Y-16545174D01*
X13121372Y-16545174D02*
X13083277Y-16545174D01*
X13083277Y-16545174D02*
X13064229Y-16554698D01*
X13064229Y-16554698D02*
X13054706Y-16564222D01*
X13054706Y-16564222D02*
X13045182Y-16583269D01*
X13254706Y-16668984D02*
X13292801Y-16668984D01*
X13292801Y-16668984D02*
X13311848Y-16659460D01*
X13311848Y-16659460D02*
X13321372Y-16649936D01*
X13321372Y-16649936D02*
X13340420Y-16621365D01*
X13340420Y-16621365D02*
X13349944Y-16583269D01*
X13349944Y-16583269D02*
X13349944Y-16507079D01*
X13349944Y-16507079D02*
X13340420Y-16488031D01*
X13340420Y-16488031D02*
X13330896Y-16478508D01*
X13330896Y-16478508D02*
X13311848Y-16468984D01*
X13311848Y-16468984D02*
X13273753Y-16468984D01*
X13273753Y-16468984D02*
X13254706Y-16478508D01*
X13254706Y-16478508D02*
X13245182Y-16488031D01*
X13245182Y-16488031D02*
X13235658Y-16507079D01*
X13235658Y-16507079D02*
X13235658Y-16554698D01*
X13235658Y-16554698D02*
X13245182Y-16573746D01*
X13245182Y-16573746D02*
X13254706Y-16583269D01*
X13254706Y-16583269D02*
X13273753Y-16592793D01*
X13273753Y-16592793D02*
X13311848Y-16592793D01*
X13311848Y-16592793D02*
X13330896Y-16583269D01*
X13330896Y-16583269D02*
X13340420Y-16573746D01*
X13340420Y-16573746D02*
X13349944Y-16554698D01*
X13426134Y-16468984D02*
X13426134Y-16507079D01*
X13502325Y-16468984D02*
X13502325Y-16507079D01*
X13797563Y-16745174D02*
X13788039Y-16735650D01*
X13788039Y-16735650D02*
X13768991Y-16707079D01*
X13768991Y-16707079D02*
X13759468Y-16688031D01*
X13759468Y-16688031D02*
X13749944Y-16659460D01*
X13749944Y-16659460D02*
X13740420Y-16611841D01*
X13740420Y-16611841D02*
X13740420Y-16573746D01*
X13740420Y-16573746D02*
X13749944Y-16526127D01*
X13749944Y-16526127D02*
X13759468Y-16497555D01*
X13759468Y-16497555D02*
X13768991Y-16478508D01*
X13768991Y-16478508D02*
X13788039Y-16449936D01*
X13788039Y-16449936D02*
X13797563Y-16440412D01*
X13864229Y-16488031D02*
X13873753Y-16478508D01*
X13873753Y-16478508D02*
X13892801Y-16468984D01*
X13892801Y-16468984D02*
X13940420Y-16468984D01*
X13940420Y-16468984D02*
X13959468Y-16478508D01*
X13959468Y-16478508D02*
X13968991Y-16488031D01*
X13968991Y-16488031D02*
X13978515Y-16507079D01*
X13978515Y-16507079D02*
X13978515Y-16526127D01*
X13978515Y-16526127D02*
X13968991Y-16554698D01*
X13968991Y-16554698D02*
X13854706Y-16668984D01*
X13854706Y-16668984D02*
X13978515Y-16668984D01*
X14216610Y-16668984D02*
X14216610Y-16468984D01*
X14302325Y-16668984D02*
X14302325Y-16564222D01*
X14302325Y-16564222D02*
X14292801Y-16545174D01*
X14292801Y-16545174D02*
X14273753Y-16535650D01*
X14273753Y-16535650D02*
X14245182Y-16535650D01*
X14245182Y-16535650D02*
X14226134Y-16545174D01*
X14226134Y-16545174D02*
X14216610Y-16554698D01*
X14426134Y-16668984D02*
X14407087Y-16659460D01*
X14407087Y-16659460D02*
X14397563Y-16649936D01*
X14397563Y-16649936D02*
X14388039Y-16630888D01*
X14388039Y-16630888D02*
X14388039Y-16573746D01*
X14388039Y-16573746D02*
X14397563Y-16554698D01*
X14397563Y-16554698D02*
X14407087Y-16545174D01*
X14407087Y-16545174D02*
X14426134Y-16535650D01*
X14426134Y-16535650D02*
X14454706Y-16535650D01*
X14454706Y-16535650D02*
X14473753Y-16545174D01*
X14473753Y-16545174D02*
X14483277Y-16554698D01*
X14483277Y-16554698D02*
X14492801Y-16573746D01*
X14492801Y-16573746D02*
X14492801Y-16630888D01*
X14492801Y-16630888D02*
X14483277Y-16649936D01*
X14483277Y-16649936D02*
X14473753Y-16659460D01*
X14473753Y-16659460D02*
X14454706Y-16668984D01*
X14454706Y-16668984D02*
X14426134Y-16668984D01*
X14607087Y-16668984D02*
X14588039Y-16659460D01*
X14588039Y-16659460D02*
X14578515Y-16640412D01*
X14578515Y-16640412D02*
X14578515Y-16468984D01*
X14759468Y-16659460D02*
X14740420Y-16668984D01*
X14740420Y-16668984D02*
X14702325Y-16668984D01*
X14702325Y-16668984D02*
X14683277Y-16659460D01*
X14683277Y-16659460D02*
X14673753Y-16640412D01*
X14673753Y-16640412D02*
X14673753Y-16564222D01*
X14673753Y-16564222D02*
X14683277Y-16545174D01*
X14683277Y-16545174D02*
X14702325Y-16535650D01*
X14702325Y-16535650D02*
X14740420Y-16535650D01*
X14740420Y-16535650D02*
X14759468Y-16545174D01*
X14759468Y-16545174D02*
X14768991Y-16564222D01*
X14768991Y-16564222D02*
X14768991Y-16583269D01*
X14768991Y-16583269D02*
X14673753Y-16602317D01*
X14845182Y-16659460D02*
X14864230Y-16668984D01*
X14864230Y-16668984D02*
X14902325Y-16668984D01*
X14902325Y-16668984D02*
X14921372Y-16659460D01*
X14921372Y-16659460D02*
X14930896Y-16640412D01*
X14930896Y-16640412D02*
X14930896Y-16630888D01*
X14930896Y-16630888D02*
X14921372Y-16611841D01*
X14921372Y-16611841D02*
X14902325Y-16602317D01*
X14902325Y-16602317D02*
X14873753Y-16602317D01*
X14873753Y-16602317D02*
X14854706Y-16592793D01*
X14854706Y-16592793D02*
X14845182Y-16573746D01*
X14845182Y-16573746D02*
X14845182Y-16564222D01*
X14845182Y-16564222D02*
X14854706Y-16545174D01*
X14854706Y-16545174D02*
X14873753Y-16535650D01*
X14873753Y-16535650D02*
X14902325Y-16535650D01*
X14902325Y-16535650D02*
X14921372Y-16545174D01*
X14997563Y-16745174D02*
X15007087Y-16735650D01*
X15007087Y-16735650D02*
X15026134Y-16707079D01*
X15026134Y-16707079D02*
X15035658Y-16688031D01*
X15035658Y-16688031D02*
X15045182Y-16659460D01*
X15045182Y-16659460D02*
X15054706Y-16611841D01*
X15054706Y-16611841D02*
X15054706Y-16573746D01*
X15054706Y-16573746D02*
X15045182Y-16526127D01*
X15045182Y-16526127D02*
X15035658Y-16497555D01*
X15035658Y-16497555D02*
X15026134Y-16478508D01*
X15026134Y-16478508D02*
X15007087Y-16449936D01*
X15007087Y-16449936D02*
X14997563Y-16440412D01*
X10022500Y-16767500D02*
X10222500Y-16967500D01*
X10222500Y-16767500D02*
X10022500Y-16967500D01*
X10122500Y-16967500D02*
X10222500Y-16867500D01*
X10122500Y-16767500D01*
X10022500Y-16867500D01*
X10122500Y-16967500D01*
X10464229Y-16758984D02*
X10588039Y-16758984D01*
X10588039Y-16758984D02*
X10521372Y-16835174D01*
X10521372Y-16835174D02*
X10549944Y-16835174D01*
X10549944Y-16835174D02*
X10568991Y-16844698D01*
X10568991Y-16844698D02*
X10578515Y-16854222D01*
X10578515Y-16854222D02*
X10588039Y-16873270D01*
X10588039Y-16873270D02*
X10588039Y-16920889D01*
X10588039Y-16920889D02*
X10578515Y-16939936D01*
X10578515Y-16939936D02*
X10568991Y-16949460D01*
X10568991Y-16949460D02*
X10549944Y-16958984D01*
X10549944Y-16958984D02*
X10492801Y-16958984D01*
X10492801Y-16958984D02*
X10473753Y-16949460D01*
X10473753Y-16949460D02*
X10464229Y-16939936D01*
X10673753Y-16939936D02*
X10683277Y-16949460D01*
X10683277Y-16949460D02*
X10673753Y-16958984D01*
X10673753Y-16958984D02*
X10664229Y-16949460D01*
X10664229Y-16949460D02*
X10673753Y-16939936D01*
X10673753Y-16939936D02*
X10673753Y-16958984D01*
X10807086Y-16758984D02*
X10826134Y-16758984D01*
X10826134Y-16758984D02*
X10845182Y-16768508D01*
X10845182Y-16768508D02*
X10854705Y-16778031D01*
X10854705Y-16778031D02*
X10864229Y-16797079D01*
X10864229Y-16797079D02*
X10873753Y-16835174D01*
X10873753Y-16835174D02*
X10873753Y-16882793D01*
X10873753Y-16882793D02*
X10864229Y-16920889D01*
X10864229Y-16920889D02*
X10854705Y-16939936D01*
X10854705Y-16939936D02*
X10845182Y-16949460D01*
X10845182Y-16949460D02*
X10826134Y-16958984D01*
X10826134Y-16958984D02*
X10807086Y-16958984D01*
X10807086Y-16958984D02*
X10788039Y-16949460D01*
X10788039Y-16949460D02*
X10778515Y-16939936D01*
X10778515Y-16939936D02*
X10768991Y-16920889D01*
X10768991Y-16920889D02*
X10759467Y-16882793D01*
X10759467Y-16882793D02*
X10759467Y-16835174D01*
X10759467Y-16835174D02*
X10768991Y-16797079D01*
X10768991Y-16797079D02*
X10778515Y-16778031D01*
X10778515Y-16778031D02*
X10788039Y-16768508D01*
X10788039Y-16768508D02*
X10807086Y-16758984D01*
X11054705Y-16758984D02*
X10959467Y-16758984D01*
X10959467Y-16758984D02*
X10949944Y-16854222D01*
X10949944Y-16854222D02*
X10959467Y-16844698D01*
X10959467Y-16844698D02*
X10978515Y-16835174D01*
X10978515Y-16835174D02*
X11026134Y-16835174D01*
X11026134Y-16835174D02*
X11045182Y-16844698D01*
X11045182Y-16844698D02*
X11054705Y-16854222D01*
X11054705Y-16854222D02*
X11064229Y-16873270D01*
X11064229Y-16873270D02*
X11064229Y-16920889D01*
X11064229Y-16920889D02*
X11054705Y-16939936D01*
X11054705Y-16939936D02*
X11045182Y-16949460D01*
X11045182Y-16949460D02*
X11026134Y-16958984D01*
X11026134Y-16958984D02*
X10978515Y-16958984D01*
X10978515Y-16958984D02*
X10959467Y-16949460D01*
X10959467Y-16949460D02*
X10949944Y-16939936D01*
X11188039Y-16758984D02*
X11207086Y-16758984D01*
X11207086Y-16758984D02*
X11226134Y-16768508D01*
X11226134Y-16768508D02*
X11235658Y-16778031D01*
X11235658Y-16778031D02*
X11245182Y-16797079D01*
X11245182Y-16797079D02*
X11254705Y-16835174D01*
X11254705Y-16835174D02*
X11254705Y-16882793D01*
X11254705Y-16882793D02*
X11245182Y-16920889D01*
X11245182Y-16920889D02*
X11235658Y-16939936D01*
X11235658Y-16939936D02*
X11226134Y-16949460D01*
X11226134Y-16949460D02*
X11207086Y-16958984D01*
X11207086Y-16958984D02*
X11188039Y-16958984D01*
X11188039Y-16958984D02*
X11168991Y-16949460D01*
X11168991Y-16949460D02*
X11159467Y-16939936D01*
X11159467Y-16939936D02*
X11149944Y-16920889D01*
X11149944Y-16920889D02*
X11140420Y-16882793D01*
X11140420Y-16882793D02*
X11140420Y-16835174D01*
X11140420Y-16835174D02*
X11149944Y-16797079D01*
X11149944Y-16797079D02*
X11159467Y-16778031D01*
X11159467Y-16778031D02*
X11168991Y-16768508D01*
X11168991Y-16768508D02*
X11188039Y-16758984D01*
X11340420Y-16958984D02*
X11340420Y-16825650D01*
X11340420Y-16844698D02*
X11349943Y-16835174D01*
X11349943Y-16835174D02*
X11368991Y-16825650D01*
X11368991Y-16825650D02*
X11397563Y-16825650D01*
X11397563Y-16825650D02*
X11416610Y-16835174D01*
X11416610Y-16835174D02*
X11426134Y-16854222D01*
X11426134Y-16854222D02*
X11426134Y-16958984D01*
X11426134Y-16854222D02*
X11435658Y-16835174D01*
X11435658Y-16835174D02*
X11454705Y-16825650D01*
X11454705Y-16825650D02*
X11483277Y-16825650D01*
X11483277Y-16825650D02*
X11502324Y-16835174D01*
X11502324Y-16835174D02*
X11511848Y-16854222D01*
X11511848Y-16854222D02*
X11511848Y-16958984D01*
X11607086Y-16958984D02*
X11607086Y-16825650D01*
X11607086Y-16844698D02*
X11616610Y-16835174D01*
X11616610Y-16835174D02*
X11635658Y-16825650D01*
X11635658Y-16825650D02*
X11664229Y-16825650D01*
X11664229Y-16825650D02*
X11683277Y-16835174D01*
X11683277Y-16835174D02*
X11692801Y-16854222D01*
X11692801Y-16854222D02*
X11692801Y-16958984D01*
X11692801Y-16854222D02*
X11702324Y-16835174D01*
X11702324Y-16835174D02*
X11721372Y-16825650D01*
X11721372Y-16825650D02*
X11749943Y-16825650D01*
X11749943Y-16825650D02*
X11768991Y-16835174D01*
X11768991Y-16835174D02*
X11778515Y-16854222D01*
X11778515Y-16854222D02*
X11778515Y-16958984D01*
X12168991Y-16749460D02*
X11997563Y-17006603D01*
X12426134Y-16758984D02*
X12445182Y-16758984D01*
X12445182Y-16758984D02*
X12464229Y-16768508D01*
X12464229Y-16768508D02*
X12473753Y-16778031D01*
X12473753Y-16778031D02*
X12483277Y-16797079D01*
X12483277Y-16797079D02*
X12492801Y-16835174D01*
X12492801Y-16835174D02*
X12492801Y-16882793D01*
X12492801Y-16882793D02*
X12483277Y-16920889D01*
X12483277Y-16920889D02*
X12473753Y-16939936D01*
X12473753Y-16939936D02*
X12464229Y-16949460D01*
X12464229Y-16949460D02*
X12445182Y-16958984D01*
X12445182Y-16958984D02*
X12426134Y-16958984D01*
X12426134Y-16958984D02*
X12407086Y-16949460D01*
X12407086Y-16949460D02*
X12397563Y-16939936D01*
X12397563Y-16939936D02*
X12388039Y-16920889D01*
X12388039Y-16920889D02*
X12378515Y-16882793D01*
X12378515Y-16882793D02*
X12378515Y-16835174D01*
X12378515Y-16835174D02*
X12388039Y-16797079D01*
X12388039Y-16797079D02*
X12397563Y-16778031D01*
X12397563Y-16778031D02*
X12407086Y-16768508D01*
X12407086Y-16768508D02*
X12426134Y-16758984D01*
X12578515Y-16939936D02*
X12588039Y-16949460D01*
X12588039Y-16949460D02*
X12578515Y-16958984D01*
X12578515Y-16958984D02*
X12568991Y-16949460D01*
X12568991Y-16949460D02*
X12578515Y-16939936D01*
X12578515Y-16939936D02*
X12578515Y-16958984D01*
X12778515Y-16958984D02*
X12664229Y-16958984D01*
X12721372Y-16958984D02*
X12721372Y-16758984D01*
X12721372Y-16758984D02*
X12702325Y-16787555D01*
X12702325Y-16787555D02*
X12683277Y-16806603D01*
X12683277Y-16806603D02*
X12664229Y-16816127D01*
X12854706Y-16778031D02*
X12864229Y-16768508D01*
X12864229Y-16768508D02*
X12883277Y-16758984D01*
X12883277Y-16758984D02*
X12930896Y-16758984D01*
X12930896Y-16758984D02*
X12949944Y-16768508D01*
X12949944Y-16768508D02*
X12959467Y-16778031D01*
X12959467Y-16778031D02*
X12968991Y-16797079D01*
X12968991Y-16797079D02*
X12968991Y-16816127D01*
X12968991Y-16816127D02*
X12959467Y-16844698D01*
X12959467Y-16844698D02*
X12845182Y-16958984D01*
X12845182Y-16958984D02*
X12968991Y-16958984D01*
X13092801Y-16758984D02*
X13111848Y-16758984D01*
X13111848Y-16758984D02*
X13130896Y-16768508D01*
X13130896Y-16768508D02*
X13140420Y-16778031D01*
X13140420Y-16778031D02*
X13149944Y-16797079D01*
X13149944Y-16797079D02*
X13159467Y-16835174D01*
X13159467Y-16835174D02*
X13159467Y-16882793D01*
X13159467Y-16882793D02*
X13149944Y-16920889D01*
X13149944Y-16920889D02*
X13140420Y-16939936D01*
X13140420Y-16939936D02*
X13130896Y-16949460D01*
X13130896Y-16949460D02*
X13111848Y-16958984D01*
X13111848Y-16958984D02*
X13092801Y-16958984D01*
X13092801Y-16958984D02*
X13073753Y-16949460D01*
X13073753Y-16949460D02*
X13064229Y-16939936D01*
X13064229Y-16939936D02*
X13054706Y-16920889D01*
X13054706Y-16920889D02*
X13045182Y-16882793D01*
X13045182Y-16882793D02*
X13045182Y-16835174D01*
X13045182Y-16835174D02*
X13054706Y-16797079D01*
X13054706Y-16797079D02*
X13064229Y-16778031D01*
X13064229Y-16778031D02*
X13073753Y-16768508D01*
X13073753Y-16768508D02*
X13092801Y-16758984D01*
X13349944Y-16958984D02*
X13235658Y-16958984D01*
X13292801Y-16958984D02*
X13292801Y-16758984D01*
X13292801Y-16758984D02*
X13273753Y-16787555D01*
X13273753Y-16787555D02*
X13254706Y-16806603D01*
X13254706Y-16806603D02*
X13235658Y-16816127D01*
X13426134Y-16758984D02*
X13426134Y-16797079D01*
X13502325Y-16758984D02*
X13502325Y-16797079D01*
X13797563Y-17035174D02*
X13788039Y-17025650D01*
X13788039Y-17025650D02*
X13768991Y-16997079D01*
X13768991Y-16997079D02*
X13759468Y-16978031D01*
X13759468Y-16978031D02*
X13749944Y-16949460D01*
X13749944Y-16949460D02*
X13740420Y-16901841D01*
X13740420Y-16901841D02*
X13740420Y-16863746D01*
X13740420Y-16863746D02*
X13749944Y-16816127D01*
X13749944Y-16816127D02*
X13759468Y-16787555D01*
X13759468Y-16787555D02*
X13768991Y-16768508D01*
X13768991Y-16768508D02*
X13788039Y-16739936D01*
X13788039Y-16739936D02*
X13797563Y-16730412D01*
X13864229Y-16778031D02*
X13873753Y-16768508D01*
X13873753Y-16768508D02*
X13892801Y-16758984D01*
X13892801Y-16758984D02*
X13940420Y-16758984D01*
X13940420Y-16758984D02*
X13959468Y-16768508D01*
X13959468Y-16768508D02*
X13968991Y-16778031D01*
X13968991Y-16778031D02*
X13978515Y-16797079D01*
X13978515Y-16797079D02*
X13978515Y-16816127D01*
X13978515Y-16816127D02*
X13968991Y-16844698D01*
X13968991Y-16844698D02*
X13854706Y-16958984D01*
X13854706Y-16958984D02*
X13978515Y-16958984D01*
X14216610Y-16958984D02*
X14216610Y-16758984D01*
X14302325Y-16958984D02*
X14302325Y-16854222D01*
X14302325Y-16854222D02*
X14292801Y-16835174D01*
X14292801Y-16835174D02*
X14273753Y-16825650D01*
X14273753Y-16825650D02*
X14245182Y-16825650D01*
X14245182Y-16825650D02*
X14226134Y-16835174D01*
X14226134Y-16835174D02*
X14216610Y-16844698D01*
X14426134Y-16958984D02*
X14407087Y-16949460D01*
X14407087Y-16949460D02*
X14397563Y-16939936D01*
X14397563Y-16939936D02*
X14388039Y-16920889D01*
X14388039Y-16920889D02*
X14388039Y-16863746D01*
X14388039Y-16863746D02*
X14397563Y-16844698D01*
X14397563Y-16844698D02*
X14407087Y-16835174D01*
X14407087Y-16835174D02*
X14426134Y-16825650D01*
X14426134Y-16825650D02*
X14454706Y-16825650D01*
X14454706Y-16825650D02*
X14473753Y-16835174D01*
X14473753Y-16835174D02*
X14483277Y-16844698D01*
X14483277Y-16844698D02*
X14492801Y-16863746D01*
X14492801Y-16863746D02*
X14492801Y-16920889D01*
X14492801Y-16920889D02*
X14483277Y-16939936D01*
X14483277Y-16939936D02*
X14473753Y-16949460D01*
X14473753Y-16949460D02*
X14454706Y-16958984D01*
X14454706Y-16958984D02*
X14426134Y-16958984D01*
X14607087Y-16958984D02*
X14588039Y-16949460D01*
X14588039Y-16949460D02*
X14578515Y-16930412D01*
X14578515Y-16930412D02*
X14578515Y-16758984D01*
X14759468Y-16949460D02*
X14740420Y-16958984D01*
X14740420Y-16958984D02*
X14702325Y-16958984D01*
X14702325Y-16958984D02*
X14683277Y-16949460D01*
X14683277Y-16949460D02*
X14673753Y-16930412D01*
X14673753Y-16930412D02*
X14673753Y-16854222D01*
X14673753Y-16854222D02*
X14683277Y-16835174D01*
X14683277Y-16835174D02*
X14702325Y-16825650D01*
X14702325Y-16825650D02*
X14740420Y-16825650D01*
X14740420Y-16825650D02*
X14759468Y-16835174D01*
X14759468Y-16835174D02*
X14768991Y-16854222D01*
X14768991Y-16854222D02*
X14768991Y-16873270D01*
X14768991Y-16873270D02*
X14673753Y-16892317D01*
X14845182Y-16949460D02*
X14864230Y-16958984D01*
X14864230Y-16958984D02*
X14902325Y-16958984D01*
X14902325Y-16958984D02*
X14921372Y-16949460D01*
X14921372Y-16949460D02*
X14930896Y-16930412D01*
X14930896Y-16930412D02*
X14930896Y-16920889D01*
X14930896Y-16920889D02*
X14921372Y-16901841D01*
X14921372Y-16901841D02*
X14902325Y-16892317D01*
X14902325Y-16892317D02*
X14873753Y-16892317D01*
X14873753Y-16892317D02*
X14854706Y-16882793D01*
X14854706Y-16882793D02*
X14845182Y-16863746D01*
X14845182Y-16863746D02*
X14845182Y-16854222D01*
X14845182Y-16854222D02*
X14854706Y-16835174D01*
X14854706Y-16835174D02*
X14873753Y-16825650D01*
X14873753Y-16825650D02*
X14902325Y-16825650D01*
X14902325Y-16825650D02*
X14921372Y-16835174D01*
X14997563Y-17035174D02*
X15007087Y-17025650D01*
X15007087Y-17025650D02*
X15026134Y-16997079D01*
X15026134Y-16997079D02*
X15035658Y-16978031D01*
X15035658Y-16978031D02*
X15045182Y-16949460D01*
X15045182Y-16949460D02*
X15054706Y-16901841D01*
X15054706Y-16901841D02*
X15054706Y-16863746D01*
X15054706Y-16863746D02*
X15045182Y-16816127D01*
X15045182Y-16816127D02*
X15035658Y-16787555D01*
X15035658Y-16787555D02*
X15026134Y-16768508D01*
X15026134Y-16768508D02*
X15007087Y-16739936D01*
X15007087Y-16739936D02*
X14997563Y-16730412D01*
X10122500Y-17087500D02*
X10122500Y-17287500D01*
X10022500Y-17187500D02*
X10222500Y-17187500D01*
X10222500Y-17187500D02*
G75*
G02*
X10022500Y-17187500I-100000J0D01*
G01*
X10022500Y-17187500D02*
G75*
G02*
X10222500Y-17187500I100000J0D01*
G01*
X10464229Y-17078984D02*
X10588039Y-17078984D01*
X10588039Y-17078984D02*
X10521372Y-17155174D01*
X10521372Y-17155174D02*
X10549944Y-17155174D01*
X10549944Y-17155174D02*
X10568991Y-17164698D01*
X10568991Y-17164698D02*
X10578515Y-17174222D01*
X10578515Y-17174222D02*
X10588039Y-17193270D01*
X10588039Y-17193270D02*
X10588039Y-17240889D01*
X10588039Y-17240889D02*
X10578515Y-17259936D01*
X10578515Y-17259936D02*
X10568991Y-17269460D01*
X10568991Y-17269460D02*
X10549944Y-17278984D01*
X10549944Y-17278984D02*
X10492801Y-17278984D01*
X10492801Y-17278984D02*
X10473753Y-17269460D01*
X10473753Y-17269460D02*
X10464229Y-17259936D01*
X10673753Y-17259936D02*
X10683277Y-17269460D01*
X10683277Y-17269460D02*
X10673753Y-17278984D01*
X10673753Y-17278984D02*
X10664229Y-17269460D01*
X10664229Y-17269460D02*
X10673753Y-17259936D01*
X10673753Y-17259936D02*
X10673753Y-17278984D01*
X10864229Y-17078984D02*
X10768991Y-17078984D01*
X10768991Y-17078984D02*
X10759467Y-17174222D01*
X10759467Y-17174222D02*
X10768991Y-17164698D01*
X10768991Y-17164698D02*
X10788039Y-17155174D01*
X10788039Y-17155174D02*
X10835658Y-17155174D01*
X10835658Y-17155174D02*
X10854705Y-17164698D01*
X10854705Y-17164698D02*
X10864229Y-17174222D01*
X10864229Y-17174222D02*
X10873753Y-17193270D01*
X10873753Y-17193270D02*
X10873753Y-17240889D01*
X10873753Y-17240889D02*
X10864229Y-17259936D01*
X10864229Y-17259936D02*
X10854705Y-17269460D01*
X10854705Y-17269460D02*
X10835658Y-17278984D01*
X10835658Y-17278984D02*
X10788039Y-17278984D01*
X10788039Y-17278984D02*
X10768991Y-17269460D01*
X10768991Y-17269460D02*
X10759467Y-17259936D01*
X10997563Y-17078984D02*
X11016610Y-17078984D01*
X11016610Y-17078984D02*
X11035658Y-17088508D01*
X11035658Y-17088508D02*
X11045182Y-17098031D01*
X11045182Y-17098031D02*
X11054705Y-17117079D01*
X11054705Y-17117079D02*
X11064229Y-17155174D01*
X11064229Y-17155174D02*
X11064229Y-17202793D01*
X11064229Y-17202793D02*
X11054705Y-17240889D01*
X11054705Y-17240889D02*
X11045182Y-17259936D01*
X11045182Y-17259936D02*
X11035658Y-17269460D01*
X11035658Y-17269460D02*
X11016610Y-17278984D01*
X11016610Y-17278984D02*
X10997563Y-17278984D01*
X10997563Y-17278984D02*
X10978515Y-17269460D01*
X10978515Y-17269460D02*
X10968991Y-17259936D01*
X10968991Y-17259936D02*
X10959467Y-17240889D01*
X10959467Y-17240889D02*
X10949944Y-17202793D01*
X10949944Y-17202793D02*
X10949944Y-17155174D01*
X10949944Y-17155174D02*
X10959467Y-17117079D01*
X10959467Y-17117079D02*
X10968991Y-17098031D01*
X10968991Y-17098031D02*
X10978515Y-17088508D01*
X10978515Y-17088508D02*
X10997563Y-17078984D01*
X11188039Y-17078984D02*
X11207086Y-17078984D01*
X11207086Y-17078984D02*
X11226134Y-17088508D01*
X11226134Y-17088508D02*
X11235658Y-17098031D01*
X11235658Y-17098031D02*
X11245182Y-17117079D01*
X11245182Y-17117079D02*
X11254705Y-17155174D01*
X11254705Y-17155174D02*
X11254705Y-17202793D01*
X11254705Y-17202793D02*
X11245182Y-17240889D01*
X11245182Y-17240889D02*
X11235658Y-17259936D01*
X11235658Y-17259936D02*
X11226134Y-17269460D01*
X11226134Y-17269460D02*
X11207086Y-17278984D01*
X11207086Y-17278984D02*
X11188039Y-17278984D01*
X11188039Y-17278984D02*
X11168991Y-17269460D01*
X11168991Y-17269460D02*
X11159467Y-17259936D01*
X11159467Y-17259936D02*
X11149944Y-17240889D01*
X11149944Y-17240889D02*
X11140420Y-17202793D01*
X11140420Y-17202793D02*
X11140420Y-17155174D01*
X11140420Y-17155174D02*
X11149944Y-17117079D01*
X11149944Y-17117079D02*
X11159467Y-17098031D01*
X11159467Y-17098031D02*
X11168991Y-17088508D01*
X11168991Y-17088508D02*
X11188039Y-17078984D01*
X11340420Y-17278984D02*
X11340420Y-17145650D01*
X11340420Y-17164698D02*
X11349943Y-17155174D01*
X11349943Y-17155174D02*
X11368991Y-17145650D01*
X11368991Y-17145650D02*
X11397563Y-17145650D01*
X11397563Y-17145650D02*
X11416610Y-17155174D01*
X11416610Y-17155174D02*
X11426134Y-17174222D01*
X11426134Y-17174222D02*
X11426134Y-17278984D01*
X11426134Y-17174222D02*
X11435658Y-17155174D01*
X11435658Y-17155174D02*
X11454705Y-17145650D01*
X11454705Y-17145650D02*
X11483277Y-17145650D01*
X11483277Y-17145650D02*
X11502324Y-17155174D01*
X11502324Y-17155174D02*
X11511848Y-17174222D01*
X11511848Y-17174222D02*
X11511848Y-17278984D01*
X11607086Y-17278984D02*
X11607086Y-17145650D01*
X11607086Y-17164698D02*
X11616610Y-17155174D01*
X11616610Y-17155174D02*
X11635658Y-17145650D01*
X11635658Y-17145650D02*
X11664229Y-17145650D01*
X11664229Y-17145650D02*
X11683277Y-17155174D01*
X11683277Y-17155174D02*
X11692801Y-17174222D01*
X11692801Y-17174222D02*
X11692801Y-17278984D01*
X11692801Y-17174222D02*
X11702324Y-17155174D01*
X11702324Y-17155174D02*
X11721372Y-17145650D01*
X11721372Y-17145650D02*
X11749943Y-17145650D01*
X11749943Y-17145650D02*
X11768991Y-17155174D01*
X11768991Y-17155174D02*
X11778515Y-17174222D01*
X11778515Y-17174222D02*
X11778515Y-17278984D01*
X12168991Y-17069460D02*
X11997563Y-17326603D01*
X12426134Y-17078984D02*
X12445182Y-17078984D01*
X12445182Y-17078984D02*
X12464229Y-17088508D01*
X12464229Y-17088508D02*
X12473753Y-17098031D01*
X12473753Y-17098031D02*
X12483277Y-17117079D01*
X12483277Y-17117079D02*
X12492801Y-17155174D01*
X12492801Y-17155174D02*
X12492801Y-17202793D01*
X12492801Y-17202793D02*
X12483277Y-17240889D01*
X12483277Y-17240889D02*
X12473753Y-17259936D01*
X12473753Y-17259936D02*
X12464229Y-17269460D01*
X12464229Y-17269460D02*
X12445182Y-17278984D01*
X12445182Y-17278984D02*
X12426134Y-17278984D01*
X12426134Y-17278984D02*
X12407086Y-17269460D01*
X12407086Y-17269460D02*
X12397563Y-17259936D01*
X12397563Y-17259936D02*
X12388039Y-17240889D01*
X12388039Y-17240889D02*
X12378515Y-17202793D01*
X12378515Y-17202793D02*
X12378515Y-17155174D01*
X12378515Y-17155174D02*
X12388039Y-17117079D01*
X12388039Y-17117079D02*
X12397563Y-17098031D01*
X12397563Y-17098031D02*
X12407086Y-17088508D01*
X12407086Y-17088508D02*
X12426134Y-17078984D01*
X12578515Y-17259936D02*
X12588039Y-17269460D01*
X12588039Y-17269460D02*
X12578515Y-17278984D01*
X12578515Y-17278984D02*
X12568991Y-17269460D01*
X12568991Y-17269460D02*
X12578515Y-17259936D01*
X12578515Y-17259936D02*
X12578515Y-17278984D01*
X12778515Y-17278984D02*
X12664229Y-17278984D01*
X12721372Y-17278984D02*
X12721372Y-17078984D01*
X12721372Y-17078984D02*
X12702325Y-17107555D01*
X12702325Y-17107555D02*
X12683277Y-17126603D01*
X12683277Y-17126603D02*
X12664229Y-17136127D01*
X12845182Y-17078984D02*
X12968991Y-17078984D01*
X12968991Y-17078984D02*
X12902325Y-17155174D01*
X12902325Y-17155174D02*
X12930896Y-17155174D01*
X12930896Y-17155174D02*
X12949944Y-17164698D01*
X12949944Y-17164698D02*
X12959467Y-17174222D01*
X12959467Y-17174222D02*
X12968991Y-17193270D01*
X12968991Y-17193270D02*
X12968991Y-17240889D01*
X12968991Y-17240889D02*
X12959467Y-17259936D01*
X12959467Y-17259936D02*
X12949944Y-17269460D01*
X12949944Y-17269460D02*
X12930896Y-17278984D01*
X12930896Y-17278984D02*
X12873753Y-17278984D01*
X12873753Y-17278984D02*
X12854706Y-17269460D01*
X12854706Y-17269460D02*
X12845182Y-17259936D01*
X13035658Y-17078984D02*
X13168991Y-17078984D01*
X13168991Y-17078984D02*
X13083277Y-17278984D01*
X13273753Y-17164698D02*
X13254706Y-17155174D01*
X13254706Y-17155174D02*
X13245182Y-17145650D01*
X13245182Y-17145650D02*
X13235658Y-17126603D01*
X13235658Y-17126603D02*
X13235658Y-17117079D01*
X13235658Y-17117079D02*
X13245182Y-17098031D01*
X13245182Y-17098031D02*
X13254706Y-17088508D01*
X13254706Y-17088508D02*
X13273753Y-17078984D01*
X13273753Y-17078984D02*
X13311848Y-17078984D01*
X13311848Y-17078984D02*
X13330896Y-17088508D01*
X13330896Y-17088508D02*
X13340420Y-17098031D01*
X13340420Y-17098031D02*
X13349944Y-17117079D01*
X13349944Y-17117079D02*
X13349944Y-17126603D01*
X13349944Y-17126603D02*
X13340420Y-17145650D01*
X13340420Y-17145650D02*
X13330896Y-17155174D01*
X13330896Y-17155174D02*
X13311848Y-17164698D01*
X13311848Y-17164698D02*
X13273753Y-17164698D01*
X13273753Y-17164698D02*
X13254706Y-17174222D01*
X13254706Y-17174222D02*
X13245182Y-17183746D01*
X13245182Y-17183746D02*
X13235658Y-17202793D01*
X13235658Y-17202793D02*
X13235658Y-17240889D01*
X13235658Y-17240889D02*
X13245182Y-17259936D01*
X13245182Y-17259936D02*
X13254706Y-17269460D01*
X13254706Y-17269460D02*
X13273753Y-17278984D01*
X13273753Y-17278984D02*
X13311848Y-17278984D01*
X13311848Y-17278984D02*
X13330896Y-17269460D01*
X13330896Y-17269460D02*
X13340420Y-17259936D01*
X13340420Y-17259936D02*
X13349944Y-17240889D01*
X13349944Y-17240889D02*
X13349944Y-17202793D01*
X13349944Y-17202793D02*
X13340420Y-17183746D01*
X13340420Y-17183746D02*
X13330896Y-17174222D01*
X13330896Y-17174222D02*
X13311848Y-17164698D01*
X13426134Y-17078984D02*
X13426134Y-17117079D01*
X13502325Y-17078984D02*
X13502325Y-17117079D01*
X13797563Y-17355174D02*
X13788039Y-17345650D01*
X13788039Y-17345650D02*
X13768991Y-17317079D01*
X13768991Y-17317079D02*
X13759468Y-17298031D01*
X13759468Y-17298031D02*
X13749944Y-17269460D01*
X13749944Y-17269460D02*
X13740420Y-17221841D01*
X13740420Y-17221841D02*
X13740420Y-17183746D01*
X13740420Y-17183746D02*
X13749944Y-17136127D01*
X13749944Y-17136127D02*
X13759468Y-17107555D01*
X13759468Y-17107555D02*
X13768991Y-17088508D01*
X13768991Y-17088508D02*
X13788039Y-17059936D01*
X13788039Y-17059936D02*
X13797563Y-17050412D01*
X13959468Y-17145650D02*
X13959468Y-17278984D01*
X13911848Y-17069460D02*
X13864229Y-17212317D01*
X13864229Y-17212317D02*
X13988039Y-17212317D01*
X14216610Y-17278984D02*
X14216610Y-17078984D01*
X14302325Y-17278984D02*
X14302325Y-17174222D01*
X14302325Y-17174222D02*
X14292801Y-17155174D01*
X14292801Y-17155174D02*
X14273753Y-17145650D01*
X14273753Y-17145650D02*
X14245182Y-17145650D01*
X14245182Y-17145650D02*
X14226134Y-17155174D01*
X14226134Y-17155174D02*
X14216610Y-17164698D01*
X14426134Y-17278984D02*
X14407087Y-17269460D01*
X14407087Y-17269460D02*
X14397563Y-17259936D01*
X14397563Y-17259936D02*
X14388039Y-17240889D01*
X14388039Y-17240889D02*
X14388039Y-17183746D01*
X14388039Y-17183746D02*
X14397563Y-17164698D01*
X14397563Y-17164698D02*
X14407087Y-17155174D01*
X14407087Y-17155174D02*
X14426134Y-17145650D01*
X14426134Y-17145650D02*
X14454706Y-17145650D01*
X14454706Y-17145650D02*
X14473753Y-17155174D01*
X14473753Y-17155174D02*
X14483277Y-17164698D01*
X14483277Y-17164698D02*
X14492801Y-17183746D01*
X14492801Y-17183746D02*
X14492801Y-17240889D01*
X14492801Y-17240889D02*
X14483277Y-17259936D01*
X14483277Y-17259936D02*
X14473753Y-17269460D01*
X14473753Y-17269460D02*
X14454706Y-17278984D01*
X14454706Y-17278984D02*
X14426134Y-17278984D01*
X14607087Y-17278984D02*
X14588039Y-17269460D01*
X14588039Y-17269460D02*
X14578515Y-17250412D01*
X14578515Y-17250412D02*
X14578515Y-17078984D01*
X14759468Y-17269460D02*
X14740420Y-17278984D01*
X14740420Y-17278984D02*
X14702325Y-17278984D01*
X14702325Y-17278984D02*
X14683277Y-17269460D01*
X14683277Y-17269460D02*
X14673753Y-17250412D01*
X14673753Y-17250412D02*
X14673753Y-17174222D01*
X14673753Y-17174222D02*
X14683277Y-17155174D01*
X14683277Y-17155174D02*
X14702325Y-17145650D01*
X14702325Y-17145650D02*
X14740420Y-17145650D01*
X14740420Y-17145650D02*
X14759468Y-17155174D01*
X14759468Y-17155174D02*
X14768991Y-17174222D01*
X14768991Y-17174222D02*
X14768991Y-17193270D01*
X14768991Y-17193270D02*
X14673753Y-17212317D01*
X14845182Y-17269460D02*
X14864230Y-17278984D01*
X14864230Y-17278984D02*
X14902325Y-17278984D01*
X14902325Y-17278984D02*
X14921372Y-17269460D01*
X14921372Y-17269460D02*
X14930896Y-17250412D01*
X14930896Y-17250412D02*
X14930896Y-17240889D01*
X14930896Y-17240889D02*
X14921372Y-17221841D01*
X14921372Y-17221841D02*
X14902325Y-17212317D01*
X14902325Y-17212317D02*
X14873753Y-17212317D01*
X14873753Y-17212317D02*
X14854706Y-17202793D01*
X14854706Y-17202793D02*
X14845182Y-17183746D01*
X14845182Y-17183746D02*
X14845182Y-17174222D01*
X14845182Y-17174222D02*
X14854706Y-17155174D01*
X14854706Y-17155174D02*
X14873753Y-17145650D01*
X14873753Y-17145650D02*
X14902325Y-17145650D01*
X14902325Y-17145650D02*
X14921372Y-17155174D01*
X14997563Y-17355174D02*
X15007087Y-17345650D01*
X15007087Y-17345650D02*
X15026134Y-17317079D01*
X15026134Y-17317079D02*
X15035658Y-17298031D01*
X15035658Y-17298031D02*
X15045182Y-17269460D01*
X15045182Y-17269460D02*
X15054706Y-17221841D01*
X15054706Y-17221841D02*
X15054706Y-17183746D01*
X15054706Y-17183746D02*
X15045182Y-17136127D01*
X15045182Y-17136127D02*
X15035658Y-17107555D01*
X15035658Y-17107555D02*
X15026134Y-17088508D01*
X15026134Y-17088508D02*
X15007087Y-17059936D01*
X15007087Y-17059936D02*
X14997563Y-17050412D01*
M02*
