%TF.GenerationSoftware,KiCad,Pcbnew,10.0.1*%
%TF.CreationDate,2026-06-20T14:22:02-05:00*%
%TF.ProjectId,Teensy_Daughtercard,5465656e-7379-45f4-9461-756768746572,rev?*%
%TF.SameCoordinates,Original*%
%TF.FileFunction,Soldermask,Bot*%
%TF.FilePolarity,Negative*%
%FSLAX46Y46*%
G04 Gerber Fmt 4.6, Leading zero omitted, Abs format (unit mm)*
G04 Created by KiCad (PCBNEW 10.0.1) date 2026-06-20 14:22:02*
%MOMM*%
%LPD*%
G01*
G04 APERTURE LIST*
%ADD10C,7.000000*%
%ADD11C,3.200000*%
%ADD12C,1.300000*%
%ADD13C,3.250000*%
%ADD14C,2.400000*%
%ADD15R,1.400000X1.400000*%
%ADD16C,1.400000*%
%ADD17C,1.530000*%
%ADD18R,1.600000X1.600000*%
%ADD19C,1.600000*%
%ADD20R,1.300000X1.300000*%
G04 APERTURE END LIST*
D10*
%TO.C,H2*%
X197250000Y-60000000D03*
%TD*%
D11*
%TO.C,J6*%
X115680000Y-134800000D03*
X188280000Y-134800000D03*
D12*
X121500000Y-135500000D03*
X124040000Y-135500000D03*
X126580000Y-135500000D03*
X129120000Y-135500000D03*
X131660000Y-135500000D03*
X134200000Y-135500000D03*
X136740000Y-135500000D03*
X139280000Y-135500000D03*
X141820000Y-135500000D03*
X144360000Y-135500000D03*
X146900000Y-135500000D03*
X149440000Y-135500000D03*
X151980000Y-135500000D03*
X154520000Y-135500000D03*
X157060000Y-135500000D03*
X159600000Y-135500000D03*
X162140000Y-135500000D03*
X164680000Y-135500000D03*
X167220000Y-135500000D03*
X169760000Y-135500000D03*
X172300000Y-135500000D03*
X174840000Y-135500000D03*
X177380000Y-135500000D03*
X179920000Y-135500000D03*
X182460000Y-135500000D03*
X121500000Y-132960000D03*
X124040000Y-132960000D03*
X126580000Y-132960000D03*
X129120000Y-132960000D03*
X131660000Y-132960000D03*
X134200000Y-132960000D03*
X136740000Y-132960000D03*
X139280000Y-132960000D03*
X141820000Y-132960000D03*
X144360000Y-132960000D03*
X146900000Y-132960000D03*
X149440000Y-132960000D03*
X151980000Y-132960000D03*
X154520000Y-132960000D03*
X157060000Y-132960000D03*
X159600000Y-132960000D03*
X162140000Y-132960000D03*
X164680000Y-132960000D03*
X167220000Y-132960000D03*
X169760000Y-132960000D03*
X172300000Y-132960000D03*
X174840000Y-132960000D03*
X177380000Y-132960000D03*
X179920000Y-132960000D03*
X182460000Y-132960000D03*
%TD*%
D13*
%TO.C,J1*%
X157540000Y-66075000D03*
X146110000Y-66075000D03*
D14*
X159575000Y-69125000D03*
X144075000Y-69125000D03*
D15*
X156270000Y-72425000D03*
D16*
X155000000Y-74965000D03*
X153730000Y-72425000D03*
X152460000Y-74965000D03*
X151190000Y-72425000D03*
X149920000Y-74965000D03*
X148650000Y-72425000D03*
X147380000Y-74965000D03*
D17*
X158465000Y-62015000D03*
X155925000Y-62015000D03*
X147725000Y-62015000D03*
X145185000Y-62015000D03*
%TD*%
D18*
%TO.C,U1*%
X123109200Y-105870800D03*
D19*
X125649200Y-105870800D03*
X128189200Y-105870800D03*
X130729200Y-105870800D03*
X133269200Y-105870800D03*
X135809200Y-105870800D03*
X138349200Y-105870800D03*
X140889200Y-105870800D03*
X143429200Y-105870800D03*
X145969200Y-105870800D03*
X148509200Y-105870800D03*
X151049200Y-105870800D03*
X153589200Y-105870800D03*
X156129200Y-105870800D03*
X158669200Y-105870800D03*
X161209200Y-105870800D03*
X163749200Y-105870800D03*
X166289200Y-105870800D03*
X168829200Y-105870800D03*
X171369200Y-105870800D03*
X173909200Y-105870800D03*
X176449200Y-105870800D03*
X178989200Y-105870800D03*
X181529200Y-105870800D03*
X181529200Y-90630800D03*
X178989200Y-90630800D03*
X176449200Y-90630800D03*
X173909200Y-90630800D03*
X171369200Y-90630800D03*
X168829200Y-90630800D03*
X166289200Y-90630800D03*
X163749200Y-90630800D03*
X161209200Y-90630800D03*
X158669200Y-90630800D03*
X156129200Y-90630800D03*
X153589200Y-90630800D03*
X151049200Y-90630800D03*
X148509200Y-90630800D03*
X145969200Y-90630800D03*
X143429200Y-90630800D03*
X140889200Y-90630800D03*
X138349200Y-90630800D03*
X135809200Y-90630800D03*
X133269200Y-90630800D03*
X130729200Y-90630800D03*
X128189200Y-90630800D03*
X125649200Y-90630800D03*
X123109200Y-90630800D03*
X125649200Y-93170800D03*
D18*
X129408400Y-102820000D03*
D19*
X131948400Y-102820000D03*
X134488400Y-102820000D03*
X137028400Y-102820000D03*
X139568400Y-102820000D03*
D20*
X136079200Y-93069200D03*
D12*
X136079200Y-95069200D03*
X136079200Y-97069200D03*
X138079200Y-97069200D03*
X138079200Y-95069200D03*
X138079200Y-93069200D03*
X123839200Y-96980800D03*
X123839200Y-99520800D03*
%TD*%
D10*
%TO.C,H1*%
X107250000Y-60000000D03*
%TD*%
M02*
