%TF.GenerationSoftware,KiCad,Pcbnew,10.0.1*%
%TF.CreationDate,2026-06-20T14:22:02-05:00*%
%TF.ProjectId,Teensy_Daughtercard,5465656e-7379-45f4-9461-756768746572,rev?*%
%TF.SameCoordinates,Original*%
%TF.FileFunction,Legend,Top*%
%TF.FilePolarity,Positive*%
%FSLAX46Y46*%
G04 Gerber Fmt 4.6, Leading zero omitted, Abs format (unit mm)*
G04 Created by KiCad (PCBNEW 10.0.1) date 2026-06-20 14:22:02*
%MOMM*%
%LPD*%
G01*
G04 APERTURE LIST*
%ADD10C,0.150000*%
%ADD11C,0.162500*%
%ADD12C,0.300000*%
%ADD13C,0.125000*%
%ADD14C,0.254000*%
%ADD15C,0.120000*%
%ADD16C,0.200000*%
%ADD17C,1.000000*%
%ADD18C,0.000000*%
%ADD19C,0.100000*%
G04 APERTURE END LIST*
D10*
X148416666Y-94562295D02*
X148416666Y-93762295D01*
X148416666Y-93762295D02*
X148650000Y-94333723D01*
X148650000Y-94333723D02*
X148883333Y-93762295D01*
X148883333Y-93762295D02*
X148883333Y-94562295D01*
X149216666Y-94562295D02*
X149216666Y-93762295D01*
X149549999Y-94562295D02*
X149549999Y-93762295D01*
X149549999Y-93762295D02*
X149783333Y-94333723D01*
X149783333Y-94333723D02*
X150016666Y-93762295D01*
X150016666Y-93762295D02*
X150016666Y-94562295D01*
X150283333Y-93762295D02*
X150749999Y-94562295D01*
X150749999Y-93762295D02*
X150283333Y-94562295D01*
X151416666Y-94562295D02*
X151183333Y-94181342D01*
X151016666Y-94562295D02*
X151016666Y-93762295D01*
X151016666Y-93762295D02*
X151283333Y-93762295D01*
X151283333Y-93762295D02*
X151350000Y-93800390D01*
X151350000Y-93800390D02*
X151383333Y-93838485D01*
X151383333Y-93838485D02*
X151416666Y-93914676D01*
X151416666Y-93914676D02*
X151416666Y-94028961D01*
X151416666Y-94028961D02*
X151383333Y-94105152D01*
X151383333Y-94105152D02*
X151350000Y-94143247D01*
X151350000Y-94143247D02*
X151283333Y-94181342D01*
X151283333Y-94181342D02*
X151016666Y-94181342D01*
X151616666Y-93762295D02*
X152016666Y-93762295D01*
X151816666Y-94562295D02*
X151816666Y-93762295D01*
X152616666Y-94562295D02*
X152216666Y-94562295D01*
X152416666Y-94562295D02*
X152416666Y-93762295D01*
X152416666Y-93762295D02*
X152349999Y-93876580D01*
X152349999Y-93876580D02*
X152283333Y-93952771D01*
X152283333Y-93952771D02*
X152216666Y-93990866D01*
X153050000Y-93762295D02*
X153116666Y-93762295D01*
X153116666Y-93762295D02*
X153183333Y-93800390D01*
X153183333Y-93800390D02*
X153216666Y-93838485D01*
X153216666Y-93838485D02*
X153250000Y-93914676D01*
X153250000Y-93914676D02*
X153283333Y-94067057D01*
X153283333Y-94067057D02*
X153283333Y-94257533D01*
X153283333Y-94257533D02*
X153250000Y-94409914D01*
X153250000Y-94409914D02*
X153216666Y-94486104D01*
X153216666Y-94486104D02*
X153183333Y-94524200D01*
X153183333Y-94524200D02*
X153116666Y-94562295D01*
X153116666Y-94562295D02*
X153050000Y-94562295D01*
X153050000Y-94562295D02*
X152983333Y-94524200D01*
X152983333Y-94524200D02*
X152950000Y-94486104D01*
X152950000Y-94486104D02*
X152916666Y-94409914D01*
X152916666Y-94409914D02*
X152883333Y-94257533D01*
X152883333Y-94257533D02*
X152883333Y-94067057D01*
X152883333Y-94067057D02*
X152916666Y-93914676D01*
X152916666Y-93914676D02*
X152950000Y-93838485D01*
X152950000Y-93838485D02*
X152983333Y-93800390D01*
X152983333Y-93800390D02*
X153050000Y-93762295D01*
X153883333Y-93762295D02*
X153750000Y-93762295D01*
X153750000Y-93762295D02*
X153683333Y-93800390D01*
X153683333Y-93800390D02*
X153650000Y-93838485D01*
X153650000Y-93838485D02*
X153583333Y-93952771D01*
X153583333Y-93952771D02*
X153550000Y-94105152D01*
X153550000Y-94105152D02*
X153550000Y-94409914D01*
X153550000Y-94409914D02*
X153583333Y-94486104D01*
X153583333Y-94486104D02*
X153616667Y-94524200D01*
X153616667Y-94524200D02*
X153683333Y-94562295D01*
X153683333Y-94562295D02*
X153816667Y-94562295D01*
X153816667Y-94562295D02*
X153883333Y-94524200D01*
X153883333Y-94524200D02*
X153916667Y-94486104D01*
X153916667Y-94486104D02*
X153950000Y-94409914D01*
X153950000Y-94409914D02*
X153950000Y-94219438D01*
X153950000Y-94219438D02*
X153916667Y-94143247D01*
X153916667Y-94143247D02*
X153883333Y-94105152D01*
X153883333Y-94105152D02*
X153816667Y-94067057D01*
X153816667Y-94067057D02*
X153683333Y-94067057D01*
X153683333Y-94067057D02*
X153616667Y-94105152D01*
X153616667Y-94105152D02*
X153583333Y-94143247D01*
X153583333Y-94143247D02*
X153550000Y-94219438D01*
X154216667Y-93838485D02*
X154250000Y-93800390D01*
X154250000Y-93800390D02*
X154316667Y-93762295D01*
X154316667Y-93762295D02*
X154483334Y-93762295D01*
X154483334Y-93762295D02*
X154550000Y-93800390D01*
X154550000Y-93800390D02*
X154583334Y-93838485D01*
X154583334Y-93838485D02*
X154616667Y-93914676D01*
X154616667Y-93914676D02*
X154616667Y-93990866D01*
X154616667Y-93990866D02*
X154583334Y-94105152D01*
X154583334Y-94105152D02*
X154183334Y-94562295D01*
X154183334Y-94562295D02*
X154616667Y-94562295D01*
D11*
X174472383Y-66123930D02*
X174418811Y-66171550D01*
X174418811Y-66171550D02*
X174270002Y-66219169D01*
X174270002Y-66219169D02*
X174174764Y-66219169D01*
X174174764Y-66219169D02*
X174037859Y-66171550D01*
X174037859Y-66171550D02*
X173954526Y-66076311D01*
X173954526Y-66076311D02*
X173918811Y-65981073D01*
X173918811Y-65981073D02*
X173895002Y-65790597D01*
X173895002Y-65790597D02*
X173912859Y-65647740D01*
X173912859Y-65647740D02*
X173984287Y-65457264D01*
X173984287Y-65457264D02*
X174043811Y-65362026D01*
X174043811Y-65362026D02*
X174150954Y-65266788D01*
X174150954Y-65266788D02*
X174299764Y-65219169D01*
X174299764Y-65219169D02*
X174395002Y-65219169D01*
X174395002Y-65219169D02*
X174531907Y-65266788D01*
X174531907Y-65266788D02*
X174573573Y-65314407D01*
X175317621Y-66219169D02*
X175383097Y-65695359D01*
X175383097Y-65695359D02*
X175347383Y-65600121D01*
X175347383Y-65600121D02*
X175258097Y-65552502D01*
X175258097Y-65552502D02*
X175067621Y-65552502D01*
X175067621Y-65552502D02*
X174966430Y-65600121D01*
X175323573Y-66171550D02*
X175222383Y-66219169D01*
X175222383Y-66219169D02*
X174984287Y-66219169D01*
X174984287Y-66219169D02*
X174895002Y-66171550D01*
X174895002Y-66171550D02*
X174859287Y-66076311D01*
X174859287Y-66076311D02*
X174871192Y-65981073D01*
X174871192Y-65981073D02*
X174930716Y-65885835D01*
X174930716Y-65885835D02*
X175031907Y-65838216D01*
X175031907Y-65838216D02*
X175270002Y-65838216D01*
X175270002Y-65838216D02*
X175371192Y-65790597D01*
X176222383Y-66219169D02*
X176347383Y-65219169D01*
X176228335Y-66171550D02*
X176127145Y-66219169D01*
X176127145Y-66219169D02*
X175936669Y-66219169D01*
X175936669Y-66219169D02*
X175847383Y-66171550D01*
X175847383Y-66171550D02*
X175805716Y-66123930D01*
X175805716Y-66123930D02*
X175770002Y-66028692D01*
X175770002Y-66028692D02*
X175805716Y-65742978D01*
X175805716Y-65742978D02*
X175865240Y-65647740D01*
X175865240Y-65647740D02*
X175918811Y-65600121D01*
X175918811Y-65600121D02*
X176020002Y-65552502D01*
X176020002Y-65552502D02*
X176210478Y-65552502D01*
X176210478Y-65552502D02*
X176299764Y-65600121D01*
X177085478Y-66171550D02*
X176984288Y-66219169D01*
X176984288Y-66219169D02*
X176793811Y-66219169D01*
X176793811Y-66219169D02*
X176704526Y-66171550D01*
X176704526Y-66171550D02*
X176668811Y-66076311D01*
X176668811Y-66076311D02*
X176716431Y-65695359D01*
X176716431Y-65695359D02*
X176775954Y-65600121D01*
X176775954Y-65600121D02*
X176877145Y-65552502D01*
X176877145Y-65552502D02*
X177067621Y-65552502D01*
X177067621Y-65552502D02*
X177156907Y-65600121D01*
X177156907Y-65600121D02*
X177192621Y-65695359D01*
X177192621Y-65695359D02*
X177180716Y-65790597D01*
X177180716Y-65790597D02*
X176692621Y-65885835D01*
X178317621Y-66219169D02*
X178442621Y-65219169D01*
X178442621Y-65219169D02*
X178823574Y-65219169D01*
X178823574Y-65219169D02*
X178912859Y-65266788D01*
X178912859Y-65266788D02*
X178954526Y-65314407D01*
X178954526Y-65314407D02*
X178990240Y-65409645D01*
X178990240Y-65409645D02*
X178972383Y-65552502D01*
X178972383Y-65552502D02*
X178912859Y-65647740D01*
X178912859Y-65647740D02*
X178859288Y-65695359D01*
X178859288Y-65695359D02*
X178758098Y-65742978D01*
X178758098Y-65742978D02*
X178377145Y-65742978D01*
X179317621Y-66219169D02*
X179400955Y-65552502D01*
X179377145Y-65742978D02*
X179436669Y-65647740D01*
X179436669Y-65647740D02*
X179490240Y-65600121D01*
X179490240Y-65600121D02*
X179591431Y-65552502D01*
X179591431Y-65552502D02*
X179686669Y-65552502D01*
X179936669Y-66219169D02*
X180020003Y-65552502D01*
X180061669Y-65219169D02*
X180008098Y-65266788D01*
X180008098Y-65266788D02*
X180049765Y-65314407D01*
X180049765Y-65314407D02*
X180103336Y-65266788D01*
X180103336Y-65266788D02*
X180061669Y-65219169D01*
X180061669Y-65219169D02*
X180049765Y-65314407D01*
X180847383Y-66171550D02*
X180746193Y-66219169D01*
X180746193Y-66219169D02*
X180555717Y-66219169D01*
X180555717Y-66219169D02*
X180466431Y-66171550D01*
X180466431Y-66171550D02*
X180424764Y-66123930D01*
X180424764Y-66123930D02*
X180389050Y-66028692D01*
X180389050Y-66028692D02*
X180424764Y-65742978D01*
X180424764Y-65742978D02*
X180484288Y-65647740D01*
X180484288Y-65647740D02*
X180537859Y-65600121D01*
X180537859Y-65600121D02*
X180639050Y-65552502D01*
X180639050Y-65552502D02*
X180829526Y-65552502D01*
X180829526Y-65552502D02*
X180918812Y-65600121D01*
X181656907Y-66171550D02*
X181555717Y-66219169D01*
X181555717Y-66219169D02*
X181365240Y-66219169D01*
X181365240Y-66219169D02*
X181275955Y-66171550D01*
X181275955Y-66171550D02*
X181240240Y-66076311D01*
X181240240Y-66076311D02*
X181287860Y-65695359D01*
X181287860Y-65695359D02*
X181347383Y-65600121D01*
X181347383Y-65600121D02*
X181448574Y-65552502D01*
X181448574Y-65552502D02*
X181639050Y-65552502D01*
X181639050Y-65552502D02*
X181728336Y-65600121D01*
X181728336Y-65600121D02*
X181764050Y-65695359D01*
X181764050Y-65695359D02*
X181752145Y-65790597D01*
X181752145Y-65790597D02*
X181264050Y-65885835D01*
D12*
X173821177Y-58589450D02*
X174564034Y-58589450D01*
X174192606Y-59889450D02*
X174192606Y-58589450D01*
X175492605Y-59827546D02*
X175368796Y-59889450D01*
X175368796Y-59889450D02*
X175121177Y-59889450D01*
X175121177Y-59889450D02*
X174997367Y-59827546D01*
X174997367Y-59827546D02*
X174935463Y-59703736D01*
X174935463Y-59703736D02*
X174935463Y-59208498D01*
X174935463Y-59208498D02*
X174997367Y-59084688D01*
X174997367Y-59084688D02*
X175121177Y-59022784D01*
X175121177Y-59022784D02*
X175368796Y-59022784D01*
X175368796Y-59022784D02*
X175492605Y-59084688D01*
X175492605Y-59084688D02*
X175554510Y-59208498D01*
X175554510Y-59208498D02*
X175554510Y-59332307D01*
X175554510Y-59332307D02*
X174935463Y-59456117D01*
X176606891Y-59827546D02*
X176483082Y-59889450D01*
X176483082Y-59889450D02*
X176235463Y-59889450D01*
X176235463Y-59889450D02*
X176111653Y-59827546D01*
X176111653Y-59827546D02*
X176049749Y-59703736D01*
X176049749Y-59703736D02*
X176049749Y-59208498D01*
X176049749Y-59208498D02*
X176111653Y-59084688D01*
X176111653Y-59084688D02*
X176235463Y-59022784D01*
X176235463Y-59022784D02*
X176483082Y-59022784D01*
X176483082Y-59022784D02*
X176606891Y-59084688D01*
X176606891Y-59084688D02*
X176668796Y-59208498D01*
X176668796Y-59208498D02*
X176668796Y-59332307D01*
X176668796Y-59332307D02*
X176049749Y-59456117D01*
X177225939Y-59022784D02*
X177225939Y-59889450D01*
X177225939Y-59146593D02*
X177287844Y-59084688D01*
X177287844Y-59084688D02*
X177411654Y-59022784D01*
X177411654Y-59022784D02*
X177597368Y-59022784D01*
X177597368Y-59022784D02*
X177721177Y-59084688D01*
X177721177Y-59084688D02*
X177783082Y-59208498D01*
X177783082Y-59208498D02*
X177783082Y-59889450D01*
X178340225Y-59827546D02*
X178464034Y-59889450D01*
X178464034Y-59889450D02*
X178711653Y-59889450D01*
X178711653Y-59889450D02*
X178835463Y-59827546D01*
X178835463Y-59827546D02*
X178897367Y-59703736D01*
X178897367Y-59703736D02*
X178897367Y-59641831D01*
X178897367Y-59641831D02*
X178835463Y-59518022D01*
X178835463Y-59518022D02*
X178711653Y-59456117D01*
X178711653Y-59456117D02*
X178525939Y-59456117D01*
X178525939Y-59456117D02*
X178402129Y-59394212D01*
X178402129Y-59394212D02*
X178340225Y-59270403D01*
X178340225Y-59270403D02*
X178340225Y-59208498D01*
X178340225Y-59208498D02*
X178402129Y-59084688D01*
X178402129Y-59084688D02*
X178525939Y-59022784D01*
X178525939Y-59022784D02*
X178711653Y-59022784D01*
X178711653Y-59022784D02*
X178835463Y-59084688D01*
X179330701Y-59022784D02*
X179640225Y-59889450D01*
X179949748Y-59022784D02*
X179640225Y-59889450D01*
X179640225Y-59889450D02*
X179516415Y-60198974D01*
X179516415Y-60198974D02*
X179454510Y-60260879D01*
X179454510Y-60260879D02*
X179330701Y-60322784D01*
X181002129Y-59022784D02*
X181002129Y-59889450D01*
X180692605Y-58527546D02*
X180383082Y-59456117D01*
X180383082Y-59456117D02*
X181187843Y-59456117D01*
X181683081Y-59765641D02*
X181744986Y-59827546D01*
X181744986Y-59827546D02*
X181683081Y-59889450D01*
X181683081Y-59889450D02*
X181621177Y-59827546D01*
X181621177Y-59827546D02*
X181683081Y-59765641D01*
X181683081Y-59765641D02*
X181683081Y-59889450D01*
X182983082Y-59889450D02*
X182240225Y-59889450D01*
X182611653Y-59889450D02*
X182611653Y-58589450D01*
X182611653Y-58589450D02*
X182487844Y-58775165D01*
X182487844Y-58775165D02*
X182364034Y-58898974D01*
X182364034Y-58898974D02*
X182240225Y-58960879D01*
X174006891Y-61982377D02*
X174006891Y-60682377D01*
X174006891Y-60682377D02*
X174316415Y-60682377D01*
X174316415Y-60682377D02*
X174502129Y-60744282D01*
X174502129Y-60744282D02*
X174625939Y-60868092D01*
X174625939Y-60868092D02*
X174687844Y-60991901D01*
X174687844Y-60991901D02*
X174749748Y-61239520D01*
X174749748Y-61239520D02*
X174749748Y-61425234D01*
X174749748Y-61425234D02*
X174687844Y-61672853D01*
X174687844Y-61672853D02*
X174625939Y-61796663D01*
X174625939Y-61796663D02*
X174502129Y-61920473D01*
X174502129Y-61920473D02*
X174316415Y-61982377D01*
X174316415Y-61982377D02*
X174006891Y-61982377D01*
X175864034Y-61982377D02*
X175864034Y-61301425D01*
X175864034Y-61301425D02*
X175802129Y-61177615D01*
X175802129Y-61177615D02*
X175678320Y-61115711D01*
X175678320Y-61115711D02*
X175430701Y-61115711D01*
X175430701Y-61115711D02*
X175306891Y-61177615D01*
X175864034Y-61920473D02*
X175740225Y-61982377D01*
X175740225Y-61982377D02*
X175430701Y-61982377D01*
X175430701Y-61982377D02*
X175306891Y-61920473D01*
X175306891Y-61920473D02*
X175244987Y-61796663D01*
X175244987Y-61796663D02*
X175244987Y-61672853D01*
X175244987Y-61672853D02*
X175306891Y-61549044D01*
X175306891Y-61549044D02*
X175430701Y-61487139D01*
X175430701Y-61487139D02*
X175740225Y-61487139D01*
X175740225Y-61487139D02*
X175864034Y-61425234D01*
X177040224Y-61115711D02*
X177040224Y-61982377D01*
X176483081Y-61115711D02*
X176483081Y-61796663D01*
X176483081Y-61796663D02*
X176544986Y-61920473D01*
X176544986Y-61920473D02*
X176668796Y-61982377D01*
X176668796Y-61982377D02*
X176854510Y-61982377D01*
X176854510Y-61982377D02*
X176978319Y-61920473D01*
X176978319Y-61920473D02*
X177040224Y-61858568D01*
X178216414Y-61115711D02*
X178216414Y-62168092D01*
X178216414Y-62168092D02*
X178154509Y-62291901D01*
X178154509Y-62291901D02*
X178092605Y-62353806D01*
X178092605Y-62353806D02*
X177968795Y-62415711D01*
X177968795Y-62415711D02*
X177783081Y-62415711D01*
X177783081Y-62415711D02*
X177659271Y-62353806D01*
X178216414Y-61920473D02*
X178092605Y-61982377D01*
X178092605Y-61982377D02*
X177844986Y-61982377D01*
X177844986Y-61982377D02*
X177721176Y-61920473D01*
X177721176Y-61920473D02*
X177659271Y-61858568D01*
X177659271Y-61858568D02*
X177597367Y-61734758D01*
X177597367Y-61734758D02*
X177597367Y-61363330D01*
X177597367Y-61363330D02*
X177659271Y-61239520D01*
X177659271Y-61239520D02*
X177721176Y-61177615D01*
X177721176Y-61177615D02*
X177844986Y-61115711D01*
X177844986Y-61115711D02*
X178092605Y-61115711D01*
X178092605Y-61115711D02*
X178216414Y-61177615D01*
X178835461Y-61982377D02*
X178835461Y-60682377D01*
X179392604Y-61982377D02*
X179392604Y-61301425D01*
X179392604Y-61301425D02*
X179330699Y-61177615D01*
X179330699Y-61177615D02*
X179206890Y-61115711D01*
X179206890Y-61115711D02*
X179021176Y-61115711D01*
X179021176Y-61115711D02*
X178897366Y-61177615D01*
X178897366Y-61177615D02*
X178835461Y-61239520D01*
X179825937Y-61115711D02*
X180321175Y-61115711D01*
X180011651Y-60682377D02*
X180011651Y-61796663D01*
X180011651Y-61796663D02*
X180073556Y-61920473D01*
X180073556Y-61920473D02*
X180197366Y-61982377D01*
X180197366Y-61982377D02*
X180321175Y-61982377D01*
X181249746Y-61920473D02*
X181125937Y-61982377D01*
X181125937Y-61982377D02*
X180878318Y-61982377D01*
X180878318Y-61982377D02*
X180754508Y-61920473D01*
X180754508Y-61920473D02*
X180692604Y-61796663D01*
X180692604Y-61796663D02*
X180692604Y-61301425D01*
X180692604Y-61301425D02*
X180754508Y-61177615D01*
X180754508Y-61177615D02*
X180878318Y-61115711D01*
X180878318Y-61115711D02*
X181125937Y-61115711D01*
X181125937Y-61115711D02*
X181249746Y-61177615D01*
X181249746Y-61177615D02*
X181311651Y-61301425D01*
X181311651Y-61301425D02*
X181311651Y-61425234D01*
X181311651Y-61425234D02*
X180692604Y-61549044D01*
X181868794Y-61982377D02*
X181868794Y-61115711D01*
X181868794Y-61363330D02*
X181930699Y-61239520D01*
X181930699Y-61239520D02*
X181992604Y-61177615D01*
X181992604Y-61177615D02*
X182116413Y-61115711D01*
X182116413Y-61115711D02*
X182240223Y-61115711D01*
X183230699Y-61920473D02*
X183106890Y-61982377D01*
X183106890Y-61982377D02*
X182859271Y-61982377D01*
X182859271Y-61982377D02*
X182735461Y-61920473D01*
X182735461Y-61920473D02*
X182673556Y-61858568D01*
X182673556Y-61858568D02*
X182611652Y-61734758D01*
X182611652Y-61734758D02*
X182611652Y-61363330D01*
X182611652Y-61363330D02*
X182673556Y-61239520D01*
X182673556Y-61239520D02*
X182735461Y-61177615D01*
X182735461Y-61177615D02*
X182859271Y-61115711D01*
X182859271Y-61115711D02*
X183106890Y-61115711D01*
X183106890Y-61115711D02*
X183230699Y-61177615D01*
X184344985Y-61982377D02*
X184344985Y-61301425D01*
X184344985Y-61301425D02*
X184283080Y-61177615D01*
X184283080Y-61177615D02*
X184159271Y-61115711D01*
X184159271Y-61115711D02*
X183911652Y-61115711D01*
X183911652Y-61115711D02*
X183787842Y-61177615D01*
X184344985Y-61920473D02*
X184221176Y-61982377D01*
X184221176Y-61982377D02*
X183911652Y-61982377D01*
X183911652Y-61982377D02*
X183787842Y-61920473D01*
X183787842Y-61920473D02*
X183725938Y-61796663D01*
X183725938Y-61796663D02*
X183725938Y-61672853D01*
X183725938Y-61672853D02*
X183787842Y-61549044D01*
X183787842Y-61549044D02*
X183911652Y-61487139D01*
X183911652Y-61487139D02*
X184221176Y-61487139D01*
X184221176Y-61487139D02*
X184344985Y-61425234D01*
X184964032Y-61982377D02*
X184964032Y-61115711D01*
X184964032Y-61363330D02*
X185025937Y-61239520D01*
X185025937Y-61239520D02*
X185087842Y-61177615D01*
X185087842Y-61177615D02*
X185211651Y-61115711D01*
X185211651Y-61115711D02*
X185335461Y-61115711D01*
X186325937Y-61982377D02*
X186325937Y-60682377D01*
X186325937Y-61920473D02*
X186202128Y-61982377D01*
X186202128Y-61982377D02*
X185954509Y-61982377D01*
X185954509Y-61982377D02*
X185830699Y-61920473D01*
X185830699Y-61920473D02*
X185768794Y-61858568D01*
X185768794Y-61858568D02*
X185706890Y-61734758D01*
X185706890Y-61734758D02*
X185706890Y-61363330D01*
X185706890Y-61363330D02*
X185768794Y-61239520D01*
X185768794Y-61239520D02*
X185830699Y-61177615D01*
X185830699Y-61177615D02*
X185954509Y-61115711D01*
X185954509Y-61115711D02*
X186202128Y-61115711D01*
X186202128Y-61115711D02*
X186325937Y-61177615D01*
X173883082Y-63208638D02*
X174192606Y-64075304D01*
X174192606Y-64075304D02*
X174502129Y-63208638D01*
X175678320Y-64075304D02*
X174935463Y-64075304D01*
X175306891Y-64075304D02*
X175306891Y-62775304D01*
X175306891Y-62775304D02*
X175183082Y-62961019D01*
X175183082Y-62961019D02*
X175059272Y-63084828D01*
X175059272Y-63084828D02*
X174935463Y-63146733D01*
X176235462Y-63951495D02*
X176297367Y-64013400D01*
X176297367Y-64013400D02*
X176235462Y-64075304D01*
X176235462Y-64075304D02*
X176173558Y-64013400D01*
X176173558Y-64013400D02*
X176235462Y-63951495D01*
X176235462Y-63951495D02*
X176235462Y-64075304D01*
X177102129Y-62775304D02*
X177225939Y-62775304D01*
X177225939Y-62775304D02*
X177349748Y-62837209D01*
X177349748Y-62837209D02*
X177411653Y-62899114D01*
X177411653Y-62899114D02*
X177473558Y-63022923D01*
X177473558Y-63022923D02*
X177535463Y-63270542D01*
X177535463Y-63270542D02*
X177535463Y-63580066D01*
X177535463Y-63580066D02*
X177473558Y-63827685D01*
X177473558Y-63827685D02*
X177411653Y-63951495D01*
X177411653Y-63951495D02*
X177349748Y-64013400D01*
X177349748Y-64013400D02*
X177225939Y-64075304D01*
X177225939Y-64075304D02*
X177102129Y-64075304D01*
X177102129Y-64075304D02*
X176978320Y-64013400D01*
X176978320Y-64013400D02*
X176916415Y-63951495D01*
X176916415Y-63951495D02*
X176854510Y-63827685D01*
X176854510Y-63827685D02*
X176792606Y-63580066D01*
X176792606Y-63580066D02*
X176792606Y-63270542D01*
X176792606Y-63270542D02*
X176854510Y-63022923D01*
X176854510Y-63022923D02*
X176916415Y-62899114D01*
X176916415Y-62899114D02*
X176978320Y-62837209D01*
X176978320Y-62837209D02*
X177102129Y-62775304D01*
D13*
X116488095Y-65706119D02*
X117059523Y-65706119D01*
X116773809Y-66706119D02*
X116773809Y-65706119D01*
X117392857Y-66706119D02*
X117392857Y-65706119D01*
X117392857Y-65706119D02*
X117773809Y-65706119D01*
X117773809Y-65706119D02*
X117869047Y-65753738D01*
X117869047Y-65753738D02*
X117916666Y-65801357D01*
X117916666Y-65801357D02*
X117964285Y-65896595D01*
X117964285Y-65896595D02*
X117964285Y-66039452D01*
X117964285Y-66039452D02*
X117916666Y-66134690D01*
X117916666Y-66134690D02*
X117869047Y-66182309D01*
X117869047Y-66182309D02*
X117773809Y-66229928D01*
X117773809Y-66229928D02*
X117392857Y-66229928D01*
X118916666Y-66706119D02*
X118345238Y-66706119D01*
X118630952Y-66706119D02*
X118630952Y-65706119D01*
X118630952Y-65706119D02*
X118535714Y-65848976D01*
X118535714Y-65848976D02*
X118440476Y-65944214D01*
X118440476Y-65944214D02*
X118345238Y-65991833D01*
D10*
X116488095Y-67002438D02*
X116392857Y-66954819D01*
X116392857Y-66954819D02*
X116250000Y-66954819D01*
X116250000Y-66954819D02*
X116107143Y-67002438D01*
X116107143Y-67002438D02*
X116011905Y-67097676D01*
X116011905Y-67097676D02*
X115964286Y-67192914D01*
X115964286Y-67192914D02*
X115916667Y-67383390D01*
X115916667Y-67383390D02*
X115916667Y-67526247D01*
X115916667Y-67526247D02*
X115964286Y-67716723D01*
X115964286Y-67716723D02*
X116011905Y-67811961D01*
X116011905Y-67811961D02*
X116107143Y-67907200D01*
X116107143Y-67907200D02*
X116250000Y-67954819D01*
X116250000Y-67954819D02*
X116345238Y-67954819D01*
X116345238Y-67954819D02*
X116488095Y-67907200D01*
X116488095Y-67907200D02*
X116535714Y-67859580D01*
X116535714Y-67859580D02*
X116535714Y-67526247D01*
X116535714Y-67526247D02*
X116345238Y-67526247D01*
X116964286Y-67954819D02*
X116964286Y-66954819D01*
X116964286Y-66954819D02*
X117535714Y-67954819D01*
X117535714Y-67954819D02*
X117535714Y-66954819D01*
X118011905Y-67954819D02*
X118011905Y-66954819D01*
X118011905Y-66954819D02*
X118250000Y-66954819D01*
X118250000Y-66954819D02*
X118392857Y-67002438D01*
X118392857Y-67002438D02*
X118488095Y-67097676D01*
X118488095Y-67097676D02*
X118535714Y-67192914D01*
X118535714Y-67192914D02*
X118583333Y-67383390D01*
X118583333Y-67383390D02*
X118583333Y-67526247D01*
X118583333Y-67526247D02*
X118535714Y-67716723D01*
X118535714Y-67716723D02*
X118488095Y-67811961D01*
X118488095Y-67811961D02*
X118392857Y-67907200D01*
X118392857Y-67907200D02*
X118250000Y-67954819D01*
X118250000Y-67954819D02*
X118011905Y-67954819D01*
X119011905Y-67954819D02*
X119011905Y-66954819D01*
X119011905Y-66954819D02*
X119250000Y-66954819D01*
X119250000Y-66954819D02*
X119392857Y-67002438D01*
X119392857Y-67002438D02*
X119488095Y-67097676D01*
X119488095Y-67097676D02*
X119535714Y-67192914D01*
X119535714Y-67192914D02*
X119583333Y-67383390D01*
X119583333Y-67383390D02*
X119583333Y-67526247D01*
X119583333Y-67526247D02*
X119535714Y-67716723D01*
X119535714Y-67716723D02*
X119488095Y-67811961D01*
X119488095Y-67811961D02*
X119392857Y-67907200D01*
X119392857Y-67907200D02*
X119250000Y-67954819D01*
X119250000Y-67954819D02*
X119011905Y-67954819D01*
X117988095Y-86704819D02*
X118559523Y-86704819D01*
X118273809Y-87704819D02*
X118273809Y-86704819D01*
X118892857Y-87704819D02*
X118892857Y-86704819D01*
X118892857Y-86704819D02*
X119273809Y-86704819D01*
X119273809Y-86704819D02*
X119369047Y-86752438D01*
X119369047Y-86752438D02*
X119416666Y-86800057D01*
X119416666Y-86800057D02*
X119464285Y-86895295D01*
X119464285Y-86895295D02*
X119464285Y-87038152D01*
X119464285Y-87038152D02*
X119416666Y-87133390D01*
X119416666Y-87133390D02*
X119369047Y-87181009D01*
X119369047Y-87181009D02*
X119273809Y-87228628D01*
X119273809Y-87228628D02*
X118892857Y-87228628D01*
X119845238Y-86800057D02*
X119892857Y-86752438D01*
X119892857Y-86752438D02*
X119988095Y-86704819D01*
X119988095Y-86704819D02*
X120226190Y-86704819D01*
X120226190Y-86704819D02*
X120321428Y-86752438D01*
X120321428Y-86752438D02*
X120369047Y-86800057D01*
X120369047Y-86800057D02*
X120416666Y-86895295D01*
X120416666Y-86895295D02*
X120416666Y-86990533D01*
X120416666Y-86990533D02*
X120369047Y-87133390D01*
X120369047Y-87133390D02*
X119797619Y-87704819D01*
X119797619Y-87704819D02*
X120416666Y-87704819D01*
X119059523Y-87954819D02*
X118583333Y-87954819D01*
X118583333Y-87954819D02*
X118535714Y-88431009D01*
X118535714Y-88431009D02*
X118583333Y-88383390D01*
X118583333Y-88383390D02*
X118678571Y-88335771D01*
X118678571Y-88335771D02*
X118916666Y-88335771D01*
X118916666Y-88335771D02*
X119011904Y-88383390D01*
X119011904Y-88383390D02*
X119059523Y-88431009D01*
X119059523Y-88431009D02*
X119107142Y-88526247D01*
X119107142Y-88526247D02*
X119107142Y-88764342D01*
X119107142Y-88764342D02*
X119059523Y-88859580D01*
X119059523Y-88859580D02*
X119011904Y-88907200D01*
X119011904Y-88907200D02*
X118916666Y-88954819D01*
X118916666Y-88954819D02*
X118678571Y-88954819D01*
X118678571Y-88954819D02*
X118583333Y-88907200D01*
X118583333Y-88907200D02*
X118535714Y-88859580D01*
X119392857Y-87954819D02*
X119726190Y-88954819D01*
X119726190Y-88954819D02*
X120059523Y-87954819D01*
D14*
X151556667Y-129304318D02*
X151556667Y-130211461D01*
X151556667Y-130211461D02*
X151496190Y-130392889D01*
X151496190Y-130392889D02*
X151375238Y-130513842D01*
X151375238Y-130513842D02*
X151193809Y-130574318D01*
X151193809Y-130574318D02*
X151072857Y-130574318D01*
X152705714Y-129304318D02*
X152463809Y-129304318D01*
X152463809Y-129304318D02*
X152342857Y-129364794D01*
X152342857Y-129364794D02*
X152282381Y-129425270D01*
X152282381Y-129425270D02*
X152161428Y-129606699D01*
X152161428Y-129606699D02*
X152100952Y-129848603D01*
X152100952Y-129848603D02*
X152100952Y-130332413D01*
X152100952Y-130332413D02*
X152161428Y-130453365D01*
X152161428Y-130453365D02*
X152221905Y-130513842D01*
X152221905Y-130513842D02*
X152342857Y-130574318D01*
X152342857Y-130574318D02*
X152584762Y-130574318D01*
X152584762Y-130574318D02*
X152705714Y-130513842D01*
X152705714Y-130513842D02*
X152766190Y-130453365D01*
X152766190Y-130453365D02*
X152826667Y-130332413D01*
X152826667Y-130332413D02*
X152826667Y-130030032D01*
X152826667Y-130030032D02*
X152766190Y-129909080D01*
X152766190Y-129909080D02*
X152705714Y-129848603D01*
X152705714Y-129848603D02*
X152584762Y-129788127D01*
X152584762Y-129788127D02*
X152342857Y-129788127D01*
X152342857Y-129788127D02*
X152221905Y-129848603D01*
X152221905Y-129848603D02*
X152161428Y-129909080D01*
X152161428Y-129909080D02*
X152100952Y-130030032D01*
X151401667Y-65304318D02*
X151401667Y-66211461D01*
X151401667Y-66211461D02*
X151341190Y-66392889D01*
X151341190Y-66392889D02*
X151220238Y-66513842D01*
X151220238Y-66513842D02*
X151038809Y-66574318D01*
X151038809Y-66574318D02*
X150917857Y-66574318D01*
X152671667Y-66574318D02*
X151945952Y-66574318D01*
X152308809Y-66574318D02*
X152308809Y-65304318D01*
X152308809Y-65304318D02*
X152187857Y-65485746D01*
X152187857Y-65485746D02*
X152066905Y-65606699D01*
X152066905Y-65606699D02*
X151945952Y-65667175D01*
D10*
X151557295Y-87545619D02*
X151557295Y-88355142D01*
X151557295Y-88355142D02*
X151604914Y-88450380D01*
X151604914Y-88450380D02*
X151652533Y-88498000D01*
X151652533Y-88498000D02*
X151747771Y-88545619D01*
X151747771Y-88545619D02*
X151938247Y-88545619D01*
X151938247Y-88545619D02*
X152033485Y-88498000D01*
X152033485Y-88498000D02*
X152081104Y-88450380D01*
X152081104Y-88450380D02*
X152128723Y-88355142D01*
X152128723Y-88355142D02*
X152128723Y-87545619D01*
X153128723Y-88545619D02*
X152557295Y-88545619D01*
X152843009Y-88545619D02*
X152843009Y-87545619D01*
X152843009Y-87545619D02*
X152747771Y-87688476D01*
X152747771Y-87688476D02*
X152652533Y-87783714D01*
X152652533Y-87783714D02*
X152557295Y-87831333D01*
X130543876Y-100194819D02*
X130543876Y-101004342D01*
X130543876Y-101004342D02*
X130591495Y-101099580D01*
X130591495Y-101099580D02*
X130639114Y-101147200D01*
X130639114Y-101147200D02*
X130734352Y-101194819D01*
X130734352Y-101194819D02*
X130924828Y-101194819D01*
X130924828Y-101194819D02*
X131020066Y-101147200D01*
X131020066Y-101147200D02*
X131067685Y-101099580D01*
X131067685Y-101099580D02*
X131115304Y-101004342D01*
X131115304Y-101004342D02*
X131115304Y-100194819D01*
X131543876Y-101147200D02*
X131686733Y-101194819D01*
X131686733Y-101194819D02*
X131924828Y-101194819D01*
X131924828Y-101194819D02*
X132020066Y-101147200D01*
X132020066Y-101147200D02*
X132067685Y-101099580D01*
X132067685Y-101099580D02*
X132115304Y-101004342D01*
X132115304Y-101004342D02*
X132115304Y-100909104D01*
X132115304Y-100909104D02*
X132067685Y-100813866D01*
X132067685Y-100813866D02*
X132020066Y-100766247D01*
X132020066Y-100766247D02*
X131924828Y-100718628D01*
X131924828Y-100718628D02*
X131734352Y-100671009D01*
X131734352Y-100671009D02*
X131639114Y-100623390D01*
X131639114Y-100623390D02*
X131591495Y-100575771D01*
X131591495Y-100575771D02*
X131543876Y-100480533D01*
X131543876Y-100480533D02*
X131543876Y-100385295D01*
X131543876Y-100385295D02*
X131591495Y-100290057D01*
X131591495Y-100290057D02*
X131639114Y-100242438D01*
X131639114Y-100242438D02*
X131734352Y-100194819D01*
X131734352Y-100194819D02*
X131972447Y-100194819D01*
X131972447Y-100194819D02*
X132115304Y-100242438D01*
X132877209Y-100671009D02*
X133020066Y-100718628D01*
X133020066Y-100718628D02*
X133067685Y-100766247D01*
X133067685Y-100766247D02*
X133115304Y-100861485D01*
X133115304Y-100861485D02*
X133115304Y-101004342D01*
X133115304Y-101004342D02*
X133067685Y-101099580D01*
X133067685Y-101099580D02*
X133020066Y-101147200D01*
X133020066Y-101147200D02*
X132924828Y-101194819D01*
X132924828Y-101194819D02*
X132543876Y-101194819D01*
X132543876Y-101194819D02*
X132543876Y-100194819D01*
X132543876Y-100194819D02*
X132877209Y-100194819D01*
X132877209Y-100194819D02*
X132972447Y-100242438D01*
X132972447Y-100242438D02*
X133020066Y-100290057D01*
X133020066Y-100290057D02*
X133067685Y-100385295D01*
X133067685Y-100385295D02*
X133067685Y-100480533D01*
X133067685Y-100480533D02*
X133020066Y-100575771D01*
X133020066Y-100575771D02*
X132972447Y-100623390D01*
X132972447Y-100623390D02*
X132877209Y-100671009D01*
X132877209Y-100671009D02*
X132543876Y-100671009D01*
X134305781Y-101194819D02*
X134305781Y-100194819D01*
X134305781Y-100671009D02*
X134877209Y-100671009D01*
X134877209Y-101194819D02*
X134877209Y-100194819D01*
X135496257Y-101194819D02*
X135401019Y-101147200D01*
X135401019Y-101147200D02*
X135353400Y-101099580D01*
X135353400Y-101099580D02*
X135305781Y-101004342D01*
X135305781Y-101004342D02*
X135305781Y-100718628D01*
X135305781Y-100718628D02*
X135353400Y-100623390D01*
X135353400Y-100623390D02*
X135401019Y-100575771D01*
X135401019Y-100575771D02*
X135496257Y-100528152D01*
X135496257Y-100528152D02*
X135639114Y-100528152D01*
X135639114Y-100528152D02*
X135734352Y-100575771D01*
X135734352Y-100575771D02*
X135781971Y-100623390D01*
X135781971Y-100623390D02*
X135829590Y-100718628D01*
X135829590Y-100718628D02*
X135829590Y-101004342D01*
X135829590Y-101004342D02*
X135781971Y-101099580D01*
X135781971Y-101099580D02*
X135734352Y-101147200D01*
X135734352Y-101147200D02*
X135639114Y-101194819D01*
X135639114Y-101194819D02*
X135496257Y-101194819D01*
X136210543Y-101147200D02*
X136305781Y-101194819D01*
X136305781Y-101194819D02*
X136496257Y-101194819D01*
X136496257Y-101194819D02*
X136591495Y-101147200D01*
X136591495Y-101147200D02*
X136639114Y-101051961D01*
X136639114Y-101051961D02*
X136639114Y-101004342D01*
X136639114Y-101004342D02*
X136591495Y-100909104D01*
X136591495Y-100909104D02*
X136496257Y-100861485D01*
X136496257Y-100861485D02*
X136353400Y-100861485D01*
X136353400Y-100861485D02*
X136258162Y-100813866D01*
X136258162Y-100813866D02*
X136210543Y-100718628D01*
X136210543Y-100718628D02*
X136210543Y-100671009D01*
X136210543Y-100671009D02*
X136258162Y-100575771D01*
X136258162Y-100575771D02*
X136353400Y-100528152D01*
X136353400Y-100528152D02*
X136496257Y-100528152D01*
X136496257Y-100528152D02*
X136591495Y-100575771D01*
X136924829Y-100528152D02*
X137305781Y-100528152D01*
X137067686Y-100194819D02*
X137067686Y-101051961D01*
X137067686Y-101051961D02*
X137115305Y-101147200D01*
X137115305Y-101147200D02*
X137210543Y-101194819D01*
X137210543Y-101194819D02*
X137305781Y-101194819D01*
X150296666Y-93292295D02*
X150296666Y-92492295D01*
X150296666Y-92492295D02*
X150463333Y-92492295D01*
X150463333Y-92492295D02*
X150563333Y-92530390D01*
X150563333Y-92530390D02*
X150630000Y-92606580D01*
X150630000Y-92606580D02*
X150663333Y-92682771D01*
X150663333Y-92682771D02*
X150696666Y-92835152D01*
X150696666Y-92835152D02*
X150696666Y-92949438D01*
X150696666Y-92949438D02*
X150663333Y-93101819D01*
X150663333Y-93101819D02*
X150630000Y-93178009D01*
X150630000Y-93178009D02*
X150563333Y-93254200D01*
X150563333Y-93254200D02*
X150463333Y-93292295D01*
X150463333Y-93292295D02*
X150296666Y-93292295D01*
X150896666Y-92492295D02*
X151130000Y-93292295D01*
X151130000Y-93292295D02*
X151363333Y-92492295D01*
X151796666Y-92492295D02*
X151796666Y-93063723D01*
X151796666Y-93063723D02*
X151763333Y-93178009D01*
X151763333Y-93178009D02*
X151696666Y-93254200D01*
X151696666Y-93254200D02*
X151596666Y-93292295D01*
X151596666Y-93292295D02*
X151530000Y-93292295D01*
X152429999Y-92492295D02*
X152296666Y-92492295D01*
X152296666Y-92492295D02*
X152229999Y-92530390D01*
X152229999Y-92530390D02*
X152196666Y-92568485D01*
X152196666Y-92568485D02*
X152129999Y-92682771D01*
X152129999Y-92682771D02*
X152096666Y-92835152D01*
X152096666Y-92835152D02*
X152096666Y-93139914D01*
X152096666Y-93139914D02*
X152129999Y-93216104D01*
X152129999Y-93216104D02*
X152163333Y-93254200D01*
X152163333Y-93254200D02*
X152229999Y-93292295D01*
X152229999Y-93292295D02*
X152363333Y-93292295D01*
X152363333Y-93292295D02*
X152429999Y-93254200D01*
X152429999Y-93254200D02*
X152463333Y-93216104D01*
X152463333Y-93216104D02*
X152496666Y-93139914D01*
X152496666Y-93139914D02*
X152496666Y-92949438D01*
X152496666Y-92949438D02*
X152463333Y-92873247D01*
X152463333Y-92873247D02*
X152429999Y-92835152D01*
X152429999Y-92835152D02*
X152363333Y-92797057D01*
X152363333Y-92797057D02*
X152229999Y-92797057D01*
X152229999Y-92797057D02*
X152163333Y-92835152D01*
X152163333Y-92835152D02*
X152129999Y-92873247D01*
X152129999Y-92873247D02*
X152096666Y-92949438D01*
X152763333Y-93063723D02*
X153096666Y-93063723D01*
X152696666Y-93292295D02*
X152930000Y-92492295D01*
X152930000Y-92492295D02*
X153163333Y-93292295D01*
X173330152Y-98705619D02*
X173330152Y-97705619D01*
X173330152Y-97705619D02*
X173663485Y-98419904D01*
X173663485Y-98419904D02*
X173996818Y-97705619D01*
X173996818Y-97705619D02*
X173996818Y-98705619D01*
X174473009Y-98705619D02*
X174473009Y-98038952D01*
X174473009Y-97705619D02*
X174425390Y-97753238D01*
X174425390Y-97753238D02*
X174473009Y-97800857D01*
X174473009Y-97800857D02*
X174520628Y-97753238D01*
X174520628Y-97753238D02*
X174473009Y-97705619D01*
X174473009Y-97705619D02*
X174473009Y-97800857D01*
X175377770Y-98658000D02*
X175282532Y-98705619D01*
X175282532Y-98705619D02*
X175092056Y-98705619D01*
X175092056Y-98705619D02*
X174996818Y-98658000D01*
X174996818Y-98658000D02*
X174949199Y-98610380D01*
X174949199Y-98610380D02*
X174901580Y-98515142D01*
X174901580Y-98515142D02*
X174901580Y-98229428D01*
X174901580Y-98229428D02*
X174949199Y-98134190D01*
X174949199Y-98134190D02*
X174996818Y-98086571D01*
X174996818Y-98086571D02*
X175092056Y-98038952D01*
X175092056Y-98038952D02*
X175282532Y-98038952D01*
X175282532Y-98038952D02*
X175377770Y-98086571D01*
X175806342Y-98705619D02*
X175806342Y-98038952D01*
X175806342Y-98229428D02*
X175853961Y-98134190D01*
X175853961Y-98134190D02*
X175901580Y-98086571D01*
X175901580Y-98086571D02*
X175996818Y-98038952D01*
X175996818Y-98038952D02*
X176092056Y-98038952D01*
X176568247Y-98705619D02*
X176473009Y-98658000D01*
X176473009Y-98658000D02*
X176425390Y-98610380D01*
X176425390Y-98610380D02*
X176377771Y-98515142D01*
X176377771Y-98515142D02*
X176377771Y-98229428D01*
X176377771Y-98229428D02*
X176425390Y-98134190D01*
X176425390Y-98134190D02*
X176473009Y-98086571D01*
X176473009Y-98086571D02*
X176568247Y-98038952D01*
X176568247Y-98038952D02*
X176711104Y-98038952D01*
X176711104Y-98038952D02*
X176806342Y-98086571D01*
X176806342Y-98086571D02*
X176853961Y-98134190D01*
X176853961Y-98134190D02*
X176901580Y-98229428D01*
X176901580Y-98229428D02*
X176901580Y-98515142D01*
X176901580Y-98515142D02*
X176853961Y-98610380D01*
X176853961Y-98610380D02*
X176806342Y-98658000D01*
X176806342Y-98658000D02*
X176711104Y-98705619D01*
X176711104Y-98705619D02*
X176568247Y-98705619D01*
X178044438Y-98658000D02*
X178187295Y-98705619D01*
X178187295Y-98705619D02*
X178425390Y-98705619D01*
X178425390Y-98705619D02*
X178520628Y-98658000D01*
X178520628Y-98658000D02*
X178568247Y-98610380D01*
X178568247Y-98610380D02*
X178615866Y-98515142D01*
X178615866Y-98515142D02*
X178615866Y-98419904D01*
X178615866Y-98419904D02*
X178568247Y-98324666D01*
X178568247Y-98324666D02*
X178520628Y-98277047D01*
X178520628Y-98277047D02*
X178425390Y-98229428D01*
X178425390Y-98229428D02*
X178234914Y-98181809D01*
X178234914Y-98181809D02*
X178139676Y-98134190D01*
X178139676Y-98134190D02*
X178092057Y-98086571D01*
X178092057Y-98086571D02*
X178044438Y-97991333D01*
X178044438Y-97991333D02*
X178044438Y-97896095D01*
X178044438Y-97896095D02*
X178092057Y-97800857D01*
X178092057Y-97800857D02*
X178139676Y-97753238D01*
X178139676Y-97753238D02*
X178234914Y-97705619D01*
X178234914Y-97705619D02*
X178473009Y-97705619D01*
X178473009Y-97705619D02*
X178615866Y-97753238D01*
X179044438Y-98705619D02*
X179044438Y-97705619D01*
X179044438Y-97705619D02*
X179282533Y-97705619D01*
X179282533Y-97705619D02*
X179425390Y-97753238D01*
X179425390Y-97753238D02*
X179520628Y-97848476D01*
X179520628Y-97848476D02*
X179568247Y-97943714D01*
X179568247Y-97943714D02*
X179615866Y-98134190D01*
X179615866Y-98134190D02*
X179615866Y-98277047D01*
X179615866Y-98277047D02*
X179568247Y-98467523D01*
X179568247Y-98467523D02*
X179520628Y-98562761D01*
X179520628Y-98562761D02*
X179425390Y-98658000D01*
X179425390Y-98658000D02*
X179282533Y-98705619D01*
X179282533Y-98705619D02*
X179044438Y-98705619D01*
X118233333Y-77254819D02*
X117900000Y-76778628D01*
X117661905Y-77254819D02*
X117661905Y-76254819D01*
X117661905Y-76254819D02*
X118042857Y-76254819D01*
X118042857Y-76254819D02*
X118138095Y-76302438D01*
X118138095Y-76302438D02*
X118185714Y-76350057D01*
X118185714Y-76350057D02*
X118233333Y-76445295D01*
X118233333Y-76445295D02*
X118233333Y-76588152D01*
X118233333Y-76588152D02*
X118185714Y-76683390D01*
X118185714Y-76683390D02*
X118138095Y-76731009D01*
X118138095Y-76731009D02*
X118042857Y-76778628D01*
X118042857Y-76778628D02*
X117661905Y-76778628D01*
X119185714Y-77254819D02*
X118614286Y-77254819D01*
X118900000Y-77254819D02*
X118900000Y-76254819D01*
X118900000Y-76254819D02*
X118804762Y-76397676D01*
X118804762Y-76397676D02*
X118709524Y-76492914D01*
X118709524Y-76492914D02*
X118614286Y-76540533D01*
X121680952Y-77254819D02*
X121204762Y-77254819D01*
X121204762Y-77254819D02*
X121204762Y-76254819D01*
X122014286Y-76731009D02*
X122347619Y-76731009D01*
X122490476Y-77254819D02*
X122014286Y-77254819D01*
X122014286Y-77254819D02*
X122014286Y-76254819D01*
X122014286Y-76254819D02*
X122490476Y-76254819D01*
X122919048Y-77254819D02*
X122919048Y-76254819D01*
X122919048Y-76254819D02*
X123157143Y-76254819D01*
X123157143Y-76254819D02*
X123300000Y-76302438D01*
X123300000Y-76302438D02*
X123395238Y-76397676D01*
X123395238Y-76397676D02*
X123442857Y-76492914D01*
X123442857Y-76492914D02*
X123490476Y-76683390D01*
X123490476Y-76683390D02*
X123490476Y-76826247D01*
X123490476Y-76826247D02*
X123442857Y-77016723D01*
X123442857Y-77016723D02*
X123395238Y-77111961D01*
X123395238Y-77111961D02*
X123300000Y-77207200D01*
X123300000Y-77207200D02*
X123157143Y-77254819D01*
X123157143Y-77254819D02*
X122919048Y-77254819D01*
X124442857Y-77254819D02*
X123871429Y-77254819D01*
X124157143Y-77254819D02*
X124157143Y-76254819D01*
X124157143Y-76254819D02*
X124061905Y-76397676D01*
X124061905Y-76397676D02*
X123966667Y-76492914D01*
X123966667Y-76492914D02*
X123871429Y-76540533D01*
X137433333Y-70722080D02*
X137385714Y-70769700D01*
X137385714Y-70769700D02*
X137242857Y-70817319D01*
X137242857Y-70817319D02*
X137147619Y-70817319D01*
X137147619Y-70817319D02*
X137004762Y-70769700D01*
X137004762Y-70769700D02*
X136909524Y-70674461D01*
X136909524Y-70674461D02*
X136861905Y-70579223D01*
X136861905Y-70579223D02*
X136814286Y-70388747D01*
X136814286Y-70388747D02*
X136814286Y-70245890D01*
X136814286Y-70245890D02*
X136861905Y-70055414D01*
X136861905Y-70055414D02*
X136909524Y-69960176D01*
X136909524Y-69960176D02*
X137004762Y-69864938D01*
X137004762Y-69864938D02*
X137147619Y-69817319D01*
X137147619Y-69817319D02*
X137242857Y-69817319D01*
X137242857Y-69817319D02*
X137385714Y-69864938D01*
X137385714Y-69864938D02*
X137433333Y-69912557D01*
X138385714Y-70817319D02*
X137814286Y-70817319D01*
X138100000Y-70817319D02*
X138100000Y-69817319D01*
X138100000Y-69817319D02*
X138004762Y-69960176D01*
X138004762Y-69960176D02*
X137909524Y-70055414D01*
X137909524Y-70055414D02*
X137814286Y-70103033D01*
X121488095Y-65704819D02*
X122059523Y-65704819D01*
X121773809Y-66704819D02*
X121773809Y-65704819D01*
X122392857Y-66704819D02*
X122392857Y-65704819D01*
X122392857Y-65704819D02*
X122773809Y-65704819D01*
X122773809Y-65704819D02*
X122869047Y-65752438D01*
X122869047Y-65752438D02*
X122916666Y-65800057D01*
X122916666Y-65800057D02*
X122964285Y-65895295D01*
X122964285Y-65895295D02*
X122964285Y-66038152D01*
X122964285Y-66038152D02*
X122916666Y-66133390D01*
X122916666Y-66133390D02*
X122869047Y-66181009D01*
X122869047Y-66181009D02*
X122773809Y-66228628D01*
X122773809Y-66228628D02*
X122392857Y-66228628D01*
X123297619Y-65704819D02*
X123916666Y-65704819D01*
X123916666Y-65704819D02*
X123583333Y-66085771D01*
X123583333Y-66085771D02*
X123726190Y-66085771D01*
X123726190Y-66085771D02*
X123821428Y-66133390D01*
X123821428Y-66133390D02*
X123869047Y-66181009D01*
X123869047Y-66181009D02*
X123916666Y-66276247D01*
X123916666Y-66276247D02*
X123916666Y-66514342D01*
X123916666Y-66514342D02*
X123869047Y-66609580D01*
X123869047Y-66609580D02*
X123821428Y-66657200D01*
X123821428Y-66657200D02*
X123726190Y-66704819D01*
X123726190Y-66704819D02*
X123440476Y-66704819D01*
X123440476Y-66704819D02*
X123345238Y-66657200D01*
X123345238Y-66657200D02*
X123297619Y-66609580D01*
X120726191Y-66954819D02*
X121059524Y-67954819D01*
X121059524Y-67954819D02*
X121392857Y-66954819D01*
X121726191Y-67954819D02*
X121726191Y-66954819D01*
X121726191Y-66954819D02*
X122059524Y-67669104D01*
X122059524Y-67669104D02*
X122392857Y-66954819D01*
X122392857Y-66954819D02*
X122392857Y-67954819D01*
X123440476Y-67859580D02*
X123392857Y-67907200D01*
X123392857Y-67907200D02*
X123250000Y-67954819D01*
X123250000Y-67954819D02*
X123154762Y-67954819D01*
X123154762Y-67954819D02*
X123011905Y-67907200D01*
X123011905Y-67907200D02*
X122916667Y-67811961D01*
X122916667Y-67811961D02*
X122869048Y-67716723D01*
X122869048Y-67716723D02*
X122821429Y-67526247D01*
X122821429Y-67526247D02*
X122821429Y-67383390D01*
X122821429Y-67383390D02*
X122869048Y-67192914D01*
X122869048Y-67192914D02*
X122916667Y-67097676D01*
X122916667Y-67097676D02*
X123011905Y-67002438D01*
X123011905Y-67002438D02*
X123154762Y-66954819D01*
X123154762Y-66954819D02*
X123250000Y-66954819D01*
X123250000Y-66954819D02*
X123392857Y-67002438D01*
X123392857Y-67002438D02*
X123440476Y-67050057D01*
X123869048Y-67573866D02*
X124630953Y-67573866D01*
X124250000Y-67954819D02*
X124250000Y-67192914D01*
%TO.C,TP1*%
D15*
X116550000Y-68550000D02*
X118950000Y-68550000D01*
X116550000Y-70950000D02*
X116550000Y-68550000D01*
X118950000Y-68550000D02*
X118950000Y-70950000D01*
X118950000Y-70950000D02*
X116550000Y-70950000D01*
%TO.C,TP2*%
X118050000Y-89550000D02*
X120450000Y-89550000D01*
X118050000Y-91950000D02*
X118050000Y-89550000D01*
X120450000Y-89550000D02*
X120450000Y-91950000D01*
X120450000Y-91950000D02*
X118050000Y-91950000D01*
%TO.C,J6*%
D16*
X110580000Y-131760000D02*
X193380000Y-131760000D01*
D17*
D18*
X121460000Y-130460000D02*
X121459999Y-130460000D01*
X121459999Y-130460000D01*
X121459999Y-130460000D01*
X121459999Y-130460000D01*
X121459999Y-130460000D01*
X121459999Y-130460000D01*
X121459999Y-130460000D01*
X121459999Y-130459999D01*
X121459999Y-130459999D01*
X121459999Y-130459999D01*
X121459999Y-130459999D01*
X121459999Y-130459999D01*
X121460000Y-130459999D01*
X121460000Y-130459999D01*
X121460000Y-130459999D01*
X121460000Y-130459999D01*
X121460000Y-130459999D01*
X121460000Y-130459999D01*
X121460000Y-130459999D01*
X121460000Y-130459999D01*
X121460000Y-130459999D01*
X121460000Y-130459999D01*
X121460000Y-130459999D01*
X121460000Y-130459999D01*
X121460001Y-130459999D01*
X121460001Y-130459999D01*
X121460001Y-130459999D01*
X121460001Y-130459999D01*
X121460001Y-130459999D01*
X121460001Y-130459999D01*
X121460001Y-130460000D01*
X121460001Y-130460000D01*
X121460001Y-130460000D01*
X121460001Y-130460000D01*
X121460001Y-130460000D01*
X121460001Y-130460000D01*
X121460001Y-130460000D01*
X121460000Y-130460000D01*
X121460000Y-130460000D02*
X121460001Y-130460000D01*
X121460001Y-130460000D01*
X121460001Y-130460000D01*
X121460001Y-130460000D01*
X121460001Y-130460000D01*
X121460001Y-130460000D01*
X121460001Y-130460001D01*
X121460001Y-130460001D01*
X121460001Y-130460001D01*
X121460001Y-130460001D01*
X121460001Y-130460001D01*
X121460001Y-130460001D01*
X121460001Y-130460001D01*
X121460000Y-130460001D01*
X121460000Y-130460001D01*
X121460000Y-130460001D01*
X121460000Y-130460001D01*
X121460000Y-130460001D01*
X121460000Y-130460001D01*
X121460000Y-130460001D01*
X121460000Y-130460001D01*
X121460000Y-130460001D01*
X121460000Y-130460001D01*
X121460000Y-130460001D01*
X121460000Y-130460001D01*
X121459999Y-130460001D01*
X121459999Y-130460001D01*
X121459999Y-130460001D01*
X121459999Y-130460001D01*
X121459999Y-130460001D01*
X121459999Y-130460001D01*
X121459999Y-130460000D01*
X121459999Y-130460000D01*
X121459999Y-130460000D01*
X121459999Y-130460000D01*
X121459999Y-130460000D01*
X121459999Y-130460000D01*
X121460000Y-130460000D01*
D19*
D18*
X195444171Y-130335186D02*
X195444170Y-130335186D01*
X195444170Y-130335186D01*
X195444170Y-130335186D01*
X195444170Y-130335186D01*
X195444170Y-130335186D01*
X195444170Y-130335186D01*
X195444170Y-130335186D01*
X195444170Y-130335185D01*
X195444170Y-130335185D01*
X195444170Y-130335185D01*
X195444170Y-130335185D01*
X195444170Y-130335185D01*
X195444171Y-130335185D01*
X195444171Y-130335185D01*
X195444171Y-130335185D01*
X195444171Y-130335185D01*
X195444171Y-130335185D01*
X195444171Y-130335185D01*
X195444171Y-130335185D01*
X195444171Y-130335185D01*
X195444171Y-130335185D01*
X195444171Y-130335185D01*
X195444171Y-130335185D01*
X195444171Y-130335185D01*
X195444172Y-130335185D01*
X195444172Y-130335185D01*
X195444172Y-130335185D01*
X195444172Y-130335185D01*
X195444172Y-130335185D01*
X195444172Y-130335185D01*
X195444172Y-130335186D01*
X195444172Y-130335186D01*
X195444172Y-130335186D01*
X195444172Y-130335186D01*
X195444172Y-130335186D01*
X195444172Y-130335186D01*
X195444172Y-130335186D01*
X195444171Y-130335186D01*
X195444171Y-130335186D02*
X195444172Y-130335186D01*
X195444172Y-130335186D01*
X195444172Y-130335186D01*
X195444172Y-130335186D01*
X195444172Y-130335186D01*
X195444172Y-130335186D01*
X195444172Y-130335187D01*
X195444172Y-130335187D01*
X195444172Y-130335187D01*
X195444172Y-130335187D01*
X195444172Y-130335187D01*
X195444172Y-130335187D01*
X195444172Y-130335187D01*
X195444171Y-130335187D01*
X195444171Y-130335187D01*
X195444171Y-130335187D01*
X195444171Y-130335187D01*
X195444171Y-130335187D01*
X195444171Y-130335187D01*
X195444171Y-130335187D01*
X195444171Y-130335187D01*
X195444171Y-130335187D01*
X195444171Y-130335187D01*
X195444171Y-130335187D01*
X195444171Y-130335187D01*
X195444170Y-130335187D01*
X195444170Y-130335187D01*
X195444170Y-130335187D01*
X195444170Y-130335187D01*
X195444170Y-130335187D01*
X195444170Y-130335187D01*
X195444170Y-130335186D01*
X195444170Y-130335186D01*
X195444170Y-130335186D01*
X195444170Y-130335186D01*
X195444170Y-130335186D01*
X195444170Y-130335186D01*
X195444171Y-130335186D01*
D19*
X195444171Y-130335186D02*
G75*
G02*
X195444171Y-130435214I29J-50014D01*
G01*
X195444171Y-130435186D02*
G75*
G02*
X195444171Y-130335214I29J49986D01*
G01*
%TO.C,J1*%
D16*
X141885000Y-58525000D02*
X141885000Y-62525000D01*
D18*
X143475000Y-56525000D02*
X143474999Y-56525000D01*
X143474999Y-56525000D01*
X143474999Y-56525000D01*
X143474999Y-56525000D01*
X143474999Y-56525000D01*
X143474999Y-56525000D01*
X143474999Y-56525000D01*
X143474999Y-56524999D01*
X143474999Y-56524999D01*
X143474999Y-56524999D01*
X143474999Y-56524999D01*
X143474999Y-56524999D01*
X143475000Y-56524999D01*
X143475000Y-56524999D01*
X143475000Y-56524999D01*
X143475000Y-56524999D01*
X143475000Y-56524999D01*
X143475000Y-56524999D01*
X143475000Y-56524999D01*
X143475000Y-56524999D01*
X143475000Y-56524999D01*
X143475000Y-56524999D01*
X143475000Y-56524999D01*
X143475000Y-56524999D01*
X143475001Y-56524999D01*
X143475001Y-56524999D01*
X143475001Y-56524999D01*
X143475001Y-56524999D01*
X143475001Y-56524999D01*
X143475001Y-56524999D01*
X143475001Y-56525000D01*
X143475001Y-56525000D01*
X143475001Y-56525000D01*
X143475001Y-56525000D01*
X143475001Y-56525000D01*
X143475001Y-56525000D01*
X143475001Y-56525000D01*
X143475000Y-56525000D01*
X143475000Y-56525000D02*
X143475001Y-56525000D01*
X143475001Y-56525000D01*
X143475001Y-56525000D01*
X143475001Y-56525000D01*
X143475001Y-56525000D01*
X143475001Y-56525000D01*
X143475001Y-56525001D01*
X143475001Y-56525001D01*
X143475001Y-56525001D01*
X143475001Y-56525001D01*
X143475001Y-56525001D01*
X143475001Y-56525001D01*
X143475001Y-56525001D01*
X143475000Y-56525001D01*
X143475000Y-56525001D01*
X143475000Y-56525001D01*
X143475000Y-56525001D01*
X143475000Y-56525001D01*
X143475000Y-56525001D01*
X143475000Y-56525001D01*
X143475000Y-56525001D01*
X143475000Y-56525001D01*
X143475000Y-56525001D01*
X143475000Y-56525001D01*
X143475000Y-56525001D01*
X143474999Y-56525001D01*
X143474999Y-56525001D01*
X143474999Y-56525001D01*
X143474999Y-56525001D01*
X143474999Y-56525001D01*
X143474999Y-56525001D01*
X143474999Y-56525000D01*
X143474999Y-56525000D01*
X143474999Y-56525000D01*
X143474999Y-56525000D01*
X143474999Y-56525000D01*
X143474999Y-56525000D01*
X143475000Y-56525000D01*
D16*
X143875000Y-55325000D02*
X143875000Y-67525000D01*
X143875000Y-56325000D02*
X143475000Y-56525000D01*
X143875000Y-76675000D02*
X143875000Y-70725000D01*
X159775000Y-55325000D02*
X143875000Y-55325000D01*
X159775000Y-56325000D02*
X160175000Y-56525000D01*
X159775000Y-67525000D02*
X159775000Y-55325000D01*
X159775000Y-70725000D02*
X159775000Y-76675000D01*
X159775000Y-76675000D02*
X143875000Y-76675000D01*
D18*
X160175000Y-56525000D02*
X160174999Y-56525000D01*
X160174999Y-56525000D01*
X160174999Y-56525000D01*
X160174999Y-56525000D01*
X160174999Y-56525000D01*
X160174999Y-56525000D01*
X160174999Y-56525000D01*
X160174999Y-56524999D01*
X160174999Y-56524999D01*
X160174999Y-56524999D01*
X160174999Y-56524999D01*
X160174999Y-56524999D01*
X160175000Y-56524999D01*
X160175000Y-56524999D01*
X160175000Y-56524999D01*
X160175000Y-56524999D01*
X160175000Y-56524999D01*
X160175000Y-56524999D01*
X160175000Y-56524999D01*
X160175000Y-56524999D01*
X160175000Y-56524999D01*
X160175000Y-56524999D01*
X160175000Y-56524999D01*
X160175000Y-56524999D01*
X160175001Y-56524999D01*
X160175001Y-56524999D01*
X160175001Y-56524999D01*
X160175001Y-56524999D01*
X160175001Y-56524999D01*
X160175001Y-56524999D01*
X160175001Y-56525000D01*
X160175001Y-56525000D01*
X160175001Y-56525000D01*
X160175001Y-56525000D01*
X160175001Y-56525000D01*
X160175001Y-56525000D01*
X160175001Y-56525000D01*
X160175000Y-56525000D01*
X160175000Y-56525000D02*
X160175001Y-56525000D01*
X160175001Y-56525000D01*
X160175001Y-56525000D01*
X160175001Y-56525000D01*
X160175001Y-56525000D01*
X160175001Y-56525000D01*
X160175001Y-56525001D01*
X160175001Y-56525001D01*
X160175001Y-56525001D01*
X160175001Y-56525001D01*
X160175001Y-56525001D01*
X160175001Y-56525001D01*
X160175001Y-56525001D01*
X160175000Y-56525001D01*
X160175000Y-56525001D01*
X160175000Y-56525001D01*
X160175000Y-56525001D01*
X160175000Y-56525001D01*
X160175000Y-56525001D01*
X160175000Y-56525001D01*
X160175000Y-56525001D01*
X160175000Y-56525001D01*
X160175000Y-56525001D01*
X160175000Y-56525001D01*
X160175000Y-56525001D01*
X160174999Y-56525001D01*
X160174999Y-56525001D01*
X160174999Y-56525001D01*
X160174999Y-56525001D01*
X160174999Y-56525001D01*
X160174999Y-56525001D01*
X160174999Y-56525000D01*
X160174999Y-56525000D01*
X160174999Y-56525000D01*
X160174999Y-56525000D01*
X160174999Y-56525000D01*
X160174999Y-56525000D01*
X160175000Y-56525000D01*
D19*
D18*
X161270000Y-72425000D02*
X161269999Y-72425000D01*
X161269999Y-72425000D01*
X161269999Y-72425000D01*
X161269999Y-72425000D01*
X161269999Y-72425000D01*
X161269999Y-72425000D01*
X161269999Y-72425000D01*
X161269999Y-72424999D01*
X161269999Y-72424999D01*
X161269999Y-72424999D01*
X161269999Y-72424999D01*
X161269999Y-72424999D01*
X161270000Y-72424999D01*
X161270000Y-72424999D01*
X161270000Y-72424999D01*
X161270000Y-72424999D01*
X161270000Y-72424999D01*
X161270000Y-72424999D01*
X161270000Y-72424999D01*
X161270000Y-72424999D01*
X161270000Y-72424999D01*
X161270000Y-72424999D01*
X161270000Y-72424999D01*
X161270000Y-72424999D01*
X161270001Y-72424999D01*
X161270001Y-72424999D01*
X161270001Y-72424999D01*
X161270001Y-72424999D01*
X161270001Y-72424999D01*
X161270001Y-72424999D01*
X161270001Y-72425000D01*
X161270001Y-72425000D01*
X161270001Y-72425000D01*
X161270001Y-72425000D01*
X161270001Y-72425000D01*
X161270001Y-72425000D01*
X161270001Y-72425000D01*
X161270000Y-72425000D01*
X161270000Y-72425000D02*
X161270001Y-72425000D01*
X161270001Y-72425000D01*
X161270001Y-72425000D01*
X161270001Y-72425000D01*
X161270001Y-72425000D01*
X161270001Y-72425000D01*
X161270001Y-72425001D01*
X161270001Y-72425001D01*
X161270001Y-72425001D01*
X161270001Y-72425001D01*
X161270001Y-72425001D01*
X161270001Y-72425001D01*
X161270001Y-72425001D01*
X161270000Y-72425001D01*
X161270000Y-72425001D01*
X161270000Y-72425001D01*
X161270000Y-72425001D01*
X161270000Y-72425001D01*
X161270000Y-72425001D01*
X161270000Y-72425001D01*
X161270000Y-72425001D01*
X161270000Y-72425001D01*
X161270000Y-72425001D01*
X161270000Y-72425001D01*
X161270000Y-72425001D01*
X161269999Y-72425001D01*
X161269999Y-72425001D01*
X161269999Y-72425001D01*
X161269999Y-72425001D01*
X161269999Y-72425001D01*
X161269999Y-72425001D01*
X161269999Y-72425000D01*
X161269999Y-72425000D01*
X161269999Y-72425000D01*
X161269999Y-72425000D01*
X161269999Y-72425000D01*
X161269999Y-72425000D01*
X161270000Y-72425000D01*
D19*
D18*
X161370000Y-72425000D02*
X161369999Y-72425000D01*
X161369999Y-72425000D01*
X161369999Y-72425000D01*
X161369999Y-72425000D01*
X161369999Y-72425000D01*
X161369999Y-72425000D01*
X161369999Y-72425000D01*
X161369999Y-72424999D01*
X161369999Y-72424999D01*
X161369999Y-72424999D01*
X161369999Y-72424999D01*
X161369999Y-72424999D01*
X161370000Y-72424999D01*
X161370000Y-72424999D01*
X161370000Y-72424999D01*
X161370000Y-72424999D01*
X161370000Y-72424999D01*
X161370000Y-72424999D01*
X161370000Y-72424999D01*
X161370000Y-72424999D01*
X161370000Y-72424999D01*
X161370000Y-72424999D01*
X161370000Y-72424999D01*
X161370000Y-72424999D01*
X161370001Y-72424999D01*
X161370001Y-72424999D01*
X161370001Y-72424999D01*
X161370001Y-72424999D01*
X161370001Y-72424999D01*
X161370001Y-72424999D01*
X161370001Y-72425000D01*
X161370001Y-72425000D01*
X161370001Y-72425000D01*
X161370001Y-72425000D01*
X161370001Y-72425000D01*
X161370001Y-72425000D01*
X161370001Y-72425000D01*
X161370000Y-72425000D01*
X161370000Y-72425000D02*
X161370001Y-72425000D01*
X161370001Y-72425000D01*
X161370001Y-72425000D01*
X161370001Y-72425000D01*
X161370001Y-72425000D01*
X161370001Y-72425000D01*
X161370001Y-72425001D01*
X161370001Y-72425001D01*
X161370001Y-72425001D01*
X161370001Y-72425001D01*
X161370001Y-72425001D01*
X161370001Y-72425001D01*
X161370001Y-72425001D01*
X161370000Y-72425001D01*
X161370000Y-72425001D01*
X161370000Y-72425001D01*
X161370000Y-72425001D01*
X161370000Y-72425001D01*
X161370000Y-72425001D01*
X161370000Y-72425001D01*
X161370000Y-72425001D01*
X161370000Y-72425001D01*
X161370000Y-72425001D01*
X161370000Y-72425001D01*
X161370000Y-72425001D01*
X161369999Y-72425001D01*
X161369999Y-72425001D01*
X161369999Y-72425001D01*
X161369999Y-72425001D01*
X161369999Y-72425001D01*
X161369999Y-72425001D01*
X161369999Y-72425000D01*
X161369999Y-72425000D01*
X161369999Y-72425000D01*
X161369999Y-72425000D01*
X161369999Y-72425000D01*
X161369999Y-72425000D01*
X161370000Y-72425000D01*
D16*
X161765000Y-58525000D02*
X161765000Y-62525000D01*
X141885245Y-58524977D02*
G75*
G02*
X143475000Y-56525000I2944255J-708523D01*
G01*
X160175000Y-56525000D02*
G75*
G02*
X161764755Y-58524977I-1354498J-2708498D01*
G01*
D19*
X161270000Y-72425000D02*
G75*
G02*
X161370000Y-72425000I50000J0D01*
G01*
X161370000Y-72425000D02*
G75*
G02*
X161270000Y-72425000I-50000J0D01*
G01*
%TO.C,U1*%
D10*
X120569200Y-94440800D02*
X121839200Y-94440800D01*
X120569200Y-102060800D02*
X120569200Y-94440800D01*
X121839200Y-89360800D02*
X182799200Y-89360800D01*
X121839200Y-102060800D02*
X120569200Y-102060800D01*
X121839200Y-107140800D02*
X121839200Y-89360800D01*
X126919200Y-94440800D02*
X121839200Y-94440800D01*
X126919200Y-102060800D02*
X121839200Y-102060800D01*
X126919200Y-102060800D02*
X126919200Y-94440800D01*
X128138400Y-101550000D02*
X130678400Y-101550000D01*
X128138400Y-101550000D02*
X140838400Y-101550000D01*
X128138400Y-104090000D02*
X128138400Y-101550000D01*
X130678400Y-101550000D02*
X130678400Y-104090000D01*
X135069200Y-91899200D02*
X135069200Y-92149200D01*
X135069200Y-92149200D02*
X135069200Y-98149200D01*
X135069200Y-98149200D02*
X139069200Y-98149200D01*
X139069200Y-91899200D02*
X135069200Y-91899200D01*
X139069200Y-98149200D02*
X139069200Y-91899200D01*
X140838400Y-101550000D02*
X140838400Y-104090000D01*
X140838400Y-104090000D02*
X128138400Y-104090000D01*
X144699200Y-91900800D02*
X144699200Y-104600800D01*
X144699200Y-104600800D02*
X157399200Y-104600800D01*
X157399200Y-91900800D02*
X144699200Y-91900800D01*
X157399200Y-104600800D02*
X157399200Y-91900800D01*
X162479200Y-96980800D02*
X166289200Y-96980800D01*
X162479200Y-99520800D02*
X162479200Y-96980800D01*
X166289200Y-96980800D02*
X166289200Y-99520800D01*
X166289200Y-99520800D02*
X162479200Y-99520800D01*
X170099200Y-91900800D02*
X170099200Y-104600800D01*
X170099200Y-104600800D02*
X182799200Y-104600800D01*
X181529200Y-93170800D02*
X181529200Y-103330800D01*
X181529200Y-103330800D02*
X182799200Y-103330800D01*
X182799200Y-89360800D02*
X182799200Y-107140800D01*
X182799200Y-91900800D02*
X170099200Y-91900800D01*
X182799200Y-93170800D02*
X181529200Y-93170800D01*
X182799200Y-107140800D02*
X121839200Y-107140800D01*
X165282226Y-98250800D02*
G75*
G02*
X163486174Y-98250800I-898026J0D01*
G01*
X163486174Y-98250800D02*
G75*
G02*
X165282226Y-98250800I898026J0D01*
G01*
D19*
X153230200Y-97562800D02*
X152976200Y-97816800D01*
X152722200Y-97435800D01*
X152976200Y-97181800D01*
X153230200Y-97562800D01*
G36*
X153230200Y-97562800D02*
G01*
X152976200Y-97816800D01*
X152722200Y-97435800D01*
X152976200Y-97181800D01*
X153230200Y-97562800D01*
G37*
X153611200Y-98070800D02*
X153357200Y-98324800D01*
X153103200Y-97943800D01*
X153357200Y-97689800D01*
X153611200Y-98070800D01*
G36*
X153611200Y-98070800D02*
G01*
X153357200Y-98324800D01*
X153103200Y-97943800D01*
X153357200Y-97689800D01*
X153611200Y-98070800D01*
G37*
X153992200Y-97689800D02*
X153738200Y-97943800D01*
X153484200Y-97562800D01*
X153738200Y-97308800D01*
X153992200Y-97689800D01*
G36*
X153992200Y-97689800D02*
G01*
X153738200Y-97943800D01*
X153484200Y-97562800D01*
X153738200Y-97308800D01*
X153992200Y-97689800D01*
G37*
X153992200Y-98578800D02*
X153738200Y-98832800D01*
X153484200Y-98451800D01*
X153738200Y-98197800D01*
X153992200Y-98578800D01*
G36*
X153992200Y-98578800D02*
G01*
X153738200Y-98832800D01*
X153484200Y-98451800D01*
X153738200Y-98197800D01*
X153992200Y-98578800D01*
G37*
X154373200Y-98197800D02*
X154119200Y-98451800D01*
X153865200Y-98070800D01*
X154119200Y-97816800D01*
X154373200Y-98197800D01*
G36*
X154373200Y-98197800D02*
G01*
X154119200Y-98451800D01*
X153865200Y-98070800D01*
X154119200Y-97816800D01*
X154373200Y-98197800D01*
G37*
X154754200Y-98705800D02*
X154500200Y-98959800D01*
X154246200Y-98578800D01*
X154500200Y-98324800D01*
X154754200Y-98705800D01*
G36*
X154754200Y-98705800D02*
G01*
X154500200Y-98959800D01*
X154246200Y-98578800D01*
X154500200Y-98324800D01*
X154754200Y-98705800D01*
G37*
X155135200Y-98324800D02*
X154881200Y-98578800D01*
X154627200Y-98197800D01*
X154881200Y-97943800D01*
X155135200Y-98324800D01*
G36*
X155135200Y-98324800D02*
G01*
X154881200Y-98578800D01*
X154627200Y-98197800D01*
X154881200Y-97943800D01*
X155135200Y-98324800D01*
G37*
X155516200Y-97943800D02*
X155262200Y-98197800D01*
X155008200Y-97816800D01*
X155262200Y-97562800D01*
X155516200Y-97943800D01*
G36*
X155516200Y-97943800D02*
G01*
X155262200Y-98197800D01*
X155008200Y-97816800D01*
X155262200Y-97562800D01*
X155516200Y-97943800D01*
G37*
%TO.C,R1*%
D15*
X118627064Y-74265000D02*
X118172936Y-74265000D01*
X118627064Y-75735000D02*
X118172936Y-75735000D01*
D18*
%TO.C,G\u002A\u002A\u002A*%
G36*
X173109752Y-61350000D02*
G01*
X173109752Y-66359753D01*
X168109243Y-66359753D01*
X163108734Y-66359753D01*
X163108734Y-61450448D01*
X163918548Y-61450448D01*
X163947727Y-61849633D01*
X163999006Y-62181878D01*
X164049626Y-62398159D01*
X164120790Y-62631505D01*
X164208368Y-62871449D01*
X164308227Y-63107521D01*
X164416239Y-63329255D01*
X164528271Y-63526181D01*
X164531508Y-63531368D01*
X164747943Y-63844521D01*
X164994276Y-64141949D01*
X165265298Y-64418112D01*
X165555798Y-64667467D01*
X165703944Y-64778377D01*
X165761729Y-64818070D01*
X165807257Y-64846455D01*
X165833027Y-64858958D01*
X165835918Y-64858818D01*
X165841415Y-64838875D01*
X165851776Y-64788397D01*
X165865879Y-64713334D01*
X165882604Y-64619635D01*
X165899210Y-64522875D01*
X166020824Y-63912483D01*
X166178596Y-63309120D01*
X166372256Y-62713490D01*
X166601538Y-62126294D01*
X166866170Y-61548234D01*
X167165885Y-60980013D01*
X167420657Y-60549221D01*
X167472017Y-60467439D01*
X167516419Y-60398744D01*
X167550364Y-60348390D01*
X167570355Y-60321631D01*
X167574065Y-60318776D01*
X167573070Y-60338308D01*
X167565603Y-60386807D01*
X167552891Y-60457078D01*
X167536161Y-60541927D01*
X167535228Y-60546484D01*
X167508281Y-60688240D01*
X167479686Y-60856741D01*
X167450937Y-61041897D01*
X167423525Y-61233614D01*
X167398943Y-61421799D01*
X167378682Y-61596360D01*
X167375430Y-61627293D01*
X167365760Y-61750709D01*
X167358643Y-61903367D01*
X167354029Y-62077786D01*
X167351872Y-62266483D01*
X167352124Y-62461977D01*
X167354737Y-62656786D01*
X167359663Y-62843427D01*
X167366855Y-63014419D01*
X167376265Y-63162279D01*
X167385869Y-63263319D01*
X167445874Y-63682505D01*
X167525803Y-64087249D01*
X167624499Y-64473362D01*
X167740805Y-64836657D01*
X167873564Y-65172945D01*
X167971257Y-65381299D01*
X168044954Y-65527875D01*
X168271203Y-65527775D01*
X168395642Y-65524186D01*
X168537732Y-65514472D01*
X168678932Y-65500070D01*
X168748361Y-65490837D01*
X169125283Y-65417192D01*
X169492750Y-65309103D01*
X169848130Y-65168125D01*
X170188791Y-64995814D01*
X170512102Y-64793724D01*
X170815431Y-64563411D01*
X171096147Y-64306430D01*
X171351618Y-64024335D01*
X171457452Y-63889867D01*
X171688089Y-63554588D01*
X171883460Y-63208395D01*
X172043808Y-62850670D01*
X172169377Y-62480796D01*
X172260409Y-62098156D01*
X172316318Y-61710480D01*
X172331144Y-61460251D01*
X172328888Y-61189947D01*
X172310496Y-60911777D01*
X172276909Y-60637946D01*
X172229073Y-60380662D01*
X172206103Y-60284894D01*
X172092566Y-59917516D01*
X171945652Y-59563958D01*
X171767035Y-59226277D01*
X171558389Y-58906528D01*
X171321388Y-58606767D01*
X171057706Y-58329050D01*
X170769016Y-58075433D01*
X170456992Y-57847970D01*
X170123309Y-57648719D01*
X170013319Y-57591796D01*
X169921667Y-57547637D01*
X169820962Y-57501735D01*
X169717748Y-57456785D01*
X169618571Y-57415479D01*
X169529977Y-57380511D01*
X169458510Y-57354576D01*
X169410716Y-57340367D01*
X169397853Y-57338501D01*
X169389456Y-57355674D01*
X169379121Y-57402247D01*
X169368250Y-57470796D01*
X169359553Y-57541529D01*
X169327589Y-57758539D01*
X169277947Y-57974816D01*
X169208582Y-58196746D01*
X169117448Y-58430716D01*
X169002502Y-58683109D01*
X168977538Y-58734207D01*
X168865784Y-58947039D01*
X168741252Y-59160411D01*
X168611522Y-59361911D01*
X168493537Y-59526867D01*
X168410964Y-59635539D01*
X168441295Y-59757944D01*
X168460227Y-59833663D01*
X168478650Y-59906241D01*
X168490324Y-59951345D01*
X168509022Y-60022341D01*
X168601265Y-59926132D01*
X168647298Y-59880507D01*
X168683190Y-59849367D01*
X168701931Y-59838724D01*
X168702700Y-59839114D01*
X168705300Y-59865647D01*
X168691825Y-59918570D01*
X168664829Y-59992340D01*
X168626865Y-60081410D01*
X168580487Y-60180236D01*
X168528248Y-60283271D01*
X168472701Y-60384971D01*
X168416399Y-60479790D01*
X168385793Y-60527365D01*
X168309424Y-60637103D01*
X168242126Y-60724122D01*
X168185565Y-60787280D01*
X168141406Y-60825439D01*
X168111315Y-60837456D01*
X168096958Y-60822192D01*
X168100002Y-60778506D01*
X168120837Y-60708779D01*
X168161012Y-60597122D01*
X168100302Y-60349653D01*
X168077185Y-60258305D01*
X168055989Y-60179819D01*
X168038720Y-60121246D01*
X168027382Y-60089640D01*
X168025548Y-60086589D01*
X168005123Y-60088797D01*
X167967975Y-60111344D01*
X167940214Y-60133720D01*
X167879977Y-60184946D01*
X167813200Y-60239246D01*
X167790501Y-60257049D01*
X167712079Y-60317653D01*
X167610651Y-60259622D01*
X167555953Y-60226653D01*
X167515070Y-60198903D01*
X167498478Y-60184204D01*
X167497415Y-60160140D01*
X167502561Y-60109346D01*
X167512406Y-60041247D01*
X167525440Y-59965271D01*
X167540153Y-59890845D01*
X167555037Y-59827395D01*
X167556470Y-59822041D01*
X167559454Y-59806951D01*
X167555216Y-59797903D01*
X167538592Y-59795407D01*
X167504418Y-59799973D01*
X167447529Y-59812110D01*
X167362763Y-59832328D01*
X167302166Y-59847130D01*
X167037045Y-59912042D01*
X166950534Y-60007113D01*
X166901813Y-60057680D01*
X166869735Y-60082406D01*
X166848733Y-60085005D01*
X166841399Y-60079934D01*
X166832388Y-60054614D01*
X166839110Y-60009259D01*
X166862547Y-59940937D01*
X166903681Y-59846719D01*
X166954967Y-59740718D01*
X167003420Y-59650154D01*
X167060715Y-59553686D01*
X167123464Y-59455903D01*
X167188279Y-59361398D01*
X167251771Y-59274762D01*
X167310551Y-59200586D01*
X167361231Y-59143460D01*
X167400422Y-59107977D01*
X167424736Y-59098728D01*
X167427528Y-59100443D01*
X167429886Y-59124400D01*
X167420713Y-59171909D01*
X167404470Y-59225225D01*
X167385659Y-59281833D01*
X167374435Y-59321473D01*
X167373087Y-59335007D01*
X167392794Y-59330677D01*
X167440540Y-59318970D01*
X167508581Y-59301809D01*
X167569085Y-59286308D01*
X167758006Y-59237609D01*
X167892276Y-58965553D01*
X168031320Y-58705354D01*
X168186737Y-58453115D01*
X168355068Y-58212969D01*
X168532853Y-57989046D01*
X168716632Y-57785478D01*
X168902946Y-57606395D01*
X169088334Y-57455930D01*
X169241820Y-57354083D01*
X169320685Y-57307508D01*
X169158632Y-57268457D01*
X168761032Y-57190017D01*
X168368968Y-57147900D01*
X167980963Y-57142128D01*
X167595543Y-57172724D01*
X167211234Y-57239709D01*
X166967772Y-57300955D01*
X166611673Y-57419611D01*
X166265316Y-57571535D01*
X165932694Y-57754200D01*
X165617796Y-57965081D01*
X165324612Y-58201649D01*
X165057133Y-58461380D01*
X164953841Y-58576273D01*
X164704143Y-58892937D01*
X164488156Y-59224252D01*
X164306209Y-59568981D01*
X164158629Y-59925883D01*
X164045745Y-60293720D01*
X163967885Y-60671253D01*
X163925376Y-61057242D01*
X163918548Y-61450448D01*
X163108734Y-61450448D01*
X163108734Y-61350000D01*
X163108734Y-56340248D01*
X168109243Y-56340248D01*
X173109752Y-56340248D01*
X173109752Y-61350000D01*
G37*
%TO.C,LED1*%
D16*
X122000000Y-75825000D02*
X124350000Y-75825000D01*
X124350000Y-74175000D02*
X122000000Y-74175000D01*
X124350000Y-75825000D02*
X124350000Y-74175000D01*
%TO.C,C1*%
D15*
X138865000Y-69938748D02*
X138865000Y-70461252D01*
X140335000Y-69938748D02*
X140335000Y-70461252D01*
%TO.C,TP3*%
X121550000Y-68550000D02*
X123950000Y-68550000D01*
X121550000Y-70950000D02*
X121550000Y-68550000D01*
X123950000Y-68550000D02*
X123950000Y-70950000D01*
X123950000Y-70950000D02*
X121550000Y-70950000D01*
%TD*%
M02*
