%TF.GenerationSoftware,KiCad,Pcbnew,10.0.1*%
%TF.CreationDate,2026-06-20T14:22:02-05:00*%
%TF.ProjectId,Teensy_Daughtercard,5465656e-7379-45f4-9461-756768746572,rev?*%
%TF.SameCoordinates,Original*%
%TF.FileFunction,Copper,L1,Top*%
%TF.FilePolarity,Positive*%
%FSLAX46Y46*%
G04 Gerber Fmt 4.6, Leading zero omitted, Abs format (unit mm)*
G04 Created by KiCad (PCBNEW 10.0.1) date 2026-06-20 14:22:02*
%MOMM*%
%LPD*%
G01*
G04 APERTURE LIST*
G04 Aperture macros list*
%AMRoundRect*
0 Rectangle with rounded corners*
0 $1 Rounding radius*
0 $2 $3 $4 $5 $6 $7 $8 $9 X,Y pos of 4 corners*
0 Add a 4 corners polygon primitive as box body*
4,1,4,$2,$3,$4,$5,$6,$7,$8,$9,$2,$3,0*
0 Add four circle primitives for the rounded corners*
1,1,$1+$1,$2,$3*
1,1,$1+$1,$4,$5*
1,1,$1+$1,$6,$7*
1,1,$1+$1,$8,$9*
0 Add four rect primitives between the rounded corners*
20,1,$1+$1,$2,$3,$4,$5,0*
20,1,$1+$1,$4,$5,$6,$7,0*
20,1,$1+$1,$6,$7,$8,$9,0*
20,1,$1+$1,$8,$9,$2,$3,0*%
G04 Aperture macros list end*
%TA.AperFunction,SMDPad,CuDef*%
%ADD10R,2.000000X2.000000*%
%TD*%
%TA.AperFunction,ComponentPad*%
%ADD11C,7.000000*%
%TD*%
%TA.AperFunction,ComponentPad*%
%ADD12C,1.300000*%
%TD*%
%TA.AperFunction,ComponentPad*%
%ADD13C,2.400000*%
%TD*%
%TA.AperFunction,ComponentPad*%
%ADD14R,1.400000X1.400000*%
%TD*%
%TA.AperFunction,ComponentPad*%
%ADD15C,1.400000*%
%TD*%
%TA.AperFunction,ComponentPad*%
%ADD16C,1.530000*%
%TD*%
%TA.AperFunction,ComponentPad*%
%ADD17R,1.600000X1.600000*%
%TD*%
%TA.AperFunction,ComponentPad*%
%ADD18C,1.600000*%
%TD*%
%TA.AperFunction,ComponentPad*%
%ADD19R,1.300000X1.300000*%
%TD*%
%TA.AperFunction,SMDPad,CuDef*%
%ADD20RoundRect,0.250000X0.350000X0.450000X-0.350000X0.450000X-0.350000X-0.450000X0.350000X-0.450000X0*%
%TD*%
%TA.AperFunction,SMDPad,CuDef*%
%ADD21R,0.800000X0.950000*%
%TD*%
%TA.AperFunction,SMDPad,CuDef*%
%ADD22RoundRect,0.250000X-0.475000X0.337500X-0.475000X-0.337500X0.475000X-0.337500X0.475000X0.337500X0*%
%TD*%
%TA.AperFunction,ViaPad*%
%ADD23C,0.600000*%
%TD*%
%TA.AperFunction,Conductor*%
%ADD24C,0.250000*%
%TD*%
%TA.AperFunction,Conductor*%
%ADD25C,0.500000*%
%TD*%
G04 APERTURE END LIST*
D10*
%TO.P,TP1,1,1_1*%
%TO.N,GNDD*%
X117750000Y-69750000D03*
%TD*%
D11*
%TO.P,H2,1,1_1*%
%TO.N,GNDD*%
X197250000Y-60000000D03*
%TD*%
D10*
%TO.P,TP2,1,1_1*%
%TO.N,+5V*%
X119250000Y-90750000D03*
%TD*%
D12*
%TO.P,J6,1,1_1*%
%TO.N,/RELAY15*%
X121500000Y-135500000D03*
%TO.P,J6,2,2_2*%
%TO.N,/RELAY16*%
X124040000Y-135500000D03*
%TO.P,J6,3,3_3*%
%TO.N,/RELAY14*%
X126580000Y-135500000D03*
%TO.P,J6,4,4_4*%
%TO.N,/RELAY13*%
X129120000Y-135500000D03*
%TO.P,J6,5,5_5*%
%TO.N,/RELAY12*%
X131660000Y-135500000D03*
%TO.P,J6,6,6_6*%
%TO.N,/RELAY11*%
X134200000Y-135500000D03*
%TO.P,J6,7,7_7*%
%TO.N,/RELAY9*%
X136740000Y-135500000D03*
%TO.P,J6,8,8_8*%
%TO.N,/RELAY8*%
X139280000Y-135500000D03*
%TO.P,J6,9,9_9*%
%TO.N,/RELAY5*%
X141820000Y-135500000D03*
%TO.P,J6,10,10_10*%
%TO.N,/RELAY3*%
X144360000Y-135500000D03*
%TO.P,J6,11,11_11*%
%TO.N,/RELAY1*%
X146900000Y-135500000D03*
%TO.P,J6,12,12_12*%
%TO.N,/ENA1*%
X149440000Y-135500000D03*
%TO.P,J6,13,13_13*%
%TO.N,/DIR4*%
X151980000Y-135500000D03*
%TO.P,J6,14,14_14*%
%TO.N,/PUL4*%
X154520000Y-135500000D03*
%TO.P,J6,15,15_15*%
%TO.N,/ENA3*%
X157060000Y-135500000D03*
%TO.P,J6,16,16_16*%
%TO.N,/DIR2*%
X159600000Y-135500000D03*
%TO.P,J6,17,17_17*%
%TO.N,/PUL2*%
X162140000Y-135500000D03*
%TO.P,J6,18,18_18*%
%TO.N,/SCLLC*%
X164680000Y-135500000D03*
%TO.P,J6,19,19_19*%
%TO.N,+5V*%
X167220000Y-135500000D03*
%TO.P,J6,20,20_20*%
%TO.N,VMC+*%
X169760000Y-135500000D03*
%TO.P,J6,21,21_21*%
%TO.N,GNDD*%
X172300000Y-135500000D03*
%TO.P,J6,22,22_22*%
%TO.N,/SCLTC*%
X174840000Y-135500000D03*
%TO.P,J6,23,23_23*%
%TO.N,/SDATC*%
X177380000Y-135500000D03*
%TO.P,J6,24,24_24*%
%TO.N,/SDO1*%
X179920000Y-135500000D03*
%TO.P,J6,25,25_25*%
%TO.N,/SDI1*%
X182460000Y-135500000D03*
%TO.P,J6,26,26_26*%
%TO.N,/Imon PS1*%
X121500000Y-132960000D03*
%TO.P,J6,27,27_27*%
%TO.N,/Imon PS2*%
X124040000Y-132960000D03*
%TO.P,J6,28,28_28*%
%TO.N,/GPIO1*%
X126580000Y-132960000D03*
%TO.P,J6,29,29_29*%
%TO.N,/GPIO2*%
X129120000Y-132960000D03*
%TO.P,J6,30,30_30*%
%TO.N,/GPIO3*%
X131660000Y-132960000D03*
%TO.P,J6,31,31_31*%
%TO.N,/GPIO4*%
X134200000Y-132960000D03*
%TO.P,J6,32,32_32*%
%TO.N,/RELAY10*%
X136740000Y-132960000D03*
%TO.P,J6,33,33_33*%
%TO.N,/RELAY7*%
X139280000Y-132960000D03*
%TO.P,J6,34,34_34*%
%TO.N,/RELAY6*%
X141820000Y-132960000D03*
%TO.P,J6,35,35_35*%
%TO.N,/RELAY4*%
X144360000Y-132960000D03*
%TO.P,J6,36,36_36*%
%TO.N,/RELAY2*%
X146900000Y-132960000D03*
%TO.P,J6,37,37_37*%
%TO.N,/DIR1*%
X149440000Y-132960000D03*
%TO.P,J6,38,38_38*%
%TO.N,/PUL1*%
X151980000Y-132960000D03*
%TO.P,J6,39,39_39*%
%TO.N,/ENA4*%
X154520000Y-132960000D03*
%TO.P,J6,40,40_40*%
%TO.N,/DIR3*%
X157060000Y-132960000D03*
%TO.P,J6,41,41_41*%
%TO.N,/PUL3*%
X159600000Y-132960000D03*
%TO.P,J6,42,42_42*%
%TO.N,/ENA2*%
X162140000Y-132960000D03*
%TO.P,J6,43,43_43*%
%TO.N,/SDALC*%
X164680000Y-132960000D03*
%TO.P,J6,44,44_44*%
%TO.N,+5V*%
X167220000Y-132960000D03*
%TO.P,J6,45,45_45*%
%TO.N,VMC+*%
X169760000Y-132960000D03*
%TO.P,J6,46,46_46*%
%TO.N,GNDD*%
X172300000Y-132960000D03*
%TO.P,J6,47,47_47*%
%TO.N,unconnected-(J6-Pad47)*%
X174840000Y-132960000D03*
%TO.P,J6,48,48_48*%
%TO.N,unconnected-(J6-Pad48)*%
X177380000Y-132960000D03*
%TO.P,J6,49,49_49*%
%TO.N,/CS1*%
X179920000Y-132960000D03*
%TO.P,J6,50,50_50*%
%TO.N,/SCLK1*%
X182460000Y-132960000D03*
%TD*%
D13*
%TO.P,J1,1,MH1_1*%
%TO.N,unconnected-(J1-MH1-Pad1)*%
X159575000Y-69125000D03*
%TO.P,J1,2,MH2_2*%
%TO.N,unconnected-(J1-MH2-Pad2)*%
X144075000Y-69125000D03*
D14*
%TO.P,J1,P1,TD+_P1*%
%TO.N,/ETH_TX+*%
X156270000Y-72425000D03*
D15*
%TO.P,J1,P2,TCT_P2*%
%TO.N,Net-(J1-RCT)*%
X155000000Y-74965000D03*
%TO.P,J1,P3,TD-_P3*%
%TO.N,/ETH_TX-*%
X153730000Y-72425000D03*
%TO.P,J1,P4,RD+_P4*%
%TO.N,/ETH_RX+*%
X152460000Y-74965000D03*
%TO.P,J1,P5,RCT_P5*%
%TO.N,Net-(J1-RCT)*%
X151190000Y-72425000D03*
%TO.P,J1,P6,RD-_P6*%
%TO.N,/ETH_RX-*%
X149920000Y-74965000D03*
%TO.P,J1,P7,NC_P7*%
%TO.N,unconnected-(J1-NC-PadP7)*%
X148650000Y-72425000D03*
%TO.P,J1,P8,CHS_GROUND_P8*%
%TO.N,GNDD*%
X147380000Y-74965000D03*
D16*
%TO.P,J1,P11,A_GREEN_P11*%
%TO.N,/ETH_LED*%
X158465000Y-62015000D03*
%TO.P,J1,P12,K_GREEN_P12*%
%TO.N,GNDD*%
X155925000Y-62015000D03*
%TO.P,J1,P13,A_YELLOW_P13*%
%TO.N,unconnected-(J1-A_YELLOW-PadP13)*%
X147725000Y-62015000D03*
%TO.P,J1,P14,K_YELLOW_P14*%
%TO.N,unconnected-(J1-K_YELLOW-PadP14)*%
X145185000Y-62015000D03*
%TD*%
D17*
%TO.P,U1,1,GND_1*%
%TO.N,GNDD*%
X123109200Y-105870800D03*
D18*
%TO.P,U1,2,0_RX1_CRX2_CS1_2*%
%TO.N,/GPIO1*%
X125649200Y-105870800D03*
%TO.P,U1,3,1_TX1_CTX2_MISO1_3*%
%TO.N,/RELAY14*%
X128189200Y-105870800D03*
%TO.P,U1,4,2_OUT2_4*%
%TO.N,/GPIO2*%
X130729200Y-105870800D03*
%TO.P,U1,5,3_LRCLK2_5*%
%TO.N,/RELAY13*%
X133269200Y-105870800D03*
%TO.P,U1,6,4_BCLK2_6*%
%TO.N,/GPIO3*%
X135809200Y-105870800D03*
%TO.P,U1,7,5_IN2_7*%
%TO.N,/RELAY12*%
X138349200Y-105870800D03*
%TO.P,U1,8,6_OUT1D_8*%
%TO.N,/GPIO4*%
X140889200Y-105870800D03*
%TO.P,U1,9,7_RX2_OUT1A_9*%
%TO.N,/RELAY11*%
X143429200Y-105870800D03*
%TO.P,U1,10,8_TX2_IN1_10*%
%TO.N,/RELAY10*%
X145969200Y-105870800D03*
%TO.P,U1,11,9_OUT1C_11*%
%TO.N,/RELAY9*%
X148509200Y-105870800D03*
%TO.P,U1,12,10_CS_MQSR_12*%
%TO.N,/CS1*%
X151049200Y-105870800D03*
%TO.P,U1,13,11_MOSI_CTX1_13*%
%TO.N,/SDI1*%
X153589200Y-105870800D03*
%TO.P,U1,14,12_MISO_MQSL_14*%
%TO.N,/SDO1*%
X156129200Y-105870800D03*
%TO.P,U1,15,3V3_15*%
%TO.N,VMC+*%
X158669200Y-105870800D03*
%TO.P,U1,16,24_A10_TX6_SCL2_16*%
%TO.N,/RELAY7*%
X161209200Y-105870800D03*
%TO.P,U1,17,25_A11_RX6_SDA2_17*%
%TO.N,/RELAY8*%
X163749200Y-105870800D03*
%TO.P,U1,18,26_A12_MOSI1_18*%
%TO.N,/RELAY6*%
X166289200Y-105870800D03*
%TO.P,U1,19,27_A13_SCK1_19*%
%TO.N,/RELAY5*%
X168829200Y-105870800D03*
%TO.P,U1,20,28_RX7_20*%
%TO.N,/RELAY4*%
X171369200Y-105870800D03*
%TO.P,U1,21,29_TX7_21*%
%TO.N,/RELAY3*%
X173909200Y-105870800D03*
%TO.P,U1,22,30_CRX3_22*%
%TO.N,/RELAY2*%
X176449200Y-105870800D03*
%TO.P,U1,23,31_CTX3_23*%
%TO.N,/RELAY1*%
X178989200Y-105870800D03*
%TO.P,U1,24,32_OUT1B_24*%
%TO.N,/DIR1*%
X181529200Y-105870800D03*
%TO.P,U1,25,33_MCLK2_25*%
%TO.N,/DIR4*%
X181529200Y-90630800D03*
%TO.P,U1,26,34_RX8_26*%
%TO.N,/PUL1*%
X178989200Y-90630800D03*
%TO.P,U1,27,35_TX8_27*%
%TO.N,/ENA1*%
X176449200Y-90630800D03*
%TO.P,U1,28,36_CS_28*%
%TO.N,/ENA4*%
X173909200Y-90630800D03*
%TO.P,U1,29,37_CS_29*%
%TO.N,/PUL4*%
X171369200Y-90630800D03*
%TO.P,U1,30,38_CS1_IN1_30*%
%TO.N,/DIR3*%
X168829200Y-90630800D03*
%TO.P,U1,31,39_MISO1_OUT1A_31*%
%TO.N,/ENA3*%
X166289200Y-90630800D03*
%TO.P,U1,32,40_A16_32*%
%TO.N,/PUL3*%
X163749200Y-90630800D03*
%TO.P,U1,33,41_A17_33*%
%TO.N,/DIR2*%
X161209200Y-90630800D03*
%TO.P,U1,34,GND_34*%
%TO.N,GNDD*%
X158669200Y-90630800D03*
%TO.P,U1,35,13_SCK_LED_35*%
%TO.N,/SCLK1*%
X156129200Y-90630800D03*
%TO.P,U1,36,14_A0_TX3_SPDIF_OUT_36*%
%TO.N,/PUL2*%
X153589200Y-90630800D03*
%TO.P,U1,37,15_A1_RX3_SPDIF_IN_37*%
%TO.N,/ENA2*%
X151049200Y-90630800D03*
%TO.P,U1,38,16_A2_RX4_SCL1_38*%
%TO.N,/SCLLC*%
X148509200Y-90630800D03*
%TO.P,U1,39,17_A3_TX4_SDA1_39*%
%TO.N,/SDALC*%
X145969200Y-90630800D03*
%TO.P,U1,40,18_A4_SDA_40*%
%TO.N,/SDATC*%
X143429200Y-90630800D03*
%TO.P,U1,41,19_A5_SCL_41*%
%TO.N,/SCLTC*%
X140889200Y-90630800D03*
%TO.P,U1,42,20_A6_TX5_LRCLK1_42*%
%TO.N,/RELAY16*%
X138349200Y-90630800D03*
%TO.P,U1,43,21_A7_RX5_BCLK1_43*%
%TO.N,/RELAY15*%
X135809200Y-90630800D03*
%TO.P,U1,44,22_A8_CTX1_44*%
%TO.N,/Imon PS2*%
X133269200Y-90630800D03*
%TO.P,U1,45,23_A9_CRX1_MCLK1_45*%
%TO.N,/Imon PS1*%
X130729200Y-90630800D03*
%TO.P,U1,46,3V3_46*%
%TO.N,VMC+*%
X128189200Y-90630800D03*
%TO.P,U1,47,GND_47*%
%TO.N,GNDD*%
X125649200Y-90630800D03*
%TO.P,U1,48,VIN_48*%
%TO.N,+5V*%
X123109200Y-90630800D03*
%TO.P,U1,49,VUSB_49*%
%TO.N,unconnected-(U1-VUSB-Pad49)*%
X125649200Y-93170800D03*
D17*
%TO.P,U1,55,5V_55*%
%TO.N,unconnected-(U1-5V-Pad55)*%
X129408400Y-102820000D03*
D18*
%TO.P,U1,56,D-_56*%
%TO.N,unconnected-(U1-D--Pad56)*%
X131948400Y-102820000D03*
%TO.P,U1,57,D+_57*%
%TO.N,unconnected-(U1-D+-Pad57)*%
X134488400Y-102820000D03*
%TO.P,U1,58,GND_58*%
%TO.N,unconnected-(U1-GND-Pad58)*%
X137028400Y-102820000D03*
%TO.P,U1,59,GND_59*%
%TO.N,unconnected-(U1-GND-Pad59)*%
X139568400Y-102820000D03*
D19*
%TO.P,U1,60,R+_60*%
%TO.N,/ETH_RX+*%
X136079200Y-93069200D03*
D12*
%TO.P,U1,61,LED_61*%
%TO.N,/ETH_LED*%
X136079200Y-95069200D03*
%TO.P,U1,62,T-_62*%
%TO.N,/ETH_TX-*%
X136079200Y-97069200D03*
%TO.P,U1,63,T+_63*%
%TO.N,/ETH_TX+*%
X138079200Y-97069200D03*
%TO.P,U1,64,GND_64*%
%TO.N,GNDD*%
X138079200Y-95069200D03*
%TO.P,U1,65,R-_65*%
%TO.N,/ETH_RX-*%
X138079200Y-93069200D03*
%TO.P,U1,66,D-_66*%
%TO.N,unconnected-(U1-D--Pad66)*%
X123839200Y-96980800D03*
%TO.P,U1,67,D+_67*%
%TO.N,unconnected-(U1-D+-Pad67)*%
X123839200Y-99520800D03*
%TD*%
D20*
%TO.P,R1,1*%
%TO.N,Net-(LED1-A)*%
X119400000Y-75000000D03*
%TO.P,R1,2*%
%TO.N,VMC+*%
X117400000Y-75000000D03*
%TD*%
D21*
%TO.P,LED1,1,K_1*%
%TO.N,GNDD*%
X123600000Y-75000000D03*
%TO.P,LED1,2,A_2*%
%TO.N,Net-(LED1-A)*%
X122000000Y-75000000D03*
%TD*%
D11*
%TO.P,H1,1,1_1*%
%TO.N,GNDD*%
X107250000Y-60000000D03*
%TD*%
D22*
%TO.P,C1,1*%
%TO.N,GNDD*%
X139600000Y-69162500D03*
%TO.P,C1,2*%
%TO.N,Net-(J1-RCT)*%
X139600000Y-71237500D03*
%TD*%
D10*
%TO.P,TP3,1,1_1*%
%TO.N,VMC+*%
X122750000Y-69750000D03*
%TD*%
D23*
%TO.N,GNDD*%
X189800000Y-127000000D03*
X189800000Y-123000000D03*
X199000000Y-139500000D03*
X105000000Y-120500000D03*
X136000000Y-79500000D03*
X184000000Y-68000000D03*
X105000000Y-71500000D03*
X140000000Y-82500000D03*
X199000000Y-79500000D03*
X171509493Y-115242695D03*
X132000000Y-63000000D03*
X116000000Y-123500000D03*
X105000000Y-93500000D03*
X105000000Y-97500000D03*
X199000000Y-115500000D03*
X116000000Y-104500000D03*
X144500000Y-79500000D03*
X195000000Y-68000000D03*
X177000000Y-71000000D03*
X109000000Y-71500000D03*
X128000000Y-75500000D03*
X136000000Y-66500000D03*
X199000000Y-128500000D03*
X144500000Y-82500000D03*
X123600000Y-75000000D03*
X172000000Y-128500000D03*
X199000000Y-88500000D03*
X191000000Y-68000000D03*
X125000000Y-59000000D03*
X105000000Y-80000000D03*
X199000000Y-97000000D03*
X174500000Y-129900000D03*
X128000000Y-79500000D03*
X199000000Y-84500000D03*
X169000000Y-77000000D03*
X140000000Y-79500000D03*
X105000000Y-103500000D03*
X105000000Y-89000000D03*
X165000000Y-71000000D03*
X105000000Y-133000000D03*
X199000000Y-132500000D03*
X113000000Y-63000000D03*
X185300000Y-123000000D03*
X184000000Y-77000000D03*
X117000000Y-63000000D03*
X132000000Y-59000000D03*
X173000000Y-68000000D03*
X128000000Y-70500000D03*
X199000000Y-111500000D03*
X199000000Y-71000000D03*
X132000000Y-82500000D03*
X165000000Y-77000000D03*
X121000000Y-119000000D03*
X184000000Y-74000000D03*
X113000000Y-80000000D03*
X173000000Y-74000000D03*
X169000000Y-71000000D03*
X188000000Y-68000000D03*
X121000000Y-63000000D03*
X116000000Y-119000000D03*
X169000000Y-68000000D03*
X199000000Y-77000000D03*
X113000000Y-76000000D03*
X191000000Y-77000000D03*
X139500000Y-66500000D03*
X124500000Y-123500000D03*
X185300000Y-127000000D03*
X132000000Y-79500000D03*
X116000000Y-110500000D03*
X105000000Y-116000000D03*
X116000000Y-100500000D03*
X199000000Y-124000000D03*
X195000000Y-77000000D03*
X109000000Y-76000000D03*
X173000000Y-77000000D03*
X125000000Y-63000000D03*
X180000000Y-68000000D03*
X166000000Y-118000000D03*
X199000000Y-68000000D03*
X105000000Y-112000000D03*
X132000000Y-75500000D03*
X180000000Y-77000000D03*
X113000000Y-71500000D03*
X105000000Y-129000000D03*
X116000000Y-96000000D03*
X195000000Y-74000000D03*
X191000000Y-74000000D03*
X188000000Y-77000000D03*
X177000000Y-68000000D03*
X169000000Y-74000000D03*
X199000000Y-120000000D03*
X124500000Y-115000000D03*
X116000000Y-114500000D03*
X140000000Y-75500000D03*
X105000000Y-76000000D03*
X136000000Y-70500000D03*
X105000000Y-136000000D03*
X132000000Y-70500000D03*
X105000000Y-140000000D03*
X128000000Y-63000000D03*
X199000000Y-74000000D03*
X105000000Y-107500000D03*
X180000000Y-71000000D03*
X136000000Y-75500000D03*
X150000000Y-118000000D03*
X117000000Y-59000000D03*
X136000000Y-63000000D03*
X105000000Y-85000000D03*
X128000000Y-59000000D03*
X109000000Y-80000000D03*
X105000000Y-67500000D03*
X136000000Y-59000000D03*
X199000000Y-107000000D03*
X177000000Y-74000000D03*
X113000000Y-59000000D03*
X199000000Y-135500000D03*
X166500000Y-128500000D03*
X199000000Y-93000000D03*
X113000000Y-67500000D03*
X154000000Y-110500000D03*
X124500000Y-119000000D03*
X191000000Y-71000000D03*
X174500000Y-125400000D03*
X173000000Y-71000000D03*
X121000000Y-123500000D03*
X165000000Y-74000000D03*
X139600000Y-69200000D03*
X109000000Y-67500000D03*
X199000000Y-103000000D03*
X105000000Y-124500000D03*
X165000000Y-68000000D03*
X128000000Y-66500000D03*
X121000000Y-59000000D03*
X121000000Y-115000000D03*
X195000000Y-71000000D03*
X128000000Y-82500000D03*
X188000000Y-71000000D03*
X136000000Y-82500000D03*
X188000000Y-74000000D03*
X139500000Y-63000000D03*
X132000000Y-66500000D03*
X177000000Y-77000000D03*
X184000000Y-71000000D03*
X117750000Y-69750000D03*
X180000000Y-74000000D03*
%TO.N,+5V*%
X119250000Y-90750000D03*
%TO.N,/PUL2*%
X156625000Y-79125000D03*
%TO.N,/SCLLC*%
X151875000Y-81125000D03*
%TO.N,VMC+*%
X117400000Y-75000000D03*
X122750000Y-69750000D03*
%TO.N,/ENA2*%
X154375000Y-80125000D03*
%TO.N,/SDALC*%
X149525000Y-82275000D03*
%TD*%
%TO.N,/RELAY15*%
D24*
X131500000Y-85500000D02*
X135809200Y-89809200D01*
X108900000Y-90700000D02*
X114100000Y-85500000D01*
X135809200Y-89809200D02*
X135809200Y-90630800D01*
X120500000Y-138600000D02*
X114800000Y-138600000D01*
X121500000Y-135500000D02*
X121500000Y-137600000D01*
X121500000Y-137600000D02*
X120500000Y-138600000D01*
X108900000Y-132700000D02*
X108900000Y-90700000D01*
X114100000Y-85500000D02*
X131500000Y-85500000D01*
X114800000Y-138600000D02*
X108900000Y-132700000D01*
%TO.N,/RELAY16*%
X124040000Y-135500000D02*
X124040000Y-138260000D01*
X124040000Y-138260000D02*
X122300000Y-140000000D01*
X134200000Y-84300000D02*
X138349200Y-88449200D01*
X122300000Y-140000000D02*
X114200000Y-140000000D01*
X107700000Y-133500000D02*
X107700000Y-90300000D01*
X138349200Y-88449200D02*
X138349200Y-90630800D01*
X114200000Y-140000000D02*
X107700000Y-133500000D01*
X107700000Y-90300000D02*
X113700000Y-84300000D01*
X113700000Y-84300000D02*
X134200000Y-84300000D01*
%TO.N,/RELAY14*%
X128000000Y-107989200D02*
X128189200Y-107800000D01*
X128000000Y-134080000D02*
X128000000Y-107989200D01*
X126580000Y-135500000D02*
X128000000Y-134080000D01*
X128189200Y-107800000D02*
X128189200Y-105870800D01*
%TO.N,/RELAY13*%
X133269200Y-123330800D02*
X130400000Y-126200000D01*
X130400000Y-126200000D02*
X130400000Y-134220000D01*
X133269200Y-105870800D02*
X133269200Y-123330800D01*
X130400000Y-134220000D02*
X129120000Y-135500000D01*
%TO.N,/RELAY12*%
X133000000Y-134250000D02*
X133000000Y-127250000D01*
X131660000Y-135500000D02*
X131750000Y-135500000D01*
X131750000Y-135500000D02*
X133000000Y-134250000D01*
X133000000Y-127250000D02*
X138349200Y-121900800D01*
X138349200Y-121900800D02*
X138349200Y-105870800D01*
%TO.N,/RELAY11*%
X143429200Y-120570800D02*
X143429200Y-105870800D01*
X134200000Y-135500000D02*
X135450000Y-134250000D01*
X135500000Y-128500000D02*
X143429200Y-120570800D01*
X135450000Y-134250000D02*
X135500000Y-134250000D01*
X135500000Y-134250000D02*
X135500000Y-128500000D01*
%TO.N,/RELAY9*%
X138000000Y-129250000D02*
X138000000Y-134240000D01*
X148509200Y-105870800D02*
X148509200Y-118740800D01*
X148509200Y-118740800D02*
X138000000Y-129250000D01*
X136740000Y-135500000D02*
X138000000Y-134240000D01*
%TO.N,/RELAY8*%
X163749200Y-107250800D02*
X140495000Y-130505000D01*
X140495000Y-131245000D02*
X140500000Y-131250000D01*
X140500000Y-131250000D02*
X140500000Y-134280000D01*
X139280000Y-135500000D02*
X140500000Y-134280000D01*
X140495000Y-130505000D02*
X140495000Y-131245000D01*
X163749200Y-105870800D02*
X163749200Y-107250800D01*
%TO.N,/RELAY5*%
X168829200Y-105870800D02*
X168629200Y-105870800D01*
X166250000Y-108250000D02*
X165500000Y-108250000D01*
X165500000Y-108250000D02*
X143250000Y-130500000D01*
X141820000Y-135500000D02*
X143250000Y-134070000D01*
X168629200Y-105870800D02*
X166250000Y-108250000D01*
X143250000Y-130500000D02*
X143250000Y-134070000D01*
%TO.N,/RELAY3*%
X168780000Y-111000000D02*
X173909200Y-105870800D01*
X145750000Y-130750000D02*
X165500000Y-111000000D01*
X165500000Y-111000000D02*
X168780000Y-111000000D01*
X145750000Y-134110000D02*
X145750000Y-130750000D01*
X144360000Y-135500000D02*
X145750000Y-134110000D01*
%TO.N,/RELAY1*%
X166000000Y-113000000D02*
X148250000Y-130750000D01*
X172000000Y-113000000D02*
X166000000Y-113000000D01*
X148250000Y-130750000D02*
X148250000Y-134150000D01*
X178989200Y-105870800D02*
X178989200Y-106010800D01*
X146900000Y-135500000D02*
X148250000Y-134150000D01*
X178989200Y-106010800D02*
X172000000Y-113000000D01*
%TO.N,/ENA1*%
X149440000Y-135500000D02*
X151000000Y-133940000D01*
X183750000Y-107000000D02*
X170750000Y-120000000D01*
X170750000Y-120000000D02*
X161750000Y-120000000D01*
X183750000Y-97931600D02*
X183750000Y-107000000D01*
X176449200Y-90630800D02*
X183750000Y-97931600D01*
X151000000Y-130750000D02*
X151000000Y-133940000D01*
X161750000Y-120000000D02*
X151000000Y-130750000D01*
%TO.N,/DIR4*%
X151980000Y-135500000D02*
X153500000Y-133980000D01*
X185250000Y-107750000D02*
X171250000Y-121750000D01*
X185250000Y-94351600D02*
X185250000Y-107750000D01*
X162500000Y-121750000D02*
X153500000Y-130750000D01*
X181529200Y-90630800D02*
X185250000Y-94351600D01*
X171250000Y-121750000D02*
X162500000Y-121750000D01*
X153500000Y-130750000D02*
X153500000Y-133980000D01*
%TO.N,/PUL4*%
X186750000Y-90500000D02*
X186750000Y-108250000D01*
X163500000Y-123250000D02*
X156000000Y-130750000D01*
X171750000Y-123250000D02*
X163500000Y-123250000D01*
X154520000Y-135500000D02*
X156000000Y-134020000D01*
X156000000Y-130750000D02*
X156000000Y-134020000D01*
X173750000Y-88250000D02*
X184500000Y-88250000D01*
X186750000Y-108250000D02*
X171750000Y-123250000D01*
X184500000Y-88250000D02*
X186750000Y-90500000D01*
X171369200Y-90630800D02*
X173750000Y-88250000D01*
%TO.N,/ENA3*%
X158250000Y-134250000D02*
X158150000Y-134350000D01*
X188250000Y-108750000D02*
X172250000Y-124750000D01*
X158250000Y-131000000D02*
X158250000Y-134250000D01*
X188250000Y-89250000D02*
X188250000Y-108750000D01*
X164500000Y-124750000D02*
X158250000Y-131000000D01*
X157060000Y-135440000D02*
X157060000Y-135500000D01*
X158150000Y-134350000D02*
X157060000Y-135440000D01*
X170170000Y-86750000D02*
X185750000Y-86750000D01*
X172250000Y-124750000D02*
X164500000Y-124750000D01*
X166289200Y-90630800D02*
X170170000Y-86750000D01*
X185750000Y-86750000D02*
X188250000Y-89250000D01*
%TO.N,/DIR2*%
X161209200Y-90630800D02*
X166590000Y-85250000D01*
X172735000Y-126231116D02*
X165518884Y-126231116D01*
X166590000Y-85250000D02*
X186250000Y-85250000D01*
X161000000Y-130750000D02*
X161000000Y-134100000D01*
X159600000Y-135500000D02*
X161000000Y-134100000D01*
X189750000Y-109216116D02*
X172735000Y-126231116D01*
X165518884Y-126231116D02*
X161000000Y-130750000D01*
X189750000Y-88750000D02*
X189750000Y-109216116D01*
X186250000Y-85250000D02*
X189750000Y-88750000D01*
%TO.N,/PUL2*%
X157000000Y-78750000D02*
X188000000Y-78750000D01*
X197250000Y-88000000D02*
X197250000Y-137250000D01*
X194255000Y-140245000D02*
X165445000Y-140245000D01*
X188000000Y-78750000D02*
X197250000Y-88000000D01*
X156625000Y-79125000D02*
X157000000Y-78750000D01*
X197250000Y-137250000D02*
X194255000Y-140245000D01*
X162140000Y-136940000D02*
X162140000Y-135500000D01*
X165445000Y-140245000D02*
X162140000Y-136940000D01*
%TO.N,/SCLLC*%
X194800000Y-136400000D02*
X192200000Y-139000000D01*
X152250000Y-80750000D02*
X187750000Y-80750000D01*
X192200000Y-139000000D02*
X166900000Y-139000000D01*
X151875000Y-81125000D02*
X152250000Y-80750000D01*
X164680000Y-136780000D02*
X164680000Y-135500000D01*
X187750000Y-80750000D02*
X194800000Y-87800000D01*
X194800000Y-87800000D02*
X194800000Y-136400000D01*
X166900000Y-139000000D02*
X164680000Y-136780000D01*
%TO.N,/SCLTC*%
X174840000Y-135500000D02*
X174840000Y-135640000D01*
X148520000Y-83000000D02*
X140889200Y-90630800D01*
X187500000Y-83000000D02*
X148520000Y-83000000D01*
X193000000Y-88500000D02*
X187500000Y-83000000D01*
X190600000Y-137800000D02*
X193000000Y-135400000D01*
X193000000Y-135400000D02*
X193000000Y-88500000D01*
X174840000Y-135640000D02*
X177000000Y-137800000D01*
X177000000Y-137800000D02*
X190600000Y-137800000D01*
%TO.N,/SDATC*%
X150310000Y-83750000D02*
X187000000Y-83750000D01*
X143429200Y-90630800D02*
X150310000Y-83750000D01*
X192000000Y-88750000D02*
X192000000Y-135000000D01*
X187000000Y-83750000D02*
X192000000Y-88750000D01*
X179080000Y-137200000D02*
X177380000Y-135500000D01*
X192000000Y-135000000D02*
X189800000Y-137200000D01*
X189800000Y-137200000D02*
X179080000Y-137200000D01*
%TO.N,/Imon PS1*%
X116900000Y-87700000D02*
X113200000Y-91400000D01*
X113200000Y-91400000D02*
X113200000Y-124900000D01*
X121260000Y-132960000D02*
X121500000Y-132960000D01*
X130729200Y-90630800D02*
X130729200Y-88829200D01*
X129600000Y-87700000D02*
X116900000Y-87700000D01*
X130729200Y-88829200D02*
X129600000Y-87700000D01*
X113200000Y-124900000D02*
X121260000Y-132960000D01*
%TO.N,/Imon PS2*%
X122700000Y-134300000D02*
X124040000Y-132960000D01*
X110600000Y-124900000D02*
X120000000Y-134300000D01*
X130900000Y-86700000D02*
X114700000Y-86700000D01*
X114700000Y-86700000D02*
X110600000Y-90800000D01*
X133269200Y-89069200D02*
X130900000Y-86700000D01*
X133269200Y-90630800D02*
X133269200Y-89069200D01*
X120000000Y-134300000D02*
X122700000Y-134300000D01*
X110600000Y-90800000D02*
X110600000Y-124900000D01*
%TO.N,/GPIO1*%
X126580000Y-106801600D02*
X125649200Y-105870800D01*
X126580000Y-132960000D02*
X126580000Y-106801600D01*
%TO.N,/GPIO2*%
X130750000Y-123500000D02*
X130750000Y-105891600D01*
X129120000Y-132960000D02*
X129120000Y-125130000D01*
X130750000Y-105891600D02*
X130729200Y-105870800D01*
X129120000Y-125130000D02*
X130750000Y-123500000D01*
%TO.N,/GPIO3*%
X135750000Y-105930000D02*
X135809200Y-105870800D01*
X131660000Y-132960000D02*
X131660000Y-126590000D01*
X135750000Y-122500000D02*
X135750000Y-105930000D01*
X131660000Y-126590000D02*
X135750000Y-122500000D01*
%TO.N,/GPIO4*%
X141000000Y-105981600D02*
X140889200Y-105870800D01*
X134200000Y-132960000D02*
X134200000Y-127800000D01*
X141000000Y-121000000D02*
X141000000Y-105981600D01*
X134200000Y-127800000D02*
X141000000Y-121000000D01*
%TO.N,/RELAY10*%
X136740000Y-132960000D02*
X136740000Y-129010000D01*
X146000000Y-119750000D02*
X146000000Y-105901600D01*
X136740000Y-129010000D02*
X146000000Y-119750000D01*
X146000000Y-105901600D02*
X145969200Y-105870800D01*
%TO.N,/RELAY7*%
X161209200Y-108540800D02*
X139280000Y-130470000D01*
X161209200Y-105870800D02*
X161209200Y-108540800D01*
X139280000Y-130470000D02*
X139280000Y-132960000D01*
%TO.N,/RELAY6*%
X141820000Y-130680000D02*
X142000000Y-130500000D01*
X166289200Y-105870800D02*
X166289200Y-106210800D01*
X166289200Y-106210800D02*
X142000000Y-130500000D01*
X141820000Y-132960000D02*
X141820000Y-130680000D01*
%TO.N,/RELAY4*%
X171369200Y-105870800D02*
X171369200Y-106130800D01*
X168000000Y-109500000D02*
X165500000Y-109500000D01*
X144360000Y-130640000D02*
X144500000Y-130500000D01*
X144360000Y-132960000D02*
X144360000Y-130640000D01*
X165500000Y-109500000D02*
X144500000Y-130500000D01*
X171369200Y-106130800D02*
X168000000Y-109500000D01*
%TO.N,/RELAY2*%
X146900000Y-130850000D02*
X147000000Y-130750000D01*
X165750000Y-112000000D02*
X147000000Y-130750000D01*
X146900000Y-132960000D02*
X146900000Y-130850000D01*
X176449200Y-106050800D02*
X170500000Y-112000000D01*
X170500000Y-112000000D02*
X165750000Y-112000000D01*
X176449200Y-105870800D02*
X176449200Y-106050800D01*
%TO.N,/DIR1*%
X181529200Y-105870800D02*
X181129200Y-105870800D01*
X149440000Y-132960000D02*
X149440000Y-131060000D01*
X173250000Y-113750000D02*
X166750000Y-113750000D01*
X166750000Y-113750000D02*
X149500000Y-131000000D01*
X149440000Y-131060000D02*
X149500000Y-131000000D01*
X181129200Y-105870800D02*
X173250000Y-113750000D01*
%TO.N,/PUL1*%
X162500000Y-120750000D02*
X152000000Y-131250000D01*
X151980000Y-132960000D02*
X151980000Y-131270000D01*
X171250000Y-120750000D02*
X162500000Y-120750000D01*
X178989200Y-90630800D02*
X184500000Y-96141600D01*
X184500000Y-107500000D02*
X171250000Y-120750000D01*
X184500000Y-96141600D02*
X184500000Y-107500000D01*
X151980000Y-131270000D02*
X152000000Y-131250000D01*
%TO.N,/ENA4*%
X183750000Y-89000000D02*
X186000000Y-91250000D01*
X154520000Y-132960000D02*
X154520000Y-131230000D01*
X171500000Y-122500000D02*
X163250000Y-122500000D01*
X186000000Y-108000000D02*
X171500000Y-122500000D01*
X163250000Y-122500000D02*
X154520000Y-131230000D01*
X173909200Y-90630800D02*
X175540000Y-89000000D01*
X186000000Y-91250000D02*
X186000000Y-108000000D01*
X175540000Y-89000000D02*
X183750000Y-89000000D01*
%TO.N,/DIR3*%
X187500000Y-108500000D02*
X172000000Y-124000000D01*
X185000000Y-87500000D02*
X187500000Y-90000000D01*
X172000000Y-124000000D02*
X164000000Y-124000000D01*
X171960000Y-87500000D02*
X185000000Y-87500000D01*
X168829200Y-90630800D02*
X171960000Y-87500000D01*
X157060000Y-132960000D02*
X157060000Y-130940000D01*
X164000000Y-124000000D02*
X157060000Y-130940000D01*
X187500000Y-90000000D02*
X187500000Y-108500000D01*
%TO.N,/PUL3*%
X165000000Y-125500000D02*
X159750000Y-130750000D01*
X172500000Y-125500000D02*
X165000000Y-125500000D01*
X189000000Y-89000000D02*
X189000000Y-109000000D01*
X159600000Y-130900000D02*
X159750000Y-130750000D01*
X163749200Y-90630800D02*
X168380000Y-86000000D01*
X186000000Y-86000000D02*
X189000000Y-89000000D01*
X168380000Y-86000000D02*
X186000000Y-86000000D01*
X159600000Y-132960000D02*
X159600000Y-130900000D01*
X189000000Y-109000000D02*
X172500000Y-125500000D01*
%TO.N,/ENA2*%
X154375000Y-80125000D02*
X154750000Y-79750000D01*
X196000000Y-137000000D02*
X193400000Y-139600000D01*
X188000000Y-79750000D02*
X196000000Y-87750000D01*
X163600000Y-136600000D02*
X163600000Y-134420000D01*
X196000000Y-87750000D02*
X196000000Y-137000000D01*
X163600000Y-134420000D02*
X162140000Y-132960000D01*
X154750000Y-79750000D02*
X188000000Y-79750000D01*
X193400000Y-139600000D02*
X166600000Y-139600000D01*
X166600000Y-139600000D02*
X163600000Y-136600000D01*
%TO.N,/SDALC*%
X150050000Y-81750000D02*
X187500000Y-81750000D01*
X166000000Y-136800000D02*
X166000000Y-134280000D01*
X166000000Y-134280000D02*
X164680000Y-132960000D01*
X191200000Y-138400000D02*
X167600000Y-138400000D01*
X194000000Y-135600000D02*
X191200000Y-138400000D01*
X149525000Y-82275000D02*
X150050000Y-81750000D01*
X167600000Y-138400000D02*
X166000000Y-136800000D01*
X194000000Y-88250000D02*
X194000000Y-135600000D01*
X187500000Y-81750000D02*
X194000000Y-88250000D01*
%TO.N,Net-(J1-RCT)*%
D25*
X155000000Y-75065000D02*
X153610000Y-73675000D01*
X139637500Y-71200000D02*
X139600000Y-71237500D01*
X149865000Y-71200000D02*
X139637500Y-71200000D01*
X152340000Y-73675000D02*
X149865000Y-71200000D01*
X153610000Y-73675000D02*
X152340000Y-73675000D01*
%TO.N,/ETH_LED*%
D24*
X136079200Y-95069200D02*
X137104200Y-94044200D01*
X157800000Y-75800000D02*
X157800000Y-71400000D01*
X155400000Y-69000000D02*
X155400000Y-65080000D01*
X155400000Y-65080000D02*
X158465000Y-62015000D01*
X150974569Y-78000000D02*
X155600000Y-78000000D01*
X137104200Y-94044200D02*
X138755800Y-94044200D01*
X139764200Y-89210369D02*
X150974569Y-78000000D01*
X139764200Y-93035800D02*
X139764200Y-89210369D01*
X155600000Y-78000000D02*
X157800000Y-75800000D01*
X138755800Y-94044200D02*
X139764200Y-93035800D01*
X157800000Y-71400000D02*
X155400000Y-69000000D01*
%TO.N,Net-(LED1-A)*%
D25*
X119400000Y-75000000D02*
X122000000Y-75000000D01*
%TD*%
M02*
