G04 #@! TF.GenerationSoftware,KiCad,Pcbnew,9.0.7*
G04 #@! TF.CreationDate,2026-01-19T10:35:43-06:00*
G04 #@! TF.ProjectId,Teensy_Daughtercard,5465656e-7379-45f4-9461-756768746572,rev?*
G04 #@! TF.SameCoordinates,Original*
G04 #@! TF.FileFunction,Legend,Top*
G04 #@! TF.FilePolarity,Positive*
%FSLAX46Y46*%
G04 Gerber Fmt 4.6, Leading zero omitted, Abs format (unit mm)*
G04 Created by KiCad (PCBNEW 9.0.7) date 2026-01-19 10:35:43*
%MOMM*%
%LPD*%
G01*
G04 APERTURE LIST*
%ADD10C,0.300000*%
%ADD11C,0.254000*%
%ADD12C,0.150000*%
%ADD13C,0.100000*%
%ADD14C,0.200000*%
%ADD15C,0.000000*%
G04 APERTURE END LIST*
D10*
X185071429Y-124970996D02*
X185928572Y-124970996D01*
X185500000Y-126470996D02*
X185500000Y-124970996D01*
X187000000Y-126399568D02*
X186857143Y-126470996D01*
X186857143Y-126470996D02*
X186571429Y-126470996D01*
X186571429Y-126470996D02*
X186428571Y-126399568D01*
X186428571Y-126399568D02*
X186357143Y-126256710D01*
X186357143Y-126256710D02*
X186357143Y-125685282D01*
X186357143Y-125685282D02*
X186428571Y-125542425D01*
X186428571Y-125542425D02*
X186571429Y-125470996D01*
X186571429Y-125470996D02*
X186857143Y-125470996D01*
X186857143Y-125470996D02*
X187000000Y-125542425D01*
X187000000Y-125542425D02*
X187071429Y-125685282D01*
X187071429Y-125685282D02*
X187071429Y-125828139D01*
X187071429Y-125828139D02*
X186357143Y-125970996D01*
X188285714Y-126399568D02*
X188142857Y-126470996D01*
X188142857Y-126470996D02*
X187857143Y-126470996D01*
X187857143Y-126470996D02*
X187714285Y-126399568D01*
X187714285Y-126399568D02*
X187642857Y-126256710D01*
X187642857Y-126256710D02*
X187642857Y-125685282D01*
X187642857Y-125685282D02*
X187714285Y-125542425D01*
X187714285Y-125542425D02*
X187857143Y-125470996D01*
X187857143Y-125470996D02*
X188142857Y-125470996D01*
X188142857Y-125470996D02*
X188285714Y-125542425D01*
X188285714Y-125542425D02*
X188357143Y-125685282D01*
X188357143Y-125685282D02*
X188357143Y-125828139D01*
X188357143Y-125828139D02*
X187642857Y-125970996D01*
X188999999Y-125470996D02*
X188999999Y-126470996D01*
X188999999Y-125613853D02*
X189071428Y-125542425D01*
X189071428Y-125542425D02*
X189214285Y-125470996D01*
X189214285Y-125470996D02*
X189428571Y-125470996D01*
X189428571Y-125470996D02*
X189571428Y-125542425D01*
X189571428Y-125542425D02*
X189642857Y-125685282D01*
X189642857Y-125685282D02*
X189642857Y-126470996D01*
X190285714Y-126399568D02*
X190428571Y-126470996D01*
X190428571Y-126470996D02*
X190714285Y-126470996D01*
X190714285Y-126470996D02*
X190857142Y-126399568D01*
X190857142Y-126399568D02*
X190928571Y-126256710D01*
X190928571Y-126256710D02*
X190928571Y-126185282D01*
X190928571Y-126185282D02*
X190857142Y-126042425D01*
X190857142Y-126042425D02*
X190714285Y-125970996D01*
X190714285Y-125970996D02*
X190500000Y-125970996D01*
X190500000Y-125970996D02*
X190357142Y-125899568D01*
X190357142Y-125899568D02*
X190285714Y-125756710D01*
X190285714Y-125756710D02*
X190285714Y-125685282D01*
X190285714Y-125685282D02*
X190357142Y-125542425D01*
X190357142Y-125542425D02*
X190500000Y-125470996D01*
X190500000Y-125470996D02*
X190714285Y-125470996D01*
X190714285Y-125470996D02*
X190857142Y-125542425D01*
X191428571Y-125470996D02*
X191785714Y-126470996D01*
X192142857Y-125470996D02*
X191785714Y-126470996D01*
X191785714Y-126470996D02*
X191642857Y-126828139D01*
X191642857Y-126828139D02*
X191571428Y-126899568D01*
X191571428Y-126899568D02*
X191428571Y-126970996D01*
X193357143Y-125470996D02*
X193357143Y-126470996D01*
X193000000Y-124899568D02*
X192642857Y-125970996D01*
X192642857Y-125970996D02*
X193571428Y-125970996D01*
X194142856Y-126328139D02*
X194214285Y-126399568D01*
X194214285Y-126399568D02*
X194142856Y-126470996D01*
X194142856Y-126470996D02*
X194071428Y-126399568D01*
X194071428Y-126399568D02*
X194142856Y-126328139D01*
X194142856Y-126328139D02*
X194142856Y-126470996D01*
X195642857Y-126470996D02*
X194785714Y-126470996D01*
X195214285Y-126470996D02*
X195214285Y-124970996D01*
X195214285Y-124970996D02*
X195071428Y-125185282D01*
X195071428Y-125185282D02*
X194928571Y-125328139D01*
X194928571Y-125328139D02*
X194785714Y-125399568D01*
X183321428Y-128885912D02*
X183321428Y-127385912D01*
X183321428Y-127385912D02*
X183678571Y-127385912D01*
X183678571Y-127385912D02*
X183892857Y-127457341D01*
X183892857Y-127457341D02*
X184035714Y-127600198D01*
X184035714Y-127600198D02*
X184107143Y-127743055D01*
X184107143Y-127743055D02*
X184178571Y-128028769D01*
X184178571Y-128028769D02*
X184178571Y-128243055D01*
X184178571Y-128243055D02*
X184107143Y-128528769D01*
X184107143Y-128528769D02*
X184035714Y-128671626D01*
X184035714Y-128671626D02*
X183892857Y-128814484D01*
X183892857Y-128814484D02*
X183678571Y-128885912D01*
X183678571Y-128885912D02*
X183321428Y-128885912D01*
X185464286Y-128885912D02*
X185464286Y-128100198D01*
X185464286Y-128100198D02*
X185392857Y-127957341D01*
X185392857Y-127957341D02*
X185250000Y-127885912D01*
X185250000Y-127885912D02*
X184964286Y-127885912D01*
X184964286Y-127885912D02*
X184821428Y-127957341D01*
X185464286Y-128814484D02*
X185321428Y-128885912D01*
X185321428Y-128885912D02*
X184964286Y-128885912D01*
X184964286Y-128885912D02*
X184821428Y-128814484D01*
X184821428Y-128814484D02*
X184750000Y-128671626D01*
X184750000Y-128671626D02*
X184750000Y-128528769D01*
X184750000Y-128528769D02*
X184821428Y-128385912D01*
X184821428Y-128385912D02*
X184964286Y-128314484D01*
X184964286Y-128314484D02*
X185321428Y-128314484D01*
X185321428Y-128314484D02*
X185464286Y-128243055D01*
X186821429Y-127885912D02*
X186821429Y-128885912D01*
X186178571Y-127885912D02*
X186178571Y-128671626D01*
X186178571Y-128671626D02*
X186250000Y-128814484D01*
X186250000Y-128814484D02*
X186392857Y-128885912D01*
X186392857Y-128885912D02*
X186607143Y-128885912D01*
X186607143Y-128885912D02*
X186750000Y-128814484D01*
X186750000Y-128814484D02*
X186821429Y-128743055D01*
X188178572Y-127885912D02*
X188178572Y-129100198D01*
X188178572Y-129100198D02*
X188107143Y-129243055D01*
X188107143Y-129243055D02*
X188035714Y-129314484D01*
X188035714Y-129314484D02*
X187892857Y-129385912D01*
X187892857Y-129385912D02*
X187678572Y-129385912D01*
X187678572Y-129385912D02*
X187535714Y-129314484D01*
X188178572Y-128814484D02*
X188035714Y-128885912D01*
X188035714Y-128885912D02*
X187750000Y-128885912D01*
X187750000Y-128885912D02*
X187607143Y-128814484D01*
X187607143Y-128814484D02*
X187535714Y-128743055D01*
X187535714Y-128743055D02*
X187464286Y-128600198D01*
X187464286Y-128600198D02*
X187464286Y-128171626D01*
X187464286Y-128171626D02*
X187535714Y-128028769D01*
X187535714Y-128028769D02*
X187607143Y-127957341D01*
X187607143Y-127957341D02*
X187750000Y-127885912D01*
X187750000Y-127885912D02*
X188035714Y-127885912D01*
X188035714Y-127885912D02*
X188178572Y-127957341D01*
X188892857Y-128885912D02*
X188892857Y-127385912D01*
X189535715Y-128885912D02*
X189535715Y-128100198D01*
X189535715Y-128100198D02*
X189464286Y-127957341D01*
X189464286Y-127957341D02*
X189321429Y-127885912D01*
X189321429Y-127885912D02*
X189107143Y-127885912D01*
X189107143Y-127885912D02*
X188964286Y-127957341D01*
X188964286Y-127957341D02*
X188892857Y-128028769D01*
X190035715Y-127885912D02*
X190607143Y-127885912D01*
X190250000Y-127385912D02*
X190250000Y-128671626D01*
X190250000Y-128671626D02*
X190321429Y-128814484D01*
X190321429Y-128814484D02*
X190464286Y-128885912D01*
X190464286Y-128885912D02*
X190607143Y-128885912D01*
X191678572Y-128814484D02*
X191535715Y-128885912D01*
X191535715Y-128885912D02*
X191250001Y-128885912D01*
X191250001Y-128885912D02*
X191107143Y-128814484D01*
X191107143Y-128814484D02*
X191035715Y-128671626D01*
X191035715Y-128671626D02*
X191035715Y-128100198D01*
X191035715Y-128100198D02*
X191107143Y-127957341D01*
X191107143Y-127957341D02*
X191250001Y-127885912D01*
X191250001Y-127885912D02*
X191535715Y-127885912D01*
X191535715Y-127885912D02*
X191678572Y-127957341D01*
X191678572Y-127957341D02*
X191750001Y-128100198D01*
X191750001Y-128100198D02*
X191750001Y-128243055D01*
X191750001Y-128243055D02*
X191035715Y-128385912D01*
X192392857Y-128885912D02*
X192392857Y-127885912D01*
X192392857Y-128171626D02*
X192464286Y-128028769D01*
X192464286Y-128028769D02*
X192535715Y-127957341D01*
X192535715Y-127957341D02*
X192678572Y-127885912D01*
X192678572Y-127885912D02*
X192821429Y-127885912D01*
X193964286Y-128814484D02*
X193821428Y-128885912D01*
X193821428Y-128885912D02*
X193535714Y-128885912D01*
X193535714Y-128885912D02*
X193392857Y-128814484D01*
X193392857Y-128814484D02*
X193321428Y-128743055D01*
X193321428Y-128743055D02*
X193250000Y-128600198D01*
X193250000Y-128600198D02*
X193250000Y-128171626D01*
X193250000Y-128171626D02*
X193321428Y-128028769D01*
X193321428Y-128028769D02*
X193392857Y-127957341D01*
X193392857Y-127957341D02*
X193535714Y-127885912D01*
X193535714Y-127885912D02*
X193821428Y-127885912D01*
X193821428Y-127885912D02*
X193964286Y-127957341D01*
X195250000Y-128885912D02*
X195250000Y-128100198D01*
X195250000Y-128100198D02*
X195178571Y-127957341D01*
X195178571Y-127957341D02*
X195035714Y-127885912D01*
X195035714Y-127885912D02*
X194750000Y-127885912D01*
X194750000Y-127885912D02*
X194607142Y-127957341D01*
X195250000Y-128814484D02*
X195107142Y-128885912D01*
X195107142Y-128885912D02*
X194750000Y-128885912D01*
X194750000Y-128885912D02*
X194607142Y-128814484D01*
X194607142Y-128814484D02*
X194535714Y-128671626D01*
X194535714Y-128671626D02*
X194535714Y-128528769D01*
X194535714Y-128528769D02*
X194607142Y-128385912D01*
X194607142Y-128385912D02*
X194750000Y-128314484D01*
X194750000Y-128314484D02*
X195107142Y-128314484D01*
X195107142Y-128314484D02*
X195250000Y-128243055D01*
X195964285Y-128885912D02*
X195964285Y-127885912D01*
X195964285Y-128171626D02*
X196035714Y-128028769D01*
X196035714Y-128028769D02*
X196107143Y-127957341D01*
X196107143Y-127957341D02*
X196250000Y-127885912D01*
X196250000Y-127885912D02*
X196392857Y-127885912D01*
X197535714Y-128885912D02*
X197535714Y-127385912D01*
X197535714Y-128814484D02*
X197392856Y-128885912D01*
X197392856Y-128885912D02*
X197107142Y-128885912D01*
X197107142Y-128885912D02*
X196964285Y-128814484D01*
X196964285Y-128814484D02*
X196892856Y-128743055D01*
X196892856Y-128743055D02*
X196821428Y-128600198D01*
X196821428Y-128600198D02*
X196821428Y-128171626D01*
X196821428Y-128171626D02*
X196892856Y-128028769D01*
X196892856Y-128028769D02*
X196964285Y-127957341D01*
X196964285Y-127957341D02*
X197107142Y-127885912D01*
X197107142Y-127885912D02*
X197392856Y-127885912D01*
X197392856Y-127885912D02*
X197535714Y-127957341D01*
X188142857Y-130300828D02*
X188500000Y-131300828D01*
X188500000Y-131300828D02*
X188857143Y-130300828D01*
X189714286Y-129800828D02*
X189857143Y-129800828D01*
X189857143Y-129800828D02*
X190000000Y-129872257D01*
X190000000Y-129872257D02*
X190071429Y-129943685D01*
X190071429Y-129943685D02*
X190142857Y-130086542D01*
X190142857Y-130086542D02*
X190214286Y-130372257D01*
X190214286Y-130372257D02*
X190214286Y-130729400D01*
X190214286Y-130729400D02*
X190142857Y-131015114D01*
X190142857Y-131015114D02*
X190071429Y-131157971D01*
X190071429Y-131157971D02*
X190000000Y-131229400D01*
X190000000Y-131229400D02*
X189857143Y-131300828D01*
X189857143Y-131300828D02*
X189714286Y-131300828D01*
X189714286Y-131300828D02*
X189571429Y-131229400D01*
X189571429Y-131229400D02*
X189500000Y-131157971D01*
X189500000Y-131157971D02*
X189428571Y-131015114D01*
X189428571Y-131015114D02*
X189357143Y-130729400D01*
X189357143Y-130729400D02*
X189357143Y-130372257D01*
X189357143Y-130372257D02*
X189428571Y-130086542D01*
X189428571Y-130086542D02*
X189500000Y-129943685D01*
X189500000Y-129943685D02*
X189571429Y-129872257D01*
X189571429Y-129872257D02*
X189714286Y-129800828D01*
X190857142Y-131157971D02*
X190928571Y-131229400D01*
X190928571Y-131229400D02*
X190857142Y-131300828D01*
X190857142Y-131300828D02*
X190785714Y-131229400D01*
X190785714Y-131229400D02*
X190857142Y-131157971D01*
X190857142Y-131157971D02*
X190857142Y-131300828D01*
X192357143Y-131300828D02*
X191500000Y-131300828D01*
X191928571Y-131300828D02*
X191928571Y-129800828D01*
X191928571Y-129800828D02*
X191785714Y-130015114D01*
X191785714Y-130015114D02*
X191642857Y-130157971D01*
X191642857Y-130157971D02*
X191500000Y-130229400D01*
X193785714Y-131300828D02*
X192928571Y-131300828D01*
X193357142Y-131300828D02*
X193357142Y-129800828D01*
X193357142Y-129800828D02*
X193214285Y-130015114D01*
X193214285Y-130015114D02*
X193071428Y-130157971D01*
X193071428Y-130157971D02*
X192928571Y-130229400D01*
D11*
X151926667Y-121704318D02*
X151926667Y-122611461D01*
X151926667Y-122611461D02*
X151866190Y-122792889D01*
X151866190Y-122792889D02*
X151745238Y-122913842D01*
X151745238Y-122913842D02*
X151563809Y-122974318D01*
X151563809Y-122974318D02*
X151442857Y-122974318D01*
X153196667Y-122974318D02*
X152470952Y-122974318D01*
X152833809Y-122974318D02*
X152833809Y-121704318D01*
X152833809Y-121704318D02*
X152712857Y-121885746D01*
X152712857Y-121885746D02*
X152591905Y-122006699D01*
X152591905Y-122006699D02*
X152470952Y-122067175D01*
X138538333Y-59953365D02*
X138477857Y-60013842D01*
X138477857Y-60013842D02*
X138296428Y-60074318D01*
X138296428Y-60074318D02*
X138175476Y-60074318D01*
X138175476Y-60074318D02*
X137994047Y-60013842D01*
X137994047Y-60013842D02*
X137873095Y-59892889D01*
X137873095Y-59892889D02*
X137812618Y-59771937D01*
X137812618Y-59771937D02*
X137752142Y-59530032D01*
X137752142Y-59530032D02*
X137752142Y-59348603D01*
X137752142Y-59348603D02*
X137812618Y-59106699D01*
X137812618Y-59106699D02*
X137873095Y-58985746D01*
X137873095Y-58985746D02*
X137994047Y-58864794D01*
X137994047Y-58864794D02*
X138175476Y-58804318D01*
X138175476Y-58804318D02*
X138296428Y-58804318D01*
X138296428Y-58804318D02*
X138477857Y-58864794D01*
X138477857Y-58864794D02*
X138538333Y-58925270D01*
X139747857Y-60074318D02*
X139022142Y-60074318D01*
X139384999Y-60074318D02*
X139384999Y-58804318D01*
X139384999Y-58804318D02*
X139264047Y-58985746D01*
X139264047Y-58985746D02*
X139143095Y-59106699D01*
X139143095Y-59106699D02*
X139022142Y-59167175D01*
D12*
X151468095Y-79414819D02*
X151468095Y-80224342D01*
X151468095Y-80224342D02*
X151515714Y-80319580D01*
X151515714Y-80319580D02*
X151563333Y-80367200D01*
X151563333Y-80367200D02*
X151658571Y-80414819D01*
X151658571Y-80414819D02*
X151849047Y-80414819D01*
X151849047Y-80414819D02*
X151944285Y-80367200D01*
X151944285Y-80367200D02*
X151991904Y-80319580D01*
X151991904Y-80319580D02*
X152039523Y-80224342D01*
X152039523Y-80224342D02*
X152039523Y-79414819D01*
X153039523Y-80414819D02*
X152468095Y-80414819D01*
X152753809Y-80414819D02*
X152753809Y-79414819D01*
X152753809Y-79414819D02*
X152658571Y-79557676D01*
X152658571Y-79557676D02*
X152563333Y-79652914D01*
X152563333Y-79652914D02*
X152468095Y-79700533D01*
X151322295Y-93203333D02*
X150522295Y-93203333D01*
X150522295Y-93203333D02*
X151093723Y-92970000D01*
X151093723Y-92970000D02*
X150522295Y-92736666D01*
X150522295Y-92736666D02*
X151322295Y-92736666D01*
X151322295Y-92403333D02*
X150522295Y-92403333D01*
X151322295Y-92070000D02*
X150522295Y-92070000D01*
X150522295Y-92070000D02*
X151093723Y-91836667D01*
X151093723Y-91836667D02*
X150522295Y-91603333D01*
X150522295Y-91603333D02*
X151322295Y-91603333D01*
X150522295Y-91336667D02*
X151322295Y-90870000D01*
X150522295Y-90870000D02*
X151322295Y-91336667D01*
X151322295Y-90203333D02*
X150941342Y-90436666D01*
X151322295Y-90603333D02*
X150522295Y-90603333D01*
X150522295Y-90603333D02*
X150522295Y-90336666D01*
X150522295Y-90336666D02*
X150560390Y-90270000D01*
X150560390Y-90270000D02*
X150598485Y-90236666D01*
X150598485Y-90236666D02*
X150674676Y-90203333D01*
X150674676Y-90203333D02*
X150788961Y-90203333D01*
X150788961Y-90203333D02*
X150865152Y-90236666D01*
X150865152Y-90236666D02*
X150903247Y-90270000D01*
X150903247Y-90270000D02*
X150941342Y-90336666D01*
X150941342Y-90336666D02*
X150941342Y-90603333D01*
X150522295Y-90003333D02*
X150522295Y-89603333D01*
X151322295Y-89803333D02*
X150522295Y-89803333D01*
X151322295Y-89003333D02*
X151322295Y-89403333D01*
X151322295Y-89203333D02*
X150522295Y-89203333D01*
X150522295Y-89203333D02*
X150636580Y-89270000D01*
X150636580Y-89270000D02*
X150712771Y-89336667D01*
X150712771Y-89336667D02*
X150750866Y-89403333D01*
X150522295Y-88570000D02*
X150522295Y-88503333D01*
X150522295Y-88503333D02*
X150560390Y-88436666D01*
X150560390Y-88436666D02*
X150598485Y-88403333D01*
X150598485Y-88403333D02*
X150674676Y-88370000D01*
X150674676Y-88370000D02*
X150827057Y-88336666D01*
X150827057Y-88336666D02*
X151017533Y-88336666D01*
X151017533Y-88336666D02*
X151169914Y-88370000D01*
X151169914Y-88370000D02*
X151246104Y-88403333D01*
X151246104Y-88403333D02*
X151284200Y-88436666D01*
X151284200Y-88436666D02*
X151322295Y-88503333D01*
X151322295Y-88503333D02*
X151322295Y-88570000D01*
X151322295Y-88570000D02*
X151284200Y-88636666D01*
X151284200Y-88636666D02*
X151246104Y-88670000D01*
X151246104Y-88670000D02*
X151169914Y-88703333D01*
X151169914Y-88703333D02*
X151017533Y-88736666D01*
X151017533Y-88736666D02*
X150827057Y-88736666D01*
X150827057Y-88736666D02*
X150674676Y-88703333D01*
X150674676Y-88703333D02*
X150598485Y-88670000D01*
X150598485Y-88670000D02*
X150560390Y-88636666D01*
X150560390Y-88636666D02*
X150522295Y-88570000D01*
X150522295Y-87736666D02*
X150522295Y-87869999D01*
X150522295Y-87869999D02*
X150560390Y-87936666D01*
X150560390Y-87936666D02*
X150598485Y-87969999D01*
X150598485Y-87969999D02*
X150712771Y-88036666D01*
X150712771Y-88036666D02*
X150865152Y-88069999D01*
X150865152Y-88069999D02*
X151169914Y-88069999D01*
X151169914Y-88069999D02*
X151246104Y-88036666D01*
X151246104Y-88036666D02*
X151284200Y-88003333D01*
X151284200Y-88003333D02*
X151322295Y-87936666D01*
X151322295Y-87936666D02*
X151322295Y-87803333D01*
X151322295Y-87803333D02*
X151284200Y-87736666D01*
X151284200Y-87736666D02*
X151246104Y-87703333D01*
X151246104Y-87703333D02*
X151169914Y-87669999D01*
X151169914Y-87669999D02*
X150979438Y-87669999D01*
X150979438Y-87669999D02*
X150903247Y-87703333D01*
X150903247Y-87703333D02*
X150865152Y-87736666D01*
X150865152Y-87736666D02*
X150827057Y-87803333D01*
X150827057Y-87803333D02*
X150827057Y-87936666D01*
X150827057Y-87936666D02*
X150865152Y-88003333D01*
X150865152Y-88003333D02*
X150903247Y-88036666D01*
X150903247Y-88036666D02*
X150979438Y-88069999D01*
X150598485Y-87403332D02*
X150560390Y-87369999D01*
X150560390Y-87369999D02*
X150522295Y-87303332D01*
X150522295Y-87303332D02*
X150522295Y-87136666D01*
X150522295Y-87136666D02*
X150560390Y-87069999D01*
X150560390Y-87069999D02*
X150598485Y-87036666D01*
X150598485Y-87036666D02*
X150674676Y-87003332D01*
X150674676Y-87003332D02*
X150750866Y-87003332D01*
X150750866Y-87003332D02*
X150865152Y-87036666D01*
X150865152Y-87036666D02*
X151322295Y-87436666D01*
X151322295Y-87436666D02*
X151322295Y-87003332D01*
X130454676Y-92064019D02*
X130454676Y-92873542D01*
X130454676Y-92873542D02*
X130502295Y-92968780D01*
X130502295Y-92968780D02*
X130549914Y-93016400D01*
X130549914Y-93016400D02*
X130645152Y-93064019D01*
X130645152Y-93064019D02*
X130835628Y-93064019D01*
X130835628Y-93064019D02*
X130930866Y-93016400D01*
X130930866Y-93016400D02*
X130978485Y-92968780D01*
X130978485Y-92968780D02*
X131026104Y-92873542D01*
X131026104Y-92873542D02*
X131026104Y-92064019D01*
X131454676Y-93016400D02*
X131597533Y-93064019D01*
X131597533Y-93064019D02*
X131835628Y-93064019D01*
X131835628Y-93064019D02*
X131930866Y-93016400D01*
X131930866Y-93016400D02*
X131978485Y-92968780D01*
X131978485Y-92968780D02*
X132026104Y-92873542D01*
X132026104Y-92873542D02*
X132026104Y-92778304D01*
X132026104Y-92778304D02*
X131978485Y-92683066D01*
X131978485Y-92683066D02*
X131930866Y-92635447D01*
X131930866Y-92635447D02*
X131835628Y-92587828D01*
X131835628Y-92587828D02*
X131645152Y-92540209D01*
X131645152Y-92540209D02*
X131549914Y-92492590D01*
X131549914Y-92492590D02*
X131502295Y-92444971D01*
X131502295Y-92444971D02*
X131454676Y-92349733D01*
X131454676Y-92349733D02*
X131454676Y-92254495D01*
X131454676Y-92254495D02*
X131502295Y-92159257D01*
X131502295Y-92159257D02*
X131549914Y-92111638D01*
X131549914Y-92111638D02*
X131645152Y-92064019D01*
X131645152Y-92064019D02*
X131883247Y-92064019D01*
X131883247Y-92064019D02*
X132026104Y-92111638D01*
X132788009Y-92540209D02*
X132930866Y-92587828D01*
X132930866Y-92587828D02*
X132978485Y-92635447D01*
X132978485Y-92635447D02*
X133026104Y-92730685D01*
X133026104Y-92730685D02*
X133026104Y-92873542D01*
X133026104Y-92873542D02*
X132978485Y-92968780D01*
X132978485Y-92968780D02*
X132930866Y-93016400D01*
X132930866Y-93016400D02*
X132835628Y-93064019D01*
X132835628Y-93064019D02*
X132454676Y-93064019D01*
X132454676Y-93064019D02*
X132454676Y-92064019D01*
X132454676Y-92064019D02*
X132788009Y-92064019D01*
X132788009Y-92064019D02*
X132883247Y-92111638D01*
X132883247Y-92111638D02*
X132930866Y-92159257D01*
X132930866Y-92159257D02*
X132978485Y-92254495D01*
X132978485Y-92254495D02*
X132978485Y-92349733D01*
X132978485Y-92349733D02*
X132930866Y-92444971D01*
X132930866Y-92444971D02*
X132883247Y-92492590D01*
X132883247Y-92492590D02*
X132788009Y-92540209D01*
X132788009Y-92540209D02*
X132454676Y-92540209D01*
X134216581Y-93064019D02*
X134216581Y-92064019D01*
X134216581Y-92540209D02*
X134788009Y-92540209D01*
X134788009Y-93064019D02*
X134788009Y-92064019D01*
X135407057Y-93064019D02*
X135311819Y-93016400D01*
X135311819Y-93016400D02*
X135264200Y-92968780D01*
X135264200Y-92968780D02*
X135216581Y-92873542D01*
X135216581Y-92873542D02*
X135216581Y-92587828D01*
X135216581Y-92587828D02*
X135264200Y-92492590D01*
X135264200Y-92492590D02*
X135311819Y-92444971D01*
X135311819Y-92444971D02*
X135407057Y-92397352D01*
X135407057Y-92397352D02*
X135549914Y-92397352D01*
X135549914Y-92397352D02*
X135645152Y-92444971D01*
X135645152Y-92444971D02*
X135692771Y-92492590D01*
X135692771Y-92492590D02*
X135740390Y-92587828D01*
X135740390Y-92587828D02*
X135740390Y-92873542D01*
X135740390Y-92873542D02*
X135692771Y-92968780D01*
X135692771Y-92968780D02*
X135645152Y-93016400D01*
X135645152Y-93016400D02*
X135549914Y-93064019D01*
X135549914Y-93064019D02*
X135407057Y-93064019D01*
X136121343Y-93016400D02*
X136216581Y-93064019D01*
X136216581Y-93064019D02*
X136407057Y-93064019D01*
X136407057Y-93064019D02*
X136502295Y-93016400D01*
X136502295Y-93016400D02*
X136549914Y-92921161D01*
X136549914Y-92921161D02*
X136549914Y-92873542D01*
X136549914Y-92873542D02*
X136502295Y-92778304D01*
X136502295Y-92778304D02*
X136407057Y-92730685D01*
X136407057Y-92730685D02*
X136264200Y-92730685D01*
X136264200Y-92730685D02*
X136168962Y-92683066D01*
X136168962Y-92683066D02*
X136121343Y-92587828D01*
X136121343Y-92587828D02*
X136121343Y-92540209D01*
X136121343Y-92540209D02*
X136168962Y-92444971D01*
X136168962Y-92444971D02*
X136264200Y-92397352D01*
X136264200Y-92397352D02*
X136407057Y-92397352D01*
X136407057Y-92397352D02*
X136502295Y-92444971D01*
X136835629Y-92397352D02*
X137216581Y-92397352D01*
X136978486Y-92064019D02*
X136978486Y-92921161D01*
X136978486Y-92921161D02*
X137026105Y-93016400D01*
X137026105Y-93016400D02*
X137121343Y-93064019D01*
X137121343Y-93064019D02*
X137216581Y-93064019D01*
X173240952Y-90574819D02*
X173240952Y-89574819D01*
X173240952Y-89574819D02*
X173574285Y-90289104D01*
X173574285Y-90289104D02*
X173907618Y-89574819D01*
X173907618Y-89574819D02*
X173907618Y-90574819D01*
X174383809Y-90574819D02*
X174383809Y-89908152D01*
X174383809Y-89574819D02*
X174336190Y-89622438D01*
X174336190Y-89622438D02*
X174383809Y-89670057D01*
X174383809Y-89670057D02*
X174431428Y-89622438D01*
X174431428Y-89622438D02*
X174383809Y-89574819D01*
X174383809Y-89574819D02*
X174383809Y-89670057D01*
X175288570Y-90527200D02*
X175193332Y-90574819D01*
X175193332Y-90574819D02*
X175002856Y-90574819D01*
X175002856Y-90574819D02*
X174907618Y-90527200D01*
X174907618Y-90527200D02*
X174859999Y-90479580D01*
X174859999Y-90479580D02*
X174812380Y-90384342D01*
X174812380Y-90384342D02*
X174812380Y-90098628D01*
X174812380Y-90098628D02*
X174859999Y-90003390D01*
X174859999Y-90003390D02*
X174907618Y-89955771D01*
X174907618Y-89955771D02*
X175002856Y-89908152D01*
X175002856Y-89908152D02*
X175193332Y-89908152D01*
X175193332Y-89908152D02*
X175288570Y-89955771D01*
X175717142Y-90574819D02*
X175717142Y-89908152D01*
X175717142Y-90098628D02*
X175764761Y-90003390D01*
X175764761Y-90003390D02*
X175812380Y-89955771D01*
X175812380Y-89955771D02*
X175907618Y-89908152D01*
X175907618Y-89908152D02*
X176002856Y-89908152D01*
X176479047Y-90574819D02*
X176383809Y-90527200D01*
X176383809Y-90527200D02*
X176336190Y-90479580D01*
X176336190Y-90479580D02*
X176288571Y-90384342D01*
X176288571Y-90384342D02*
X176288571Y-90098628D01*
X176288571Y-90098628D02*
X176336190Y-90003390D01*
X176336190Y-90003390D02*
X176383809Y-89955771D01*
X176383809Y-89955771D02*
X176479047Y-89908152D01*
X176479047Y-89908152D02*
X176621904Y-89908152D01*
X176621904Y-89908152D02*
X176717142Y-89955771D01*
X176717142Y-89955771D02*
X176764761Y-90003390D01*
X176764761Y-90003390D02*
X176812380Y-90098628D01*
X176812380Y-90098628D02*
X176812380Y-90384342D01*
X176812380Y-90384342D02*
X176764761Y-90479580D01*
X176764761Y-90479580D02*
X176717142Y-90527200D01*
X176717142Y-90527200D02*
X176621904Y-90574819D01*
X176621904Y-90574819D02*
X176479047Y-90574819D01*
X177955238Y-90527200D02*
X178098095Y-90574819D01*
X178098095Y-90574819D02*
X178336190Y-90574819D01*
X178336190Y-90574819D02*
X178431428Y-90527200D01*
X178431428Y-90527200D02*
X178479047Y-90479580D01*
X178479047Y-90479580D02*
X178526666Y-90384342D01*
X178526666Y-90384342D02*
X178526666Y-90289104D01*
X178526666Y-90289104D02*
X178479047Y-90193866D01*
X178479047Y-90193866D02*
X178431428Y-90146247D01*
X178431428Y-90146247D02*
X178336190Y-90098628D01*
X178336190Y-90098628D02*
X178145714Y-90051009D01*
X178145714Y-90051009D02*
X178050476Y-90003390D01*
X178050476Y-90003390D02*
X178002857Y-89955771D01*
X178002857Y-89955771D02*
X177955238Y-89860533D01*
X177955238Y-89860533D02*
X177955238Y-89765295D01*
X177955238Y-89765295D02*
X178002857Y-89670057D01*
X178002857Y-89670057D02*
X178050476Y-89622438D01*
X178050476Y-89622438D02*
X178145714Y-89574819D01*
X178145714Y-89574819D02*
X178383809Y-89574819D01*
X178383809Y-89574819D02*
X178526666Y-89622438D01*
X178955238Y-90574819D02*
X178955238Y-89574819D01*
X178955238Y-89574819D02*
X179193333Y-89574819D01*
X179193333Y-89574819D02*
X179336190Y-89622438D01*
X179336190Y-89622438D02*
X179431428Y-89717676D01*
X179431428Y-89717676D02*
X179479047Y-89812914D01*
X179479047Y-89812914D02*
X179526666Y-90003390D01*
X179526666Y-90003390D02*
X179526666Y-90146247D01*
X179526666Y-90146247D02*
X179479047Y-90336723D01*
X179479047Y-90336723D02*
X179431428Y-90431961D01*
X179431428Y-90431961D02*
X179336190Y-90527200D01*
X179336190Y-90527200D02*
X179193333Y-90574819D01*
X179193333Y-90574819D02*
X178955238Y-90574819D01*
X140096009Y-89700543D02*
X140096009Y-89367210D01*
X140619819Y-89224353D02*
X140619819Y-89700543D01*
X140619819Y-89700543D02*
X139619819Y-89700543D01*
X139619819Y-89700543D02*
X139619819Y-89224353D01*
X139953152Y-88938638D02*
X139953152Y-88557686D01*
X139619819Y-88795781D02*
X140476961Y-88795781D01*
X140476961Y-88795781D02*
X140572200Y-88748162D01*
X140572200Y-88748162D02*
X140619819Y-88652924D01*
X140619819Y-88652924D02*
X140619819Y-88557686D01*
X140619819Y-88224352D02*
X139619819Y-88224352D01*
X140619819Y-87795781D02*
X140096009Y-87795781D01*
X140096009Y-87795781D02*
X140000771Y-87843400D01*
X140000771Y-87843400D02*
X139953152Y-87938638D01*
X139953152Y-87938638D02*
X139953152Y-88081495D01*
X139953152Y-88081495D02*
X140000771Y-88176733D01*
X140000771Y-88176733D02*
X140048390Y-88224352D01*
X140572200Y-86938638D02*
X140619819Y-87033876D01*
X140619819Y-87033876D02*
X140619819Y-87224352D01*
X140619819Y-87224352D02*
X140572200Y-87319590D01*
X140572200Y-87319590D02*
X140476961Y-87367209D01*
X140476961Y-87367209D02*
X140096009Y-87367209D01*
X140096009Y-87367209D02*
X140000771Y-87319590D01*
X140000771Y-87319590D02*
X139953152Y-87224352D01*
X139953152Y-87224352D02*
X139953152Y-87033876D01*
X139953152Y-87033876D02*
X140000771Y-86938638D01*
X140000771Y-86938638D02*
X140096009Y-86891019D01*
X140096009Y-86891019D02*
X140191247Y-86891019D01*
X140191247Y-86891019D02*
X140286485Y-87367209D01*
X140619819Y-86462447D02*
X139953152Y-86462447D01*
X140143628Y-86462447D02*
X140048390Y-86414828D01*
X140048390Y-86414828D02*
X140000771Y-86367209D01*
X140000771Y-86367209D02*
X139953152Y-86271971D01*
X139953152Y-86271971D02*
X139953152Y-86176733D01*
X139953152Y-85843399D02*
X140619819Y-85843399D01*
X140048390Y-85843399D02*
X140000771Y-85795780D01*
X140000771Y-85795780D02*
X139953152Y-85700542D01*
X139953152Y-85700542D02*
X139953152Y-85557685D01*
X139953152Y-85557685D02*
X140000771Y-85462447D01*
X140000771Y-85462447D02*
X140096009Y-85414828D01*
X140096009Y-85414828D02*
X140619819Y-85414828D01*
X140572200Y-84557685D02*
X140619819Y-84652923D01*
X140619819Y-84652923D02*
X140619819Y-84843399D01*
X140619819Y-84843399D02*
X140572200Y-84938637D01*
X140572200Y-84938637D02*
X140476961Y-84986256D01*
X140476961Y-84986256D02*
X140096009Y-84986256D01*
X140096009Y-84986256D02*
X140000771Y-84938637D01*
X140000771Y-84938637D02*
X139953152Y-84843399D01*
X139953152Y-84843399D02*
X139953152Y-84652923D01*
X139953152Y-84652923D02*
X140000771Y-84557685D01*
X140000771Y-84557685D02*
X140096009Y-84510066D01*
X140096009Y-84510066D02*
X140191247Y-84510066D01*
X140191247Y-84510066D02*
X140286485Y-84986256D01*
X139953152Y-84224351D02*
X139953152Y-83843399D01*
X139619819Y-84081494D02*
X140476961Y-84081494D01*
X140476961Y-84081494D02*
X140572200Y-84033875D01*
X140572200Y-84033875D02*
X140619819Y-83938637D01*
X140619819Y-83938637D02*
X140619819Y-83843399D01*
X125014819Y-91381904D02*
X125824342Y-91381904D01*
X125824342Y-91381904D02*
X125919580Y-91334285D01*
X125919580Y-91334285D02*
X125967200Y-91286666D01*
X125967200Y-91286666D02*
X126014819Y-91191428D01*
X126014819Y-91191428D02*
X126014819Y-91000952D01*
X126014819Y-91000952D02*
X125967200Y-90905714D01*
X125967200Y-90905714D02*
X125919580Y-90858095D01*
X125919580Y-90858095D02*
X125824342Y-90810476D01*
X125824342Y-90810476D02*
X125014819Y-90810476D01*
X125967200Y-90381904D02*
X126014819Y-90239047D01*
X126014819Y-90239047D02*
X126014819Y-90000952D01*
X126014819Y-90000952D02*
X125967200Y-89905714D01*
X125967200Y-89905714D02*
X125919580Y-89858095D01*
X125919580Y-89858095D02*
X125824342Y-89810476D01*
X125824342Y-89810476D02*
X125729104Y-89810476D01*
X125729104Y-89810476D02*
X125633866Y-89858095D01*
X125633866Y-89858095D02*
X125586247Y-89905714D01*
X125586247Y-89905714D02*
X125538628Y-90000952D01*
X125538628Y-90000952D02*
X125491009Y-90191428D01*
X125491009Y-90191428D02*
X125443390Y-90286666D01*
X125443390Y-90286666D02*
X125395771Y-90334285D01*
X125395771Y-90334285D02*
X125300533Y-90381904D01*
X125300533Y-90381904D02*
X125205295Y-90381904D01*
X125205295Y-90381904D02*
X125110057Y-90334285D01*
X125110057Y-90334285D02*
X125062438Y-90286666D01*
X125062438Y-90286666D02*
X125014819Y-90191428D01*
X125014819Y-90191428D02*
X125014819Y-89953333D01*
X125014819Y-89953333D02*
X125062438Y-89810476D01*
X125491009Y-89048571D02*
X125538628Y-88905714D01*
X125538628Y-88905714D02*
X125586247Y-88858095D01*
X125586247Y-88858095D02*
X125681485Y-88810476D01*
X125681485Y-88810476D02*
X125824342Y-88810476D01*
X125824342Y-88810476D02*
X125919580Y-88858095D01*
X125919580Y-88858095D02*
X125967200Y-88905714D01*
X125967200Y-88905714D02*
X126014819Y-89000952D01*
X126014819Y-89000952D02*
X126014819Y-89381904D01*
X126014819Y-89381904D02*
X125014819Y-89381904D01*
X125014819Y-89381904D02*
X125014819Y-89048571D01*
X125014819Y-89048571D02*
X125062438Y-88953333D01*
X125062438Y-88953333D02*
X125110057Y-88905714D01*
X125110057Y-88905714D02*
X125205295Y-88858095D01*
X125205295Y-88858095D02*
X125300533Y-88858095D01*
X125300533Y-88858095D02*
X125395771Y-88905714D01*
X125395771Y-88905714D02*
X125443390Y-88953333D01*
X125443390Y-88953333D02*
X125491009Y-89048571D01*
X125491009Y-89048571D02*
X125491009Y-89381904D01*
X150052295Y-91323333D02*
X149252295Y-91323333D01*
X149252295Y-91323333D02*
X149252295Y-91156666D01*
X149252295Y-91156666D02*
X149290390Y-91056666D01*
X149290390Y-91056666D02*
X149366580Y-90990000D01*
X149366580Y-90990000D02*
X149442771Y-90956666D01*
X149442771Y-90956666D02*
X149595152Y-90923333D01*
X149595152Y-90923333D02*
X149709438Y-90923333D01*
X149709438Y-90923333D02*
X149861819Y-90956666D01*
X149861819Y-90956666D02*
X149938009Y-90990000D01*
X149938009Y-90990000D02*
X150014200Y-91056666D01*
X150014200Y-91056666D02*
X150052295Y-91156666D01*
X150052295Y-91156666D02*
X150052295Y-91323333D01*
X149252295Y-90723333D02*
X150052295Y-90490000D01*
X150052295Y-90490000D02*
X149252295Y-90256666D01*
X149252295Y-89823333D02*
X149823723Y-89823333D01*
X149823723Y-89823333D02*
X149938009Y-89856666D01*
X149938009Y-89856666D02*
X150014200Y-89923333D01*
X150014200Y-89923333D02*
X150052295Y-90023333D01*
X150052295Y-90023333D02*
X150052295Y-90090000D01*
X149252295Y-89190000D02*
X149252295Y-89323333D01*
X149252295Y-89323333D02*
X149290390Y-89390000D01*
X149290390Y-89390000D02*
X149328485Y-89423333D01*
X149328485Y-89423333D02*
X149442771Y-89490000D01*
X149442771Y-89490000D02*
X149595152Y-89523333D01*
X149595152Y-89523333D02*
X149899914Y-89523333D01*
X149899914Y-89523333D02*
X149976104Y-89490000D01*
X149976104Y-89490000D02*
X150014200Y-89456667D01*
X150014200Y-89456667D02*
X150052295Y-89390000D01*
X150052295Y-89390000D02*
X150052295Y-89256667D01*
X150052295Y-89256667D02*
X150014200Y-89190000D01*
X150014200Y-89190000D02*
X149976104Y-89156667D01*
X149976104Y-89156667D02*
X149899914Y-89123333D01*
X149899914Y-89123333D02*
X149709438Y-89123333D01*
X149709438Y-89123333D02*
X149633247Y-89156667D01*
X149633247Y-89156667D02*
X149595152Y-89190000D01*
X149595152Y-89190000D02*
X149557057Y-89256667D01*
X149557057Y-89256667D02*
X149557057Y-89390000D01*
X149557057Y-89390000D02*
X149595152Y-89456667D01*
X149595152Y-89456667D02*
X149633247Y-89490000D01*
X149633247Y-89490000D02*
X149709438Y-89523333D01*
X149823723Y-88856666D02*
X149823723Y-88523333D01*
X150052295Y-88923333D02*
X149252295Y-88690000D01*
X149252295Y-88690000D02*
X150052295Y-88456666D01*
D11*
X152291667Y-52304318D02*
X152291667Y-53211461D01*
X152291667Y-53211461D02*
X152231190Y-53392889D01*
X152231190Y-53392889D02*
X152110238Y-53513842D01*
X152110238Y-53513842D02*
X151928809Y-53574318D01*
X151928809Y-53574318D02*
X151807857Y-53574318D01*
X153440714Y-52304318D02*
X153198809Y-52304318D01*
X153198809Y-52304318D02*
X153077857Y-52364794D01*
X153077857Y-52364794D02*
X153017381Y-52425270D01*
X153017381Y-52425270D02*
X152896428Y-52606699D01*
X152896428Y-52606699D02*
X152835952Y-52848603D01*
X152835952Y-52848603D02*
X152835952Y-53332413D01*
X152835952Y-53332413D02*
X152896428Y-53453365D01*
X152896428Y-53453365D02*
X152956905Y-53513842D01*
X152956905Y-53513842D02*
X153077857Y-53574318D01*
X153077857Y-53574318D02*
X153319762Y-53574318D01*
X153319762Y-53574318D02*
X153440714Y-53513842D01*
X153440714Y-53513842D02*
X153501190Y-53453365D01*
X153501190Y-53453365D02*
X153561667Y-53332413D01*
X153561667Y-53332413D02*
X153561667Y-53030032D01*
X153561667Y-53030032D02*
X153501190Y-52909080D01*
X153501190Y-52909080D02*
X153440714Y-52848603D01*
X153440714Y-52848603D02*
X153319762Y-52788127D01*
X153319762Y-52788127D02*
X153077857Y-52788127D01*
X153077857Y-52788127D02*
X152956905Y-52848603D01*
X152956905Y-52848603D02*
X152896428Y-52909080D01*
X152896428Y-52909080D02*
X152835952Y-53030032D01*
D13*
X125830000Y-123825000D02*
X178870000Y-123825000D01*
X125830000Y-140245000D02*
X125830000Y-123825000D01*
X167840000Y-120975000D02*
X167840000Y-120975000D01*
X167840000Y-121075000D02*
X167840000Y-121075000D01*
X167840000Y-121075000D02*
X167840000Y-121075000D01*
X171500000Y-140245000D02*
X133200000Y-140245000D01*
X178870000Y-123825000D02*
X178870000Y-140245000D01*
X178870000Y-140245000D02*
X125830000Y-140245000D01*
X167840000Y-120975000D02*
G75*
G02*
X167840000Y-121075000I0J-50000D01*
G01*
X167840000Y-120975000D02*
G75*
G02*
X167840000Y-121075000I0J-50000D01*
G01*
X167840000Y-121075000D02*
G75*
G02*
X167840000Y-120975000I0J50000D01*
G01*
D14*
X140250000Y-61750000D02*
X140250000Y-57750000D01*
X142750000Y-61750000D02*
X142750000Y-57750000D01*
D15*
G36*
X196009752Y-119000000D02*
G01*
X196009752Y-124009753D01*
X191009243Y-124009753D01*
X186008734Y-124009753D01*
X186008734Y-119100448D01*
X186818548Y-119100448D01*
X186847727Y-119499633D01*
X186899006Y-119831878D01*
X186949626Y-120048159D01*
X187020790Y-120281505D01*
X187108368Y-120521449D01*
X187208227Y-120757521D01*
X187316239Y-120979255D01*
X187428271Y-121176181D01*
X187431508Y-121181368D01*
X187647943Y-121494521D01*
X187894276Y-121791949D01*
X188165298Y-122068112D01*
X188455798Y-122317467D01*
X188603944Y-122428377D01*
X188661729Y-122468070D01*
X188707257Y-122496455D01*
X188733027Y-122508958D01*
X188735918Y-122508818D01*
X188741415Y-122488875D01*
X188751776Y-122438397D01*
X188765879Y-122363334D01*
X188782604Y-122269635D01*
X188799210Y-122172875D01*
X188920824Y-121562483D01*
X189078596Y-120959120D01*
X189272256Y-120363490D01*
X189501538Y-119776294D01*
X189766170Y-119198234D01*
X190065885Y-118630013D01*
X190320657Y-118199221D01*
X190372017Y-118117439D01*
X190416419Y-118048744D01*
X190450364Y-117998390D01*
X190470355Y-117971631D01*
X190474065Y-117968776D01*
X190473070Y-117988308D01*
X190465603Y-118036807D01*
X190452891Y-118107078D01*
X190436161Y-118191927D01*
X190435228Y-118196484D01*
X190408281Y-118338240D01*
X190379686Y-118506741D01*
X190350937Y-118691897D01*
X190323525Y-118883614D01*
X190298943Y-119071799D01*
X190278682Y-119246360D01*
X190275430Y-119277293D01*
X190265760Y-119400709D01*
X190258643Y-119553367D01*
X190254029Y-119727786D01*
X190251872Y-119916483D01*
X190252124Y-120111977D01*
X190254737Y-120306786D01*
X190259663Y-120493427D01*
X190266855Y-120664419D01*
X190276265Y-120812279D01*
X190285869Y-120913319D01*
X190345874Y-121332505D01*
X190425803Y-121737249D01*
X190524499Y-122123362D01*
X190640805Y-122486657D01*
X190773564Y-122822945D01*
X190871257Y-123031299D01*
X190944954Y-123177875D01*
X191171203Y-123177775D01*
X191295642Y-123174186D01*
X191437732Y-123164472D01*
X191578932Y-123150070D01*
X191648361Y-123140837D01*
X192025283Y-123067192D01*
X192392750Y-122959103D01*
X192748130Y-122818125D01*
X193088791Y-122645814D01*
X193412102Y-122443724D01*
X193715431Y-122213411D01*
X193996147Y-121956430D01*
X194251618Y-121674335D01*
X194357452Y-121539867D01*
X194588089Y-121204588D01*
X194783460Y-120858395D01*
X194943808Y-120500670D01*
X195069377Y-120130796D01*
X195160409Y-119748156D01*
X195216318Y-119360480D01*
X195231144Y-119110251D01*
X195228888Y-118839947D01*
X195210496Y-118561777D01*
X195176909Y-118287946D01*
X195129073Y-118030662D01*
X195106103Y-117934894D01*
X194992566Y-117567516D01*
X194845652Y-117213958D01*
X194667035Y-116876277D01*
X194458389Y-116556528D01*
X194221388Y-116256767D01*
X193957706Y-115979050D01*
X193669016Y-115725433D01*
X193356992Y-115497970D01*
X193023309Y-115298719D01*
X192913319Y-115241796D01*
X192821667Y-115197637D01*
X192720962Y-115151735D01*
X192617748Y-115106785D01*
X192518571Y-115065479D01*
X192429977Y-115030511D01*
X192358510Y-115004576D01*
X192310716Y-114990367D01*
X192297853Y-114988501D01*
X192289456Y-115005674D01*
X192279121Y-115052247D01*
X192268250Y-115120796D01*
X192259553Y-115191529D01*
X192227589Y-115408539D01*
X192177947Y-115624816D01*
X192108582Y-115846746D01*
X192017448Y-116080716D01*
X191902502Y-116333109D01*
X191877538Y-116384207D01*
X191765784Y-116597039D01*
X191641252Y-116810411D01*
X191511522Y-117011911D01*
X191393537Y-117176867D01*
X191310964Y-117285539D01*
X191341295Y-117407944D01*
X191360227Y-117483663D01*
X191378650Y-117556241D01*
X191390324Y-117601345D01*
X191409022Y-117672341D01*
X191501265Y-117576132D01*
X191547298Y-117530507D01*
X191583190Y-117499367D01*
X191601931Y-117488724D01*
X191602700Y-117489114D01*
X191605300Y-117515647D01*
X191591825Y-117568570D01*
X191564829Y-117642340D01*
X191526865Y-117731410D01*
X191480487Y-117830236D01*
X191428248Y-117933271D01*
X191372701Y-118034971D01*
X191316399Y-118129790D01*
X191285793Y-118177365D01*
X191209424Y-118287103D01*
X191142126Y-118374122D01*
X191085565Y-118437280D01*
X191041406Y-118475439D01*
X191011315Y-118487456D01*
X190996958Y-118472192D01*
X191000002Y-118428506D01*
X191020837Y-118358779D01*
X191061012Y-118247122D01*
X191000302Y-117999653D01*
X190977185Y-117908305D01*
X190955989Y-117829819D01*
X190938720Y-117771246D01*
X190927382Y-117739640D01*
X190925548Y-117736589D01*
X190905123Y-117738797D01*
X190867975Y-117761344D01*
X190840214Y-117783720D01*
X190779977Y-117834946D01*
X190713200Y-117889246D01*
X190690501Y-117907049D01*
X190612079Y-117967653D01*
X190510651Y-117909622D01*
X190455953Y-117876653D01*
X190415070Y-117848903D01*
X190398478Y-117834204D01*
X190397415Y-117810140D01*
X190402561Y-117759346D01*
X190412406Y-117691247D01*
X190425440Y-117615271D01*
X190440153Y-117540845D01*
X190455037Y-117477395D01*
X190456470Y-117472041D01*
X190459454Y-117456951D01*
X190455216Y-117447903D01*
X190438592Y-117445407D01*
X190404418Y-117449973D01*
X190347529Y-117462110D01*
X190262763Y-117482328D01*
X190202166Y-117497130D01*
X189937045Y-117562042D01*
X189850534Y-117657113D01*
X189801813Y-117707680D01*
X189769735Y-117732406D01*
X189748733Y-117735005D01*
X189741399Y-117729934D01*
X189732388Y-117704614D01*
X189739110Y-117659259D01*
X189762547Y-117590937D01*
X189803681Y-117496719D01*
X189854967Y-117390718D01*
X189903420Y-117300154D01*
X189960715Y-117203686D01*
X190023464Y-117105903D01*
X190088279Y-117011398D01*
X190151771Y-116924762D01*
X190210551Y-116850586D01*
X190261231Y-116793460D01*
X190300422Y-116757977D01*
X190324736Y-116748728D01*
X190327528Y-116750443D01*
X190329886Y-116774400D01*
X190320713Y-116821909D01*
X190304470Y-116875225D01*
X190285659Y-116931833D01*
X190274435Y-116971473D01*
X190273087Y-116985007D01*
X190292794Y-116980677D01*
X190340540Y-116968970D01*
X190408581Y-116951809D01*
X190469085Y-116936308D01*
X190658006Y-116887609D01*
X190792276Y-116615553D01*
X190931320Y-116355354D01*
X191086737Y-116103115D01*
X191255068Y-115862969D01*
X191432853Y-115639046D01*
X191616632Y-115435478D01*
X191802946Y-115256395D01*
X191988334Y-115105930D01*
X192141820Y-115004083D01*
X192220685Y-114957508D01*
X192058632Y-114918457D01*
X191661032Y-114840017D01*
X191268968Y-114797900D01*
X190880963Y-114792128D01*
X190495543Y-114822724D01*
X190111234Y-114889709D01*
X189867772Y-114950955D01*
X189511673Y-115069611D01*
X189165316Y-115221535D01*
X188832694Y-115404200D01*
X188517796Y-115615081D01*
X188224612Y-115851649D01*
X187957133Y-116111380D01*
X187853841Y-116226273D01*
X187604143Y-116542937D01*
X187388156Y-116874252D01*
X187206209Y-117218981D01*
X187058629Y-117575883D01*
X186945745Y-117943720D01*
X186867885Y-118321253D01*
X186825376Y-118707242D01*
X186818548Y-119100448D01*
X186008734Y-119100448D01*
X186008734Y-119000000D01*
X186008734Y-113990248D01*
X191009243Y-113990248D01*
X196009752Y-113990248D01*
X196009752Y-119000000D01*
G37*
D12*
X120480000Y-86310000D02*
X121750000Y-86310000D01*
X120480000Y-93930000D02*
X120480000Y-86310000D01*
X121750000Y-81230000D02*
X182710000Y-81230000D01*
X121750000Y-93930000D02*
X120480000Y-93930000D01*
X121750000Y-99010000D02*
X121750000Y-81230000D01*
X126830000Y-86310000D02*
X121750000Y-86310000D01*
X126830000Y-93930000D02*
X121750000Y-93930000D01*
X126830000Y-93930000D02*
X126830000Y-86310000D01*
X128049200Y-93419200D02*
X130589200Y-93419200D01*
X128049200Y-93419200D02*
X140749200Y-93419200D01*
X128049200Y-95959200D02*
X128049200Y-93419200D01*
X130589200Y-93419200D02*
X130589200Y-95959200D01*
X134980000Y-83768400D02*
X134980000Y-84018400D01*
X134980000Y-84018400D02*
X134980000Y-90018400D01*
X134980000Y-90018400D02*
X138980000Y-90018400D01*
X138980000Y-83768400D02*
X134980000Y-83768400D01*
X138980000Y-90018400D02*
X138980000Y-83768400D01*
X140749200Y-93419200D02*
X140749200Y-95959200D01*
X140749200Y-95959200D02*
X128049200Y-95959200D01*
X144610000Y-83770000D02*
X144610000Y-96470000D01*
X144610000Y-96470000D02*
X157310000Y-96470000D01*
X157310000Y-83770000D02*
X144610000Y-83770000D01*
X157310000Y-96470000D02*
X157310000Y-83770000D01*
X162390000Y-88850000D02*
X166200000Y-88850000D01*
X162390000Y-91390000D02*
X162390000Y-88850000D01*
X166200000Y-88850000D02*
X166200000Y-91390000D01*
X166200000Y-91390000D02*
X162390000Y-91390000D01*
X170010000Y-83770000D02*
X170010000Y-96470000D01*
X170010000Y-96470000D02*
X182710000Y-96470000D01*
X181440000Y-85040000D02*
X181440000Y-95200000D01*
X181440000Y-95200000D02*
X182710000Y-95200000D01*
X182710000Y-81230000D02*
X182710000Y-99010000D01*
X182710000Y-83770000D02*
X170010000Y-83770000D01*
X182710000Y-85040000D02*
X181440000Y-85040000D01*
X182710000Y-99010000D02*
X121750000Y-99010000D01*
X165193026Y-90120000D02*
G75*
G02*
X163396974Y-90120000I-898026J0D01*
G01*
X163396974Y-90120000D02*
G75*
G02*
X165193026Y-90120000I898026J0D01*
G01*
D13*
X153141000Y-89432000D02*
X152887000Y-89686000D01*
X152633000Y-89305000D01*
X152887000Y-89051000D01*
X153141000Y-89432000D01*
G36*
X153141000Y-89432000D02*
G01*
X152887000Y-89686000D01*
X152633000Y-89305000D01*
X152887000Y-89051000D01*
X153141000Y-89432000D01*
G37*
X153522000Y-89940000D02*
X153268000Y-90194000D01*
X153014000Y-89813000D01*
X153268000Y-89559000D01*
X153522000Y-89940000D01*
G36*
X153522000Y-89940000D02*
G01*
X153268000Y-90194000D01*
X153014000Y-89813000D01*
X153268000Y-89559000D01*
X153522000Y-89940000D01*
G37*
X153903000Y-89559000D02*
X153649000Y-89813000D01*
X153395000Y-89432000D01*
X153649000Y-89178000D01*
X153903000Y-89559000D01*
G36*
X153903000Y-89559000D02*
G01*
X153649000Y-89813000D01*
X153395000Y-89432000D01*
X153649000Y-89178000D01*
X153903000Y-89559000D01*
G37*
X153903000Y-90448000D02*
X153649000Y-90702000D01*
X153395000Y-90321000D01*
X153649000Y-90067000D01*
X153903000Y-90448000D01*
G36*
X153903000Y-90448000D02*
G01*
X153649000Y-90702000D01*
X153395000Y-90321000D01*
X153649000Y-90067000D01*
X153903000Y-90448000D01*
G37*
X154284000Y-90067000D02*
X154030000Y-90321000D01*
X153776000Y-89940000D01*
X154030000Y-89686000D01*
X154284000Y-90067000D01*
G36*
X154284000Y-90067000D02*
G01*
X154030000Y-90321000D01*
X153776000Y-89940000D01*
X154030000Y-89686000D01*
X154284000Y-90067000D01*
G37*
X154665000Y-90575000D02*
X154411000Y-90829000D01*
X154157000Y-90448000D01*
X154411000Y-90194000D01*
X154665000Y-90575000D01*
G36*
X154665000Y-90575000D02*
G01*
X154411000Y-90829000D01*
X154157000Y-90448000D01*
X154411000Y-90194000D01*
X154665000Y-90575000D01*
G37*
X155046000Y-90194000D02*
X154792000Y-90448000D01*
X154538000Y-90067000D01*
X154792000Y-89813000D01*
X155046000Y-90194000D01*
G36*
X155046000Y-90194000D02*
G01*
X154792000Y-90448000D01*
X154538000Y-90067000D01*
X154792000Y-89813000D01*
X155046000Y-90194000D01*
G37*
X155427000Y-89813000D02*
X155173000Y-90067000D01*
X154919000Y-89686000D01*
X155173000Y-89432000D01*
X155427000Y-89813000D01*
G36*
X155427000Y-89813000D02*
G01*
X155173000Y-90067000D01*
X154919000Y-89686000D01*
X155173000Y-89432000D01*
X155427000Y-89813000D01*
G37*
X143370000Y-46475000D02*
X143370000Y-46475000D01*
X143470000Y-46475000D02*
X143470000Y-46475000D01*
D14*
X144750000Y-42375000D02*
X160680000Y-42375000D01*
X144750000Y-48200000D02*
X144750000Y-42375000D01*
X144750000Y-63625000D02*
X144750000Y-51400000D01*
X160680000Y-42375000D02*
X160680000Y-48200000D01*
X160680000Y-51400000D02*
X160680000Y-63625000D01*
X160680000Y-63625000D02*
X144750000Y-63625000D01*
D13*
X143370000Y-46475000D02*
G75*
G02*
X143470000Y-46475000I50000J0D01*
G01*
X143470000Y-46475000D02*
G75*
G02*
X143370000Y-46475000I-50000J0D01*
G01*
M02*
